<svg viewBox="0 0 145 86" version="1.1" xmlns="http://www.w3.org/2000/svg" xmlns:xlink="http://www.w3.org/1999/xlink" overflow="visible" id="llywfwd"><desc>Engraved by Verovio 6.1.0-682d606</desc><defs><g id="E901-llywfwd"><path transform="scale(1,-1)" d="M144 488c30 28 83 110 83 176c0 77 -39 150 -104 150c-15 0 -33 -6 -61 -34c-15 -15 -23 -44 -23 -79c0 -44 14 -96 43 -133c23 -29 44 -58 62 -80zM159 69c-57 0 -104 -31 -104 -98c0 -61 35 -63 51 -75c8 0 23 52 39 92l32 80c-6 1 -12 1 -18 1zM256 -25 c0 -76 -24 -122 -98 -122h-3c-28 0 -66 7 -84 15c-38 17 -71 55 -71 112c0 55 56 114 124 123c25 3 49 8 61 8c12 33 26 89 26 128c0 104 -55 180 -76 211c-51 -65 -79 -110 -90 -178c-1 -6 -4 -25 -4 -46c0 -18 2 -38 10 -50c5 -7 7 -16 7 -24c0 -13 -6 -24 -15 -24 c-5 0 -12 5 -19 17c-12 21 -24 38 -24 96c0 77 23 115 54 151c38 44 26 28 65 68l1 -1c0 3 -16 27 -60 79c-19 22 -58 58 -58 145c0 76 30 100 53 123c25 25 57 38 102 38c62 0 110 -83 110 -168c0 -13 -2 -26 -4 -39c-10 -52 -83 -130 -111 -163c24 -38 8 -3 55 -91 c34 -63 42 -84 42 -119c0 -10 -1 -22 -2 -37c-4 -63 -11 -76 -20 -116c7 0 12 1 21 -1c14 -4 20 -11 20 -19c0 -19 -30 -19 -52 -24c-6 -13 -67 -174 -67 -181c0 -2 9 -4 19 -4c25 0 41 21 56 73c8 28 14 39 22 39s10 -8 10 -19z"/></g><g id="E9F0-llywfwd"><path transform="scale(1,-1)" d="M0 500h40v-1000h-40v1000zM90 500h40v-1000h-40v1000z"/></g><g id="E9F2-llywfwd"><path transform="scale(1,-1)" d="M0 250h40v-500h-40v500z"/></g><g id="E9F3-llywfwd"><path transform="scale(1,-1)" d="M0 250h40v-250h-40v250z"/></g><g id="E93C-llywfwd"><path transform="scale(1,-1)" d="M156 195l156 -195l-156 -195l-156 195zM127 110l-57 -71l115 -149l57 71z"/></g><g id="E9F4-llywfwd"><path transform="scale(1,-1)" d="M0 250h40v-140h-40v140z"/></g><g id="E93E-llywfwd"><path transform="scale(1,-1)" d="M0 760h30v-760h-30v760z"/></g><g id="E9F5-llywfwd"><path transform="scale(1,-1)" d="M0 140h40v-140h-40v140z"/></g><g id="E93D-llywfwd"><path transform="scale(1,-1)" d="M156 195l156 -195l-156 -195l-156 195z"/></g><g id="E9F6-llywfwd"><path transform="scale(1,-1)" d="M40 96v-96h-40v140h40l78 -69h-48z"/></g><g id="E949-llywfwd"><path transform="scale(1,-1)" d="M0 0v760h30l150 -259l-26 -15l-124 214v-700h-30z"/></g><g id="E9F7-llywfwd"><path transform="scale(1,-1)" d="M78 96l-30 -25h-48l78 69h40v-140h-40v96z"/></g><g id="E94B-llywfwd"><path transform="scale(1,-1)" d="M0 0v760h30l150 -259l-26 -15l-124 214v-80l150 -259l-26 -15l-124 214v-560h-30z"/></g><g id="E9F8-llywfwd"><path transform="scale(1,-1)" d="M78 96l-30 -25h-48l78 69h40v-140h-40v39l-30 -25h-48l78 69v13z"/></g></defs><style type="text/css">#llywfwd g.ending, #llywfwd g.fing, #llywfwd g.reh, #llywfwd g.tempo {font-weight:bold;}#llywfwd g.dir, #llywfwd g.dynam, #llywfwd g.mNum {font-style:italic;}#llywfwd g.label {font-weight:normal;}#llywfwd ellipse, #llywfwd path, #llywfwd polygon, #llywfwd polyline, #llywfwd rect {stroke:currentColor}</style><svg class="definition-scale" color="black" font-family="Times, serif" viewBox="0 0 14470 8560"><g class="page-margin" transform="translate(500, 500)"><g data-id="m1jbh7d9" data-class="mdiv" class="mdiv pageMilestone"/><g data-id="n13v1zyt" data-class="score" class="score pageMilestone"/><g data-id="g1l06kga" data-class="system" class="system"><path d="M13 540 L13 3060" stroke-width="27"/><g data-id="ingjbe0" data-class="section" class="section systemMilestone"/><g data-id="sxiaq0i" data-class="staff" class="staff"><path d="M0 540 L13282 540" stroke-width="13"/><path d="M0 720 L13282 720" stroke-width="13"/><path d="M0 900 L13282 900" stroke-width="13"/><path d="M0 1080 L13282 1080" stroke-width="13"/><path d="M0 1260 L13282 1260" stroke-width="13"/><g data-id="y6ntbm2" data-class="clef" class="clef"><use href="#E901-llywfwd" transform="translate(117, 1080) scale(0.72, 0.72)"/></g><g data-id="zr1ewl2" data-class="keySig" class="keySig"/><g data-id="t1eotrhn" data-class="layer" class="layer"><g data-id="u1k4tioz" data-class="note" class="note"><g data-class="notehead" class="notehead"><polygon points="507,1170 935,1170 935,1220 507,1220"/><polygon points="507,1350 935,1350 935,1300 507,1300"/><rect x="489" y="1140" height="240" width="18"/></g><g data-class="stem" class="stem"><rect x="935" y="630" height="750" width="18"/></g></g></g></g><g data-id="c1jgmake" data-class="staff" class="staff"><path d="M0 2340 L13282 2340" stroke-width="13"/><path d="M0 2520 L13282 2520" stroke-width="13"/><path d="M0 2700 L13282 2700" stroke-width="13"/><path d="M0 2880 L13282 2880" stroke-width="13"/><path d="M0 3060 L13282 3060" stroke-width="13"/><g data-id="aeh2od3" data-class="clef" class="clef"><use href="#E901-llywfwd" transform="translate(117, 2880) scale(0.72, 0.72)"/></g><g data-id="bf3klt7" data-class="keySig" class="keySig"/><g data-id="d1400uzz" data-class="layer" class="layer"><g data-id="e1mf8lzx" data-class="rest" class="rest"><use href="#E9F0-llywfwd" transform="translate(489, 2700) scale(0.72, 0.72)"/></g></g></g></g><g data-id="j1brs0hf" data-class="system" class="system"><path d="M13 4500 L13 7020" stroke-width="27"/><g data-id="e145hkr3" data-class="staff" class="staff"><path d="M0 4500 L6388 4500" stroke-width="13"/><path d="M0 4680 L6388 4680" stroke-width="13"/><path d="M0 4860 L6388 4860" stroke-width="13"/><path d="M0 5040 L6388 5040" stroke-width="13"/><path d="M0 5220 L6388 5220" stroke-width="13"/><g data-id="o1thecra" data-class="clef" class="clef"><use href="#E901-llywfwd" transform="translate(117, 5040) scale(0.72, 0.72)"/></g><g data-id="p1dnix3i" data-class="keySig" class="keySig"/><g data-id="f1f04gx5" data-class="layer" class="layer"><g data-id="vnngexz" data-class="note" class="note"><g data-class="notehead" class="notehead"><polygon points="507,5130 703,5130 703,5180 507,5180"/><polygon points="507,5310 703,5310 703,5260 507,5260"/><rect x="489" y="5100" height="240" width="18"/></g><g data-class="stem" class="stem"><rect x="703" y="4590" height="750" width="18"/></g></g></g></g><g data-id="uy5kc4n" data-class="staff" class="staff"><path d="M0 6300 L6388 6300" stroke-width="13"/><path d="M0 6480 L6388 6480" stroke-width="13"/><path d="M0 6660 L6388 6660" stroke-width="13"/><path d="M0 6840 L6388 6840" stroke-width="13"/><path d="M0 7020 L6388 7020" stroke-width="13"/><g data-id="q1ngtjun" data-class="clef" class="clef"><use href="#E901-llywfwd" transform="translate(117, 6840) scale(0.72, 0.72)"/></g><g data-id="r1vmqzdm" data-class="keySig" class="keySig"/><g data-id="v1z0xa1p" data-class="layer" class="layer"><g data-id="f1ysinev" data-class="rest" class="rest"><use href="#E9F2-llywfwd" transform="translate(489, 6660) scale(0.72, 0.72)"/></g></g></g><g data-id="g1r8v8vz" data-class="staff" class="staff"><path d="M6388 4500 L9528 4500" stroke-width="13"/><path d="M6388 4680 L9528 4680" stroke-width="13"/><path d="M6388 4860 L9528 4860" stroke-width="13"/><path d="M6388 5040 L9528 5040" stroke-width="13"/><path d="M6388 5220 L9528 5220" stroke-width="13"/><g data-id="hcbapd2" data-class="layer" class="layer"><g data-id="wx3lxqe" data-class="note" class="note"><g data-class="notehead" class="notehead"><polygon points="6496,5130 6692,5130 6692,5180 6496,5180"/><polygon points="6496,5310 6692,5310 6692,5260 6496,5260"/><rect x="6478" y="5100" height="240" width="18"/><rect x="6692" y="5100" height="240" width="18"/></g></g></g></g><g data-id="w1xguhal" data-class="staff" class="staff"><path d="M6388 6300 L9528 6300" stroke-width="13"/><path d="M6388 6480 L9528 6480" stroke-width="13"/><path d="M6388 6660 L9528 6660" stroke-width="13"/><path d="M6388 6840 L9528 6840" stroke-width="13"/><path d="M6388 7020 L9528 7020" stroke-width="13"/><g data-id="x1scc7t0" data-class="layer" class="layer"><g data-id="gwd852" data-class="rest" class="rest"><use href="#E9F3-llywfwd" transform="translate(6478, 6660) scale(0.72, 0.72)"/><g data-class="ledgerLines" class="ledgerLines"/></g></g></g><g data-id="ii5lltb" data-class="staff" class="staff"><path d="M9528 4500 L11193 4500" stroke-width="13"/><path d="M9528 4680 L11193 4680" stroke-width="13"/><path d="M9528 4860 L11193 4860" stroke-width="13"/><path d="M9528 5040 L11193 5040" stroke-width="13"/><path d="M9528 5220 L11193 5220" stroke-width="13"/><g data-id="j2prqkv" data-class="layer" class="layer"><g data-id="x37b9cy" data-class="note" class="note"><g data-class="notehead" class="notehead"><use href="#E93C-llywfwd" transform="translate(9618, 5220) scale(0.72, 0.72)"/></g></g></g></g><g data-id="y18omv8l" data-class="staff" class="staff"><path d="M9528 6300 L11193 6300" stroke-width="13"/><path d="M9528 6480 L11193 6480" stroke-width="13"/><path d="M9528 6660 L11193 6660" stroke-width="13"/><path d="M9528 6840 L11193 6840" stroke-width="13"/><path d="M9528 7020 L11193 7020" stroke-width="13"/><g data-id="z15cee6m" data-class="layer" class="layer"><g data-id="hx34vkp" data-class="rest" class="rest"><use href="#E9F4-llywfwd" transform="translate(9618, 6660) scale(0.72, 0.72)"/><g data-class="ledgerLines" class="ledgerLines"/></g></g></g><g data-id="k1nnkjtq" data-class="staff" class="staff"><path d="M11193 4500 L12089 4500" stroke-width="13"/><path d="M11193 4680 L12089 4680" stroke-width="13"/><path d="M11193 4860 L12089 4860" stroke-width="13"/><path d="M11193 5040 L12089 5040" stroke-width="13"/><path d="M11193 5220 L12089 5220" stroke-width="13"/><g data-id="l7tli8d" data-class="layer" class="layer"><g data-id="y116a99g" data-class="note" class="note"><g data-class="notehead" class="notehead"><use href="#E93C-llywfwd" transform="translate(11283, 5220) scale(0.72, 0.72)"/></g><g data-id="a1827h5" data-class="stem" class="stem"><use href="#E93E-llywfwd" transform="translate(11385, 5140) scale(0.72, 0.72)"/></g></g></g></g><g data-id="aodkloo" data-class="staff" class="staff"><path d="M11193 6300 L12089 6300" stroke-width="13"/><path d="M11193 6480 L12089 6480" stroke-width="13"/><path d="M11193 6660 L12089 6660" stroke-width="13"/><path d="M11193 6840 L12089 6840" stroke-width="13"/><path d="M11193 7020 L12089 7020" stroke-width="13"/><g data-id="b1dp3ilu" data-class="layer" class="layer"><g data-id="i1lj1tuy" data-class="rest" class="rest"><use href="#E9F5-llywfwd" transform="translate(11283, 6660) scale(0.72, 0.72)"/><g data-class="ledgerLines" class="ledgerLines"/></g></g></g><g data-id="m12v1rry" data-class="staff" class="staff"><path d="M12089 4500 L12708 4500" stroke-width="13"/><path d="M12089 4680 L12708 4680" stroke-width="13"/><path d="M12089 4860 L12708 4860" stroke-width="13"/><path d="M12089 5040 L12708 5040" stroke-width="13"/><path d="M12089 5220 L12708 5220" stroke-width="13"/><g data-id="n1xxz8eu" data-class="layer" class="layer"><g data-id="z1vpkcdj" data-class="note" class="note"><g data-class="notehead" class="notehead"><use href="#E93D-llywfwd" transform="translate(12179, 5220) scale(0.72, 0.72)"/></g><g data-id="b7rt81x" data-class="stem" class="stem"><use href="#E93E-llywfwd" transform="translate(12281, 5140) scale(0.72, 0.72)"/></g></g></g></g><g data-id="ce5mgu" data-class="staff" class="staff"><path d="M12089 6300 L12708 6300" stroke-width="13"/><path d="M12089 6480 L12708 6480" stroke-width="13"/><path d="M12089 6660 L12708 6660" stroke-width="13"/><path d="M12089 6840 L12708 6840" stroke-width="13"/><path d="M12089 7020 L12708 7020" stroke-width="13"/><g data-id="dku9v5p" data-class="layer" class="layer"><g data-id="j1gforn6" data-class="rest" class="rest"><use href="#E9F6-llywfwd" transform="translate(12179, 6660) scale(0.72, 0.72)"/></g></g></g><g data-id="o1yuqndf" data-class="staff" class="staff"><path d="M12708 4500 L13150 4500" stroke-width="13"/><path d="M12708 4680 L13150 4680" stroke-width="13"/><path d="M12708 4860 L13150 4860" stroke-width="13"/><path d="M12708 5040 L13150 5040" stroke-width="13"/><path d="M12708 5220 L13150 5220" stroke-width="13"/><g data-id="pfbgyrb" data-class="layer" class="layer"><g data-id="a1x0iuo0" data-class="note" class="note"><g data-class="notehead" class="notehead"><use href="#E93D-llywfwd" transform="translate(12798, 5220) scale(0.72, 0.72)"/></g><g data-id="cv55ddg" data-class="stem" class="stem"><use href="#E949-llywfwd" transform="translate(12900, 5140) scale(0.72, 0.72)"/></g></g></g></g><g data-id="epu9nxc" data-class="staff" class="staff"><path d="M12708 6300 L13150 6300" stroke-width="13"/><path d="M12708 6480 L13150 6480" stroke-width="13"/><path d="M12708 6660 L13150 6660" stroke-width="13"/><path d="M12708 6840 L13150 6840" stroke-width="13"/><path d="M12708 7020 L13150 7020" stroke-width="13"/><g data-id="fl6cel2" data-class="layer" class="layer"><g data-id="kjbe6r4" data-class="rest" class="rest"><use href="#E9F7-llywfwd" transform="translate(12798, 6660) scale(0.72, 0.72)"/></g></g></g><g data-id="q19fa9xf" data-class="staff" class="staff"><path d="M13150 4500 L13471 4500" stroke-width="13"/><path d="M13150 4680 L13471 4680" stroke-width="13"/><path d="M13150 4860 L13471 4860" stroke-width="13"/><path d="M13150 5040 L13471 5040" stroke-width="13"/><path d="M13150 5220 L13471 5220" stroke-width="13"/><g data-id="ruydju5" data-class="layer" class="layer"><g data-id="b85utf5" data-class="note" class="note"><g data-class="notehead" class="notehead"><use href="#E93D-llywfwd" transform="translate(13240, 5220) scale(0.72, 0.72)"/></g><g data-id="d3h1joo" data-class="stem" class="stem"><use href="#E94B-llywfwd" transform="translate(13342, 5140) scale(0.72, 0.72)"/></g></g></g></g><g data-id="g1w3pvn5" data-class="staff" class="staff"><path d="M13150 6300 L13471 6300" stroke-width="13"/><path d="M13150 6480 L13471 6480" stroke-width="13"/><path d="M13150 6660 L13471 6660" stroke-width="13"/><path d="M13150 6840 L13471 6840" stroke-width="13"/><path d="M13150 7020 L13471 7020" stroke-width="13"/><g data-id="hh1y9p1" data-class="layer" class="layer"><g data-id="l1rq0sxx" data-class="rest" class="rest"><use href="#E9F8-llywfwd" transform="translate(13240, 6660) scale(0.72, 0.72)"/></g></g></g><g data-id="teriff5" data-class="systemMilestoneEnd" class="systemMilestoneEnd ingjbe0"/></g><g data-id="udcd7ef" data-class="pageMilestoneEnd" class="pageMilestoneEnd n13v1zyt"/><g data-id="v1y9l8pv" data-class="pageMilestoneEnd" class="pageMilestoneEnd m1jbh7d9"/></g></svg></svg>