<svg viewBox="0 0 144 86" version="1.1" xmlns="http://www.w3.org/2000/svg" xmlns:xlink="http://www.w3.org/1999/xlink" overflow="visible" id="g1uq4ffk"><desc>Engraved by Verovio 6.0.1-ffbc336</desc><defs><g id="E901-g1uq4ffk"><path transform="scale(1,-1)" d="M144 488c30 28 83 110 83 176c0 77 -39 150 -104 150c-15 0 -33 -6 -61 -34c-15 -15 -23 -44 -23 -79c0 -44 14 -96 43 -133c23 -29 44 -58 62 -80zM159 69c-57 0 -104 -31 -104 -98c0 -61 35 -63 51 -75c8 0 23 52 39 92l32 80c-6 1 -12 1 -18 1zM256 -25 c0 -76 -24 -122 -98 -122h-3c-28 0 -66 7 -84 15c-38 17 -71 55 -71 112c0 55 56 114 124 123c25 3 49 8 61 8c12 33 26 89 26 128c0 104 -55 180 -76 211c-51 -65 -79 -110 -90 -178c-1 -6 -4 -25 -4 -46c0 -18 2 -38 10 -50c5 -7 7 -16 7 -24c0 -13 -6 -24 -15 -24 c-5 0 -12 5 -19 17c-12 21 -24 38 -24 96c0 77 23 115 54 151c38 44 26 28 65 68l1 -1c0 3 -16 27 -60 79c-19 22 -58 58 -58 145c0 76 30 100 53 123c25 25 57 38 102 38c62 0 110 -83 110 -168c0 -13 -2 -26 -4 -39c-10 -52 -83 -130 -111 -163c24 -38 8 -3 55 -91 c34 -63 42 -84 42 -119c0 -10 -1 -22 -2 -37c-4 -63 -11 -76 -20 -116c7 0 12 1 21 -1c14 -4 20 -11 20 -19c0 -19 -30 -19 -52 -24c-6 -13 -67 -174 -67 -181c0 -2 9 -4 19 -4c25 0 41 21 56 73c8 28 14 39 22 39s10 -8 10 -19z"/></g><g id="E93C-g1uq4ffk"><path transform="scale(1,-1)" d="M156 195l156 -195l-156 -195l-156 195zM127 110l-57 -71l115 -149l57 71z"/></g><g id="E93E-g1uq4ffk"><path transform="scale(1,-1)" d="M0 760h30v-760h-30v760z"/></g></defs><style type="text/css">#g1uq4ffk g.ending, #g1uq4ffk g.fing, #g1uq4ffk g.reh, #g1uq4ffk g.tempo {font-weight:bold;}#g1uq4ffk g.dir, #g1uq4ffk g.dynam, #g1uq4ffk g.mNum {font-style:italic;}#g1uq4ffk g.label {font-weight:normal;}#g1uq4ffk ellipse, #g1uq4ffk path, #g1uq4ffk polygon, #g1uq4ffk polyline, #g1uq4ffk rect {stroke:currentColor}</style><svg class="definition-scale" color="black" font-family="Times, serif" viewBox="0 0 14390 8560"><g class="page-margin" transform="translate(500, 500)"><g data-id="hihpp0e" data-class="mdiv" class="mdiv pageMilestone"/><g data-id="ije3i2v" data-class="score" class="score pageMilestone"/><g data-id="lre0sin" data-class="system" class="system"><path d="M13 540 L13 3060" stroke-width="27"/><g data-id="f9pkb11" data-class="section" class="section systemMilestone"/><g data-id="p181is8l" data-class="staff" class="staff"><path d="M0 540 L13398 540" stroke-width="13"/><path d="M0 720 L13398 720" stroke-width="13"/><path d="M0 900 L13398 900" stroke-width="13"/><path d="M0 1080 L13398 1080" stroke-width="13"/><path d="M0 1260 L13398 1260" stroke-width="13"/><g data-id="vp7o6lu" data-class="clef" class="clef"><use href="#E901-g1uq4ffk" transform="translate(117, 1080) scale(0.72, 0.72)"/></g><g data-id="w1afj1lw" data-class="keySig" class="keySig"/><g data-id="q1kw1mls" data-class="layer" class="layer"><g data-id="r1m80j2n" data-class="note" class="note"><g data-class="notehead" class="notehead"><polygon points="507,1170 703,1170 703,1220 507,1220"/><polygon points="507,1350 703,1350 703,1300 507,1300"/><rect x="489" y="1140" height="240" width="18"/></g><g data-class="stem" class="stem"><rect x="703" y="630" height="750" width="18"/></g></g><g data-id="s6bza2s" data-class="barLine" class="barLine"><ellipse cx="13371" cy="630" rx="27" ry="27"/><ellipse cx="13371" cy="810" rx="27" ry="27"/><ellipse cx="13371" cy="990" rx="27" ry="27"/><ellipse cx="13371" cy="1170" rx="27" ry="27"/></g></g></g><g data-id="vn13ta0" data-class="staff" class="staff"><path d="M0 2340 L13398 2340" stroke-width="13"/><path d="M0 2520 L13398 2520" stroke-width="13"/><path d="M0 2700 L13398 2700" stroke-width="13"/><path d="M0 2880 L13398 2880" stroke-width="13"/><path d="M0 3060 L13398 3060" stroke-width="13"/><g data-id="xijfmlb" data-class="clef" class="clef"><use href="#E901-g1uq4ffk" transform="translate(117, 2880) scale(0.72, 0.72)"/></g><g data-id="yjz2mo9" data-class="keySig" class="keySig"/><g data-id="w123e4xm" data-class="layer" class="layer"><g data-id="x192y9an" data-class="note" class="note"><g data-class="notehead" class="notehead"><use href="#E93C-g1uq4ffk" transform="translate(489, 2790) scale(0.72, 0.72)"/></g><g data-id="h908ius" data-class="stem" class="stem"><use href="#E93E-g1uq4ffk" transform="translate(591, 2710) scale(0.72, 0.72)"/></g></g><g data-id="y14wgh4r" data-class="note" class="note"><g data-class="notehead" class="notehead"><use href="#E93C-g1uq4ffk" transform="translate(1214, 2790) scale(0.72, 0.72)"/></g><g data-id="iecjdlj" data-class="stem" class="stem"><use href="#E93E-g1uq4ffk" transform="translate(1316, 2710) scale(0.72, 0.72)"/></g></g><g data-id="zl608d5" data-class="note" class="note"><g data-class="notehead" class="notehead"><use href="#E93C-g1uq4ffk" transform="translate(1939, 2790) scale(0.72, 0.72)"/></g><g data-id="j1sod10d" data-class="stem" class="stem"><use href="#E93E-g1uq4ffk" transform="translate(2041, 2710) scale(0.72, 0.72)"/></g></g><g data-id="a12a2fc1" data-class="barLine" class="barLine"><ellipse cx="2664" cy="2430" rx="27" ry="27"/><ellipse cx="2664" cy="2610" rx="27" ry="27"/><ellipse cx="2664" cy="2790" rx="27" ry="27"/><ellipse cx="2664" cy="2970" rx="27" ry="27"/></g><g data-id="b1by99k0" data-class="note" class="note"><g data-class="notehead" class="notehead"><use href="#E93C-g1uq4ffk" transform="translate(2781, 2790) scale(0.72, 0.72)"/></g><g data-id="k1drgid6" data-class="stem" class="stem"><use href="#E93E-g1uq4ffk" transform="translate(2883, 2710) scale(0.72, 0.72)"/></g></g><g data-id="c1dcsk0k" data-class="note" class="note"><g data-class="notehead" class="notehead"><use href="#E93C-g1uq4ffk" transform="translate(3506, 2790) scale(0.72, 0.72)"/></g><g data-id="l1hl8svc" data-class="stem" class="stem"><use href="#E93E-g1uq4ffk" transform="translate(3608, 2710) scale(0.72, 0.72)"/></g></g><g data-id="d1t38iau" data-class="note" class="note"><g data-class="notehead" class="notehead"><use href="#E93C-g1uq4ffk" transform="translate(4231, 2790) scale(0.72, 0.72)"/></g><g data-id="m1wcu5n3" data-class="stem" class="stem"><use href="#E93E-g1uq4ffk" transform="translate(4333, 2710) scale(0.72, 0.72)"/></g></g><g data-id="ex2foh3" data-class="barLine" class="barLine"><path d="M4956 2340 L4956 3060" stroke-width="27" stroke-dasharray="102 102"/></g><g data-id="fpnti1o" data-class="note" class="note"><g data-class="notehead" class="notehead"><use href="#E93C-g1uq4ffk" transform="translate(5059, 2790) scale(0.72, 0.72)"/></g><g data-id="n185k13g" data-class="stem" class="stem"><use href="#E93E-g1uq4ffk" transform="translate(5161, 2710) scale(0.72, 0.72)"/></g></g><g data-id="g1fahi04" data-class="note" class="note"><g data-class="notehead" class="notehead"><use href="#E93C-g1uq4ffk" transform="translate(5784, 2790) scale(0.72, 0.72)"/></g><g data-id="o1mb89r0" data-class="stem" class="stem"><use href="#E93E-g1uq4ffk" transform="translate(5886, 2710) scale(0.72, 0.72)"/></g></g><g data-id="htjej76" data-class="note" class="note"><g data-class="notehead" class="notehead"><use href="#E93C-g1uq4ffk" transform="translate(6509, 2790) scale(0.72, 0.72)"/></g><g data-id="p14tcymm" data-class="stem" class="stem"><use href="#E93E-g1uq4ffk" transform="translate(6611, 2710) scale(0.72, 0.72)"/></g></g><g data-id="i4e7i3i" data-class="barLine" class="barLine"><ellipse cx="7234" cy="2430" rx="27" ry="27"/><ellipse cx="7234" cy="2610" rx="27" ry="27"/><ellipse cx="7234" cy="2790" rx="27" ry="27"/><ellipse cx="7234" cy="2970" rx="27" ry="27"/></g><g data-id="j1uclosw" data-class="note" class="note"><g data-class="notehead" class="notehead"><use href="#E93C-g1uq4ffk" transform="translate(7351, 2790) scale(0.72, 0.72)"/></g><g data-id="qr1btir" data-class="stem" class="stem"><use href="#E93E-g1uq4ffk" transform="translate(7453, 2710) scale(0.72, 0.72)"/></g></g><g data-id="kwsl12f" data-class="note" class="note"><g data-class="notehead" class="notehead"><use href="#E93C-g1uq4ffk" transform="translate(8076, 2790) scale(0.72, 0.72)"/></g><g data-id="r1oh002p" data-class="stem" class="stem"><use href="#E93E-g1uq4ffk" transform="translate(8178, 2710) scale(0.72, 0.72)"/></g></g><g data-id="l1gqmpv0" data-class="note" class="note"><g data-class="notehead" class="notehead"><use href="#E93C-g1uq4ffk" transform="translate(8801, 2790) scale(0.72, 0.72)"/></g><g data-id="s6jtkpz" data-class="stem" class="stem"><use href="#E93E-g1uq4ffk" transform="translate(8903, 2710) scale(0.72, 0.72)"/></g></g><g data-id="minoq71" data-class="barLine" class="barLine"><path d="M9526 2340 L9526 3060" stroke-width="27" stroke-dasharray="102 102"/></g><g data-id="nekz195" data-class="note" class="note"><g data-class="notehead" class="notehead"><use href="#E93C-g1uq4ffk" transform="translate(9629, 2790) scale(0.72, 0.72)"/></g><g data-id="trh4arp" data-class="stem" class="stem"><use href="#E93E-g1uq4ffk" transform="translate(9731, 2710) scale(0.72, 0.72)"/></g></g><g data-id="o1spozcz" data-class="note" class="note"><g data-class="notehead" class="notehead"><use href="#E93C-g1uq4ffk" transform="translate(10354, 2790) scale(0.72, 0.72)"/></g><g data-id="u1y0yu3x" data-class="stem" class="stem"><use href="#E93E-g1uq4ffk" transform="translate(10456, 2710) scale(0.72, 0.72)"/></g></g><g data-id="p1hgofdt" data-class="note" class="note"><g data-class="notehead" class="notehead"><use href="#E93C-g1uq4ffk" transform="translate(11079, 2790) scale(0.72, 0.72)"/></g><g data-id="voylej3" data-class="stem" class="stem"><use href="#E93E-g1uq4ffk" transform="translate(11181, 2710) scale(0.72, 0.72)"/></g></g><g data-id="qr9be9b" data-class="barLine" class="barLine"><ellipse cx="11804" cy="2430" rx="27" ry="27"/><ellipse cx="11804" cy="2610" rx="27" ry="27"/><ellipse cx="11804" cy="2790" rx="27" ry="27"/><ellipse cx="11804" cy="2970" rx="27" ry="27"/></g><g data-id="r103qpu2" data-class="note" class="note"><g data-class="notehead" class="notehead"><use href="#E93C-g1uq4ffk" transform="translate(11921, 2790) scale(0.72, 0.72)"/></g><g data-id="w1yluzk4" data-class="stem" class="stem"><use href="#E93E-g1uq4ffk" transform="translate(12023, 2710) scale(0.72, 0.72)"/></g></g><g data-id="s10an24s" data-class="note" class="note"><g data-class="notehead" class="notehead"><use href="#E93C-g1uq4ffk" transform="translate(12646, 2790) scale(0.72, 0.72)"/></g><g data-id="x6juovz" data-class="stem" class="stem"><use href="#E93E-g1uq4ffk" transform="translate(12748, 2710) scale(0.72, 0.72)"/></g></g></g></g></g><g data-id="o183004a" data-class="system" class="system"><path d="M13 4500 L13 7020" stroke-width="27"/><g data-id="u4kak5h" data-class="staff" class="staff"><path d="M0 4500 L1227 4500" stroke-width="13"/><path d="M0 4680 L1227 4680" stroke-width="13"/><path d="M0 4860 L1227 4860" stroke-width="13"/><path d="M0 5040 L1227 5040" stroke-width="13"/><path d="M0 5220 L1227 5220" stroke-width="13"/><g data-id="pxnz0tf" data-class="clef" class="clef"><use href="#E901-g1uq4ffk" transform="translate(117, 5040) scale(0.72, 0.72)"/></g><g data-id="q1x3c5t6" data-class="keySig" class="keySig"/><g data-id="v1cpa7kk" data-class="layer" class="layer"><g data-id="t1azeamj" data-class="note" class="note"><g data-class="notehead" class="notehead"><use href="#E93C-g1uq4ffk" transform="translate(489, 5220) scale(0.72, 0.72)"/></g><g data-id="gdn0mt7" data-class="stem" class="stem"><use href="#E93E-g1uq4ffk" transform="translate(591, 5140) scale(0.72, 0.72)"/></g></g><g data-id="u13v7ulz" data-class="barLine" class="barLine"><path d="M1214 4500 L1214 5220" stroke-width="27" stroke-dasharray="102 102"/></g></g></g><g data-id="y16ur4i1" data-class="staff" class="staff"><path d="M0 6300 L1227 6300" stroke-width="13"/><path d="M0 6480 L1227 6480" stroke-width="13"/><path d="M0 6660 L1227 6660" stroke-width="13"/><path d="M0 6840 L1227 6840" stroke-width="13"/><path d="M0 7020 L1227 7020" stroke-width="13"/><g data-id="rnw3ys6" data-class="clef" class="clef"><use href="#E901-g1uq4ffk" transform="translate(117, 6840) scale(0.72, 0.72)"/></g><g data-id="simq883" data-class="keySig" class="keySig"/><g data-id="z14mizze" data-class="layer" class="layer"><g data-id="tlk07ku" data-class="note" class="note"><g data-class="notehead" class="notehead"><use href="#E93C-g1uq4ffk" transform="translate(489, 6750) scale(0.72, 0.72)"/></g><g data-id="yuxx5m3" data-class="stem" class="stem"><use href="#E93E-g1uq4ffk" transform="translate(591, 6670) scale(0.72, 0.72)"/></g></g><g data-id="u1m5q793" data-class="barLine" class="barLine"><path d="M1214 6300 L1214 7020" stroke-width="27" stroke-dasharray="102 102"/></g></g></g><g data-id="cjk13n2" data-class="systemMilestoneEnd" class="systemMilestoneEnd f9pkb11"/></g><g data-id="dng6g0i" data-class="pageMilestoneEnd" class="pageMilestoneEnd ije3i2v"/><g data-id="ezsfcsq" data-class="pageMilestoneEnd" class="pageMilestoneEnd hihpp0e"/></g></svg></svg>