<svg viewBox="0 0 144 158" version="1.1" xmlns="http://www.w3.org/2000/svg" xmlns:xlink="http://www.w3.org/1999/xlink" overflow="visible" id="o15f6i49"><desc>Engraved by Verovio 6.0.1-ffbc336</desc><defs><g id="E907-o15f6i49"><path transform="scale(1,-1)" d="M2 206l2 431c0 12 7 17 14 17c8 0 17 -7 17 -17l3 -204l2 -315h79h8c11 0 30 1 35 6c8 8 8 139 8 192v27l4 222s-1 20 19 20s12 -20 12 -20v-244s-1 -200 -1 -246c-1 -8 -1 -12 -4 -19c-7 -7 -8 -7 -16 -7c-45 0 -71 3 -71 3l-69 -3v-49v-48l64 -3l82 -5s5 0 8 -3 s5 -7 5 -7l1 -62v-154s0 -20 -13 -20c-10 0 -14 5 -16 14l-7 138l-2 19s0 4 -3 7s-9 2 -9 2h-40h-70l-3 -28l-3 -132s0 -20 -15 -20c-17 0 -19 17 -19 17c-1 22 -3 96 -3 336c0 49 1 100 1 155z"/></g><g id="E9E0-o15f6i49"><path transform="scale(1,-1)" d="M0 -49v426c0 13 2 36 18 36c12 -1 12 -18 12 -39c0 -20 -3 -362 -3 -362c0 -3 2 -9 11 -18c28 -33 74 -65 120 -65c6 0 28 2 28 35c0 37 -44 69 -76 86l-42 24s-9 1 -9 27v35c0 3 1 9 14 9c14 -1 50 -6 83 -26c32 -22 61 -38 61 -71v-185c0 -1 -14 -3 -26 -3h-2 c-20 0 -110 1 -171 60c0 0 -11 8 -18 31z"/></g><g id="E915-o15f6i49"><path transform="scale(1,-1)" d="M421 96c-46 77 -101 108 -181 108c-113 0 -204 -91 -204 -204s91 -204 204 -204c78 0 129 34 177 110l33 -22c-41 -74 -120 -124 -210 -124c-132 0 -240 108 -240 240s108 240 240 240c89 0 163 -45 209 -122z"/></g><g id="E925-o15f6i49"><path transform="scale(1,-1)" d="M0 408h36v-816h-36v816z"/></g><g id="E90A-o15f6i49"><path transform="scale(1,-1)" d="M2 -206c0 55 -1 106 -1 155c0 240 2 404 3 426c0 0 2 17 19 17c15 0 15 -20 15 -20l3 -132l3 -118h70h40s6 -1 9 2s3 7 3 7l2 109l7 138c2 9 6 14 16 14c13 0 13 -20 13 -20v-154l-1 -152s-2 -4 -5 -7s-8 -3 -8 -3l-82 -5l-64 -3v-48v-49l69 -3s26 3 71 3c8 0 9 0 16 -7 c3 -7 3 -11 4 -19c0 -46 1 -226 1 -226v-244s8 -20 -12 -20s-19 20 -19 20l-4 222v27c0 53 0 164 -8 172c-5 5 -24 6 -35 6h-8h-79l-2 -315l-3 -204c0 -10 -9 -17 -17 -17c-7 0 -14 5 -14 17z"/></g><g id="E909-o15f6i49"><path transform="scale(1,-1)" d="M2 206l2 431c0 12 7 17 14 17c8 0 17 -7 17 -17l3 -204l2 -315h79h8c11 0 30 1 35 6c8 8 8 69 8 122v27l4 222s-1 20 19 20s12 -20 12 -20v-244s-1 -130 -1 -176c-1 -8 -1 -12 -4 -19c-7 -7 -8 -7 -16 -7c-45 0 -71 3 -71 3l-69 -3v-49v-48l64 -3l82 -5s5 0 8 -3 s5 -7 5 -7l1 -262v-154s0 -20 -13 -20c-10 0 -14 5 -16 14l-7 138l-2 219s0 4 -3 7s-9 2 -9 2h-40h-70l-3 -378l-3 -132s0 -20 -15 -20c-17 0 -19 17 -19 17c-1 22 -3 446 -3 686c0 49 1 100 1 155z"/></g><g id="E904-o15f6i49"><path transform="scale(1,-1)" d="M428 -39l-54 -67l112 -138l52 66zM428 249l-54 -67l112 -138l52 66zM455 325l142 -178l-115 -144l115 -144l-129 -162v-580h-30v585l-127 157l116 144l-116 144zM232 -50v108h-199v-108h199zM266 -808h-34v693h-199v-93h-33v417h33v-86h199v86h34v-1017z"/></g><g id="E93C-o15f6i49"><path transform="scale(1,-1)" d="M156 195l156 -195l-156 -195l-156 195zM127 110l-57 -71l115 -149l57 71z"/></g></defs><style type="text/css">#o15f6i49 g.ending, #o15f6i49 g.fing, #o15f6i49 g.reh, #o15f6i49 g.tempo {font-weight:bold;}#o15f6i49 g.dir, #o15f6i49 g.dynam, #o15f6i49 g.mNum {font-style:italic;}#o15f6i49 g.label {font-weight:normal;}#o15f6i49 ellipse, #o15f6i49 path, #o15f6i49 polygon, #o15f6i49 polyline, #o15f6i49 rect {stroke:currentColor}</style><svg class="definition-scale" color="black" font-family="Times, serif" viewBox="0 0 14360 15760"><g class="page-margin" transform="translate(500, 500)"><g data-id="pn9ng7x" data-class="mdiv" class="mdiv pageMilestone"/><g data-id="q6c3obj" data-class="score" class="score pageMilestone"/><g data-id="wce74yr" data-class="system" class="system"><path d="M13 540 L13 6660" stroke-width="27"/><g data-id="gq4r179" data-class="section" class="section systemMilestone"/><g data-id="q2o7204" data-class="staff" class="staff"><path d="M0 540 L4022 540" stroke-width="13"/><path d="M0 720 L4022 720" stroke-width="13"/><path d="M0 900 L4022 900" stroke-width="13"/><path d="M0 1080 L4022 1080" stroke-width="13"/><path d="M0 1260 L4022 1260" stroke-width="13"/><g data-id="o1vmbfft" data-class="clef" class="clef"><use href="#E907-o15f6i49" transform="translate(117, 1260) scale(0.72, 0.72)"/></g><g data-id="p1sh2r5y" data-class="keySig" class="keySig"><g data-id="qgpvv6m" data-class="keyAccid" class="keyAccid"><use href="#E9E0-o15f6i49" transform="translate(726, 720) scale(0.72, 0.72)"/></g></g><g data-id="r9xerzj" data-class="mensur" class="mensur"><use href="#E915-o15f6i49" transform="translate(1062, 900) scale(0.72, 0.72)"/><use href="#E925-o15f6i49" transform="translate(1222, 900) scale(0.72, 0.72)"/></g><g data-id="re3dihs" data-class="layer" class="layer"><g data-id="s1kr2f7i" data-class="note" class="note"><g data-class="notehead" class="notehead"><polygon points="1584,630 1780,630 1780,680 1584,680"/><polygon points="1584,810 1780,810 1780,760 1584,760"/><rect x="1566" y="600" height="240" width="18"/><rect x="1780" y="600" height="240" width="18"/></g></g></g></g><g data-id="y1c0v1xu" data-class="staff" class="staff"><path d="M0 2340 L4022 2340" stroke-width="13"/><path d="M0 2520 L4022 2520" stroke-width="13"/><path d="M0 2700 L4022 2700" stroke-width="13"/><path d="M0 2880 L4022 2880" stroke-width="13"/><path d="M0 3060 L4022 3060" stroke-width="13"/><g data-id="scz4k2r" data-class="clef" class="clef"><use href="#E90A-o15f6i49" transform="translate(117, 2520) scale(0.72, 0.72)"/></g><g data-id="t1isb01e" data-class="keySig" class="keySig"><g data-id="u13at0hf" data-class="keyAccid" class="keyAccid"><use href="#E9E0-o15f6i49" transform="translate(726, 2610) scale(0.72, 0.72)"/></g></g><g data-id="v7rgbiz" data-class="mensur" class="mensur"><use href="#E915-o15f6i49" transform="translate(1062, 2700) scale(0.72, 0.72)"/><use href="#E925-o15f6i49" transform="translate(1222, 2700) scale(0.72, 0.72)"/></g><g data-id="zvkwlq6" data-class="layer" class="layer"><g data-id="arp3t8a" data-class="note" class="note"><g data-class="notehead" class="notehead"><polygon points="1584,2700 1780,2700 1780,2750 1584,2750"/><polygon points="1584,2880 1780,2880 1780,2830 1584,2830"/><rect x="1566" y="2670" height="240" width="18"/><rect x="1780" y="2670" height="240" width="18"/></g></g></g></g><g data-id="g1nw1n0e" data-class="staff" class="staff"><path d="M0 4140 L4022 4140" stroke-width="13"/><path d="M0 4320 L4022 4320" stroke-width="13"/><path d="M0 4500 L4022 4500" stroke-width="13"/><path d="M0 4680 L4022 4680" stroke-width="13"/><path d="M0 4860 L4022 4860" stroke-width="13"/><g data-id="w13jtifo" data-class="clef" class="clef"><use href="#E909-o15f6i49" transform="translate(117, 4500) scale(0.72, 0.72)"/></g><g data-id="x3spt1k" data-class="keySig" class="keySig"><g data-id="y1ywv1ir" data-class="keyAccid" class="keyAccid"><use href="#E9E0-o15f6i49" transform="translate(726, 4590) scale(0.72, 0.72)"/></g></g><g data-id="h1423oot" data-class="layer" class="layer"><g data-id="i2a7da7" data-class="note" class="note"><g data-class="notehead" class="notehead"><polygon points="1584,4320 1780,4320 1780,4370 1584,4370"/><polygon points="1584,4500 1780,4500 1780,4450 1584,4450"/><rect x="1566" y="4290" height="240" width="18"/><rect x="1780" y="4290" height="240" width="18"/></g></g></g></g><g data-id="o1rxbc2k" data-class="staff" class="staff"><path d="M0 5940 L4022 5940" stroke-width="13"/><path d="M0 6120 L4022 6120" stroke-width="13"/><path d="M0 6300 L4022 6300" stroke-width="13"/><path d="M0 6480 L4022 6480" stroke-width="13"/><path d="M0 6660 L4022 6660" stroke-width="13"/><g data-id="z12lhxre" data-class="clef" class="clef"><use href="#E904-o15f6i49" transform="translate(117, 6120) scale(0.72, 0.72)"/></g><g data-id="a1cc9n4g" data-class="keySig" class="keySig"><g data-id="bp3i2ny" data-class="keyAccid" class="keyAccid"><use href="#E9E0-o15f6i49" transform="translate(726, 6480) scale(0.72, 0.72)"/></g></g><g data-id="p1w7ak33" data-class="layer" class="layer"><g data-id="qw99dtz" data-class="note" class="note"><g data-class="notehead" class="notehead"><polygon points="1584,6570 1780,6570 1780,6620 1584,6620"/><polygon points="1584,6750 1780,6750 1780,6700 1584,6700"/><rect x="1566" y="6540" height="240" width="18"/><rect x="1780" y="6540" height="240" width="18"/></g></g></g></g><g data-id="ocbtert" data-class="staff" class="staff"><path d="M4022 540 L6568 540" stroke-width="13"/><path d="M4022 720 L6568 720" stroke-width="13"/><path d="M4022 900 L6568 900" stroke-width="13"/><path d="M4022 1080 L6568 1080" stroke-width="13"/><path d="M4022 1260 L6568 1260" stroke-width="13"/><g data-id="plregqm" data-class="layer" class="layer"><g data-id="t1dfyui0" data-class="note" class="note"><g data-class="notehead" class="notehead"><polygon points="4130,630 4326,630 4326,680 4130,680"/><polygon points="4130,810 4326,810 4326,760 4130,760"/><rect x="4112" y="600" height="240" width="18"/><rect x="4326" y="600" height="240" width="18"/></g></g></g></g><g data-id="a1ft72zn" data-class="staff" class="staff"><path d="M4022 2340 L6568 2340" stroke-width="13"/><path d="M4022 2520 L6568 2520" stroke-width="13"/><path d="M4022 2700 L6568 2700" stroke-width="13"/><path d="M4022 2880 L6568 2880" stroke-width="13"/><path d="M4022 3060 L6568 3060" stroke-width="13"/><g data-id="b1lkzt0v" data-class="layer" class="layer"><g data-id="byp828" data-class="note" class="note"><g data-class="notehead" class="notehead"><polygon points="4130,2520 4326,2520 4326,2570 4130,2570"/><polygon points="4130,2700 4326,2700 4326,2650 4130,2650"/><rect x="4112" y="2490" height="240" width="18"/><rect x="4326" y="2490" height="240" width="18"/></g></g></g></g><g data-id="mv88a5q" data-class="staff" class="staff"><path d="M4022 4140 L6568 4140" stroke-width="13"/><path d="M4022 4320 L6568 4320" stroke-width="13"/><path d="M4022 4500 L6568 4500" stroke-width="13"/><path d="M4022 4680 L6568 4680" stroke-width="13"/><path d="M4022 4860 L6568 4860" stroke-width="13"/><g data-id="niv9gtk" data-class="layer" class="layer"><g data-id="jt1whv9" data-class="note" class="note"><g data-class="notehead" class="notehead"><polygon points="4130,4320 4326,4320 4326,4370 4130,4370"/><polygon points="4130,4500 4326,4500 4326,4450 4130,4450"/><rect x="4112" y="4290" height="240" width="18"/><rect x="4326" y="4290" height="240" width="18"/></g></g></g></g><g data-id="y1mhivja" data-class="staff" class="staff"><path d="M4022 5940 L6568 5940" stroke-width="13"/><path d="M4022 6120 L6568 6120" stroke-width="13"/><path d="M4022 6300 L6568 6300" stroke-width="13"/><path d="M4022 6480 L6568 6480" stroke-width="13"/><path d="M4022 6660 L6568 6660" stroke-width="13"/><g data-id="z1qppfsa" data-class="layer" class="layer"><g data-id="r1ek5g0n" data-class="note" class="note"><g data-class="notehead" class="notehead"><polygon points="4130,5940 4326,5940 4326,5990 4130,5990"/><polygon points="4130,6120 4326,6120 4326,6070 4130,6070"/><rect x="4112" y="5910" height="240" width="18"/><rect x="4326" y="5910" height="240" width="18"/></g></g></g></g><g data-id="q3yajm1" data-class="staff" class="staff"><path d="M6568 540 L9114 540" stroke-width="13"/><path d="M6568 720 L9114 720" stroke-width="13"/><path d="M6568 900 L9114 900" stroke-width="13"/><path d="M6568 1080 L9114 1080" stroke-width="13"/><path d="M6568 1260 L9114 1260" stroke-width="13"/><g data-id="r2eb2kp" data-class="layer" class="layer"><g data-id="u14x55bn" data-class="note" class="note"><g data-class="notehead" class="notehead"><polygon points="6676,720 6872,720 6872,770 6676,770"/><polygon points="6676,900 6872,900 6872,850 6676,850"/><rect x="6658" y="690" height="240" width="18"/><rect x="6872" y="690" height="240" width="18"/></g></g></g></g><g data-id="c1d9fsff" data-class="staff" class="staff"><path d="M6568 2340 L9114 2340" stroke-width="13"/><path d="M6568 2520 L9114 2520" stroke-width="13"/><path d="M6568 2700 L9114 2700" stroke-width="13"/><path d="M6568 2880 L9114 2880" stroke-width="13"/><path d="M6568 3060 L9114 3060" stroke-width="13"/><g data-id="d4a8edi" data-class="layer" class="layer"><g data-id="cjnxb7i" data-class="note" class="note"><g data-class="notehead" class="notehead"><polygon points="6676,2430 6872,2430 6872,2480 6676,2480"/><polygon points="6676,2610 6872,2610 6872,2560 6676,2560"/><rect x="6658" y="2400" height="240" width="18"/><rect x="6872" y="2400" height="240" width="18"/></g></g></g></g><g data-id="o1wq8iot" data-class="staff" class="staff"><path d="M6568 4140 L9114 4140" stroke-width="13"/><path d="M6568 4320 L9114 4320" stroke-width="13"/><path d="M6568 4500 L9114 4500" stroke-width="13"/><path d="M6568 4680 L9114 4680" stroke-width="13"/><path d="M6568 4860 L9114 4860" stroke-width="13"/><g data-id="p1c7f4zn" data-class="layer" class="layer"><g data-id="kx33u04" data-class="note" class="note"><g data-class="notehead" class="notehead"><polygon points="6676,4140 6872,4140 6872,4190 6676,4190"/><polygon points="6676,4320 6872,4320 6872,4270 6676,4270"/><rect x="6658" y="4110" height="240" width="18"/><rect x="6872" y="4110" height="240" width="18"/></g></g></g></g><g data-id="ax89909" data-class="staff" class="staff"><path d="M6568 5940 L9114 5940" stroke-width="13"/><path d="M6568 6120 L9114 6120" stroke-width="13"/><path d="M6568 6300 L9114 6300" stroke-width="13"/><path d="M6568 6480 L9114 6480" stroke-width="13"/><path d="M6568 6660 L9114 6660" stroke-width="13"/><g data-id="b8zzaok" data-class="layer" class="layer"><g data-id="sls194e" data-class="note" class="note"><g data-class="notehead" class="notehead"><polygon points="6676,5940 6872,5940 6872,5990 6676,5990"/><polygon points="6676,6120 6872,6120 6872,6070 6676,6070"/><rect x="6658" y="5910" height="240" width="18"/><rect x="6872" y="5910" height="240" width="18"/></g></g></g></g><g data-id="s19lbipo" data-class="staff" class="staff"><path d="M9114 540 L11660 540" stroke-width="13"/><path d="M9114 720 L11660 720" stroke-width="13"/><path d="M9114 900 L11660 900" stroke-width="13"/><path d="M9114 1080 L11660 1080" stroke-width="13"/><path d="M9114 1260 L11660 1260" stroke-width="13"/><g data-id="t3zlo2g" data-class="layer" class="layer"><g data-id="vafd66i" data-class="note" class="note"><g data-class="notehead" class="notehead"><polygon points="9222,810 9418,810 9418,860 9222,860"/><polygon points="9222,990 9418,990 9418,940 9222,940"/><rect x="9204" y="780" height="240" width="18"/><rect x="9418" y="780" height="240" width="18"/></g></g></g></g><g data-id="epluwoj" data-class="staff" class="staff"><path d="M9114 2340 L11660 2340" stroke-width="13"/><path d="M9114 2520 L11660 2520" stroke-width="13"/><path d="M9114 2700 L11660 2700" stroke-width="13"/><path d="M9114 2880 L11660 2880" stroke-width="13"/><path d="M9114 3060 L11660 3060" stroke-width="13"/><g data-id="ft8bqd0" data-class="layer" class="layer"><g data-id="d1qy8jtw" data-class="note" class="note"><g data-class="notehead" class="notehead"><polygon points="9222,2430 9418,2430 9418,2480 9222,2480"/><polygon points="9222,2610 9418,2610 9418,2560 9222,2560"/><rect x="9204" y="2400" height="240" width="18"/><rect x="9418" y="2400" height="240" width="18"/></g></g></g></g><g data-id="qp3zg23" data-class="staff" class="staff"><path d="M9114 4140 L11660 4140" stroke-width="13"/><path d="M9114 4320 L11660 4320" stroke-width="13"/><path d="M9114 4500 L11660 4500" stroke-width="13"/><path d="M9114 4680 L11660 4680" stroke-width="13"/><path d="M9114 4860 L11660 4860" stroke-width="13"/><g data-id="r1xoee3q" data-class="layer" class="layer"><g data-id="l4uak9u" data-class="note" class="note"><g data-class="notehead" class="notehead"><polygon points="9222,4230 9418,4230 9418,4280 9222,4280"/><polygon points="9222,4410 9418,4410 9418,4360 9222,4360"/><rect x="9204" y="4200" height="240" width="18"/><rect x="9418" y="4200" height="240" width="18"/></g></g></g></g><g data-id="c1bcqu1" data-class="staff" class="staff"><path d="M9114 5940 L11660 5940" stroke-width="13"/><path d="M9114 6120 L11660 6120" stroke-width="13"/><path d="M9114 6300 L11660 6300" stroke-width="13"/><path d="M9114 6480 L11660 6480" stroke-width="13"/><path d="M9114 6660 L11660 6660" stroke-width="13"/><g data-id="d1a26hv7" data-class="layer" class="layer"><g data-id="tzd145x" data-class="note" class="note"><g data-class="notehead" class="notehead"><polygon points="9222,6300 9418,6300 9418,6350 9222,6350"/><polygon points="9222,6480 9418,6480 9418,6430 9222,6430"/><rect x="9204" y="6270" height="240" width="18"/><rect x="9418" y="6270" height="240" width="18"/></g></g></g></g><g data-id="u1b69e63" data-class="staff" class="staff"><path d="M11660 540 L13364 540" stroke-width="13"/><path d="M11660 720 L13364 720" stroke-width="13"/><path d="M11660 900 L13364 900" stroke-width="13"/><path d="M11660 1080 L13364 1080" stroke-width="13"/><path d="M11660 1260 L13364 1260" stroke-width="13"/><g data-id="vn7j2qa" data-class="layer" class="layer"><g data-id="w4eel0y" data-class="note" class="note"><g data-class="notehead" class="notehead"><use href="#E93C-o15f6i49" transform="translate(11750, 900) scale(0.72, 0.72)"/></g></g></g></g><g data-id="g1fgt6js" data-class="staff" class="staff"><path d="M11660 2340 L13364 2340" stroke-width="13"/><path d="M11660 2520 L13364 2520" stroke-width="13"/><path d="M11660 2700 L13364 2700" stroke-width="13"/><path d="M11660 2880 L13364 2880" stroke-width="13"/><path d="M11660 3060 L13364 3060" stroke-width="13"/><g data-id="h1dns2g2" data-class="layer" class="layer"><g data-id="elhnh8x" data-class="note" class="note"><g data-class="notehead" class="notehead"><use href="#E93C-o15f6i49" transform="translate(11750, 2520) scale(0.72, 0.72)"/></g></g></g></g><g data-id="s14khh2g" data-class="staff" class="staff"><path d="M11660 4140 L13364 4140" stroke-width="13"/><path d="M11660 4320 L13364 4320" stroke-width="13"/><path d="M11660 4500 L13364 4500" stroke-width="13"/><path d="M11660 4680 L13364 4680" stroke-width="13"/><path d="M11660 4860 L13364 4860" stroke-width="13"/><g data-id="t1qmuzdt" data-class="layer" class="layer"><g data-id="mios6id" data-class="note" class="note"><g data-class="notehead" class="notehead"><use href="#E93C-o15f6i49" transform="translate(11750, 4320) scale(0.72, 0.72)"/></g></g></g></g><g data-id="e1427906" data-class="staff" class="staff"><path d="M11660 5940 L13364 5940" stroke-width="13"/><path d="M11660 6120 L13364 6120" stroke-width="13"/><path d="M11660 6300 L13364 6300" stroke-width="13"/><path d="M11660 6480 L13364 6480" stroke-width="13"/><path d="M11660 6660 L13364 6660" stroke-width="13"/><g data-id="f146s116" data-class="layer" class="layer"><g data-id="uuowl3p" data-class="note" class="note"><g data-class="notehead" class="notehead"><use href="#E93C-o15f6i49" transform="translate(11750, 6390) scale(0.72, 0.72)"/></g></g></g></g></g><g data-id="zatlt1a" data-class="system" class="system"><path d="M13 8100 L13 14220" stroke-width="27"/><g data-id="w8ezc11" data-class="staff" class="staff"><path d="M0 8100 L2676 8100" stroke-width="13"/><path d="M0 8280 L2676 8280" stroke-width="13"/><path d="M0 8460 L2676 8460" stroke-width="13"/><path d="M0 8640 L2676 8640" stroke-width="13"/><path d="M0 8820 L2676 8820" stroke-width="13"/><g data-id="o1a6qyas" data-class="clef" class="clef"><use href="#E907-o15f6i49" transform="translate(117, 8820) scale(0.72, 0.72)"/></g><g data-id="p1n47hh9" data-class="keySig" class="keySig"><g data-id="q1z0mmnr" data-class="keyAccid" class="keyAccid"><use href="#E9E0-o15f6i49" transform="translate(726, 8280) scale(0.72, 0.72)"/></g></g><g data-id="x17rvzbm" data-class="layer" class="layer"><g data-id="xbcosbn" data-class="note" class="note"><g data-class="notehead" class="notehead"><use href="#E93C-o15f6i49" transform="translate(1062, 8460) scale(0.72, 0.72)"/></g></g></g></g><g data-id="icmw81s" data-class="staff" class="staff"><path d="M0 9900 L2676 9900" stroke-width="13"/><path d="M0 10080 L2676 10080" stroke-width="13"/><path d="M0 10260 L2676 10260" stroke-width="13"/><path d="M0 10440 L2676 10440" stroke-width="13"/><path d="M0 10620 L2676 10620" stroke-width="13"/><g data-id="rsb8dfo" data-class="clef" class="clef"><use href="#E90A-o15f6i49" transform="translate(117, 10080) scale(0.72, 0.72)"/></g><g data-id="s1jitwri" data-class="keySig" class="keySig"><g data-id="t8bx07r" data-class="keyAccid" class="keyAccid"><use href="#E9E0-o15f6i49" transform="translate(726, 10170) scale(0.72, 0.72)"/></g></g><g data-id="j12yhbpe" data-class="layer" class="layer"><g data-id="f1rdcric" data-class="note" class="note"><g data-class="notehead" class="notehead"><use href="#E93C-o15f6i49" transform="translate(1062, 10080) scale(0.72, 0.72)"/></g></g></g></g><g data-id="u8ziq6g" data-class="staff" class="staff"><path d="M0 11700 L2676 11700" stroke-width="13"/><path d="M0 11880 L2676 11880" stroke-width="13"/><path d="M0 12060 L2676 12060" stroke-width="13"/><path d="M0 12240 L2676 12240" stroke-width="13"/><path d="M0 12420 L2676 12420" stroke-width="13"/><g data-id="u1mi0x9" data-class="clef" class="clef"><use href="#E909-o15f6i49" transform="translate(117, 12060) scale(0.72, 0.72)"/></g><g data-id="vlz02rg" data-class="keySig" class="keySig"><g data-id="w1o6jmqt" data-class="keyAccid" class="keyAccid"><use href="#E9E0-o15f6i49" transform="translate(726, 12150) scale(0.72, 0.72)"/></g></g><g data-id="v1a85ihh" data-class="layer" class="layer"><g data-id="n7ufypd" data-class="note" class="note"><g data-class="notehead" class="notehead"><use href="#E93C-o15f6i49" transform="translate(1062, 11880) scale(0.72, 0.72)"/></g></g></g></g><g data-id="gnit7pv" data-class="staff" class="staff"><path d="M0 13500 L2676 13500" stroke-width="13"/><path d="M0 13680 L2676 13680" stroke-width="13"/><path d="M0 13860 L2676 13860" stroke-width="13"/><path d="M0 14040 L2676 14040" stroke-width="13"/><path d="M0 14220 L2676 14220" stroke-width="13"/><g data-id="x1d32pg9" data-class="clef" class="clef"><use href="#E904-o15f6i49" transform="translate(117, 13680) scale(0.72, 0.72)"/></g><g data-id="y152qujf" data-class="keySig" class="keySig"><g data-id="zlnc9z5" data-class="keyAccid" class="keyAccid"><use href="#E9E0-o15f6i49" transform="translate(726, 14040) scale(0.72, 0.72)"/></g></g><g data-id="h14hg3b7" data-class="layer" class="layer"><g data-id="vahu631" data-class="note" class="note"><g data-class="notehead" class="notehead"><use href="#E93C-o15f6i49" transform="translate(1062, 13950) scale(0.72, 0.72)"/></g></g></g></g><g data-id="dlpnjbk" data-class="systemMilestoneEnd" class="systemMilestoneEnd gq4r179"/></g><g data-id="eyyz260" data-class="pageMilestoneEnd" class="pageMilestoneEnd q6c3obj"/><g data-id="f37xhxl" data-class="pageMilestoneEnd" class="pageMilestoneEnd pn9ng7x"/></g></svg></svg>