<svg viewBox="0 0 145 86" version="1.1" xmlns="http://www.w3.org/2000/svg" xmlns:xlink="http://www.w3.org/1999/xlink" xmlns:mei="http://www.music-encoding.org/ns/mei" overflow="visible"><desc>Engraved by Verovio 5.0.0-b3f7bc6</desc><defs><symbol id="E93C-1kejkf9" viewBox="0 0 1000 1000" overflow="inherit"><path transform="scale(1,-1)" d="M156 195l156 -195l-156 -195l-156 195zM127 110l-57 -71l115 -149l57 71z"/></symbol><symbol id="E93D-1kejkf9" viewBox="0 0 1000 1000" overflow="inherit"><path transform="scale(1,-1)" d="M156 195l156 -195l-156 -195l-156 195z"/></symbol><symbol id="E901-1kejkf9" viewBox="0 0 1000 1000" overflow="inherit"><path transform="scale(1,-1)" d="M144 488c30 28 83 110 83 176c0 77 -39 150 -104 150c-15 0 -33 -6 -61 -34c-15 -15 -23 -44 -23 -79c0 -44 14 -96 43 -133c23 -29 44 -58 62 -80zM159 69c-57 0 -104 -31 -104 -98c0 -61 35 -63 51 -75c8 0 23 52 39 92l32 80c-6 1 -12 1 -18 1zM256 -25 c0 -76 -24 -122 -98 -122h-3c-28 0 -66 7 -84 15c-38 17 -71 55 -71 112c0 55 56 114 124 123c25 3 49 8 61 8c12 33 26 89 26 128c0 104 -55 180 -76 211c-51 -65 -79 -110 -90 -178c-1 -6 -4 -25 -4 -46c0 -18 2 -38 10 -50c5 -7 7 -16 7 -24c0 -13 -6 -24 -15 -24 c-5 0 -12 5 -19 17c-12 21 -24 38 -24 96c0 77 23 115 54 151c38 44 26 28 65 68l1 -1c0 3 -16 27 -60 79c-19 22 -58 58 -58 145c0 76 30 100 53 123c25 25 57 38 102 38c62 0 110 -83 110 -168c0 -13 -2 -26 -4 -39c-10 -52 -83 -130 -111 -163c24 -38 8 -3 55 -91 c34 -63 42 -84 42 -119c0 -10 -1 -22 -2 -37c-4 -63 -11 -76 -20 -116c7 0 12 1 21 -1c14 -4 20 -11 20 -19c0 -19 -30 -19 -52 -24c-6 -13 -67 -174 -67 -181c0 -2 9 -4 19 -4c25 0 41 21 56 73c8 28 14 39 22 39s10 -8 10 -19z"/></symbol><symbol id="E93E-1kejkf9" viewBox="0 0 1000 1000" overflow="inherit"><path transform="scale(1,-1)" d="M0 760h30v-760h-30v760z"/></symbol><symbol id="E949-1kejkf9" viewBox="0 0 1000 1000" overflow="inherit"><path transform="scale(1,-1)" d="M0 0v760h30l150 -259l-26 -15l-124 214v-700h-30z"/></symbol><symbol id="E94B-1kejkf9" viewBox="0 0 1000 1000" overflow="inherit"><path transform="scale(1,-1)" d="M0 0v760h30l150 -259l-26 -15l-124 214v-80l150 -259l-26 -15l-124 214v-560h-30z"/></symbol><symbol id="E9F3-1kejkf9" viewBox="0 0 1000 1000" overflow="inherit"><path transform="scale(1,-1)" d="M0 250h40v-250h-40v250z"/></symbol><symbol id="E9F2-1kejkf9" viewBox="0 0 1000 1000" overflow="inherit"><path transform="scale(1,-1)" d="M0 250h40v-500h-40v500z"/></symbol><symbol id="E9F0-1kejkf9" viewBox="0 0 1000 1000" overflow="inherit"><path transform="scale(1,-1)" d="M0 500h40v-1000h-40v1000zM90 500h40v-1000h-40v1000z"/></symbol><symbol id="E9F4-1kejkf9" viewBox="0 0 1000 1000" overflow="inherit"><path transform="scale(1,-1)" d="M0 250h40v-140h-40v140z"/></symbol><symbol id="E9F5-1kejkf9" viewBox="0 0 1000 1000" overflow="inherit"><path transform="scale(1,-1)" d="M0 140h40v-140h-40v140z"/></symbol><symbol id="E9F6-1kejkf9" viewBox="0 0 1000 1000" overflow="inherit"><path transform="scale(1,-1)" d="M40 96v-96h-40v140h40l78 -69h-48z"/></symbol><symbol id="E9F7-1kejkf9" viewBox="0 0 1000 1000" overflow="inherit"><path transform="scale(1,-1)" d="M78 96l-30 -25h-48l78 69h40v-140h-40v96z"/></symbol><symbol id="E9F8-1kejkf9" viewBox="0 0 1000 1000" overflow="inherit"><path transform="scale(1,-1)" d="M78 96l-30 -25h-48l78 69h40v-140h-40v39l-30 -25h-48l78 69v13z"/></symbol></defs><style type="text/css">g.page-margin{font-family:Times,serif;} g.ending, g.fing, g.reh, g.tempo{font-weight:bold;} g.dir, g.dynam, g.mNum{font-style:italic;} g.label{font-weight:normal;}</style><svg class="definition-scale" color="black" viewBox="0 0 14470 8560"><g class="page-margin" transform="translate(500, 500)"><g data-id="m10efh9h" data-class="mdiv" class="mdiv pageMilestone"/><g data-id="sqxqmwo" data-class="score" class="score pageMilestone"/><g data-id="s1x2jd4s" data-class="system" class="system"><path d="M13 540 L13 3060" stroke="currentColor" stroke-width="27"/><g data-id="s1g1flrr" data-class="section" class="section systemMilestone"/><g data-id="sktxaen" data-class="staff" class="staff"><path d="M0 540 L13282 540" stroke="currentColor" stroke-width="13"/><path d="M0 720 L13282 720" stroke="currentColor" stroke-width="13"/><path d="M0 900 L13282 900" stroke="currentColor" stroke-width="13"/><path d="M0 1080 L13282 1080" stroke="currentColor" stroke-width="13"/><path d="M0 1260 L13282 1260" stroke="currentColor" stroke-width="13"/><g data-id="ca4yidy" data-class="clef" class="clef"><use href="#E901-1kejkf9" x="117" y="1080" height="720px" width="720px"/></g><g data-id="kasqmx5" data-class="keySig" class="keySig"/><g data-id="loqcjz8" data-class="layer" class="layer"><g data-id="nvedxo4" data-class="note" class="note"><g data-class="notehead" class="notehead"><polygon points="507,1170 935,1170 935,1220 507,1220"/><polygon points="507,1350 935,1350 935,1300 507,1300"/><rect x="489" y="1140" height="240" width="18"/></g><g data-class="stem" class="stem"><rect x="935" y="630" height="750" width="18"/></g></g></g></g><g data-id="s10t688n" data-class="staff" class="staff"><path d="M0 2340 L13282 2340" stroke="currentColor" stroke-width="13"/><path d="M0 2520 L13282 2520" stroke="currentColor" stroke-width="13"/><path d="M0 2700 L13282 2700" stroke="currentColor" stroke-width="13"/><path d="M0 2880 L13282 2880" stroke="currentColor" stroke-width="13"/><path d="M0 3060 L13282 3060" stroke="currentColor" stroke-width="13"/><g data-id="cfmfpsv" data-class="clef" class="clef"><use href="#E901-1kejkf9" x="117" y="2880" height="720px" width="720px"/></g><g data-id="ka39zqg" data-class="keySig" class="keySig"/><g data-id="l3q3tzb" data-class="layer" class="layer"><g data-id="r1lcfhhw" data-class="rest" class="rest"><use href="#E9F0-1kejkf9" x="489" y="2700" height="720px" width="720px"/></g></g></g></g><g data-id="s1nkbn1q" data-class="system" class="system"><path d="M13 4500 L13 7020" stroke="currentColor" stroke-width="27"/><g data-id="stqepz7" data-class="staff" class="staff"><path d="M0 4500 L6388 4500" stroke="currentColor" stroke-width="13"/><path d="M0 4680 L6388 4680" stroke="currentColor" stroke-width="13"/><path d="M0 4860 L6388 4860" stroke="currentColor" stroke-width="13"/><path d="M0 5040 L6388 5040" stroke="currentColor" stroke-width="13"/><path d="M0 5220 L6388 5220" stroke="currentColor" stroke-width="13"/><g data-id="coiznge" data-class="clef" class="clef"><use href="#E901-1kejkf9" x="117" y="5040" height="720px" width="720px"/></g><g data-id="k12td6pn" data-class="keySig" class="keySig"/><g data-id="l13dvdov" data-class="layer" class="layer"><g data-id="n1uve3i3" data-class="note" class="note"><g data-class="notehead" class="notehead"><polygon points="507,5130 703,5130 703,5180 507,5180"/><polygon points="507,5310 703,5310 703,5260 507,5260"/><rect x="489" y="5100" height="240" width="18"/></g><g data-class="stem" class="stem"><rect x="703" y="4590" height="750" width="18"/></g></g></g></g><g data-id="sio726" data-class="staff" class="staff"><path d="M0 6300 L6388 6300" stroke="currentColor" stroke-width="13"/><path d="M0 6480 L6388 6480" stroke="currentColor" stroke-width="13"/><path d="M0 6660 L6388 6660" stroke="currentColor" stroke-width="13"/><path d="M0 6840 L6388 6840" stroke="currentColor" stroke-width="13"/><path d="M0 7020 L6388 7020" stroke="currentColor" stroke-width="13"/><g data-id="c1dvhw54" data-class="clef" class="clef"><use href="#E901-1kejkf9" x="117" y="6840" height="720px" width="720px"/></g><g data-id="k1763wd5" data-class="keySig" class="keySig"/><g data-id="l2r9mv3" data-class="layer" class="layer"><g data-id="r1698fw" data-class="rest" class="rest"><use href="#E9F2-1kejkf9" x="489" y="6660" height="720px" width="720px"/></g></g></g><g data-id="s1co0gel" data-class="staff" class="staff"><path d="M6388 4500 L9528 4500" stroke="currentColor" stroke-width="13"/><path d="M6388 4680 L9528 4680" stroke="currentColor" stroke-width="13"/><path d="M6388 4860 L9528 4860" stroke="currentColor" stroke-width="13"/><path d="M6388 5040 L9528 5040" stroke="currentColor" stroke-width="13"/><path d="M6388 5220 L9528 5220" stroke="currentColor" stroke-width="13"/><g data-id="l2jw0i7" data-class="layer" class="layer"><g data-id="nr4opp1" data-class="note" class="note"><g data-class="notehead" class="notehead"><polygon points="6496,5130 6692,5130 6692,5180 6496,5180"/><polygon points="6496,5310 6692,5310 6692,5260 6496,5260"/><rect x="6478" y="5100" height="240" width="18"/><rect x="6692" y="5100" height="240" width="18"/></g></g></g></g><g data-id="slc847p" data-class="staff" class="staff"><path d="M6388 6300 L9528 6300" stroke="currentColor" stroke-width="13"/><path d="M6388 6480 L9528 6480" stroke="currentColor" stroke-width="13"/><path d="M6388 6660 L9528 6660" stroke="currentColor" stroke-width="13"/><path d="M6388 6840 L9528 6840" stroke="currentColor" stroke-width="13"/><path d="M6388 7020 L9528 7020" stroke="currentColor" stroke-width="13"/><g data-id="l6uunkc" data-class="layer" class="layer"><g data-id="rw3gr4z" data-class="rest" class="rest"><use href="#E9F3-1kejkf9" x="6478" y="6660" height="720px" width="720px"/><g data-class="ledgerLines" class="ledgerLines"/></g></g></g><g data-id="s13ty5x1" data-class="staff" class="staff"><path d="M9528 4500 L11193 4500" stroke="currentColor" stroke-width="13"/><path d="M9528 4680 L11193 4680" stroke="currentColor" stroke-width="13"/><path d="M9528 4860 L11193 4860" stroke="currentColor" stroke-width="13"/><path d="M9528 5040 L11193 5040" stroke="currentColor" stroke-width="13"/><path d="M9528 5220 L11193 5220" stroke="currentColor" stroke-width="13"/><g data-id="l1jsuvf4" data-class="layer" class="layer"><g data-id="nm3o7zx" data-class="note" class="note"><g data-class="notehead" class="notehead"><use href="#E93C-1kejkf9" x="9618" y="5220" height="720px" width="720px"/></g></g></g></g><g data-id="s4oaepc" data-class="staff" class="staff"><path d="M9528 6300 L11193 6300" stroke="currentColor" stroke-width="13"/><path d="M9528 6480 L11193 6480" stroke="currentColor" stroke-width="13"/><path d="M9528 6660 L11193 6660" stroke="currentColor" stroke-width="13"/><path d="M9528 6840 L11193 6840" stroke="currentColor" stroke-width="13"/><path d="M9528 7020 L11193 7020" stroke="currentColor" stroke-width="13"/><g data-id="l10r9x97" data-class="layer" class="layer"><g data-id="rot7sl1" data-class="rest" class="rest"><use href="#E9F4-1kejkf9" x="9618" y="6660" height="720px" width="720px"/><g data-class="ledgerLines" class="ledgerLines"/></g></g></g><g data-id="sf6ok1q" data-class="staff" class="staff"><path d="M11193 4500 L12089 4500" stroke="currentColor" stroke-width="13"/><path d="M11193 4680 L12089 4680" stroke="currentColor" stroke-width="13"/><path d="M11193 4860 L12089 4860" stroke="currentColor" stroke-width="13"/><path d="M11193 5040 L12089 5040" stroke="currentColor" stroke-width="13"/><path d="M11193 5220 L12089 5220" stroke="currentColor" stroke-width="13"/><g data-id="li3mx4u" data-class="layer" class="layer"><g data-id="n1jrw3u7" data-class="note" class="note"><g data-class="notehead" class="notehead"><use href="#E93C-1kejkf9" x="11283" y="5220" height="720px" width="720px"/></g><g data-id="s1o6pjk8" data-class="stem" class="stem"><use href="#E93E-1kejkf9" x="11385" y="5140" height="720px" width="720px"/></g></g></g></g><g data-id="sbtzesb" data-class="staff" class="staff"><path d="M11193 6300 L12089 6300" stroke="currentColor" stroke-width="13"/><path d="M11193 6480 L12089 6480" stroke="currentColor" stroke-width="13"/><path d="M11193 6660 L12089 6660" stroke="currentColor" stroke-width="13"/><path d="M11193 6840 L12089 6840" stroke="currentColor" stroke-width="13"/><path d="M11193 7020 L12089 7020" stroke="currentColor" stroke-width="13"/><g data-id="l18otgnc" data-class="layer" class="layer"><g data-id="r1wncs68" data-class="rest" class="rest"><use href="#E9F5-1kejkf9" x="11283" y="6660" height="720px" width="720px"/><g data-class="ledgerLines" class="ledgerLines"/></g></g></g><g data-id="slgf7zh" data-class="staff" class="staff"><path d="M12089 4500 L12708 4500" stroke="currentColor" stroke-width="13"/><path d="M12089 4680 L12708 4680" stroke="currentColor" stroke-width="13"/><path d="M12089 4860 L12708 4860" stroke="currentColor" stroke-width="13"/><path d="M12089 5040 L12708 5040" stroke="currentColor" stroke-width="13"/><path d="M12089 5220 L12708 5220" stroke="currentColor" stroke-width="13"/><g data-id="lrc3y6b" data-class="layer" class="layer"><g data-id="nky9cpi" data-class="note" class="note"><g data-class="notehead" class="notehead"><use href="#E93D-1kejkf9" x="12179" y="5220" height="720px" width="720px"/></g><g data-id="s198l1sv" data-class="stem" class="stem"><use href="#E93E-1kejkf9" x="12281" y="5140" height="720px" width="720px"/></g></g></g></g><g data-id="sb0j13h" data-class="staff" class="staff"><path d="M12089 6300 L12708 6300" stroke="currentColor" stroke-width="13"/><path d="M12089 6480 L12708 6480" stroke="currentColor" stroke-width="13"/><path d="M12089 6660 L12708 6660" stroke="currentColor" stroke-width="13"/><path d="M12089 6840 L12708 6840" stroke="currentColor" stroke-width="13"/><path d="M12089 7020 L12708 7020" stroke="currentColor" stroke-width="13"/><g data-id="lwkjaru" data-class="layer" class="layer"><g data-id="rsp9ijt" data-class="rest" class="rest"><use href="#E9F6-1kejkf9" x="12179" y="6660" height="720px" width="720px"/></g></g></g><g data-id="s1xml072" data-class="staff" class="staff"><path d="M12708 4500 L13150 4500" stroke="currentColor" stroke-width="13"/><path d="M12708 4680 L13150 4680" stroke="currentColor" stroke-width="13"/><path d="M12708 4860 L13150 4860" stroke="currentColor" stroke-width="13"/><path d="M12708 5040 L13150 5040" stroke="currentColor" stroke-width="13"/><path d="M12708 5220 L13150 5220" stroke="currentColor" stroke-width="13"/><g data-id="l1m097qe" data-class="layer" class="layer"><g data-id="n1v78nyh" data-class="note" class="note"><g data-class="notehead" class="notehead"><use href="#E93D-1kejkf9" x="12798" y="5220" height="720px" width="720px"/></g><g data-id="s86l2cz" data-class="stem" class="stem"><use href="#E949-1kejkf9" x="12900" y="5140" height="720px" width="720px"/></g></g></g></g><g data-id="s13qsbl9" data-class="staff" class="staff"><path d="M12708 6300 L13150 6300" stroke="currentColor" stroke-width="13"/><path d="M12708 6480 L13150 6480" stroke="currentColor" stroke-width="13"/><path d="M12708 6660 L13150 6660" stroke="currentColor" stroke-width="13"/><path d="M12708 6840 L13150 6840" stroke="currentColor" stroke-width="13"/><path d="M12708 7020 L13150 7020" stroke="currentColor" stroke-width="13"/><g data-id="l1jpcyxg" data-class="layer" class="layer"><g data-id="r4p81sx" data-class="rest" class="rest"><use href="#E9F7-1kejkf9" x="12798" y="6660" height="720px" width="720px"/></g></g></g><g data-id="s17ddmea" data-class="staff" class="staff"><path d="M13150 4500 L13471 4500" stroke="currentColor" stroke-width="13"/><path d="M13150 4680 L13471 4680" stroke="currentColor" stroke-width="13"/><path d="M13150 4860 L13471 4860" stroke="currentColor" stroke-width="13"/><path d="M13150 5040 L13471 5040" stroke="currentColor" stroke-width="13"/><path d="M13150 5220 L13471 5220" stroke="currentColor" stroke-width="13"/><g data-id="l1a937wa" data-class="layer" class="layer"><g data-id="n1srpxf4" data-class="note" class="note"><g data-class="notehead" class="notehead"><use href="#E93D-1kejkf9" x="13240" y="5220" height="720px" width="720px"/></g><g data-id="s1wb0uzz" data-class="stem" class="stem"><use href="#E94B-1kejkf9" x="13342" y="5140" height="720px" width="720px"/></g></g></g></g><g data-id="s1c53oxt" data-class="staff" class="staff"><path d="M13150 6300 L13471 6300" stroke="currentColor" stroke-width="13"/><path d="M13150 6480 L13471 6480" stroke="currentColor" stroke-width="13"/><path d="M13150 6660 L13471 6660" stroke="currentColor" stroke-width="13"/><path d="M13150 6840 L13471 6840" stroke="currentColor" stroke-width="13"/><path d="M13150 7020 L13471 7020" stroke="currentColor" stroke-width="13"/><g data-id="l6eoql6" data-class="layer" class="layer"><g data-id="r11o4moj" data-class="rest" class="rest"><use href="#E9F8-1kejkf9" x="13240" y="6660" height="720px" width="720px"/></g></g></g><g data-id="s1a309hq" data-class="systemMilestoneEnd" class="systemMilestoneEnd s1g1flrr"/></g><g data-id="p1pw6yf9" data-class="pageMilestoneEnd" class="pageMilestoneEnd sqxqmwo"/><g data-id="p19rlpi2" data-class="pageMilestoneEnd" class="pageMilestoneEnd m10efh9h"/></g></svg></svg>