<svg viewBox="0 0 118 46" version="1.1" xmlns="http://www.w3.org/2000/svg" xmlns:xlink="http://www.w3.org/1999/xlink" overflow="visible" id="n15ce1i6"><desc>Engraved by Verovio 6.1.0-682d606</desc><defs><g id="E901-n15ce1i6"><path transform="scale(1,-1)" d="M144 488c30 28 83 110 83 176c0 77 -39 150 -104 150c-15 0 -33 -6 -61 -34c-15 -15 -23 -44 -23 -79c0 -44 14 -96 43 -133c23 -29 44 -58 62 -80zM159 69c-57 0 -104 -31 -104 -98c0 -61 35 -63 51 -75c8 0 23 52 39 92l32 80c-6 1 -12 1 -18 1zM256 -25 c0 -76 -24 -122 -98 -122h-3c-28 0 -66 7 -84 15c-38 17 -71 55 -71 112c0 55 56 114 124 123c25 3 49 8 61 8c12 33 26 89 26 128c0 104 -55 180 -76 211c-51 -65 -79 -110 -90 -178c-1 -6 -4 -25 -4 -46c0 -18 2 -38 10 -50c5 -7 7 -16 7 -24c0 -13 -6 -24 -15 -24 c-5 0 -12 5 -19 17c-12 21 -24 38 -24 96c0 77 23 115 54 151c38 44 26 28 65 68l1 -1c0 3 -16 27 -60 79c-19 22 -58 58 -58 145c0 76 30 100 53 123c25 25 57 38 102 38c62 0 110 -83 110 -168c0 -13 -2 -26 -4 -39c-10 -52 -83 -130 -111 -163c24 -38 8 -3 55 -91 c34 -63 42 -84 42 -119c0 -10 -1 -22 -2 -37c-4 -63 -11 -76 -20 -116c7 0 12 1 21 -1c14 -4 20 -11 20 -19c0 -19 -30 -19 -52 -24c-6 -13 -67 -174 -67 -181c0 -2 9 -4 19 -4c25 0 41 21 56 73c8 28 14 39 22 39s10 -8 10 -19z"/></g><g id="E93C-n15ce1i6"><path transform="scale(1,-1)" d="M156 195l156 -195l-156 -195l-156 195zM127 110l-57 -71l115 -149l57 71z"/></g><g id="E93E-n15ce1i6"><path transform="scale(1,-1)" d="M0 760h30v-760h-30v760z"/></g></defs><style type="text/css">#n15ce1i6 g.ending, #n15ce1i6 g.fing, #n15ce1i6 g.reh, #n15ce1i6 g.tempo {font-weight:bold;}#n15ce1i6 g.dir, #n15ce1i6 g.dynam, #n15ce1i6 g.mNum {font-style:italic;}#n15ce1i6 g.label {font-weight:normal;}#n15ce1i6 ellipse, #n15ce1i6 path, #n15ce1i6 polygon, #n15ce1i6 polyline, #n15ce1i6 rect {stroke:currentColor}</style><svg class="definition-scale" color="black" font-family="Times, serif" viewBox="0 0 11790 4600"><g class="page-margin" transform="translate(500, 500)"><g data-id="o107xynu" data-class="mdiv" class="mdiv pageMilestone"/><g data-id="p1bmprxo" data-class="score" class="score pageMilestone"/><g data-id="yfrdexj" data-class="system" class="system"><path d="M13 540 L13 3060" stroke-width="27"/><g data-id="m1hl46ig" data-class="section" class="section systemMilestone"/><g data-id="w1983dd7" data-class="staff" class="staff"><path d="M0 540 L9873 540" stroke-width="13"/><path d="M0 720 L9873 720" stroke-width="13"/><path d="M0 900 L9873 900" stroke-width="13"/><path d="M0 1080 L9873 1080" stroke-width="13"/><path d="M0 1260 L9873 1260" stroke-width="13"/><g data-id="inx6n6a" data-class="clef" class="clef"><use href="#E901-n15ce1i6" transform="translate(117, 1080) scale(0.72, 0.72)"/></g><g data-id="j69cnw2" data-class="keySig" class="keySig"/><g data-id="x1lfs6my" data-class="layer" class="layer"><g data-id="y12h69cl" data-class="note" class="note"><g data-class="notehead" class="notehead"><polygon points="507,1170 703,1170 703,1220 507,1220"/><polygon points="507,1350 703,1350 703,1300 507,1300"/><rect x="489" y="1140" height="240" width="18"/></g><g data-class="stem" class="stem"><rect x="703" y="630" height="750" width="18"/></g></g><g data-id="z1gqk0hp" data-class="barLine" class="barLine"><ellipse cx="9846" cy="630" rx="27" ry="27"/><ellipse cx="9846" cy="810" rx="27" ry="27"/><ellipse cx="9846" cy="990" rx="27" ry="27"/><ellipse cx="9846" cy="1170" rx="27" ry="27"/></g></g></g><g data-id="c1qkevc" data-class="staff" class="staff"><path d="M0 2340 L9873 2340" stroke-width="13"/><path d="M0 2520 L9873 2520" stroke-width="13"/><path d="M0 2700 L9873 2700" stroke-width="13"/><path d="M0 2880 L9873 2880" stroke-width="13"/><path d="M0 3060 L9873 3060" stroke-width="13"/><g data-id="k1lysy1c" data-class="clef" class="clef"><use href="#E901-n15ce1i6" transform="translate(117, 2880) scale(0.72, 0.72)"/></g><g data-id="l1hv23s6" data-class="keySig" class="keySig"/><g data-id="d1rwlzuh" data-class="layer" class="layer"><g data-id="e1aevmca" data-class="note" class="note"><g data-class="notehead" class="notehead"><use href="#E93C-n15ce1i6" transform="translate(489, 2790) scale(0.72, 0.72)"/></g><g data-id="g1kxou6x" data-class="stem" class="stem"><use href="#E93E-n15ce1i6" transform="translate(591, 2710) scale(0.72, 0.72)"/></g></g><g data-id="f10eh6g0" data-class="note" class="note"><g data-class="notehead" class="notehead"><use href="#E93C-n15ce1i6" transform="translate(1309, 2790) scale(0.72, 0.72)"/></g><g data-id="h1q6bbpx" data-class="stem" class="stem"><use href="#E93E-n15ce1i6" transform="translate(1411, 2710) scale(0.72, 0.72)"/></g></g><g data-id="g1wwfngm" data-class="note" class="note"><g data-class="notehead" class="notehead"><use href="#E93C-n15ce1i6" transform="translate(2129, 2790) scale(0.72, 0.72)"/></g><g data-id="izgusp7" data-class="stem" class="stem"><use href="#E93E-n15ce1i6" transform="translate(2231, 2710) scale(0.72, 0.72)"/></g></g><g data-id="htpwzm9" data-class="barLine" class="barLine"><ellipse cx="2949" cy="2430" rx="27" ry="27"/><ellipse cx="2949" cy="2610" rx="27" ry="27"/><ellipse cx="2949" cy="2790" rx="27" ry="27"/><ellipse cx="2949" cy="2970" rx="27" ry="27"/></g><g data-id="isgnj4x" data-class="note" class="note"><g data-class="notehead" class="notehead"><use href="#E93C-n15ce1i6" transform="translate(3066, 2790) scale(0.72, 0.72)"/></g><g data-id="j1in6wev" data-class="stem" class="stem"><use href="#E93E-n15ce1i6" transform="translate(3168, 2710) scale(0.72, 0.72)"/></g></g><g data-id="jvwarus" data-class="note" class="note"><g data-class="notehead" class="notehead"><use href="#E93C-n15ce1i6" transform="translate(3886, 2790) scale(0.72, 0.72)"/></g><g data-id="k1jia1k5" data-class="stem" class="stem"><use href="#E93E-n15ce1i6" transform="translate(3988, 2710) scale(0.72, 0.72)"/></g></g><g data-id="k18o8itz" data-class="note" class="note"><g data-class="notehead" class="notehead"><use href="#E93C-n15ce1i6" transform="translate(4706, 2790) scale(0.72, 0.72)"/></g><g data-id="lo255wx" data-class="stem" class="stem"><use href="#E93E-n15ce1i6" transform="translate(4808, 2710) scale(0.72, 0.72)"/></g></g><g data-id="l1miz3wj" data-class="barLine" class="barLine"><path d="M5526 2340 L5526 3060" stroke-width="27" stroke-dasharray="102 102"/></g><g data-id="m7jh21q" data-class="note" class="note"><g data-class="notehead" class="notehead"><use href="#E93C-n15ce1i6" transform="translate(5629, 2790) scale(0.72, 0.72)"/></g><g data-id="mn1kq8d" data-class="stem" class="stem"><use href="#E93E-n15ce1i6" transform="translate(5731, 2710) scale(0.72, 0.72)"/></g></g><g data-id="n4wol7j" data-class="note" class="note"><g data-class="notehead" class="notehead"><use href="#E93C-n15ce1i6" transform="translate(6449, 2790) scale(0.72, 0.72)"/></g><g data-id="n1j9jd6k" data-class="stem" class="stem"><use href="#E93E-n15ce1i6" transform="translate(6551, 2710) scale(0.72, 0.72)"/></g></g><g data-id="o1pecwiy" data-class="note" class="note"><g data-class="notehead" class="notehead"><use href="#E93C-n15ce1i6" transform="translate(7269, 2790) scale(0.72, 0.72)"/></g><g data-id="o1putnee" data-class="stem" class="stem"><use href="#E93E-n15ce1i6" transform="translate(7371, 2710) scale(0.72, 0.72)"/></g></g><g data-id="pftx9a8" data-class="barLine" class="barLine"><ellipse cx="8089" cy="2430" rx="27" ry="27"/><ellipse cx="8089" cy="2610" rx="27" ry="27"/><ellipse cx="8089" cy="2790" rx="27" ry="27"/><ellipse cx="8089" cy="2970" rx="27" ry="27"/></g><g data-id="qcotibb" data-class="note" class="note"><g data-class="notehead" class="notehead"><use href="#E93C-n15ce1i6" transform="translate(8206, 2790) scale(0.72, 0.72)"/></g><g data-id="p1foxy80" data-class="stem" class="stem"><use href="#E93E-n15ce1i6" transform="translate(8308, 2710) scale(0.72, 0.72)"/></g></g><g data-id="rq1p88a" data-class="note" class="note"><g data-class="notehead" class="notehead"><use href="#E93C-n15ce1i6" transform="translate(9026, 2790) scale(0.72, 0.72)"/></g><g data-id="q1yr372d" data-class="stem" class="stem"><use href="#E93E-n15ce1i6" transform="translate(9128, 2710) scale(0.72, 0.72)"/></g></g></g></g><g data-id="xtrguf5" data-class="staff" class="staff"><path d="M9873 540 L10796 540" stroke-width="13"/><path d="M9873 720 L10796 720" stroke-width="13"/><path d="M9873 900 L10796 900" stroke-width="13"/><path d="M9873 1080 L10796 1080" stroke-width="13"/><path d="M9873 1260 L10796 1260" stroke-width="13"/><g data-id="ymnl7as" data-class="layer" class="layer"><g data-id="aab0bun" data-class="note" class="note"><g data-class="notehead" class="notehead"><use href="#E93C-n15ce1i6" transform="translate(9963, 1260) scale(0.72, 0.72)"/></g><g data-id="fpbc9gs" data-class="stem" class="stem"><use href="#E93E-n15ce1i6" transform="translate(10065, 1180) scale(0.72, 0.72)"/></g></g><g data-id="b1597tvo" data-class="barLine" class="barLine"><path d="M10783 540 L10783 1260" stroke-width="27" stroke-dasharray="102 102"/></g></g></g><g data-id="b13v23nt" data-class="staff" class="staff"><path d="M9873 2340 L10796 2340" stroke-width="13"/><path d="M9873 2520 L10796 2520" stroke-width="13"/><path d="M9873 2700 L10796 2700" stroke-width="13"/><path d="M9873 2880 L10796 2880" stroke-width="13"/><path d="M9873 3060 L10796 3060" stroke-width="13"/><g data-id="ceerbuo" data-class="layer" class="layer"><g data-id="s1fu7jvd" data-class="note" class="note"><g data-class="notehead" class="notehead"><use href="#E93C-n15ce1i6" transform="translate(9963, 2790) scale(0.72, 0.72)"/></g><g data-id="r1e7vcat" data-class="stem" class="stem"><use href="#E93E-n15ce1i6" transform="translate(10065, 2710) scale(0.72, 0.72)"/></g></g><g data-id="tvob059" data-class="barLine" class="barLine"><path d="M10783 2340 L10783 3060" stroke-width="27" stroke-dasharray="102 102"/></g></g></g><g data-id="bvh6g0s" data-class="systemMilestoneEnd" class="systemMilestoneEnd m1hl46ig"/></g><g data-id="c13tlbck" data-class="pageMilestoneEnd" class="pageMilestoneEnd p1bmprxo"/><g data-id="d1o5ou8t" data-class="pageMilestoneEnd" class="pageMilestoneEnd o107xynu"/></g></svg></svg>