<svg viewBox="0 0 144 86" version="1.1" xmlns="http://www.w3.org/2000/svg" xmlns:xlink="http://www.w3.org/1999/xlink" overflow="visible" id="n18nh4rg"><desc>Engraved by Verovio 6.0.1-ffbc336</desc><defs><g id="E901-n18nh4rg"><path transform="scale(1,-1)" d="M144 488c30 28 83 110 83 176c0 77 -39 150 -104 150c-15 0 -33 -6 -61 -34c-15 -15 -23 -44 -23 -79c0 -44 14 -96 43 -133c23 -29 44 -58 62 -80zM159 69c-57 0 -104 -31 -104 -98c0 -61 35 -63 51 -75c8 0 23 52 39 92l32 80c-6 1 -12 1 -18 1zM256 -25 c0 -76 -24 -122 -98 -122h-3c-28 0 -66 7 -84 15c-38 17 -71 55 -71 112c0 55 56 114 124 123c25 3 49 8 61 8c12 33 26 89 26 128c0 104 -55 180 -76 211c-51 -65 -79 -110 -90 -178c-1 -6 -4 -25 -4 -46c0 -18 2 -38 10 -50c5 -7 7 -16 7 -24c0 -13 -6 -24 -15 -24 c-5 0 -12 5 -19 17c-12 21 -24 38 -24 96c0 77 23 115 54 151c38 44 26 28 65 68l1 -1c0 3 -16 27 -60 79c-19 22 -58 58 -58 145c0 76 30 100 53 123c25 25 57 38 102 38c62 0 110 -83 110 -168c0 -13 -2 -26 -4 -39c-10 -52 -83 -130 -111 -163c24 -38 8 -3 55 -91 c34 -63 42 -84 42 -119c0 -10 -1 -22 -2 -37c-4 -63 -11 -76 -20 -116c7 0 12 1 21 -1c14 -4 20 -11 20 -19c0 -19 -30 -19 -52 -24c-6 -13 -67 -174 -67 -181c0 -2 9 -4 19 -4c25 0 41 21 56 73c8 28 14 39 22 39s10 -8 10 -19z"/></g><g id="E93C-n18nh4rg"><path transform="scale(1,-1)" d="M156 195l156 -195l-156 -195l-156 195zM127 110l-57 -71l115 -149l57 71z"/></g><g id="E93E-n18nh4rg"><path transform="scale(1,-1)" d="M0 760h30v-760h-30v760z"/></g></defs><style type="text/css">#n18nh4rg g.ending, #n18nh4rg g.fing, #n18nh4rg g.reh, #n18nh4rg g.tempo {font-weight:bold;}#n18nh4rg g.dir, #n18nh4rg g.dynam, #n18nh4rg g.mNum {font-style:italic;}#n18nh4rg g.label {font-weight:normal;}#n18nh4rg ellipse, #n18nh4rg path, #n18nh4rg polygon, #n18nh4rg polyline, #n18nh4rg rect {stroke:currentColor}</style><svg class="definition-scale" color="black" font-family="Times, serif" viewBox="0 0 14390 8560"><g class="page-margin" transform="translate(500, 500)"><g data-id="o1xpa1tb" data-class="mdiv" class="mdiv pageMilestone"/><g data-id="p8413pf" data-class="score" class="score pageMilestone"/><g data-id="syqlh9z" data-class="system" class="system"><path d="M13 540 L13 3060" stroke-width="27"/><g data-id="m6sdptn" data-class="section" class="section systemMilestone"/><g data-id="w1uad1ln" data-class="staff" class="staff"><path d="M0 540 L13398 540" stroke-width="13"/><path d="M0 720 L13398 720" stroke-width="13"/><path d="M0 900 L13398 900" stroke-width="13"/><path d="M0 1080 L13398 1080" stroke-width="13"/><path d="M0 1260 L13398 1260" stroke-width="13"/><g data-id="c1udksv4" data-class="clef" class="clef"><use href="#E901-n18nh4rg" transform="translate(117, 1080) scale(0.72, 0.72)"/></g><g data-id="d159w7dx" data-class="keySig" class="keySig"/><g data-id="x1cpk95q" data-class="layer" class="layer"><g data-id="ymhh8qu" data-class="note" class="note"><g data-class="notehead" class="notehead"><polygon points="507,1170 703,1170 703,1220 507,1220"/><polygon points="507,1350 703,1350 703,1300 507,1300"/><rect x="489" y="1140" height="240" width="18"/></g><g data-class="stem" class="stem"><rect x="703" y="630" height="750" width="18"/></g></g><g data-id="z1hhx1r" data-class="barLine" class="barLine"><ellipse cx="13371" cy="630" rx="27" ry="27"/><ellipse cx="13371" cy="810" rx="27" ry="27"/><ellipse cx="13371" cy="990" rx="27" ry="27"/><ellipse cx="13371" cy="1170" rx="27" ry="27"/></g></g></g><g data-id="cu9bckj" data-class="staff" class="staff"><path d="M0 2340 L13398 2340" stroke-width="13"/><path d="M0 2520 L13398 2520" stroke-width="13"/><path d="M0 2700 L13398 2700" stroke-width="13"/><path d="M0 2880 L13398 2880" stroke-width="13"/><path d="M0 3060 L13398 3060" stroke-width="13"/><g data-id="exl5n5f" data-class="clef" class="clef"><use href="#E901-n18nh4rg" transform="translate(117, 2880) scale(0.72, 0.72)"/></g><g data-id="f1m7g73i" data-class="keySig" class="keySig"/><g data-id="d1w3v3uv" data-class="layer" class="layer"><g data-id="e1oxgf7q" data-class="note" class="note"><g data-class="notehead" class="notehead"><use href="#E93C-n18nh4rg" transform="translate(489, 2790) scale(0.72, 0.72)"/></g><g data-id="of5j994" data-class="stem" class="stem"><use href="#E93E-n18nh4rg" transform="translate(591, 2710) scale(0.72, 0.72)"/></g></g><g data-id="f1osznx3" data-class="note" class="note"><g data-class="notehead" class="notehead"><use href="#E93C-n18nh4rg" transform="translate(1214, 2790) scale(0.72, 0.72)"/></g><g data-id="p9vlqyv" data-class="stem" class="stem"><use href="#E93E-n18nh4rg" transform="translate(1316, 2710) scale(0.72, 0.72)"/></g></g><g data-id="g2y8sif" data-class="note" class="note"><g data-class="notehead" class="notehead"><use href="#E93C-n18nh4rg" transform="translate(1939, 2790) scale(0.72, 0.72)"/></g><g data-id="q1u0u3qa" data-class="stem" class="stem"><use href="#E93E-n18nh4rg" transform="translate(2041, 2710) scale(0.72, 0.72)"/></g></g><g data-id="h1wocee8" data-class="barLine" class="barLine"><ellipse cx="2664" cy="2430" rx="27" ry="27"/><ellipse cx="2664" cy="2610" rx="27" ry="27"/><ellipse cx="2664" cy="2790" rx="27" ry="27"/><ellipse cx="2664" cy="2970" rx="27" ry="27"/></g><g data-id="i1q9utdw" data-class="note" class="note"><g data-class="notehead" class="notehead"><use href="#E93C-n18nh4rg" transform="translate(2781, 2790) scale(0.72, 0.72)"/></g><g data-id="r593hqx" data-class="stem" class="stem"><use href="#E93E-n18nh4rg" transform="translate(2883, 2710) scale(0.72, 0.72)"/></g></g><g data-id="j1tyublv" data-class="note" class="note"><g data-class="notehead" class="notehead"><use href="#E93C-n18nh4rg" transform="translate(3506, 2790) scale(0.72, 0.72)"/></g><g data-id="s1xu1oxf" data-class="stem" class="stem"><use href="#E93E-n18nh4rg" transform="translate(3608, 2710) scale(0.72, 0.72)"/></g></g><g data-id="k49was7" data-class="note" class="note"><g data-class="notehead" class="notehead"><use href="#E93C-n18nh4rg" transform="translate(4231, 2790) scale(0.72, 0.72)"/></g><g data-id="tvyzq4" data-class="stem" class="stem"><use href="#E93E-n18nh4rg" transform="translate(4333, 2710) scale(0.72, 0.72)"/></g></g><g data-id="l1gqi6zh" data-class="barLine" class="barLine"><path d="M4956 2340 L4956 3060" stroke-width="27" stroke-dasharray="102 102"/></g><g data-id="mottypd" data-class="note" class="note"><g data-class="notehead" class="notehead"><use href="#E93C-n18nh4rg" transform="translate(5059, 2790) scale(0.72, 0.72)"/></g><g data-id="uoo24r8" data-class="stem" class="stem"><use href="#E93E-n18nh4rg" transform="translate(5161, 2710) scale(0.72, 0.72)"/></g></g><g data-id="n1in9fvn" data-class="note" class="note"><g data-class="notehead" class="notehead"><use href="#E93C-n18nh4rg" transform="translate(5784, 2790) scale(0.72, 0.72)"/></g><g data-id="vbp8k62" data-class="stem" class="stem"><use href="#E93E-n18nh4rg" transform="translate(5886, 2710) scale(0.72, 0.72)"/></g></g><g data-id="om9bt9z" data-class="note" class="note"><g data-class="notehead" class="notehead"><use href="#E93C-n18nh4rg" transform="translate(6509, 2790) scale(0.72, 0.72)"/></g><g data-id="waofm96" data-class="stem" class="stem"><use href="#E93E-n18nh4rg" transform="translate(6611, 2710) scale(0.72, 0.72)"/></g></g><g data-id="pgnbufq" data-class="barLine" class="barLine"><ellipse cx="7234" cy="2430" rx="27" ry="27"/><ellipse cx="7234" cy="2610" rx="27" ry="27"/><ellipse cx="7234" cy="2790" rx="27" ry="27"/><ellipse cx="7234" cy="2970" rx="27" ry="27"/></g><g data-id="qz1bkfr" data-class="note" class="note"><g data-class="notehead" class="notehead"><use href="#E93C-n18nh4rg" transform="translate(7351, 2790) scale(0.72, 0.72)"/></g><g data-id="x16ktn75" data-class="stem" class="stem"><use href="#E93E-n18nh4rg" transform="translate(7453, 2710) scale(0.72, 0.72)"/></g></g><g data-id="r9rj9p7" data-class="note" class="note"><g data-class="notehead" class="notehead"><use href="#E93C-n18nh4rg" transform="translate(8076, 2790) scale(0.72, 0.72)"/></g><g data-id="y12ourqb" data-class="stem" class="stem"><use href="#E93E-n18nh4rg" transform="translate(8178, 2710) scale(0.72, 0.72)"/></g></g><g data-id="s1san7qh" data-class="note" class="note"><g data-class="notehead" class="notehead"><use href="#E93C-n18nh4rg" transform="translate(8801, 2790) scale(0.72, 0.72)"/></g><g data-id="z1y7lult" data-class="stem" class="stem"><use href="#E93E-n18nh4rg" transform="translate(8903, 2710) scale(0.72, 0.72)"/></g></g><g data-id="t19j7ter" data-class="barLine" class="barLine"><path d="M9526 2340 L9526 3060" stroke-width="27" stroke-dasharray="102 102"/></g><g data-id="u14i9uiy" data-class="note" class="note"><g data-class="notehead" class="notehead"><use href="#E93C-n18nh4rg" transform="translate(9629, 2790) scale(0.72, 0.72)"/></g><g data-id="a9lp613" data-class="stem" class="stem"><use href="#E93E-n18nh4rg" transform="translate(9731, 2710) scale(0.72, 0.72)"/></g></g><g data-id="vfbv6mv" data-class="note" class="note"><g data-class="notehead" class="notehead"><use href="#E93C-n18nh4rg" transform="translate(10354, 2790) scale(0.72, 0.72)"/></g><g data-id="b8tiu0n" data-class="stem" class="stem"><use href="#E93E-n18nh4rg" transform="translate(10456, 2710) scale(0.72, 0.72)"/></g></g><g data-id="wywh971" data-class="note" class="note"><g data-class="notehead" class="notehead"><use href="#E93C-n18nh4rg" transform="translate(11079, 2790) scale(0.72, 0.72)"/></g><g data-id="c9abno4" data-class="stem" class="stem"><use href="#E93E-n18nh4rg" transform="translate(11181, 2710) scale(0.72, 0.72)"/></g></g><g data-id="xtkbut4" data-class="barLine" class="barLine"><ellipse cx="11804" cy="2430" rx="27" ry="27"/><ellipse cx="11804" cy="2610" rx="27" ry="27"/><ellipse cx="11804" cy="2790" rx="27" ry="27"/><ellipse cx="11804" cy="2970" rx="27" ry="27"/></g><g data-id="yfov8wu" data-class="note" class="note"><g data-class="notehead" class="notehead"><use href="#E93C-n18nh4rg" transform="translate(11921, 2790) scale(0.72, 0.72)"/></g><g data-id="d4rodjf" data-class="stem" class="stem"><use href="#E93E-n18nh4rg" transform="translate(12023, 2710) scale(0.72, 0.72)"/></g></g><g data-id="z1urzlq3" data-class="note" class="note"><g data-class="notehead" class="notehead"><use href="#E93C-n18nh4rg" transform="translate(12646, 2790) scale(0.72, 0.72)"/></g><g data-id="e1bj34m6" data-class="stem" class="stem"><use href="#E93E-n18nh4rg" transform="translate(12748, 2710) scale(0.72, 0.72)"/></g></g></g></g></g><g data-id="v102olsv" data-class="system" class="system"><path d="M13 4500 L13 7020" stroke-width="27"/><g data-id="btpvykz" data-class="staff" class="staff"><path d="M0 4500 L1227 4500" stroke-width="13"/><path d="M0 4680 L1227 4680" stroke-width="13"/><path d="M0 4860 L1227 4860" stroke-width="13"/><path d="M0 5040 L1227 5040" stroke-width="13"/><path d="M0 5220 L1227 5220" stroke-width="13"/><g data-id="wi7rt38" data-class="clef" class="clef"><use href="#E901-n18nh4rg" transform="translate(117, 5040) scale(0.72, 0.72)"/></g><g data-id="xci4aa2" data-class="keySig" class="keySig"/><g data-id="c1gl643o" data-class="layer" class="layer"><g data-id="a398m0v" data-class="note" class="note"><g data-class="notehead" class="notehead"><use href="#E93C-n18nh4rg" transform="translate(489, 5220) scale(0.72, 0.72)"/></g><g data-id="nd0blo0" data-class="stem" class="stem"><use href="#E93E-n18nh4rg" transform="translate(591, 5140) scale(0.72, 0.72)"/></g></g><g data-id="btcwc83" data-class="barLine" class="barLine"><path d="M1214 4500 L1214 5220" stroke-width="27" stroke-dasharray="102 102"/></g></g></g><g data-id="f1omev65" data-class="staff" class="staff"><path d="M0 6300 L1227 6300" stroke-width="13"/><path d="M0 6480 L1227 6480" stroke-width="13"/><path d="M0 6660 L1227 6660" stroke-width="13"/><path d="M0 6840 L1227 6840" stroke-width="13"/><path d="M0 7020 L1227 7020" stroke-width="13"/><g data-id="y172q24z" data-class="clef" class="clef"><use href="#E901-n18nh4rg" transform="translate(117, 6840) scale(0.72, 0.72)"/></g><g data-id="zm419tb" data-class="keySig" class="keySig"/><g data-id="g1njabd0" data-class="layer" class="layer"><g data-id="a1vjhdgb" data-class="note" class="note"><g data-class="notehead" class="notehead"><use href="#E93C-n18nh4rg" transform="translate(489, 6750) scale(0.72, 0.72)"/></g><g data-id="ft687ww" data-class="stem" class="stem"><use href="#E93E-n18nh4rg" transform="translate(591, 6670) scale(0.72, 0.72)"/></g></g><g data-id="bb94szu" data-class="barLine" class="barLine"><path d="M1214 6300 L1214 7020" stroke-width="27" stroke-dasharray="102 102"/></g></g></g><g data-id="jb9ynk4" data-class="systemMilestoneEnd" class="systemMilestoneEnd m6sdptn"/></g><g data-id="k1cnjp64" data-class="pageMilestoneEnd" class="pageMilestoneEnd p8413pf"/><g data-id="ljusj27" data-class="pageMilestoneEnd" class="pageMilestoneEnd o1xpa1tb"/></g></svg></svg>