<svg viewBox="0 0 70 28" version="1.1" xmlns="http://www.w3.org/2000/svg" xmlns:xlink="http://www.w3.org/1999/xlink" overflow="visible" id="z18n4rra"><desc>Engraved by Verovio 6.0.1-ffbc336</desc><defs><g id="E901-z18n4rra"><path transform="scale(1,-1)" d="M144 488c30 28 83 110 83 176c0 77 -39 150 -104 150c-15 0 -33 -6 -61 -34c-15 -15 -23 -44 -23 -79c0 -44 14 -96 43 -133c23 -29 44 -58 62 -80zM159 69c-57 0 -104 -31 -104 -98c0 -61 35 -63 51 -75c8 0 23 52 39 92l32 80c-6 1 -12 1 -18 1zM256 -25 c0 -76 -24 -122 -98 -122h-3c-28 0 -66 7 -84 15c-38 17 -71 55 -71 112c0 55 56 114 124 123c25 3 49 8 61 8c12 33 26 89 26 128c0 104 -55 180 -76 211c-51 -65 -79 -110 -90 -178c-1 -6 -4 -25 -4 -46c0 -18 2 -38 10 -50c5 -7 7 -16 7 -24c0 -13 -6 -24 -15 -24 c-5 0 -12 5 -19 17c-12 21 -24 38 -24 96c0 77 23 115 54 151c38 44 26 28 65 68l1 -1c0 3 -16 27 -60 79c-19 22 -58 58 -58 145c0 76 30 100 53 123c25 25 57 38 102 38c62 0 110 -83 110 -168c0 -13 -2 -26 -4 -39c-10 -52 -83 -130 -111 -163c24 -38 8 -3 55 -91 c34 -63 42 -84 42 -119c0 -10 -1 -22 -2 -37c-4 -63 -11 -76 -20 -116c7 0 12 1 21 -1c14 -4 20 -11 20 -19c0 -19 -30 -19 -52 -24c-6 -13 -67 -174 -67 -181c0 -2 9 -4 19 -4c25 0 41 21 56 73c8 28 14 39 22 39s10 -8 10 -19z"/></g><g id="E911-z18n4rra"><path transform="scale(1,-1)" d="M36 0c0 -113 91 -204 204 -204s204 91 204 204s-91 204 -204 204s-204 -91 -204 -204zM0 0c0 132 108 240 240 240s240 -108 240 -240s-108 -240 -240 -240s-240 108 -240 240z"/></g><g id="E925-z18n4rra"><path transform="scale(1,-1)" d="M0 408h36v-816h-36v816z"/></g><g id="E920-z18n4rra"><path transform="scale(1,-1)" d="M0 0c0 35 28 63 63 63s63 -28 63 -63s-28 -63 -63 -63s-63 28 -63 63z"/></g><g id="E0A4-z18n4rra"><path transform="scale(1,-1)" d="M0 -39c0 68 73 172 200 172c66 0 114 -37 114 -95c0 -84 -106 -171 -218 -171c-64 0 -96 30 -96 94z"/></g><g id="E915-z18n4rra"><path transform="scale(1,-1)" d="M421 96c-46 77 -101 108 -181 108c-113 0 -204 -91 -204 -204s91 -204 204 -204c78 0 129 34 177 110l33 -22c-41 -74 -120 -124 -210 -124c-132 0 -240 108 -240 240s108 240 240 240c89 0 163 -45 209 -122z"/></g></defs><style type="text/css">#z18n4rra g.ending, #z18n4rra g.fing, #z18n4rra g.reh, #z18n4rra g.tempo {font-weight:bold;}#z18n4rra g.dir, #z18n4rra g.dynam, #z18n4rra g.mNum {font-style:italic;}#z18n4rra g.label {font-weight:normal;}#z18n4rra ellipse, #z18n4rra path, #z18n4rra polygon, #z18n4rra polyline, #z18n4rra rect {stroke:currentColor}</style><svg class="definition-scale" color="black" font-family="Times, serif" viewBox="0 0 6990 2800"><g class="page-margin" transform="translate(500, 500)"><g data-id="a4nh8rc" data-class="mdiv" class="mdiv pageMilestone"/><g data-id="bdw2v6y" data-class="score" class="score pageMilestone"/><g data-id="q1eyi323" data-class="system" class="system"><g data-id="p19gpl12" data-class="section" class="section systemMilestone"/><g data-id="zsfz0b0" data-class="staff" class="staff"><path d="M0 540 L1677 540" stroke-width="13"/><path d="M0 720 L1677 720" stroke-width="13"/><path d="M0 900 L1677 900" stroke-width="13"/><path d="M0 1080 L1677 1080" stroke-width="13"/><path d="M0 1260 L1677 1260" stroke-width="13"/><g data-id="v1kp477l" data-class="clef" class="clef"><use href="#E901-z18n4rra" transform="translate(90, 1080) scale(0.72, 0.72)"/></g><g data-id="w1pmrtwg" data-class="keySig" class="keySig"/><g data-id="x46iyv4" data-class="mensur" class="mensur" color="red" fill="red"><use href="#E911-z18n4rra" transform="translate(462, 900) scale(0.72, 0.72)"/><use href="#E925-z18n4rra" transform="translate(622, 900) scale(0.72, 0.72)"/><use href="#E920-z18n4rra" transform="translate(589, 900) scale(0.72, 0.72)"/></g><g data-id="a55k7z7" data-class="layer" class="layer"><g data-id="bmzbs4r" data-class="note" class="note"><g data-class="notehead" class="notehead"><use href="#E0A4-z18n4rra" transform="translate(987, 1260) scale(0.72, 0.72)"/></g></g></g></g><g data-id="h6n82he" data-class="staff" class="staff"><path d="M1677 540 L2457 540" stroke-width="13"/><path d="M1677 720 L2457 720" stroke-width="13"/><path d="M1677 900 L2457 900" stroke-width="13"/><path d="M1677 1080 L2457 1080" stroke-width="13"/><path d="M1677 1260 L2457 1260" stroke-width="13"/><g data-id="i1etdvwj" data-class="layer" class="layer"><g data-id="cbbqae7" data-class="note" class="note"><g data-class="notehead" class="notehead"><use href="#E0A4-z18n4rra" transform="translate(1767, 1260) scale(0.72, 0.72)"/></g></g></g></g><g data-id="j1mzuz18" data-class="staff" class="staff"><path d="M2457 540 L3651 540" stroke-width="13"/><path d="M2457 720 L3651 720" stroke-width="13"/><path d="M2457 900 L3651 900" stroke-width="13"/><path d="M2457 1080 L3651 1080" stroke-width="13"/><path d="M2457 1260 L3651 1260" stroke-width="13"/><g data-id="kt3ql5z" data-class="layer" class="layer"><g data-id="dpdg82t" data-class="note" class="note"><g data-class="notehead" class="notehead"><use href="#E0A4-z18n4rra" transform="translate(2547, 1260) scale(0.72, 0.72)"/></g></g><g data-id="e2s61jg" data-class="mensur" class="mensur"><use href="#E915-z18n4rra" transform="translate(3237, 990) scale(0.72, 0.72)"/></g></g></g><g data-id="l9n15hb" data-class="staff" class="staff"><path d="M3651 540 L4431 540" stroke-width="13"/><path d="M3651 720 L4431 720" stroke-width="13"/><path d="M3651 900 L4431 900" stroke-width="13"/><path d="M3651 1080 L4431 1080" stroke-width="13"/><path d="M3651 1260 L4431 1260" stroke-width="13"/><g data-id="myu6sz2" data-class="layer" class="layer"><g data-id="f1gw0g76" data-class="note" class="note"><g data-class="notehead" class="notehead"><use href="#E0A4-z18n4rra" transform="translate(3741, 1260) scale(0.72, 0.72)"/></g></g></g></g><g data-id="nfds59w" data-class="staff" class="staff"><path d="M4431 540 L5211 540" stroke-width="13"/><path d="M4431 720 L5211 720" stroke-width="13"/><path d="M4431 900 L5211 900" stroke-width="13"/><path d="M4431 1080 L5211 1080" stroke-width="13"/><path d="M4431 1260 L5211 1260" stroke-width="13"/><g data-id="o1dykzn0" data-class="layer" class="layer"><g data-id="gtjpny5" data-class="note" class="note"><g data-class="notehead" class="notehead"><use href="#E0A4-z18n4rra" transform="translate(4521, 1260) scale(0.72, 0.72)"/></g></g></g></g><g data-id="p11yzkie" data-class="staff" class="staff"><path d="M5211 540 L5991 540" stroke-width="13"/><path d="M5211 720 L5991 720" stroke-width="13"/><path d="M5211 900 L5991 900" stroke-width="13"/><path d="M5211 1080 L5991 1080" stroke-width="13"/><path d="M5211 1260 L5991 1260" stroke-width="13"/><g data-id="q5mxojm" data-class="layer" class="layer"><g data-id="h1disg4s" data-class="note" class="note"><g data-class="notehead" class="notehead"><use href="#E0A4-z18n4rra" transform="translate(5301, 1260) scale(0.72, 0.72)"/></g></g></g></g><g data-id="p1x3lfqf" data-class="systemMilestoneEnd" class="systemMilestoneEnd p19gpl12"/></g><g data-id="q72hzgw" data-class="pageMilestoneEnd" class="pageMilestoneEnd bdw2v6y"/><g data-id="r11huvmx" data-class="pageMilestoneEnd" class="pageMilestoneEnd a4nh8rc"/></g></svg></svg>