<svg viewBox="0 0 148 126" version="1.1" xmlns="http://www.w3.org/2000/svg" xmlns:xlink="http://www.w3.org/1999/xlink" overflow="visible" id="ur2ri0j"><desc>Engraved by Verovio 6.1.0-682d606</desc><defs><g id="E901-ur2ri0j"><path transform="scale(1,-1)" d="M144 488c30 28 83 110 83 176c0 77 -39 150 -104 150c-15 0 -33 -6 -61 -34c-15 -15 -23 -44 -23 -79c0 -44 14 -96 43 -133c23 -29 44 -58 62 -80zM159 69c-57 0 -104 -31 -104 -98c0 -61 35 -63 51 -75c8 0 23 52 39 92l32 80c-6 1 -12 1 -18 1zM256 -25 c0 -76 -24 -122 -98 -122h-3c-28 0 -66 7 -84 15c-38 17 -71 55 -71 112c0 55 56 114 124 123c25 3 49 8 61 8c12 33 26 89 26 128c0 104 -55 180 -76 211c-51 -65 -79 -110 -90 -178c-1 -6 -4 -25 -4 -46c0 -18 2 -38 10 -50c5 -7 7 -16 7 -24c0 -13 -6 -24 -15 -24 c-5 0 -12 5 -19 17c-12 21 -24 38 -24 96c0 77 23 115 54 151c38 44 26 28 65 68l1 -1c0 3 -16 27 -60 79c-19 22 -58 58 -58 145c0 76 30 100 53 123c25 25 57 38 102 38c62 0 110 -83 110 -168c0 -13 -2 -26 -4 -39c-10 -52 -83 -130 -111 -163c24 -38 8 -3 55 -91 c34 -63 42 -84 42 -119c0 -10 -1 -22 -2 -37c-4 -63 -11 -76 -20 -116c7 0 12 1 21 -1c14 -4 20 -11 20 -19c0 -19 -30 -19 -52 -24c-6 -13 -67 -174 -67 -181c0 -2 9 -4 19 -4c25 0 41 21 56 73c8 28 14 39 22 39s10 -8 10 -19z"/></g><g id="E938-ur2ri0j"><path transform="scale(1,-1)" d="M0 0l141 141l141 -141l-141 -141z"/></g></defs><style type="text/css">#ur2ri0j g.ending, #ur2ri0j g.fing, #ur2ri0j g.reh, #ur2ri0j g.tempo {font-weight:bold;}#ur2ri0j g.dir, #ur2ri0j g.dynam, #ur2ri0j g.mNum {font-style:italic;}#ur2ri0j g.label {font-weight:normal;}#ur2ri0j ellipse, #ur2ri0j path, #ur2ri0j polygon, #ur2ri0j polyline, #ur2ri0j rect {stroke:currentColor}</style><svg class="definition-scale" color="black" font-family="Times, serif" viewBox="0 0 14710 12520"><g class="page-margin" transform="translate(500, 500)"><g data-id="v171dp5k" data-class="mdiv" class="mdiv pageMilestone"/><g data-id="w1dznywp" data-class="score" class="score pageMilestone"/><g data-id="g1qyptft" data-class="system" class="system"><path d="M13 540 L13 3060" stroke-width="27"/><g data-id="t1l6d5su" data-class="section" class="section systemMilestone"/><g data-id="dl7bkaq" data-class="staff" class="staff"><path d="M0 540 L8863 540" stroke-width="13"/><path d="M0 720 L8863 720" stroke-width="13"/><path d="M0 900 L8863 900" stroke-width="13"/><path d="M0 1080 L8863 1080" stroke-width="13"/><path d="M0 1260 L8863 1260" stroke-width="13"/><g data-id="q17hhvry" data-class="clef" class="clef"><use href="#E901-ur2ri0j" transform="translate(117, 1080) scale(0.72, 0.72)"/></g><g data-id="r1lmk8ih" data-class="keySig" class="keySig"/><g data-id="e1lo1qg7" data-class="layer" class="layer"><g data-id="f1hslzbf" data-class="note" class="note"><g data-class="notehead" class="notehead"><rect x="507" y="1188" height="144" width="126"/><rect x="489" y="1188" height="144" width="18"/></g><g data-class="stem" class="stem"><rect x="633" y="1188" height="522" width="18"/></g></g><g data-id="gmvq0wq" data-class="barLine" class="barLine"><path d="M8850 540 L8850 1260" stroke-width="27" stroke-dasharray="102 102"/></g></g></g><g data-id="t1trwz7o" data-class="staff" class="staff"><path d="M0 2340 L8863 2340" stroke-width="13"/><path d="M0 2520 L8863 2520" stroke-width="13"/><path d="M0 2700 L8863 2700" stroke-width="13"/><path d="M0 2880 L8863 2880" stroke-width="13"/><path d="M0 3060 L8863 3060" stroke-width="13"/><g data-id="s1y398ve" data-class="clef" class="clef"><use href="#E901-ur2ri0j" transform="translate(117, 2880) scale(0.72, 0.72)"/></g><g data-id="t10g3use" data-class="keySig" class="keySig"/><g data-id="uqr7ui" data-class="layer" class="layer"><g data-id="vr98jy4" data-class="note" class="note"><g data-class="notehead" class="notehead"><rect x="507" y="2988" height="144" width="126"/><rect x="489" y="2988" height="144" width="18"/><rect x="633" y="2988" height="144" width="18"/></g></g><g data-id="w1aw0ew2" data-class="note" class="note"><g data-class="notehead" class="notehead"><rect x="3294" y="2988" height="144" width="126"/><rect x="3276" y="2988" height="144" width="18"/><rect x="3420" y="2988" height="144" width="18"/></g></g><g data-id="x1warxr2" data-class="note" class="note"><g data-class="notehead" class="notehead"><rect x="6081" y="2988" height="144" width="126"/><rect x="6063" y="2988" height="144" width="18"/><rect x="6207" y="2988" height="144" width="18"/></g></g><g data-id="y2xnft1" data-class="barLine" class="barLine"><path d="M8850 2340 L8850 3060" stroke-width="27" stroke-dasharray="102 102"/></g></g></g><g data-id="mio4yb8" data-class="staff" class="staff"><path d="M8863 540 L13286 540" stroke-width="13"/><path d="M8863 720 L13286 720" stroke-width="13"/><path d="M8863 900 L13286 900" stroke-width="13"/><path d="M8863 1080 L13286 1080" stroke-width="13"/><path d="M8863 1260 L13286 1260" stroke-width="13"/><g data-id="n1jvrdy2" data-class="layer" class="layer"><g data-id="hv85dg5" data-class="note" class="note"><g data-class="notehead" class="notehead"><use href="#E938-ur2ri0j" transform="translate(8953, 1260) scale(0.72, 0.72)"/></g></g><g data-id="iywgboh" data-class="note" class="note"><g data-class="notehead" class="notehead"><use href="#E938-ur2ri0j" transform="translate(10393, 1260) scale(0.72, 0.72)"/></g></g><g data-id="j1eb100z" data-class="note" class="note"><g data-class="notehead" class="notehead"><use href="#E938-ur2ri0j" transform="translate(11833, 1260) scale(0.72, 0.72)"/></g></g><g data-id="k1q5fu5" data-class="dot" class="dot"><polygon fill-opacity="1" points="12609,1170 12654,1125 12699,1170 12654,1215"/></g><g data-id="l3btmsc" data-class="barLine" class="barLine"><path d="M13273 540 L13273 1260" stroke-width="27" stroke-dasharray="102 102"/></g></g></g><g data-id="w1ma60to" data-class="staff" class="staff"><path d="M8863 2340 L13286 2340" stroke-width="13"/><path d="M8863 2520 L13286 2520" stroke-width="13"/><path d="M8863 2700 L13286 2700" stroke-width="13"/><path d="M8863 2880 L13286 2880" stroke-width="13"/><path d="M8863 3060 L13286 3060" stroke-width="13"/><g data-id="x14m1mxp" data-class="layer" class="layer"><g data-id="z1x352zp" data-class="note" class="note"><g data-class="notehead" class="notehead"><rect x="8971" y="2988" height="144" width="126"/><rect x="8953" y="2988" height="144" width="18"/><rect x="9097" y="2988" height="144" width="18"/></g></g><g data-id="a192ckjw" data-class="barLine" class="barLine"><path d="M13273 2340 L13273 3060" stroke-width="27" stroke-dasharray="102 102"/></g></g></g></g><g data-id="j17yikqq" data-class="system" class="system"><path d="M13 4500 L13 7020" stroke-width="27"/><g data-id="o1ql0u44" data-class="staff" class="staff"><path d="M0 4500 L7755 4500" stroke-width="13"/><path d="M0 4680 L7755 4680" stroke-width="13"/><path d="M0 4860 L7755 4860" stroke-width="13"/><path d="M0 5040 L7755 5040" stroke-width="13"/><path d="M0 5220 L7755 5220" stroke-width="13"/><g data-id="ku7r7ph" data-class="clef" class="clef"><use href="#E901-ur2ri0j" transform="translate(117, 5040) scale(0.72, 0.72)"/></g><g data-id="lygpw4z" data-class="keySig" class="keySig"/><g data-id="p153cmqg" data-class="layer" class="layer"><g data-id="mw5seg0" data-class="note" class="note"><g data-class="notehead" class="notehead"><use href="#E938-ur2ri0j" transform="translate(489, 5220) scale(0.72, 0.72)"/></g></g><g data-id="nwylae4" data-class="note" class="note"><g data-class="notehead" class="notehead"><use href="#E938-ur2ri0j" transform="translate(3367, 5220) scale(0.72, 0.72)"/></g></g><g data-id="omz34t1" data-class="barLine" class="barLine"><path d="M7742 4500 L7742 5220" stroke-width="27" stroke-dasharray="102 102"/></g></g></g><g data-id="yls6iv1" data-class="staff" class="staff"><path d="M0 6300 L7755 6300" stroke-width="13"/><path d="M0 6480 L7755 6480" stroke-width="13"/><path d="M0 6660 L7755 6660" stroke-width="13"/><path d="M0 6840 L7755 6840" stroke-width="13"/><path d="M0 7020 L7755 7020" stroke-width="13"/><g data-id="m3ba9nw" data-class="clef" class="clef"><use href="#E901-ur2ri0j" transform="translate(117, 6840) scale(0.72, 0.72)"/></g><g data-id="n1n6g0nm" data-class="keySig" class="keySig"/><g data-id="z1hey0zo" data-class="layer" class="layer"><g data-id="bh7qo7z" data-class="note" class="note"><g data-class="notehead" class="notehead"><rect x="507" y="6948" height="144" width="126"/><rect x="489" y="6948" height="144" width="18"/><rect x="633" y="6948" height="144" width="18"/></g></g><g data-id="czleqtb" data-class="barLine" class="barLine"><path d="M7742 6300 L7742 7020" stroke-width="27" stroke-dasharray="102 102"/></g></g></g><g data-id="qt84mc1" data-class="staff" class="staff"><path d="M7755 4500 L13430 4500" stroke-width="13"/><path d="M7755 4680 L13430 4680" stroke-width="13"/><path d="M7755 4860 L13430 4860" stroke-width="13"/><path d="M7755 5040 L13430 5040" stroke-width="13"/><path d="M7755 5220 L13430 5220" stroke-width="13"/><g data-id="r1t8v9wi" data-class="layer" class="layer"><g data-id="p15de5gr" data-class="note" class="note"><g data-class="notehead" class="notehead"><rect x="7863" y="5148" height="144" width="126"/><rect x="7845" y="5148" height="144" width="18"/><rect x="7989" y="5148" height="144" width="18"/></g></g><g data-id="qab28ru" data-class="barLine" class="barLine"><path d="M13417 4500 L13417 5220" stroke-width="27" stroke-dasharray="102 102"/></g></g></g><g data-id="a1bjbp0y" data-class="staff" class="staff"><path d="M7755 6300 L13430 6300" stroke-width="13"/><path d="M7755 6480 L13430 6480" stroke-width="13"/><path d="M7755 6660 L13430 6660" stroke-width="13"/><path d="M7755 6840 L13430 6840" stroke-width="13"/><path d="M7755 7020 L13430 7020" stroke-width="13"/><g data-id="brewxn2" data-class="layer" class="layer"><g data-id="d1ke7pat" data-class="note" class="note"><g data-class="notehead" class="notehead"><rect x="7863" y="6948" height="144" width="126"/><rect x="7845" y="6948" height="144" width="18"/><rect x="7989" y="6948" height="144" width="18"/></g></g><g data-id="e18e4ib0" data-class="barLine" class="barLine"><path d="M13417 6300 L13417 7020" stroke-width="27" stroke-dasharray="102 102"/></g></g></g></g><g data-id="m1jpl12" data-class="system" class="system"><path d="M13 8460 L13 10980" stroke-width="27"/><g data-id="s1pk64bg" data-class="staff" class="staff"><path d="M0 8460 L13715 8460" stroke-width="13"/><path d="M0 8640 L13715 8640" stroke-width="13"/><path d="M0 8820 L13715 8820" stroke-width="13"/><path d="M0 9000 L13715 9000" stroke-width="13"/><path d="M0 9180 L13715 9180" stroke-width="13"/><g data-id="e1tdbixm" data-class="clef" class="clef"><use href="#E901-ur2ri0j" transform="translate(117, 9000) scale(0.72, 0.72)"/></g><g data-id="fmn04i2" data-class="keySig" class="keySig"/><g data-id="t8cqkgu" data-class="layer" class="layer"><g data-id="rd0vxbz" data-class="note" class="note"><g data-class="notehead" class="notehead"><rect x="507" y="9108" height="144" width="126"/><rect x="489" y="9108" height="144" width="18"/></g><g data-class="stem" class="stem"><rect x="633" y="9108" height="522" width="18"/></g></g><g data-id="s1bhk7vi" data-class="barLine" class="barLine"><path d="M13702 8460 L13702 9180" stroke-width="27" stroke-dasharray="102 102"/></g></g></g><g data-id="c1t6a3i3" data-class="staff" class="staff"><path d="M0 10260 L13715 10260" stroke-width="13"/><path d="M0 10440 L13715 10440" stroke-width="13"/><path d="M0 10620 L13715 10620" stroke-width="13"/><path d="M0 10800 L13715 10800" stroke-width="13"/><path d="M0 10980 L13715 10980" stroke-width="13"/><g data-id="gjmhpb4" data-class="clef" class="clef"><use href="#E901-ur2ri0j" transform="translate(117, 10800) scale(0.72, 0.72)"/></g><g data-id="h1uxh98" data-class="keySig" class="keySig"/><g data-id="d133jiqi" data-class="layer" class="layer"><g data-id="f1r7r4qn" data-class="note" class="note"><g data-class="notehead" class="notehead"><rect x="507" y="10908" height="144" width="126"/><rect x="489" y="10908" height="144" width="18"/><rect x="633" y="10908" height="144" width="18"/></g></g><g data-id="g1tidgqf" data-class="note" class="note"><g data-class="notehead" class="notehead"><rect x="2692" y="10908" height="144" width="126"/><rect x="2674" y="10908" height="144" width="18"/><rect x="2818" y="10908" height="144" width="18"/></g></g><g data-id="hcy9ws2" data-class="note" class="note"><g data-class="notehead" class="notehead"><rect x="4877" y="10908" height="144" width="126"/><rect x="4859" y="10908" height="144" width="18"/><rect x="5003" y="10908" height="144" width="18"/></g></g><g data-id="iuampb8" data-class="barLine" class="barLine"><path d="M7044 10260 L7044 10980" stroke-width="27" stroke-dasharray="102 102"/></g><g data-id="jr3aw72" data-class="note" class="note"><g data-class="notehead" class="notehead"><rect x="7165" y="10908" height="144" width="126"/><rect x="7147" y="10908" height="144" width="18"/><rect x="7291" y="10908" height="144" width="18"/></g></g><g data-id="k1spyffb" data-class="note" class="note"><g data-class="notehead" class="notehead"><rect x="9350" y="10908" height="144" width="126"/><rect x="9332" y="10908" height="144" width="18"/><rect x="9476" y="10908" height="144" width="18"/></g></g><g data-id="l1cho1yl" data-class="note" class="note"><g data-class="notehead" class="notehead"><rect x="11535" y="10908" height="144" width="126"/><rect x="11517" y="10908" height="144" width="18"/><rect x="11661" y="10908" height="144" width="18"/></g></g><g data-id="mje5fkt" data-class="barLine" class="barLine"><path d="M13702 10260 L13702 10980" stroke-width="27" stroke-dasharray="102 102"/></g></g></g><g data-id="udjt5nm" data-class="systemMilestoneEnd" class="systemMilestoneEnd t1l6d5su"/></g><g data-id="v1tu3ka3" data-class="pageMilestoneEnd" class="pageMilestoneEnd w1dznywp"/><g data-id="w15bce64" data-class="pageMilestoneEnd" class="pageMilestoneEnd v171dp5k"/></g></svg></svg>