<svg viewBox="0 0 145 86" version="1.1" xmlns="http://www.w3.org/2000/svg" xmlns:xlink="http://www.w3.org/1999/xlink" overflow="visible" id="q144li58"><desc>Engraved by Verovio 6.0.1-ffbc336</desc><defs><g id="E901-q144li58"><path transform="scale(1,-1)" d="M144 488c30 28 83 110 83 176c0 77 -39 150 -104 150c-15 0 -33 -6 -61 -34c-15 -15 -23 -44 -23 -79c0 -44 14 -96 43 -133c23 -29 44 -58 62 -80zM159 69c-57 0 -104 -31 -104 -98c0 -61 35 -63 51 -75c8 0 23 52 39 92l32 80c-6 1 -12 1 -18 1zM256 -25 c0 -76 -24 -122 -98 -122h-3c-28 0 -66 7 -84 15c-38 17 -71 55 -71 112c0 55 56 114 124 123c25 3 49 8 61 8c12 33 26 89 26 128c0 104 -55 180 -76 211c-51 -65 -79 -110 -90 -178c-1 -6 -4 -25 -4 -46c0 -18 2 -38 10 -50c5 -7 7 -16 7 -24c0 -13 -6 -24 -15 -24 c-5 0 -12 5 -19 17c-12 21 -24 38 -24 96c0 77 23 115 54 151c38 44 26 28 65 68l1 -1c0 3 -16 27 -60 79c-19 22 -58 58 -58 145c0 76 30 100 53 123c25 25 57 38 102 38c62 0 110 -83 110 -168c0 -13 -2 -26 -4 -39c-10 -52 -83 -130 -111 -163c24 -38 8 -3 55 -91 c34 -63 42 -84 42 -119c0 -10 -1 -22 -2 -37c-4 -63 -11 -76 -20 -116c7 0 12 1 21 -1c14 -4 20 -11 20 -19c0 -19 -30 -19 -52 -24c-6 -13 -67 -174 -67 -181c0 -2 9 -4 19 -4c25 0 41 21 56 73c8 28 14 39 22 39s10 -8 10 -19z"/></g><g id="E9F0-q144li58"><path transform="scale(1,-1)" d="M0 500h40v-1000h-40v1000zM90 500h40v-1000h-40v1000z"/></g><g id="E9F2-q144li58"><path transform="scale(1,-1)" d="M0 250h40v-500h-40v500z"/></g><g id="E9F3-q144li58"><path transform="scale(1,-1)" d="M0 250h40v-250h-40v250z"/></g><g id="E93C-q144li58"><path transform="scale(1,-1)" d="M156 195l156 -195l-156 -195l-156 195zM127 110l-57 -71l115 -149l57 71z"/></g><g id="E9F4-q144li58"><path transform="scale(1,-1)" d="M0 250h40v-140h-40v140z"/></g><g id="E93E-q144li58"><path transform="scale(1,-1)" d="M0 760h30v-760h-30v760z"/></g><g id="E9F5-q144li58"><path transform="scale(1,-1)" d="M0 140h40v-140h-40v140z"/></g><g id="E93D-q144li58"><path transform="scale(1,-1)" d="M156 195l156 -195l-156 -195l-156 195z"/></g><g id="E9F6-q144li58"><path transform="scale(1,-1)" d="M40 96v-96h-40v140h40l78 -69h-48z"/></g><g id="E949-q144li58"><path transform="scale(1,-1)" d="M0 0v760h30l150 -259l-26 -15l-124 214v-700h-30z"/></g><g id="E9F7-q144li58"><path transform="scale(1,-1)" d="M78 96l-30 -25h-48l78 69h40v-140h-40v96z"/></g><g id="E94B-q144li58"><path transform="scale(1,-1)" d="M0 0v760h30l150 -259l-26 -15l-124 214v-80l150 -259l-26 -15l-124 214v-560h-30z"/></g><g id="E9F8-q144li58"><path transform="scale(1,-1)" d="M78 96l-30 -25h-48l78 69h40v-140h-40v39l-30 -25h-48l78 69v13z"/></g></defs><style type="text/css">#q144li58 g.ending, #q144li58 g.fing, #q144li58 g.reh, #q144li58 g.tempo {font-weight:bold;}#q144li58 g.dir, #q144li58 g.dynam, #q144li58 g.mNum {font-style:italic;}#q144li58 g.label {font-weight:normal;}#q144li58 ellipse, #q144li58 path, #q144li58 polygon, #q144li58 polyline, #q144li58 rect {stroke:currentColor}</style><svg class="definition-scale" color="black" font-family="Times, serif" viewBox="0 0 14470 8560"><g class="page-margin" transform="translate(500, 500)"><g data-id="r99444q" data-class="mdiv" class="mdiv pageMilestone"/><g data-id="skzwf2" data-class="score" class="score pageMilestone"/><g data-id="lwc0acg" data-class="system" class="system"><path d="M13 540 L13 3060" stroke-width="27"/><g data-id="n61ra94" data-class="section" class="section systemMilestone"/><g data-id="x3m1177" data-class="staff" class="staff"><path d="M0 540 L13282 540" stroke-width="13"/><path d="M0 720 L13282 720" stroke-width="13"/><path d="M0 900 L13282 900" stroke-width="13"/><path d="M0 1080 L13282 1080" stroke-width="13"/><path d="M0 1260 L13282 1260" stroke-width="13"/><g data-id="d1wqp44t" data-class="clef" class="clef"><use href="#E901-q144li58" transform="translate(117, 1080) scale(0.72, 0.72)"/></g><g data-id="enwlkj1" data-class="keySig" class="keySig"/><g data-id="y1b149or" data-class="layer" class="layer"><g data-id="z1f3pk6j" data-class="note" class="note"><g data-class="notehead" class="notehead"><polygon points="507,1170 935,1170 935,1220 507,1220"/><polygon points="507,1350 935,1350 935,1300 507,1300"/><rect x="489" y="1140" height="240" width="18"/></g><g data-class="stem" class="stem"><rect x="935" y="630" height="750" width="18"/></g></g></g></g><g data-id="h1s5yu5i" data-class="staff" class="staff"><path d="M0 2340 L13282 2340" stroke-width="13"/><path d="M0 2520 L13282 2520" stroke-width="13"/><path d="M0 2700 L13282 2700" stroke-width="13"/><path d="M0 2880 L13282 2880" stroke-width="13"/><path d="M0 3060 L13282 3060" stroke-width="13"/><g data-id="fdarluc" data-class="clef" class="clef"><use href="#E901-q144li58" transform="translate(117, 2880) scale(0.72, 0.72)"/></g><g data-id="g17v3g4m" data-class="keySig" class="keySig"/><g data-id="iriyj4l" data-class="layer" class="layer"><g data-id="jkxxyjc" data-class="rest" class="rest"><use href="#E9F0-q144li58" transform="translate(489, 2700) scale(0.72, 0.72)"/></g></g></g></g><g data-id="o5euaqg" data-class="system" class="system"><path d="M13 4500 L13 7020" stroke-width="27"/><g data-id="j6mfgey" data-class="staff" class="staff"><path d="M0 4500 L6388 4500" stroke-width="13"/><path d="M0 4680 L6388 4680" stroke-width="13"/><path d="M0 4860 L6388 4860" stroke-width="13"/><path d="M0 5040 L6388 5040" stroke-width="13"/><path d="M0 5220 L6388 5220" stroke-width="13"/><g data-id="t1kfvdt9" data-class="clef" class="clef"><use href="#E901-q144li58" transform="translate(117, 5040) scale(0.72, 0.72)"/></g><g data-id="u1c5tjy8" data-class="keySig" class="keySig"/><g data-id="kbf0s10" data-class="layer" class="layer"><g data-id="au6pb02" data-class="note" class="note"><g data-class="notehead" class="notehead"><polygon points="507,5130 703,5130 703,5180 507,5180"/><polygon points="507,5310 703,5310 703,5260 507,5260"/><rect x="489" y="5100" height="240" width="18"/></g><g data-class="stem" class="stem"><rect x="703" y="4590" height="750" width="18"/></g></g></g></g><g data-id="z1heuoe3" data-class="staff" class="staff"><path d="M0 6300 L6388 6300" stroke-width="13"/><path d="M0 6480 L6388 6480" stroke-width="13"/><path d="M0 6660 L6388 6660" stroke-width="13"/><path d="M0 6840 L6388 6840" stroke-width="13"/><path d="M0 7020 L6388 7020" stroke-width="13"/><g data-id="v7kn9p5" data-class="clef" class="clef"><use href="#E901-q144li58" transform="translate(117, 6840) scale(0.72, 0.72)"/></g><g data-id="w23jdsa" data-class="keySig" class="keySig"/><g data-id="a8z6dee" data-class="layer" class="layer"><g data-id="k20elyi" data-class="rest" class="rest"><use href="#E9F2-q144li58" transform="translate(489, 6660) scale(0.72, 0.72)"/></g></g></g><g data-id="l1km50p4" data-class="staff" class="staff"><path d="M6388 4500 L9528 4500" stroke-width="13"/><path d="M6388 4680 L9528 4680" stroke-width="13"/><path d="M6388 4860 L9528 4860" stroke-width="13"/><path d="M6388 5040 L9528 5040" stroke-width="13"/><path d="M6388 5220 L9528 5220" stroke-width="13"/><g data-id="mcosvrg" data-class="layer" class="layer"><g data-id="bwjyqq5" data-class="note" class="note"><g data-class="notehead" class="notehead"><polygon points="6496,5130 6692,5130 6692,5180 6496,5180"/><polygon points="6496,5310 6692,5310 6692,5260 6496,5260"/><rect x="6478" y="5100" height="240" width="18"/><rect x="6692" y="5100" height="240" width="18"/></g></g></g></g><g data-id="bpvqt1e" data-class="staff" class="staff"><path d="M6388 6300 L9528 6300" stroke-width="13"/><path d="M6388 6480 L9528 6480" stroke-width="13"/><path d="M6388 6660 L9528 6660" stroke-width="13"/><path d="M6388 6840 L9528 6840" stroke-width="13"/><path d="M6388 7020 L9528 7020" stroke-width="13"/><g data-id="c1n4vd4d" data-class="layer" class="layer"><g data-id="ly9sige" data-class="rest" class="rest"><use href="#E9F3-q144li58" transform="translate(6478, 6660) scale(0.72, 0.72)"/><g data-class="ledgerLines" class="ledgerLines"/></g></g></g><g data-id="nw1pt9i" data-class="staff" class="staff"><path d="M9528 4500 L11193 4500" stroke-width="13"/><path d="M9528 4680 L11193 4680" stroke-width="13"/><path d="M9528 4860 L11193 4860" stroke-width="13"/><path d="M9528 5040 L11193 5040" stroke-width="13"/><path d="M9528 5220 L11193 5220" stroke-width="13"/><g data-id="obu5jk8" data-class="layer" class="layer"><g data-id="cc7k3rj" data-class="note" class="note"><g data-class="notehead" class="notehead"><use href="#E93C-q144li58" transform="translate(9618, 5220) scale(0.72, 0.72)"/></g></g></g></g><g data-id="dtzc3o" data-class="staff" class="staff"><path d="M9528 6300 L11193 6300" stroke-width="13"/><path d="M9528 6480 L11193 6480" stroke-width="13"/><path d="M9528 6660 L11193 6660" stroke-width="13"/><path d="M9528 6840 L11193 6840" stroke-width="13"/><path d="M9528 7020 L11193 7020" stroke-width="13"/><g data-id="e19ahzd5" data-class="layer" class="layer"><g data-id="m1vff51g" data-class="rest" class="rest"><use href="#E9F4-q144li58" transform="translate(9618, 6660) scale(0.72, 0.72)"/><g data-class="ledgerLines" class="ledgerLines"/></g></g></g><g data-id="p1yrpfqd" data-class="staff" class="staff"><path d="M11193 4500 L12089 4500" stroke-width="13"/><path d="M11193 4680 L12089 4680" stroke-width="13"/><path d="M11193 4860 L12089 4860" stroke-width="13"/><path d="M11193 5040 L12089 5040" stroke-width="13"/><path d="M11193 5220 L12089 5220" stroke-width="13"/><g data-id="qmq7cnp" data-class="layer" class="layer"><g data-id="d1olb1ja" data-class="note" class="note"><g data-class="notehead" class="notehead"><use href="#E93C-q144li58" transform="translate(11283, 5220) scale(0.72, 0.72)"/></g><g data-id="fmu8vej" data-class="stem" class="stem"><use href="#E93E-q144li58" transform="translate(11385, 5140) scale(0.72, 0.72)"/></g></g></g></g><g data-id="f10jvold" data-class="staff" class="staff"><path d="M11193 6300 L12089 6300" stroke-width="13"/><path d="M11193 6480 L12089 6480" stroke-width="13"/><path d="M11193 6660 L12089 6660" stroke-width="13"/><path d="M11193 6840 L12089 6840" stroke-width="13"/><path d="M11193 7020 L12089 7020" stroke-width="13"/><g data-id="gjpgqpo" data-class="layer" class="layer"><g data-id="n1lg4u3d" data-class="rest" class="rest"><use href="#E9F5-q144li58" transform="translate(11283, 6660) scale(0.72, 0.72)"/><g data-class="ledgerLines" class="ledgerLines"/></g></g></g><g data-id="rtro2zr" data-class="staff" class="staff"><path d="M12089 4500 L12708 4500" stroke-width="13"/><path d="M12089 4680 L12708 4680" stroke-width="13"/><path d="M12089 4860 L12708 4860" stroke-width="13"/><path d="M12089 5040 L12708 5040" stroke-width="13"/><path d="M12089 5220 L12708 5220" stroke-width="13"/><g data-id="s1fjw79h" data-class="layer" class="layer"><g data-id="e164l159" data-class="note" class="note"><g data-class="notehead" class="notehead"><use href="#E93D-q144li58" transform="translate(12179, 5220) scale(0.72, 0.72)"/></g><g data-id="g1alkhre" data-class="stem" class="stem"><use href="#E93E-q144li58" transform="translate(12281, 5140) scale(0.72, 0.72)"/></g></g></g></g><g data-id="h1xiuhm5" data-class="staff" class="staff"><path d="M12089 6300 L12708 6300" stroke-width="13"/><path d="M12089 6480 L12708 6480" stroke-width="13"/><path d="M12089 6660 L12708 6660" stroke-width="13"/><path d="M12089 6840 L12708 6840" stroke-width="13"/><path d="M12089 7020 L12708 7020" stroke-width="13"/><g data-id="i1mtylcy" data-class="layer" class="layer"><g data-id="o1qpjvof" data-class="rest" class="rest"><use href="#E9F6-q144li58" transform="translate(12179, 6660) scale(0.72, 0.72)"/></g></g></g><g data-id="tvz2vao" data-class="staff" class="staff"><path d="M12708 4500 L13150 4500" stroke-width="13"/><path d="M12708 4680 L13150 4680" stroke-width="13"/><path d="M12708 4860 L13150 4860" stroke-width="13"/><path d="M12708 5040 L13150 5040" stroke-width="13"/><path d="M12708 5220 L13150 5220" stroke-width="13"/><g data-id="u8bylgx" data-class="layer" class="layer"><g data-id="f1p5hr99" data-class="note" class="note"><g data-class="notehead" class="notehead"><use href="#E93D-q144li58" transform="translate(12798, 5220) scale(0.72, 0.72)"/></g><g data-id="hwkx16h" data-class="stem" class="stem"><use href="#E949-q144li58" transform="translate(12900, 5140) scale(0.72, 0.72)"/></g></g></g></g><g data-id="j9xexfy" data-class="staff" class="staff"><path d="M12708 6300 L13150 6300" stroke-width="13"/><path d="M12708 6480 L13150 6480" stroke-width="13"/><path d="M12708 6660 L13150 6660" stroke-width="13"/><path d="M12708 6840 L13150 6840" stroke-width="13"/><path d="M12708 7020 L13150 7020" stroke-width="13"/><g data-id="k1lmckjz" data-class="layer" class="layer"><g data-id="p13c4vzi" data-class="rest" class="rest"><use href="#E9F7-q144li58" transform="translate(12798, 6660) scale(0.72, 0.72)"/></g></g></g><g data-id="v1i2ctfl" data-class="staff" class="staff"><path d="M13150 4500 L13471 4500" stroke-width="13"/><path d="M13150 4680 L13471 4680" stroke-width="13"/><path d="M13150 4860 L13471 4860" stroke-width="13"/><path d="M13150 5040 L13471 5040" stroke-width="13"/><path d="M13150 5220 L13471 5220" stroke-width="13"/><g data-id="w15ajnl9" data-class="layer" class="layer"><g data-id="gy9rusq" data-class="note" class="note"><g data-class="notehead" class="notehead"><use href="#E93D-q144li58" transform="translate(13240, 5220) scale(0.72, 0.72)"/></g><g data-id="i1qv9n9j" data-class="stem" class="stem"><use href="#E94B-q144li58" transform="translate(13342, 5140) scale(0.72, 0.72)"/></g></g></g></g><g data-id="l1mo9f7j" data-class="staff" class="staff"><path d="M13150 6300 L13471 6300" stroke-width="13"/><path d="M13150 6480 L13471 6480" stroke-width="13"/><path d="M13150 6660 L13471 6660" stroke-width="13"/><path d="M13150 6840 L13471 6840" stroke-width="13"/><path d="M13150 7020 L13471 7020" stroke-width="13"/><g data-id="m1dgyxg2" data-class="layer" class="layer"><g data-id="qbz9ygq" data-class="rest" class="rest"><use href="#E9F8-q144li58" transform="translate(13240, 6660) scale(0.72, 0.72)"/></g></g></g><g data-id="y14537r1" data-class="systemMilestoneEnd" class="systemMilestoneEnd n61ra94"/></g><g data-id="z183a4iw" data-class="pageMilestoneEnd" class="pageMilestoneEnd skzwf2"/><g data-id="arl0qlx" data-class="pageMilestoneEnd" class="pageMilestoneEnd r99444q"/></g></svg></svg>