<svg viewBox="0 0 144 86" version="1.1" xmlns="http://www.w3.org/2000/svg" xmlns:xlink="http://www.w3.org/1999/xlink" overflow="visible" id="r1lup8ax"><desc>Engraved by Verovio 6.0.1-ffbc336</desc><defs><g id="E901-r1lup8ax"><path transform="scale(1,-1)" d="M144 488c30 28 83 110 83 176c0 77 -39 150 -104 150c-15 0 -33 -6 -61 -34c-15 -15 -23 -44 -23 -79c0 -44 14 -96 43 -133c23 -29 44 -58 62 -80zM159 69c-57 0 -104 -31 -104 -98c0 -61 35 -63 51 -75c8 0 23 52 39 92l32 80c-6 1 -12 1 -18 1zM256 -25 c0 -76 -24 -122 -98 -122h-3c-28 0 -66 7 -84 15c-38 17 -71 55 -71 112c0 55 56 114 124 123c25 3 49 8 61 8c12 33 26 89 26 128c0 104 -55 180 -76 211c-51 -65 -79 -110 -90 -178c-1 -6 -4 -25 -4 -46c0 -18 2 -38 10 -50c5 -7 7 -16 7 -24c0 -13 -6 -24 -15 -24 c-5 0 -12 5 -19 17c-12 21 -24 38 -24 96c0 77 23 115 54 151c38 44 26 28 65 68l1 -1c0 3 -16 27 -60 79c-19 22 -58 58 -58 145c0 76 30 100 53 123c25 25 57 38 102 38c62 0 110 -83 110 -168c0 -13 -2 -26 -4 -39c-10 -52 -83 -130 -111 -163c24 -38 8 -3 55 -91 c34 -63 42 -84 42 -119c0 -10 -1 -22 -2 -37c-4 -63 -11 -76 -20 -116c7 0 12 1 21 -1c14 -4 20 -11 20 -19c0 -19 -30 -19 -52 -24c-6 -13 -67 -174 -67 -181c0 -2 9 -4 19 -4c25 0 41 21 56 73c8 28 14 39 22 39s10 -8 10 -19z"/></g><g id="E93C-r1lup8ax"><path transform="scale(1,-1)" d="M156 195l156 -195l-156 -195l-156 195zM127 110l-57 -71l115 -149l57 71z"/></g><g id="E93E-r1lup8ax"><path transform="scale(1,-1)" d="M0 760h30v-760h-30v760z"/></g></defs><style type="text/css">#r1lup8ax g.ending, #r1lup8ax g.fing, #r1lup8ax g.reh, #r1lup8ax g.tempo {font-weight:bold;}#r1lup8ax g.dir, #r1lup8ax g.dynam, #r1lup8ax g.mNum {font-style:italic;}#r1lup8ax g.label {font-weight:normal;}#r1lup8ax ellipse, #r1lup8ax path, #r1lup8ax polygon, #r1lup8ax polyline, #r1lup8ax rect {stroke:currentColor}</style><svg class="definition-scale" color="black" font-family="Times, serif" viewBox="0 0 14390 8560"><g class="page-margin" transform="translate(500, 500)"><g data-id="sr9hzg5" data-class="mdiv" class="mdiv pageMilestone"/><g data-id="t1nuazbo" data-class="score" class="score pageMilestone"/><g data-id="wbcbtx7" data-class="system" class="system"><path d="M13 540 L13 3060" stroke-width="27"/><g data-id="qa2dbl6" data-class="section" class="section systemMilestone"/><g data-id="ac2mf0g" data-class="staff" class="staff"><path d="M0 540 L13398 540" stroke-width="13"/><path d="M0 720 L13398 720" stroke-width="13"/><path d="M0 900 L13398 900" stroke-width="13"/><path d="M0 1080 L13398 1080" stroke-width="13"/><path d="M0 1260 L13398 1260" stroke-width="13"/><g data-id="g14qv18a" data-class="clef" class="clef"><use href="#E901-r1lup8ax" transform="translate(117, 1080) scale(0.72, 0.72)"/></g><g data-id="h1gv2wwt" data-class="keySig" class="keySig"/><g data-id="bifdmho" data-class="layer" class="layer"><g data-id="c19k52a6" data-class="note" class="note"><g data-class="notehead" class="notehead"><polygon points="507,1170 703,1170 703,1220 507,1220"/><polygon points="507,1350 703,1350 703,1300 507,1300"/><rect x="489" y="1140" height="240" width="18"/></g><g data-class="stem" class="stem"><rect x="703" y="630" height="750" width="18"/></g></g><g data-id="d9sc3b7" data-class="barLine" class="barLine"><ellipse cx="13371" cy="630" rx="27" ry="27"/><ellipse cx="13371" cy="810" rx="27" ry="27"/><ellipse cx="13371" cy="990" rx="27" ry="27"/><ellipse cx="13371" cy="1170" rx="27" ry="27"/></g></g></g><g data-id="g174ek6u" data-class="staff" class="staff"><path d="M0 2340 L13398 2340" stroke-width="13"/><path d="M0 2520 L13398 2520" stroke-width="13"/><path d="M0 2700 L13398 2700" stroke-width="13"/><path d="M0 2880 L13398 2880" stroke-width="13"/><path d="M0 3060 L13398 3060" stroke-width="13"/><g data-id="iaqyo4y" data-class="clef" class="clef"><use href="#E901-r1lup8ax" transform="translate(117, 2880) scale(0.72, 0.72)"/></g><g data-id="j13m4431" data-class="keySig" class="keySig"/><g data-id="h1cc2p13" data-class="layer" class="layer"><g data-id="i1tb1rrl" data-class="note" class="note"><g data-class="notehead" class="notehead"><use href="#E93C-r1lup8ax" transform="translate(489, 2790) scale(0.72, 0.72)"/></g><g data-id="s1nthntt" data-class="stem" class="stem"><use href="#E93E-r1lup8ax" transform="translate(591, 2710) scale(0.72, 0.72)"/></g></g><g data-id="j13hqk4p" data-class="note" class="note"><g data-class="notehead" class="notehead"><use href="#E93C-r1lup8ax" transform="translate(1214, 2790) scale(0.72, 0.72)"/></g><g data-id="tic7q0m" data-class="stem" class="stem"><use href="#E93E-r1lup8ax" transform="translate(1316, 2710) scale(0.72, 0.72)"/></g></g><g data-id="ka9ij1s" data-class="note" class="note"><g data-class="notehead" class="notehead"><use href="#E93C-r1lup8ax" transform="translate(1939, 2790) scale(0.72, 0.72)"/></g><g data-id="u15f73hh" data-class="stem" class="stem"><use href="#E93E-r1lup8ax" transform="translate(2041, 2710) scale(0.72, 0.72)"/></g></g><g data-id="l10uy92d" data-class="barLine" class="barLine"><ellipse cx="2664" cy="2430" rx="27" ry="27"/><ellipse cx="2664" cy="2610" rx="27" ry="27"/><ellipse cx="2664" cy="2790" rx="27" ry="27"/><ellipse cx="2664" cy="2970" rx="27" ry="27"/></g><g data-id="mfekcj2" data-class="note" class="note"><g data-class="notehead" class="notehead"><use href="#E93C-r1lup8ax" transform="translate(2781, 2790) scale(0.72, 0.72)"/></g><g data-id="v9lrljy" data-class="stem" class="stem"><use href="#E93E-r1lup8ax" transform="translate(2883, 2710) scale(0.72, 0.72)"/></g></g><g data-id="n1c0kjm7" data-class="note" class="note"><g data-class="notehead" class="notehead"><use href="#E93C-r1lup8ax" transform="translate(3506, 2790) scale(0.72, 0.72)"/></g><g data-id="w1d6s6xf" data-class="stem" class="stem"><use href="#E93E-r1lup8ax" transform="translate(3608, 2710) scale(0.72, 0.72)"/></g></g><g data-id="o16jhwbr" data-class="note" class="note"><g data-class="notehead" class="notehead"><use href="#E93C-r1lup8ax" transform="translate(4231, 2790) scale(0.72, 0.72)"/></g><g data-id="x1l8or7l" data-class="stem" class="stem"><use href="#E93E-r1lup8ax" transform="translate(4333, 2710) scale(0.72, 0.72)"/></g></g><g data-id="p1p5ngzz" data-class="barLine" class="barLine"><path d="M4956 2340 L4956 3060" stroke-width="27" stroke-dasharray="102 102"/></g><g data-id="q1w15wwx" data-class="note" class="note"><g data-class="notehead" class="notehead"><use href="#E93C-r1lup8ax" transform="translate(5059, 2790) scale(0.72, 0.72)"/></g><g data-id="y1dst67c" data-class="stem" class="stem"><use href="#E93E-r1lup8ax" transform="translate(5161, 2710) scale(0.72, 0.72)"/></g></g><g data-id="r622ibg" data-class="note" class="note"><g data-class="notehead" class="notehead"><use href="#E93C-r1lup8ax" transform="translate(5784, 2790) scale(0.72, 0.72)"/></g><g data-id="z6hklpa" data-class="stem" class="stem"><use href="#E93E-r1lup8ax" transform="translate(5886, 2710) scale(0.72, 0.72)"/></g></g><g data-id="s1iaax3t" data-class="note" class="note"><g data-class="notehead" class="notehead"><use href="#E93C-r1lup8ax" transform="translate(6509, 2790) scale(0.72, 0.72)"/></g><g data-id="a1gyn4ma" data-class="stem" class="stem"><use href="#E93E-r1lup8ax" transform="translate(6611, 2710) scale(0.72, 0.72)"/></g></g><g data-id="t1whl1ji" data-class="barLine" class="barLine"><ellipse cx="7234" cy="2430" rx="27" ry="27"/><ellipse cx="7234" cy="2610" rx="27" ry="27"/><ellipse cx="7234" cy="2790" rx="27" ry="27"/><ellipse cx="7234" cy="2970" rx="27" ry="27"/></g><g data-id="uf6b5h2" data-class="note" class="note"><g data-class="notehead" class="notehead"><use href="#E93C-r1lup8ax" transform="translate(7351, 2790) scale(0.72, 0.72)"/></g><g data-id="bny67vh" data-class="stem" class="stem"><use href="#E93E-r1lup8ax" transform="translate(7453, 2710) scale(0.72, 0.72)"/></g></g><g data-id="vbeq2tb" data-class="note" class="note"><g data-class="notehead" class="notehead"><use href="#E93C-r1lup8ax" transform="translate(8076, 2790) scale(0.72, 0.72)"/></g><g data-id="ct5os8z" data-class="stem" class="stem"><use href="#E93E-r1lup8ax" transform="translate(8178, 2710) scale(0.72, 0.72)"/></g></g><g data-id="w1eok747" data-class="note" class="note"><g data-class="notehead" class="notehead"><use href="#E93C-r1lup8ax" transform="translate(8801, 2790) scale(0.72, 0.72)"/></g><g data-id="dmymfko" data-class="stem" class="stem"><use href="#E93E-r1lup8ax" transform="translate(8903, 2710) scale(0.72, 0.72)"/></g></g><g data-id="x7b5knp" data-class="barLine" class="barLine"><path d="M9526 2340 L9526 3060" stroke-width="27" stroke-dasharray="102 102"/></g><g data-id="yj9mmo5" data-class="note" class="note"><g data-class="notehead" class="notehead"><use href="#E93C-r1lup8ax" transform="translate(9629, 2790) scale(0.72, 0.72)"/></g><g data-id="e1hahmi1" data-class="stem" class="stem"><use href="#E93E-r1lup8ax" transform="translate(9731, 2710) scale(0.72, 0.72)"/></g></g><g data-id="z1vn6b0t" data-class="note" class="note"><g data-class="notehead" class="notehead"><use href="#E93C-r1lup8ax" transform="translate(10354, 2790) scale(0.72, 0.72)"/></g><g data-id="f58u7po" data-class="stem" class="stem"><use href="#E93E-r1lup8ax" transform="translate(10456, 2710) scale(0.72, 0.72)"/></g></g><g data-id="a11ihjvf" data-class="note" class="note"><g data-class="notehead" class="notehead"><use href="#E93C-r1lup8ax" transform="translate(11079, 2790) scale(0.72, 0.72)"/></g><g data-id="g1ynyzxv" data-class="stem" class="stem"><use href="#E93E-r1lup8ax" transform="translate(11181, 2710) scale(0.72, 0.72)"/></g></g><g data-id="b1q9wqfa" data-class="barLine" class="barLine"><ellipse cx="11804" cy="2430" rx="27" ry="27"/><ellipse cx="11804" cy="2610" rx="27" ry="27"/><ellipse cx="11804" cy="2790" rx="27" ry="27"/><ellipse cx="11804" cy="2970" rx="27" ry="27"/></g><g data-id="cmnwv4m" data-class="note" class="note"><g data-class="notehead" class="notehead"><use href="#E93C-r1lup8ax" transform="translate(11921, 2790) scale(0.72, 0.72)"/></g><g data-id="hyfqkg6" data-class="stem" class="stem"><use href="#E93E-r1lup8ax" transform="translate(12023, 2710) scale(0.72, 0.72)"/></g></g><g data-id="d1i1eaoi" data-class="note" class="note"><g data-class="notehead" class="notehead"><use href="#E93C-r1lup8ax" transform="translate(12646, 2790) scale(0.72, 0.72)"/></g><g data-id="im3oxrw" data-class="stem" class="stem"><use href="#E93E-r1lup8ax" transform="translate(12748, 2710) scale(0.72, 0.72)"/></g></g></g></g></g><g data-id="z12hqefw" data-class="system" class="system"><path d="M13 4500 L13 7020" stroke-width="27"/><g data-id="fk6w1zn" data-class="staff" class="staff"><path d="M0 4500 L1227 4500" stroke-width="13"/><path d="M0 4680 L1227 4680" stroke-width="13"/><path d="M0 4860 L1227 4860" stroke-width="13"/><path d="M0 5040 L1227 5040" stroke-width="13"/><path d="M0 5220 L1227 5220" stroke-width="13"/><g data-id="a1gge10j" data-class="clef" class="clef"><use href="#E901-r1lup8ax" transform="translate(117, 5040) scale(0.72, 0.72)"/></g><g data-id="be8hhuj" data-class="keySig" class="keySig"/><g data-id="g15ychqd" data-class="layer" class="layer"><g data-id="e17a42al" data-class="note" class="note"><g data-class="notehead" class="notehead"><use href="#E93C-r1lup8ax" transform="translate(489, 5220) scale(0.72, 0.72)"/></g><g data-id="rfbn2ug" data-class="stem" class="stem"><use href="#E93E-r1lup8ax" transform="translate(591, 5140) scale(0.72, 0.72)"/></g></g><g data-id="fskguat" data-class="barLine" class="barLine"><path d="M1214 4500 L1214 5220" stroke-width="27" stroke-dasharray="102 102"/></g></g></g><g data-id="j1t14as3" data-class="staff" class="staff"><path d="M0 6300 L1227 6300" stroke-width="13"/><path d="M0 6480 L1227 6480" stroke-width="13"/><path d="M0 6660 L1227 6660" stroke-width="13"/><path d="M0 6840 L1227 6840" stroke-width="13"/><path d="M0 7020 L1227 7020" stroke-width="13"/><g data-id="cce7rum" data-class="clef" class="clef"><use href="#E901-r1lup8ax" transform="translate(117, 6840) scale(0.72, 0.72)"/></g><g data-id="d1a94mah" data-class="keySig" class="keySig"/><g data-id="ki6oh72" data-class="layer" class="layer"><g data-id="e7jtizg" data-class="note" class="note"><g data-class="notehead" class="notehead"><use href="#E93C-r1lup8ax" transform="translate(489, 6750) scale(0.72, 0.72)"/></g><g data-id="jl9fz1p" data-class="stem" class="stem"><use href="#E93E-r1lup8ax" transform="translate(591, 6670) scale(0.72, 0.72)"/></g></g><g data-id="f9qgaqs" data-class="barLine" class="barLine"><path d="M1214 6300 L1214 7020" stroke-width="27" stroke-dasharray="102 102"/></g></g></g><g data-id="n1m33ass" data-class="systemMilestoneEnd" class="systemMilestoneEnd qa2dbl6"/></g><g data-id="oyt91qs" data-class="pageMilestoneEnd" class="pageMilestoneEnd t1nuazbo"/><g data-id="p4fpo5k" data-class="pageMilestoneEnd" class="pageMilestoneEnd sr9hzg5"/></g></svg></svg>