<svg viewBox="0 0 94 46" version="1.1" xmlns="http://www.w3.org/2000/svg" xmlns:xlink="http://www.w3.org/1999/xlink" overflow="visible" id="o1hz6ouh"><desc>Engraved by Verovio 6.1.0-682d606</desc><defs><g id="E901-o1hz6ouh"><path transform="scale(1,-1)" d="M144 488c30 28 83 110 83 176c0 77 -39 150 -104 150c-15 0 -33 -6 -61 -34c-15 -15 -23 -44 -23 -79c0 -44 14 -96 43 -133c23 -29 44 -58 62 -80zM159 69c-57 0 -104 -31 -104 -98c0 -61 35 -63 51 -75c8 0 23 52 39 92l32 80c-6 1 -12 1 -18 1zM256 -25 c0 -76 -24 -122 -98 -122h-3c-28 0 -66 7 -84 15c-38 17 -71 55 -71 112c0 55 56 114 124 123c25 3 49 8 61 8c12 33 26 89 26 128c0 104 -55 180 -76 211c-51 -65 -79 -110 -90 -178c-1 -6 -4 -25 -4 -46c0 -18 2 -38 10 -50c5 -7 7 -16 7 -24c0 -13 -6 -24 -15 -24 c-5 0 -12 5 -19 17c-12 21 -24 38 -24 96c0 77 23 115 54 151c38 44 26 28 65 68l1 -1c0 3 -16 27 -60 79c-19 22 -58 58 -58 145c0 76 30 100 53 123c25 25 57 38 102 38c62 0 110 -83 110 -168c0 -13 -2 -26 -4 -39c-10 -52 -83 -130 -111 -163c24 -38 8 -3 55 -91 c34 -63 42 -84 42 -119c0 -10 -1 -22 -2 -37c-4 -63 -11 -76 -20 -116c7 0 12 1 21 -1c14 -4 20 -11 20 -19c0 -19 -30 -19 -52 -24c-6 -13 -67 -174 -67 -181c0 -2 9 -4 19 -4c25 0 41 21 56 73c8 28 14 39 22 39s10 -8 10 -19z"/></g><g id="E93C-o1hz6ouh"><path transform="scale(1,-1)" d="M156 195l156 -195l-156 -195l-156 195zM127 110l-57 -71l115 -149l57 71z"/></g></defs><style type="text/css">#o1hz6ouh g.ending, #o1hz6ouh g.fing, #o1hz6ouh g.reh, #o1hz6ouh g.tempo {font-weight:bold;}#o1hz6ouh g.dir, #o1hz6ouh g.dynam, #o1hz6ouh g.mNum {font-style:italic;}#o1hz6ouh g.label {font-weight:normal;}#o1hz6ouh ellipse, #o1hz6ouh path, #o1hz6ouh polygon, #o1hz6ouh polyline, #o1hz6ouh rect {stroke:currentColor}</style><svg class="definition-scale" color="black" font-family="Times, serif" viewBox="0 0 9330 4600"><g class="page-margin" transform="translate(500, 500)"><g data-id="p46znm4" data-class="mdiv" class="mdiv pageMilestone"/><g data-id="qjakgcn" data-class="score" class="score pageMilestone"/><g data-id="hrs1m03" data-class="system" class="system"><path d="M13 540 L13 3060" stroke-width="27"/><g data-id="n1fdktce" data-class="section" class="section systemMilestone"/><g data-id="xon3xzp" data-class="staff" class="staff"><path d="M0 540 L1766 540" stroke-width="13"/><path d="M0 720 L1766 720" stroke-width="13"/><path d="M0 900 L1766 900" stroke-width="13"/><path d="M0 1080 L1766 1080" stroke-width="13"/><path d="M0 1260 L1766 1260" stroke-width="13"/><g data-id="r159u3tq" data-class="clef" class="clef"><use href="#E901-o1hz6ouh" transform="translate(117, 1080) scale(0.72, 0.72)"/></g><g data-id="swy5osm" data-class="keySig" class="keySig"/><g data-id="y9hoj2x" data-class="layer" class="layer"><g data-id="z1rnc3x0" data-class="note" class="note"><g data-class="notehead" class="notehead"><use href="#E93C-o1hz6ouh" transform="translate(489, 1260) scale(0.72, 0.72)"/></g></g><g data-id="aw2rxk9" data-class="barLine" class="barLine"><ellipse cx="1739" cy="630" rx="27" ry="27"/><ellipse cx="1739" cy="810" rx="27" ry="27"/><ellipse cx="1739" cy="990" rx="27" ry="27"/><ellipse cx="1739" cy="1170" rx="27" ry="27"/></g></g></g><g data-id="f1dqzuoq" data-class="staff" class="staff"><path d="M0 2340 L1766 2340" stroke-width="13"/><path d="M0 2520 L1766 2520" stroke-width="13"/><path d="M0 2700 L1766 2700" stroke-width="13"/><path d="M0 2880 L1766 2880" stroke-width="13"/><path d="M0 3060 L1766 3060" stroke-width="13"/><g data-id="t16fl3bb" data-class="clef" class="clef"><use href="#E901-o1hz6ouh" transform="translate(117, 2880) scale(0.72, 0.72)"/></g><g data-id="ulxjiwt" data-class="keySig" class="keySig"/><g data-id="g19tly8d" data-class="layer" class="layer"><g data-id="h1tea30o" data-class="note" class="note"><g data-class="notehead" class="notehead"><use href="#E93C-o1hz6ouh" transform="translate(489, 2790) scale(0.72, 0.72)"/></g></g></g></g><g data-id="j1vqq1g3" data-class="staff" class="staff"><path d="M1766 540 L6986 540" stroke-width="13"/><path d="M1766 720 L6986 720" stroke-width="13"/><path d="M1766 900 L6986 900" stroke-width="13"/><path d="M1766 1080 L6986 1080" stroke-width="13"/><path d="M1766 1260 L6986 1260" stroke-width="13"/><g data-id="k7z4a22" data-class="layer" class="layer"><g data-id="b1tym4jp" data-class="note" class="note"><g data-class="notehead" class="notehead"><polygon points="1874,1170 2070,1170 2070,1220 1874,1220"/><polygon points="1874,1350 2070,1350 2070,1300 1874,1300"/><rect x="1856" y="1140" height="240" width="18"/></g><g data-class="stem" class="stem"><rect x="2070" y="630" height="750" width="18"/></g></g><g data-id="ciobbw6" data-class="barLine" class="barLine"><ellipse cx="6959" cy="630" rx="27" ry="27"/><ellipse cx="6959" cy="810" rx="27" ry="27"/><ellipse cx="6959" cy="990" rx="27" ry="27"/><ellipse cx="6959" cy="1170" rx="27" ry="27"/></g></g></g><g data-id="pf3j902" data-class="staff" class="staff"><path d="M1766 2340 L6986 2340" stroke-width="13"/><path d="M1766 2520 L6986 2520" stroke-width="13"/><path d="M1766 2700 L6986 2700" stroke-width="13"/><path d="M1766 2880 L6986 2880" stroke-width="13"/><path d="M1766 3060 L6986 3060" stroke-width="13"/><g data-id="q4z9r0c" data-class="layer" class="layer"><g data-id="i1upcd7a" data-class="note" class="note"><g data-class="notehead" class="notehead"><use href="#E93C-o1hz6ouh" transform="translate(1856, 2790) scale(0.72, 0.72)"/></g></g><g data-id="j1wfant" data-class="note" class="note"><g data-class="notehead" class="notehead"><use href="#E93C-o1hz6ouh" transform="translate(3106, 2790) scale(0.72, 0.72)"/></g></g><g data-id="kpy1cyt" data-class="barLine" class="barLine"><path d="M4356 2340 L4356 3060" stroke-width="27" stroke-dasharray="102 102"/></g><g data-id="lry7k37" data-class="note" class="note"><g data-class="notehead" class="notehead"><use href="#E93C-o1hz6ouh" transform="translate(4459, 2790) scale(0.72, 0.72)"/></g></g><g data-id="meet4fc" data-class="note" class="note"><g data-class="notehead" class="notehead"><use href="#E93C-o1hz6ouh" transform="translate(5709, 2790) scale(0.72, 0.72)"/></g></g></g></g><g data-id="l1em5u43" data-class="staff" class="staff"><path d="M6986 540 L8339 540" stroke-width="13"/><path d="M6986 720 L8339 720" stroke-width="13"/><path d="M6986 900 L8339 900" stroke-width="13"/><path d="M6986 1080 L8339 1080" stroke-width="13"/><path d="M6986 1260 L8339 1260" stroke-width="13"/><g data-id="m1m760sg" data-class="layer" class="layer"><g data-id="dyn8yyr" data-class="note" class="note"><g data-class="notehead" class="notehead"><use href="#E93C-o1hz6ouh" transform="translate(7076, 1260) scale(0.72, 0.72)"/></g></g><g data-id="e1y2m0wq" data-class="barLine" class="barLine"><path d="M8326 540 L8326 1260" stroke-width="27" stroke-dasharray="102 102"/></g></g></g><g data-id="r1wmtogb" data-class="staff" class="staff"><path d="M6986 2340 L8339 2340" stroke-width="13"/><path d="M6986 2520 L8339 2520" stroke-width="13"/><path d="M6986 2700 L8339 2700" stroke-width="13"/><path d="M6986 2880 L8339 2880" stroke-width="13"/><path d="M6986 3060 L8339 3060" stroke-width="13"/><g data-id="sdwwmr2" data-class="layer" class="layer"><g data-id="ndy9qko" data-class="note" class="note"><g data-class="notehead" class="notehead"><use href="#E93C-o1hz6ouh" transform="translate(7076, 2790) scale(0.72, 0.72)"/></g></g><g data-id="o1mzfqje" data-class="barLine" class="barLine"><path d="M8326 2340 L8326 3060" stroke-width="27" stroke-dasharray="102 102"/></g></g></g><g data-id="w19fksng" data-class="systemMilestoneEnd" class="systemMilestoneEnd n1fdktce"/></g><g data-id="xfjhui0" data-class="pageMilestoneEnd" class="pageMilestoneEnd qjakgcn"/><g data-id="yg8ja1e" data-class="pageMilestoneEnd" class="pageMilestoneEnd p46znm4"/></g></svg></svg>