<svg viewBox="0 0 145 86" version="1.1" xmlns="http://www.w3.org/2000/svg" xmlns:xlink="http://www.w3.org/1999/xlink" overflow="visible" id="zo7zmfd"><desc>Engraved by Verovio 6.0.1-ffbc336</desc><defs><g id="E901-zo7zmfd"><path transform="scale(1,-1)" d="M144 488c30 28 83 110 83 176c0 77 -39 150 -104 150c-15 0 -33 -6 -61 -34c-15 -15 -23 -44 -23 -79c0 -44 14 -96 43 -133c23 -29 44 -58 62 -80zM159 69c-57 0 -104 -31 -104 -98c0 -61 35 -63 51 -75c8 0 23 52 39 92l32 80c-6 1 -12 1 -18 1zM256 -25 c0 -76 -24 -122 -98 -122h-3c-28 0 -66 7 -84 15c-38 17 -71 55 -71 112c0 55 56 114 124 123c25 3 49 8 61 8c12 33 26 89 26 128c0 104 -55 180 -76 211c-51 -65 -79 -110 -90 -178c-1 -6 -4 -25 -4 -46c0 -18 2 -38 10 -50c5 -7 7 -16 7 -24c0 -13 -6 -24 -15 -24 c-5 0 -12 5 -19 17c-12 21 -24 38 -24 96c0 77 23 115 54 151c38 44 26 28 65 68l1 -1c0 3 -16 27 -60 79c-19 22 -58 58 -58 145c0 76 30 100 53 123c25 25 57 38 102 38c62 0 110 -83 110 -168c0 -13 -2 -26 -4 -39c-10 -52 -83 -130 -111 -163c24 -38 8 -3 55 -91 c34 -63 42 -84 42 -119c0 -10 -1 -22 -2 -37c-4 -63 -11 -76 -20 -116c7 0 12 1 21 -1c14 -4 20 -11 20 -19c0 -19 -30 -19 -52 -24c-6 -13 -67 -174 -67 -181c0 -2 9 -4 19 -4c25 0 41 21 56 73c8 28 14 39 22 39s10 -8 10 -19z"/></g><g id="E9F0-zo7zmfd"><path transform="scale(1,-1)" d="M0 500h40v-1000h-40v1000zM90 500h40v-1000h-40v1000z"/></g><g id="E9F2-zo7zmfd"><path transform="scale(1,-1)" d="M0 250h40v-500h-40v500z"/></g><g id="E9F3-zo7zmfd"><path transform="scale(1,-1)" d="M0 250h40v-250h-40v250z"/></g><g id="E93C-zo7zmfd"><path transform="scale(1,-1)" d="M156 195l156 -195l-156 -195l-156 195zM127 110l-57 -71l115 -149l57 71z"/></g><g id="E9F4-zo7zmfd"><path transform="scale(1,-1)" d="M0 250h40v-140h-40v140z"/></g><g id="E93E-zo7zmfd"><path transform="scale(1,-1)" d="M0 760h30v-760h-30v760z"/></g><g id="E9F5-zo7zmfd"><path transform="scale(1,-1)" d="M0 140h40v-140h-40v140z"/></g><g id="E93D-zo7zmfd"><path transform="scale(1,-1)" d="M156 195l156 -195l-156 -195l-156 195z"/></g><g id="E9F6-zo7zmfd"><path transform="scale(1,-1)" d="M40 96v-96h-40v140h40l78 -69h-48z"/></g><g id="E949-zo7zmfd"><path transform="scale(1,-1)" d="M0 0v760h30l150 -259l-26 -15l-124 214v-700h-30z"/></g><g id="E9F7-zo7zmfd"><path transform="scale(1,-1)" d="M78 96l-30 -25h-48l78 69h40v-140h-40v96z"/></g><g id="E94B-zo7zmfd"><path transform="scale(1,-1)" d="M0 0v760h30l150 -259l-26 -15l-124 214v-80l150 -259l-26 -15l-124 214v-560h-30z"/></g><g id="E9F8-zo7zmfd"><path transform="scale(1,-1)" d="M78 96l-30 -25h-48l78 69h40v-140h-40v39l-30 -25h-48l78 69v13z"/></g></defs><style type="text/css">#zo7zmfd g.ending, #zo7zmfd g.fing, #zo7zmfd g.reh, #zo7zmfd g.tempo {font-weight:bold;}#zo7zmfd g.dir, #zo7zmfd g.dynam, #zo7zmfd g.mNum {font-style:italic;}#zo7zmfd g.label {font-weight:normal;}#zo7zmfd ellipse, #zo7zmfd path, #zo7zmfd polygon, #zo7zmfd polyline, #zo7zmfd rect {stroke:currentColor}</style><svg class="definition-scale" color="black" font-family="Times, serif" viewBox="0 0 14470 8560"><g class="page-margin" transform="translate(500, 500)"><g data-id="az2csv1" data-class="mdiv" class="mdiv pageMilestone"/><g data-id="b57ju0y" data-class="score" class="score pageMilestone"/><g data-id="uur52ug" data-class="system" class="system"><path d="M13 540 L13 3060" stroke-width="27"/><g data-id="w1b8v1nc" data-class="section" class="section systemMilestone"/><g data-id="g1y8639f" data-class="staff" class="staff"><path d="M0 540 L13282 540" stroke-width="13"/><path d="M0 720 L13282 720" stroke-width="13"/><path d="M0 900 L13282 900" stroke-width="13"/><path d="M0 1080 L13282 1080" stroke-width="13"/><path d="M0 1260 L13282 1260" stroke-width="13"/><g data-id="m1dc7lvr" data-class="clef" class="clef"><use href="#E901-zo7zmfd" transform="translate(117, 1080) scale(0.72, 0.72)"/></g><g data-id="nuoeyil" data-class="keySig" class="keySig"/><g data-id="h4d19yo" data-class="layer" class="layer"><g data-id="ik317rp" data-class="note" class="note"><g data-class="notehead" class="notehead"><polygon points="507,1170 935,1170 935,1220 507,1220"/><polygon points="507,1350 935,1350 935,1300 507,1300"/><rect x="489" y="1140" height="240" width="18"/></g><g data-class="stem" class="stem"><rect x="935" y="630" height="750" width="18"/></g></g></g></g><g data-id="q1ypkwbj" data-class="staff" class="staff"><path d="M0 2340 L13282 2340" stroke-width="13"/><path d="M0 2520 L13282 2520" stroke-width="13"/><path d="M0 2700 L13282 2700" stroke-width="13"/><path d="M0 2880 L13282 2880" stroke-width="13"/><path d="M0 3060 L13282 3060" stroke-width="13"/><g data-id="o1xhh7r8" data-class="clef" class="clef"><use href="#E901-zo7zmfd" transform="translate(117, 2880) scale(0.72, 0.72)"/></g><g data-id="pemxq6j" data-class="keySig" class="keySig"/><g data-id="r1jh7jbc" data-class="layer" class="layer"><g data-id="sleku2t" data-class="rest" class="rest"><use href="#E9F0-zo7zmfd" transform="translate(489, 2700) scale(0.72, 0.72)"/></g></g></g></g><g data-id="xw3s46v" data-class="system" class="system"><path d="M13 4500 L13 7020" stroke-width="27"/><g data-id="s1h8zs5w" data-class="staff" class="staff"><path d="M0 4500 L6388 4500" stroke-width="13"/><path d="M0 4680 L6388 4680" stroke-width="13"/><path d="M0 4860 L6388 4860" stroke-width="13"/><path d="M0 5040 L6388 5040" stroke-width="13"/><path d="M0 5220 L6388 5220" stroke-width="13"/><g data-id="c1apixew" data-class="clef" class="clef"><use href="#E901-zo7zmfd" transform="translate(117, 5040) scale(0.72, 0.72)"/></g><g data-id="d5j3rmk" data-class="keySig" class="keySig"/><g data-id="toddjwe" data-class="layer" class="layer"><g data-id="jle6l0p" data-class="note" class="note"><g data-class="notehead" class="notehead"><polygon points="507,5130 703,5130 703,5180 507,5180"/><polygon points="507,5310 703,5310 703,5260 507,5260"/><rect x="489" y="5100" height="240" width="18"/></g><g data-class="stem" class="stem"><rect x="703" y="4590" height="750" width="18"/></g></g></g></g><g data-id="i1gswznm" data-class="staff" class="staff"><path d="M0 6300 L6388 6300" stroke-width="13"/><path d="M0 6480 L6388 6480" stroke-width="13"/><path d="M0 6660 L6388 6660" stroke-width="13"/><path d="M0 6840 L6388 6840" stroke-width="13"/><path d="M0 7020 L6388 7020" stroke-width="13"/><g data-id="e1d6jxk4" data-class="clef" class="clef"><use href="#E901-zo7zmfd" transform="translate(117, 6840) scale(0.72, 0.72)"/></g><g data-id="f1gcrp0d" data-class="keySig" class="keySig"/><g data-id="j13pwaa8" data-class="layer" class="layer"><g data-id="t1t2vx1k" data-class="rest" class="rest"><use href="#E9F2-zo7zmfd" transform="translate(489, 6660) scale(0.72, 0.72)"/></g></g></g><g data-id="u7k6c4o" data-class="staff" class="staff"><path d="M6388 4500 L9528 4500" stroke-width="13"/><path d="M6388 4680 L9528 4680" stroke-width="13"/><path d="M6388 4860 L9528 4860" stroke-width="13"/><path d="M6388 5040 L9528 5040" stroke-width="13"/><path d="M6388 5220 L9528 5220" stroke-width="13"/><g data-id="vti3ckq" data-class="layer" class="layer"><g data-id="k3rkhod" data-class="note" class="note"><g data-class="notehead" class="notehead"><polygon points="6496,5130 6692,5130 6692,5180 6496,5180"/><polygon points="6496,5310 6692,5310 6692,5260 6496,5260"/><rect x="6478" y="5100" height="240" width="18"/><rect x="6692" y="5100" height="240" width="18"/></g></g></g></g><g data-id="k1m8nkqf" data-class="staff" class="staff"><path d="M6388 6300 L9528 6300" stroke-width="13"/><path d="M6388 6480 L9528 6480" stroke-width="13"/><path d="M6388 6660 L9528 6660" stroke-width="13"/><path d="M6388 6840 L9528 6840" stroke-width="13"/><path d="M6388 7020 L9528 7020" stroke-width="13"/><g data-id="l16ktgqs" data-class="layer" class="layer"><g data-id="u609ld0" data-class="rest" class="rest"><use href="#E9F3-zo7zmfd" transform="translate(6478, 6660) scale(0.72, 0.72)"/><g data-class="ledgerLines" class="ledgerLines"/></g></g></g><g data-id="wksq90x" data-class="staff" class="staff"><path d="M9528 4500 L11193 4500" stroke-width="13"/><path d="M9528 4680 L11193 4680" stroke-width="13"/><path d="M9528 4860 L11193 4860" stroke-width="13"/><path d="M9528 5040 L11193 5040" stroke-width="13"/><path d="M9528 5220 L11193 5220" stroke-width="13"/><g data-id="x11d9i2k" data-class="layer" class="layer"><g data-id="lqtsbue" data-class="note" class="note"><g data-class="notehead" class="notehead"><use href="#E93C-zo7zmfd" transform="translate(9618, 5220) scale(0.72, 0.72)"/></g></g></g></g><g data-id="mlzrimu" data-class="staff" class="staff"><path d="M9528 6300 L11193 6300" stroke-width="13"/><path d="M9528 6480 L11193 6480" stroke-width="13"/><path d="M9528 6660 L11193 6660" stroke-width="13"/><path d="M9528 6840 L11193 6840" stroke-width="13"/><path d="M9528 7020 L11193 7020" stroke-width="13"/><g data-id="n54m06s" data-class="layer" class="layer"><g data-id="v12m72d" data-class="rest" class="rest"><use href="#E9F4-zo7zmfd" transform="translate(9618, 6660) scale(0.72, 0.72)"/><g data-class="ledgerLines" class="ledgerLines"/></g></g></g><g data-id="y1yxfdxs" data-class="staff" class="staff"><path d="M11193 4500 L12089 4500" stroke-width="13"/><path d="M11193 4680 L12089 4680" stroke-width="13"/><path d="M11193 4860 L12089 4860" stroke-width="13"/><path d="M11193 5040 L12089 5040" stroke-width="13"/><path d="M11193 5220 L12089 5220" stroke-width="13"/><g data-id="z11rjki7" data-class="layer" class="layer"><g data-id="m158drei" data-class="note" class="note"><g data-class="notehead" class="notehead"><use href="#E93C-zo7zmfd" transform="translate(11283, 5220) scale(0.72, 0.72)"/></g><g data-id="ouwhihx" data-class="stem" class="stem"><use href="#E93E-zo7zmfd" transform="translate(11385, 5140) scale(0.72, 0.72)"/></g></g></g></g><g data-id="okig1f2" data-class="staff" class="staff"><path d="M11193 6300 L12089 6300" stroke-width="13"/><path d="M11193 6480 L12089 6480" stroke-width="13"/><path d="M11193 6660 L12089 6660" stroke-width="13"/><path d="M11193 6840 L12089 6840" stroke-width="13"/><path d="M11193 7020 L12089 7020" stroke-width="13"/><g data-id="plgr1zm" data-class="layer" class="layer"><g data-id="wtn1mlg" data-class="rest" class="rest"><use href="#E9F5-zo7zmfd" transform="translate(11283, 6660) scale(0.72, 0.72)"/><g data-class="ledgerLines" class="ledgerLines"/></g></g></g><g data-id="agnqrvd" data-class="staff" class="staff"><path d="M12089 4500 L12708 4500" stroke-width="13"/><path d="M12089 4680 L12708 4680" stroke-width="13"/><path d="M12089 4860 L12708 4860" stroke-width="13"/><path d="M12089 5040 L12708 5040" stroke-width="13"/><path d="M12089 5220 L12708 5220" stroke-width="13"/><g data-id="b1pl5xj8" data-class="layer" class="layer"><g data-id="nu1c1uo" data-class="note" class="note"><g data-class="notehead" class="notehead"><use href="#E93D-zo7zmfd" transform="translate(12179, 5220) scale(0.72, 0.72)"/></g><g data-id="p1hflbtw" data-class="stem" class="stem"><use href="#E93E-zo7zmfd" transform="translate(12281, 5140) scale(0.72, 0.72)"/></g></g></g></g><g data-id="q1lumbhq" data-class="staff" class="staff"><path d="M12089 6300 L12708 6300" stroke-width="13"/><path d="M12089 6480 L12708 6480" stroke-width="13"/><path d="M12089 6660 L12708 6660" stroke-width="13"/><path d="M12089 6840 L12708 6840" stroke-width="13"/><path d="M12089 7020 L12708 7020" stroke-width="13"/><g data-id="r1k6saeo" data-class="layer" class="layer"><g data-id="xx4rff3" data-class="rest" class="rest"><use href="#E9F6-zo7zmfd" transform="translate(12179, 6660) scale(0.72, 0.72)"/></g></g></g><g data-id="cn19bzt" data-class="staff" class="staff"><path d="M12708 4500 L13150 4500" stroke-width="13"/><path d="M12708 4680 L13150 4680" stroke-width="13"/><path d="M12708 4860 L13150 4860" stroke-width="13"/><path d="M12708 5040 L13150 5040" stroke-width="13"/><path d="M12708 5220 L13150 5220" stroke-width="13"/><g data-id="dsj0h8b" data-class="layer" class="layer"><g data-id="oxgc2tr" data-class="note" class="note"><g data-class="notehead" class="notehead"><use href="#E93D-zo7zmfd" transform="translate(12798, 5220) scale(0.72, 0.72)"/></g><g data-id="qsm1sg7" data-class="stem" class="stem"><use href="#E949-zo7zmfd" transform="translate(12900, 5140) scale(0.72, 0.72)"/></g></g></g></g><g data-id="s1cp5yvp" data-class="staff" class="staff"><path d="M12708 6300 L13150 6300" stroke-width="13"/><path d="M12708 6480 L13150 6480" stroke-width="13"/><path d="M12708 6660 L13150 6660" stroke-width="13"/><path d="M12708 6840 L13150 6840" stroke-width="13"/><path d="M12708 7020 L13150 7020" stroke-width="13"/><g data-id="t11yyrzy" data-class="layer" class="layer"><g data-id="y9jx62m" data-class="rest" class="rest"><use href="#E9F7-zo7zmfd" transform="translate(12798, 6660) scale(0.72, 0.72)"/></g></g></g><g data-id="e10544kv" data-class="staff" class="staff"><path d="M13150 4500 L13471 4500" stroke-width="13"/><path d="M13150 4680 L13471 4680" stroke-width="13"/><path d="M13150 4860 L13471 4860" stroke-width="13"/><path d="M13150 5040 L13471 5040" stroke-width="13"/><path d="M13150 5220 L13471 5220" stroke-width="13"/><g data-id="fjgl6av" data-class="layer" class="layer"><g data-id="p1268hxz" data-class="note" class="note"><g data-class="notehead" class="notehead"><use href="#E93D-zo7zmfd" transform="translate(13240, 5220) scale(0.72, 0.72)"/></g><g data-id="r1mk1rwo" data-class="stem" class="stem"><use href="#E94B-zo7zmfd" transform="translate(13342, 5140) scale(0.72, 0.72)"/></g></g></g></g><g data-id="u1m67va3" data-class="staff" class="staff"><path d="M13150 6300 L13471 6300" stroke-width="13"/><path d="M13150 6480 L13471 6480" stroke-width="13"/><path d="M13150 6660 L13471 6660" stroke-width="13"/><path d="M13150 6840 L13471 6840" stroke-width="13"/><path d="M13150 7020 L13471 7020" stroke-width="13"/><g data-id="v1e0iy5v" data-class="layer" class="layer"><g data-id="zunh0fx" data-class="rest" class="rest"><use href="#E9F8-zo7zmfd" transform="translate(13240, 6660) scale(0.72, 0.72)"/></g></g></g><g data-id="h1lnu4x9" data-class="systemMilestoneEnd" class="systemMilestoneEnd w1b8v1nc"/></g><g data-id="i1h3faed" data-class="pageMilestoneEnd" class="pageMilestoneEnd b57ju0y"/><g data-id="j1ly3zjf" data-class="pageMilestoneEnd" class="pageMilestoneEnd az2csv1"/></g></svg></svg>