<svg viewBox="0 0 144 86" version="1.1" xmlns="http://www.w3.org/2000/svg" xmlns:xlink="http://www.w3.org/1999/xlink" overflow="visible" id="ce1xzw6"><desc>Engraved by Verovio 6.1.0-682d606</desc><defs><g id="E901-ce1xzw6"><path transform="scale(1,-1)" d="M144 488c30 28 83 110 83 176c0 77 -39 150 -104 150c-15 0 -33 -6 -61 -34c-15 -15 -23 -44 -23 -79c0 -44 14 -96 43 -133c23 -29 44 -58 62 -80zM159 69c-57 0 -104 -31 -104 -98c0 -61 35 -63 51 -75c8 0 23 52 39 92l32 80c-6 1 -12 1 -18 1zM256 -25 c0 -76 -24 -122 -98 -122h-3c-28 0 -66 7 -84 15c-38 17 -71 55 -71 112c0 55 56 114 124 123c25 3 49 8 61 8c12 33 26 89 26 128c0 104 -55 180 -76 211c-51 -65 -79 -110 -90 -178c-1 -6 -4 -25 -4 -46c0 -18 2 -38 10 -50c5 -7 7 -16 7 -24c0 -13 -6 -24 -15 -24 c-5 0 -12 5 -19 17c-12 21 -24 38 -24 96c0 77 23 115 54 151c38 44 26 28 65 68l1 -1c0 3 -16 27 -60 79c-19 22 -58 58 -58 145c0 76 30 100 53 123c25 25 57 38 102 38c62 0 110 -83 110 -168c0 -13 -2 -26 -4 -39c-10 -52 -83 -130 -111 -163c24 -38 8 -3 55 -91 c34 -63 42 -84 42 -119c0 -10 -1 -22 -2 -37c-4 -63 -11 -76 -20 -116c7 0 12 1 21 -1c14 -4 20 -11 20 -19c0 -19 -30 -19 -52 -24c-6 -13 -67 -174 -67 -181c0 -2 9 -4 19 -4c25 0 41 21 56 73c8 28 14 39 22 39s10 -8 10 -19z"/></g><g id="E93C-ce1xzw6"><path transform="scale(1,-1)" d="M156 195l156 -195l-156 -195l-156 195zM127 110l-57 -71l115 -149l57 71z"/></g><g id="E93E-ce1xzw6"><path transform="scale(1,-1)" d="M0 760h30v-760h-30v760z"/></g></defs><style type="text/css">#ce1xzw6 g.ending, #ce1xzw6 g.fing, #ce1xzw6 g.reh, #ce1xzw6 g.tempo {font-weight:bold;}#ce1xzw6 g.dir, #ce1xzw6 g.dynam, #ce1xzw6 g.mNum {font-style:italic;}#ce1xzw6 g.label {font-weight:normal;}#ce1xzw6 ellipse, #ce1xzw6 path, #ce1xzw6 polygon, #ce1xzw6 polyline, #ce1xzw6 rect {stroke:currentColor}</style><svg class="definition-scale" color="black" font-family="Times, serif" viewBox="0 0 14390 8560"><g class="page-margin" transform="translate(500, 500)"><g data-id="d3jvbq" data-class="mdiv" class="mdiv pageMilestone"/><g data-id="e1ud8bes" data-class="score" class="score pageMilestone"/><g data-id="h1200dai" data-class="system" class="system"><path d="M13 540 L13 3060" stroke-width="27"/><g data-id="b1prmmox" data-class="section" class="section systemMilestone"/><g data-id="lnf0xv4" data-class="staff" class="staff"><path d="M0 540 L13398 540" stroke-width="13"/><path d="M0 720 L13398 720" stroke-width="13"/><path d="M0 900 L13398 900" stroke-width="13"/><path d="M0 1080 L13398 1080" stroke-width="13"/><path d="M0 1260 L13398 1260" stroke-width="13"/><g data-id="rqs17w7" data-class="clef" class="clef"><use href="#E901-ce1xzw6" transform="translate(117, 1080) scale(0.72, 0.72)"/></g><g data-id="s4ckml6" data-class="keySig" class="keySig"/><g data-id="m5kw6r2" data-class="layer" class="layer"><g data-id="n1ytstyo" data-class="note" class="note"><g data-class="notehead" class="notehead"><polygon points="507,1170 703,1170 703,1220 507,1220"/><polygon points="507,1350 703,1350 703,1300 507,1300"/><rect x="489" y="1140" height="240" width="18"/></g><g data-class="stem" class="stem"><rect x="703" y="630" height="750" width="18"/></g></g><g data-id="o1u6zt4i" data-class="barLine" class="barLine"><ellipse cx="13371" cy="630" rx="27" ry="27"/><ellipse cx="13371" cy="810" rx="27" ry="27"/><ellipse cx="13371" cy="990" rx="27" ry="27"/><ellipse cx="13371" cy="1170" rx="27" ry="27"/></g></g></g><g data-id="r1nosmnd" data-class="staff" class="staff"><path d="M0 2340 L13398 2340" stroke-width="13"/><path d="M0 2520 L13398 2520" stroke-width="13"/><path d="M0 2700 L13398 2700" stroke-width="13"/><path d="M0 2880 L13398 2880" stroke-width="13"/><path d="M0 3060 L13398 3060" stroke-width="13"/><g data-id="tgs1r4y" data-class="clef" class="clef"><use href="#E901-ce1xzw6" transform="translate(117, 2880) scale(0.72, 0.72)"/></g><g data-id="u1b0t7f8" data-class="keySig" class="keySig"/><g data-id="spvflj" data-class="layer" class="layer"><g data-id="t41vlu8" data-class="note" class="note"><g data-class="notehead" class="notehead"><use href="#E93C-ce1xzw6" transform="translate(489, 2790) scale(0.72, 0.72)"/></g><g data-id="djo2zqr" data-class="stem" class="stem"><use href="#E93E-ce1xzw6" transform="translate(591, 2710) scale(0.72, 0.72)"/></g></g><g data-id="uub2fav" data-class="note" class="note"><g data-class="notehead" class="notehead"><use href="#E93C-ce1xzw6" transform="translate(1214, 2790) scale(0.72, 0.72)"/></g><g data-id="e1y6seak" data-class="stem" class="stem"><use href="#E93E-ce1xzw6" transform="translate(1316, 2710) scale(0.72, 0.72)"/></g></g><g data-id="vic2jvl" data-class="note" class="note"><g data-class="notehead" class="notehead"><use href="#E93C-ce1xzw6" transform="translate(1939, 2790) scale(0.72, 0.72)"/></g><g data-id="f19sos55" data-class="stem" class="stem"><use href="#E93E-ce1xzw6" transform="translate(2041, 2710) scale(0.72, 0.72)"/></g></g><g data-id="wzz5na3" data-class="barLine" class="barLine"><ellipse cx="2664" cy="2430" rx="27" ry="27"/><ellipse cx="2664" cy="2610" rx="27" ry="27"/><ellipse cx="2664" cy="2790" rx="27" ry="27"/><ellipse cx="2664" cy="2970" rx="27" ry="27"/></g><g data-id="x1hfqg9v" data-class="note" class="note"><g data-class="notehead" class="notehead"><use href="#E93C-ce1xzw6" transform="translate(2781, 2790) scale(0.72, 0.72)"/></g><g data-id="ghc3zoo" data-class="stem" class="stem"><use href="#E93E-ce1xzw6" transform="translate(2883, 2710) scale(0.72, 0.72)"/></g></g><g data-id="yeberiv" data-class="note" class="note"><g data-class="notehead" class="notehead"><use href="#E93C-ce1xzw6" transform="translate(3506, 2790) scale(0.72, 0.72)"/></g><g data-id="h1jd842z" data-class="stem" class="stem"><use href="#E93E-ce1xzw6" transform="translate(3608, 2710) scale(0.72, 0.72)"/></g></g><g data-id="z1tpmnhj" data-class="note" class="note"><g data-class="notehead" class="notehead"><use href="#E93C-ce1xzw6" transform="translate(4231, 2790) scale(0.72, 0.72)"/></g><g data-id="i4szse1" data-class="stem" class="stem"><use href="#E93E-ce1xzw6" transform="translate(4333, 2710) scale(0.72, 0.72)"/></g></g><g data-id="a1wetct4" data-class="barLine" class="barLine"><path d="M4956 2340 L4956 3060" stroke-width="27" stroke-dasharray="102 102"/></g><g data-id="bcu29wh" data-class="note" class="note"><g data-class="notehead" class="notehead"><use href="#E93C-ce1xzw6" transform="translate(5059, 2790) scale(0.72, 0.72)"/></g><g data-id="j8r17q3" data-class="stem" class="stem"><use href="#E93E-ce1xzw6" transform="translate(5161, 2710) scale(0.72, 0.72)"/></g></g><g data-id="cbia5vh" data-class="note" class="note"><g data-class="notehead" class="notehead"><use href="#E93C-ce1xzw6" transform="translate(5784, 2790) scale(0.72, 0.72)"/></g><g data-id="k13ijsqn" data-class="stem" class="stem"><use href="#E93E-ce1xzw6" transform="translate(5886, 2710) scale(0.72, 0.72)"/></g></g><g data-id="drd5u5y" data-class="note" class="note"><g data-class="notehead" class="notehead"><use href="#E93C-ce1xzw6" transform="translate(6509, 2790) scale(0.72, 0.72)"/></g><g data-id="l1muah38" data-class="stem" class="stem"><use href="#E93E-ce1xzw6" transform="translate(6611, 2710) scale(0.72, 0.72)"/></g></g><g data-id="e1id5xum" data-class="barLine" class="barLine"><ellipse cx="7234" cy="2430" rx="27" ry="27"/><ellipse cx="7234" cy="2610" rx="27" ry="27"/><ellipse cx="7234" cy="2790" rx="27" ry="27"/><ellipse cx="7234" cy="2970" rx="27" ry="27"/></g><g data-id="f17d3s7k" data-class="note" class="note"><g data-class="notehead" class="notehead"><use href="#E93C-ce1xzw6" transform="translate(7351, 2790) scale(0.72, 0.72)"/></g><g data-id="m6k0frh" data-class="stem" class="stem"><use href="#E93E-ce1xzw6" transform="translate(7453, 2710) scale(0.72, 0.72)"/></g></g><g data-id="g18058hy" data-class="note" class="note"><g data-class="notehead" class="notehead"><use href="#E93C-ce1xzw6" transform="translate(8076, 2790) scale(0.72, 0.72)"/></g><g data-id="n1vy3w9" data-class="stem" class="stem"><use href="#E93E-ce1xzw6" transform="translate(8178, 2710) scale(0.72, 0.72)"/></g></g><g data-id="huhizds" data-class="note" class="note"><g data-class="notehead" class="notehead"><use href="#E93C-ce1xzw6" transform="translate(8801, 2790) scale(0.72, 0.72)"/></g><g data-id="ownq5bz" data-class="stem" class="stem"><use href="#E93E-ce1xzw6" transform="translate(8903, 2710) scale(0.72, 0.72)"/></g></g><g data-id="iah2dt5" data-class="barLine" class="barLine"><path d="M9526 2340 L9526 3060" stroke-width="27" stroke-dasharray="102 102"/></g><g data-id="j1ugjk8m" data-class="note" class="note"><g data-class="notehead" class="notehead"><use href="#E93C-ce1xzw6" transform="translate(9629, 2790) scale(0.72, 0.72)"/></g><g data-id="pulwptg" data-class="stem" class="stem"><use href="#E93E-ce1xzw6" transform="translate(9731, 2710) scale(0.72, 0.72)"/></g></g><g data-id="k1v41xav" data-class="note" class="note"><g data-class="notehead" class="notehead"><use href="#E93C-ce1xzw6" transform="translate(10354, 2790) scale(0.72, 0.72)"/></g><g data-id="q1cr6ea4" data-class="stem" class="stem"><use href="#E93E-ce1xzw6" transform="translate(10456, 2710) scale(0.72, 0.72)"/></g></g><g data-id="l19xdvax" data-class="note" class="note"><g data-class="notehead" class="notehead"><use href="#E93C-ce1xzw6" transform="translate(11079, 2790) scale(0.72, 0.72)"/></g><g data-id="r1673yq6" data-class="stem" class="stem"><use href="#E93E-ce1xzw6" transform="translate(11181, 2710) scale(0.72, 0.72)"/></g></g><g data-id="m2efejj" data-class="barLine" class="barLine"><ellipse cx="11804" cy="2430" rx="27" ry="27"/><ellipse cx="11804" cy="2610" rx="27" ry="27"/><ellipse cx="11804" cy="2790" rx="27" ry="27"/><ellipse cx="11804" cy="2970" rx="27" ry="27"/></g><g data-id="ndwyju5" data-class="note" class="note"><g data-class="notehead" class="notehead"><use href="#E93C-ce1xzw6" transform="translate(11921, 2790) scale(0.72, 0.72)"/></g><g data-id="s1madlof" data-class="stem" class="stem"><use href="#E93E-ce1xzw6" transform="translate(12023, 2710) scale(0.72, 0.72)"/></g></g><g data-id="o1v3i5xm" data-class="note" class="note"><g data-class="notehead" class="notehead"><use href="#E93C-ce1xzw6" transform="translate(12646, 2790) scale(0.72, 0.72)"/></g><g data-id="t4v5x2n" data-class="stem" class="stem"><use href="#E93E-ce1xzw6" transform="translate(12748, 2710) scale(0.72, 0.72)"/></g></g></g></g></g><g data-id="kq0y717" data-class="system" class="system"><path d="M13 4500 L13 7020" stroke-width="27"/><g data-id="q1fs5quk" data-class="staff" class="staff"><path d="M0 4500 L1227 4500" stroke-width="13"/><path d="M0 4680 L1227 4680" stroke-width="13"/><path d="M0 4860 L1227 4860" stroke-width="13"/><path d="M0 5040 L1227 5040" stroke-width="13"/><path d="M0 5220 L1227 5220" stroke-width="13"/><g data-id="l10a5ti9" data-class="clef" class="clef"><use href="#E901-ce1xzw6" transform="translate(117, 5040) scale(0.72, 0.72)"/></g><g data-id="m1q2i6uf" data-class="keySig" class="keySig"/><g data-id="r1c6o85y" data-class="layer" class="layer"><g data-id="ptf5nk1" data-class="note" class="note"><g data-class="notehead" class="notehead"><use href="#E93C-ce1xzw6" transform="translate(489, 5220) scale(0.72, 0.72)"/></g><g data-id="c1wtrz7c" data-class="stem" class="stem"><use href="#E93E-ce1xzw6" transform="translate(591, 5140) scale(0.72, 0.72)"/></g></g><g data-id="qgdnwjz" data-class="barLine" class="barLine"><path d="M1214 4500 L1214 5220" stroke-width="27" stroke-dasharray="102 102"/></g></g></g><g data-id="u1juvuyl" data-class="staff" class="staff"><path d="M0 6300 L1227 6300" stroke-width="13"/><path d="M0 6480 L1227 6480" stroke-width="13"/><path d="M0 6660 L1227 6660" stroke-width="13"/><path d="M0 6840 L1227 6840" stroke-width="13"/><path d="M0 7020 L1227 7020" stroke-width="13"/><g data-id="n15um6gi" data-class="clef" class="clef"><use href="#E901-ce1xzw6" transform="translate(117, 6840) scale(0.72, 0.72)"/></g><g data-id="oj8u0e8" data-class="keySig" class="keySig"/><g data-id="v17tce74" data-class="layer" class="layer"><g data-id="pnwgwq9" data-class="note" class="note"><g data-class="notehead" class="notehead"><use href="#E93C-ce1xzw6" transform="translate(489, 6750) scale(0.72, 0.72)"/></g><g data-id="u1403yt4" data-class="stem" class="stem"><use href="#E93E-ce1xzw6" transform="translate(591, 6670) scale(0.72, 0.72)"/></g></g><g data-id="q1uyedj1" data-class="barLine" class="barLine"><path d="M1214 6300 L1214 7020" stroke-width="27" stroke-dasharray="102 102"/></g></g></g><g data-id="yj3frda" data-class="systemMilestoneEnd" class="systemMilestoneEnd b1prmmox"/></g><g data-id="z1tgwqqj" data-class="pageMilestoneEnd" class="pageMilestoneEnd e1ud8bes"/><g data-id="azctrq4" data-class="pageMilestoneEnd" class="pageMilestoneEnd d3jvbq"/></g></svg></svg>