<svg viewBox="0 0 144 46" version="1.1" xmlns="http://www.w3.org/2000/svg" xmlns:xlink="http://www.w3.org/1999/xlink" xmlns:mei="http://www.music-encoding.org/ns/mei" overflow="visible"><desc>Engraved by Verovio 4.2.0-8a772f5</desc><defs><symbol id="E93C-1n9jw06" viewBox="0 0 1000 1000" overflow="inherit"><path transform="scale(1,-1)" d="M156 195l156 -195l-156 -195l-156 195zM127 110l-57 -71l115 -149l57 71z"/></symbol><symbol id="E901-1n9jw06" viewBox="0 0 1000 1000" overflow="inherit"><path transform="scale(1,-1)" d="M144 488c30 28 83 110 83 176c0 77 -39 150 -104 150c-15 0 -33 -6 -61 -34c-15 -15 -23 -44 -23 -79c0 -44 14 -96 43 -133c23 -29 44 -58 62 -80zM159 69c-57 0 -104 -31 -104 -98c0 -61 35 -63 51 -75c8 0 23 52 39 92l32 80c-6 1 -12 1 -18 1zM256 -25 c0 -76 -24 -122 -98 -122h-3c-28 0 -66 7 -84 15c-38 17 -71 55 -71 112c0 55 56 114 124 123c25 3 49 8 61 8c12 33 26 89 26 128c0 104 -55 180 -76 211c-51 -65 -79 -110 -90 -178c-1 -6 -4 -25 -4 -46c0 -18 2 -38 10 -50c5 -7 7 -16 7 -24c0 -13 -6 -24 -15 -24 c-5 0 -12 5 -19 17c-12 21 -24 38 -24 96c0 77 23 115 54 151c38 44 26 28 65 68l1 -1c0 3 -16 27 -60 79c-19 22 -58 58 -58 145c0 76 30 100 53 123c25 25 57 38 102 38c62 0 110 -83 110 -168c0 -13 -2 -26 -4 -39c-10 -52 -83 -130 -111 -163c24 -38 8 -3 55 -91 c34 -63 42 -84 42 -119c0 -10 -1 -22 -2 -37c-4 -63 -11 -76 -20 -116c7 0 12 1 21 -1c14 -4 20 -11 20 -19c0 -19 -30 -19 -52 -24c-6 -13 -67 -174 -67 -181c0 -2 9 -4 19 -4c25 0 41 21 56 73c8 28 14 39 22 39s10 -8 10 -19z"/></symbol><symbol id="E93E-1n9jw06" viewBox="0 0 1000 1000" overflow="inherit"><path transform="scale(1,-1)" d="M0 760h30v-760h-30v760z"/></symbol></defs><style type="text/css">g.page-margin{font-family:Times,serif;} g.ending, g.fing, g.reh, g.tempo{font-weight:bold;} g.dir, g.dynam, g.mNum{font-style:italic;} g.label{font-weight:normal;}</style><svg class="definition-scale" color="black" viewBox="0 0 14380 4600"><g class="page-margin" transform="translate(500, 500)"><g data-id="m1md88sq" data-class="mdiv" class="mdiv pageMilestone"/><g data-id="s3n6kdn" data-class="score" class="score pageMilestone"/><g data-id="s1xa373y" data-class="system" class="system"><path d="M13 540 L13 3060" stroke="currentColor" stroke-width="27"/><g data-id="s10qtnz8" data-class="section" class="section systemMilestone"/><g data-id="s1qiu0pp" data-class="staff" class="staff"><path d="M0 540 L13380 540" stroke="currentColor" stroke-width="13"/><path d="M0 720 L13380 720" stroke="currentColor" stroke-width="13"/><path d="M0 900 L13380 900" stroke="currentColor" stroke-width="13"/><path d="M0 1080 L13380 1080" stroke="currentColor" stroke-width="13"/><path d="M0 1260 L13380 1260" stroke="currentColor" stroke-width="13"/><g data-id="c15453r5" data-class="clef" class="clef"><use href="#E901-1n9jw06" x="117" y="1080" height="720px" width="720px"/></g><g data-id="k2dmx7u" data-class="keySig" class="keySig"/><g data-id="l4smyon" data-class="layer" class="layer"><g data-id="n4g1qs7" data-class="note" class="note"><g data-class="notehead" class="notehead"><polygon points="597,1170 793,1170 793,1220 597,1220"/><polygon points="597,1350 793,1350 793,1300 597,1300"/><rect x="579" y="1140" height="240" width="18"/></g><g data-class="stem" class="stem"><rect x="793" y="1140" height="750" width="18"/></g></g><g data-id="b7ef2ax" data-class="barLine" class="barLine"><ellipse cx="12577" cy="630" rx="27" ry="27"/><ellipse cx="12577" cy="810" rx="27" ry="27"/><ellipse cx="12577" cy="990" rx="27" ry="27"/><ellipse cx="12577" cy="1170" rx="27" ry="27"/></g><g data-id="n19tgmkc" data-class="note" class="note"><g data-class="notehead" class="notehead"><use href="#E93C-1n9jw06" x="12694" y="1260" height="720px" width="720px"/></g><g data-id="shl392a" data-class="stem" class="stem"><use href="#E93E-1n9jw06" x="12796" y="1180" height="720px" width="720px"/></g></g><g data-id="b13sxs32" data-class="barLine" class="barLine"><path d="M13367 540 L13367 1260" stroke="currentColor" stroke-width="27" stroke-dasharray="102 102"/></g></g></g><g data-id="swahnvl" data-class="staff" class="staff"><path d="M0 2340 L13380 2340" stroke="currentColor" stroke-width="13"/><path d="M0 2520 L13380 2520" stroke="currentColor" stroke-width="13"/><path d="M0 2700 L13380 2700" stroke="currentColor" stroke-width="13"/><path d="M0 2880 L13380 2880" stroke="currentColor" stroke-width="13"/><path d="M0 3060 L13380 3060" stroke="currentColor" stroke-width="13"/><g data-id="crhi6rs" data-class="clef" class="clef"><use href="#E901-1n9jw06" x="117" y="2880" height="720px" width="720px"/></g><g data-id="kehf01c" data-class="keySig" class="keySig"/><g data-id="ljhsdt9" data-class="layer" class="layer"><g data-id="nn9sxc" data-class="note" class="note"><g data-class="notehead" class="notehead"><use href="#E93C-1n9jw06" x="579" y="2790" height="720px" width="720px"/></g><g data-id="s1gp7lp9" data-class="stem" class="stem"><use href="#E93E-1n9jw06" x="681" y="2710" height="720px" width="720px"/></g></g><g data-id="n14jixz0" data-class="note" class="note"><g data-class="notehead" class="notehead"><use href="#E93C-1n9jw06" x="1252" y="2790" height="720px" width="720px"/></g><g data-id="sblpwxh" data-class="stem" class="stem"><use href="#E93E-1n9jw06" x="1354" y="2710" height="720px" width="720px"/></g></g><g data-id="n10a9obh" data-class="note" class="note"><g data-class="notehead" class="notehead"><use href="#E93C-1n9jw06" x="1925" y="2790" height="720px" width="720px"/></g><g data-id="s1roc96b" data-class="stem" class="stem"><use href="#E93E-1n9jw06" x="2027" y="2710" height="720px" width="720px"/></g></g><g data-id="bxjv934" data-class="barLine" class="barLine"><ellipse cx="2598" cy="2430" rx="27" ry="27"/><ellipse cx="2598" cy="2610" rx="27" ry="27"/><ellipse cx="2598" cy="2790" rx="27" ry="27"/><ellipse cx="2598" cy="2970" rx="27" ry="27"/></g><g data-id="n1xpgglw" data-class="note" class="note"><g data-class="notehead" class="notehead"><use href="#E93C-1n9jw06" x="2715" y="2790" height="720px" width="720px"/></g><g data-id="s1fm62rw" data-class="stem" class="stem"><use href="#E93E-1n9jw06" x="2817" y="2710" height="720px" width="720px"/></g></g><g data-id="n19xug7v" data-class="note" class="note"><g data-class="notehead" class="notehead"><use href="#E93C-1n9jw06" x="3388" y="2790" height="720px" width="720px"/></g><g data-id="shcjay8" data-class="stem" class="stem"><use href="#E93E-1n9jw06" x="3490" y="2710" height="720px" width="720px"/></g></g><g data-id="nmd98w4" data-class="note" class="note"><g data-class="notehead" class="notehead"><use href="#E93C-1n9jw06" x="4061" y="2790" height="720px" width="720px"/></g><g data-id="smd4arv" data-class="stem" class="stem"><use href="#E93E-1n9jw06" x="4163" y="2710" height="720px" width="720px"/></g></g><g data-id="b3vr9y3" data-class="barLine" class="barLine"><path d="M4734 2340 L4734 3060" stroke="currentColor" stroke-width="27" stroke-dasharray="102 102"/></g><g data-id="nlk1bhm" data-class="note" class="note"><g data-class="notehead" class="notehead"><use href="#E93C-1n9jw06" x="4837" y="2790" height="720px" width="720px"/></g><g data-id="s4m8y6t" data-class="stem" class="stem"><use href="#E93E-1n9jw06" x="4939" y="2710" height="720px" width="720px"/></g></g><g data-id="n5e40wz" data-class="note" class="note"><g data-class="notehead" class="notehead"><use href="#E93C-1n9jw06" x="5510" y="2790" height="720px" width="720px"/></g><g data-id="st3n0nj" data-class="stem" class="stem"><use href="#E93E-1n9jw06" x="5612" y="2710" height="720px" width="720px"/></g></g><g data-id="n10epk14" data-class="note" class="note"><g data-class="notehead" class="notehead"><use href="#E93C-1n9jw06" x="6183" y="2790" height="720px" width="720px"/></g><g data-id="s1x3itpn" data-class="stem" class="stem"><use href="#E93E-1n9jw06" x="6285" y="2710" height="720px" width="720px"/></g></g><g data-id="btlk0sf" data-class="barLine" class="barLine"><ellipse cx="6856" cy="2430" rx="27" ry="27"/><ellipse cx="6856" cy="2610" rx="27" ry="27"/><ellipse cx="6856" cy="2790" rx="27" ry="27"/><ellipse cx="6856" cy="2970" rx="27" ry="27"/></g><g data-id="n171mls" data-class="note" class="note"><g data-class="notehead" class="notehead"><use href="#E93C-1n9jw06" x="6973" y="2790" height="720px" width="720px"/></g><g data-id="skvmxw0" data-class="stem" class="stem"><use href="#E93E-1n9jw06" x="7075" y="2710" height="720px" width="720px"/></g></g><g data-id="naluv0p" data-class="note" class="note"><g data-class="notehead" class="notehead"><use href="#E93C-1n9jw06" x="7646" y="2790" height="720px" width="720px"/></g><g data-id="sluggge" data-class="stem" class="stem"><use href="#E93E-1n9jw06" x="7748" y="2710" height="720px" width="720px"/></g></g><g data-id="nm1bsgi" data-class="note" class="note"><g data-class="notehead" class="notehead"><use href="#E93C-1n9jw06" x="8319" y="2790" height="720px" width="720px"/></g><g data-id="ss5khu5" data-class="stem" class="stem"><use href="#E93E-1n9jw06" x="8421" y="2710" height="720px" width="720px"/></g></g><g data-id="bhw10iw" data-class="barLine" class="barLine"><path d="M8992 2340 L8992 3060" stroke="currentColor" stroke-width="27" stroke-dasharray="102 102"/></g><g data-id="nx388hi" data-class="note" class="note"><g data-class="notehead" class="notehead"><use href="#E93C-1n9jw06" x="9095" y="2790" height="720px" width="720px"/></g><g data-id="s14xpbt6" data-class="stem" class="stem"><use href="#E93E-1n9jw06" x="9197" y="2710" height="720px" width="720px"/></g></g><g data-id="n4rggte" data-class="note" class="note"><g data-class="notehead" class="notehead"><use href="#E93C-1n9jw06" x="9768" y="2790" height="720px" width="720px"/></g><g data-id="svu5i82" data-class="stem" class="stem"><use href="#E93E-1n9jw06" x="9870" y="2710" height="720px" width="720px"/></g></g><g data-id="n10yajxw" data-class="note" class="note"><g data-class="notehead" class="notehead"><use href="#E93C-1n9jw06" x="10441" y="2790" height="720px" width="720px"/></g><g data-id="s9elmm7" data-class="stem" class="stem"><use href="#E93E-1n9jw06" x="10543" y="2710" height="720px" width="720px"/></g></g><g data-id="bydldzr" data-class="barLine" class="barLine"><ellipse cx="11114" cy="2430" rx="27" ry="27"/><ellipse cx="11114" cy="2610" rx="27" ry="27"/><ellipse cx="11114" cy="2790" rx="27" ry="27"/><ellipse cx="11114" cy="2970" rx="27" ry="27"/></g><g data-id="ny4s21w" data-class="note" class="note"><g data-class="notehead" class="notehead"><use href="#E93C-1n9jw06" x="11231" y="2790" height="720px" width="720px"/></g><g data-id="sx0m9bn" data-class="stem" class="stem"><use href="#E93E-1n9jw06" x="11333" y="2710" height="720px" width="720px"/></g></g><g data-id="nq4hro1" data-class="note" class="note"><g data-class="notehead" class="notehead"><use href="#E93C-1n9jw06" x="11904" y="2790" height="720px" width="720px"/></g><g data-id="s1hgstwm" data-class="stem" class="stem"><use href="#E93E-1n9jw06" x="12006" y="2710" height="720px" width="720px"/></g></g><g data-id="nbo9a7x" data-class="note" class="note"><g data-class="notehead" class="notehead"><use href="#E93C-1n9jw06" x="12694" y="2790" height="720px" width="720px"/></g><g data-id="s191ohvv" data-class="stem" class="stem"><use href="#E93E-1n9jw06" x="12796" y="2710" height="720px" width="720px"/></g></g><g data-id="b1l6tev9" data-class="barLine" class="barLine"><path d="M13367 2340 L13367 3060" stroke="currentColor" stroke-width="27" stroke-dasharray="102 102"/></g></g></g><g data-id="s1emomvu" data-class="systemMilestoneEnd" class="systemMilestoneEnd s10qtnz8"/></g><g data-id="p1t0sns9" data-class="pageMilestoneEnd" class="pageMilestoneEnd s3n6kdn"/><g data-id="p3i7h2s" data-class="pageMilestoneEnd" class="pageMilestoneEnd m1md88sq"/></g></svg></svg>