<svg viewBox="0 0 106 46" version="1.1" xmlns="http://www.w3.org/2000/svg" xmlns:xlink="http://www.w3.org/1999/xlink" xmlns:mei="http://www.music-encoding.org/ns/mei" overflow="visible"><desc>Engraved by Verovio 4.2.0-8a772f5</desc><defs><symbol id="E901-p4j5qp" viewBox="0 0 1000 1000" overflow="inherit"><path transform="scale(1,-1)" d="M144 488c30 28 83 110 83 176c0 77 -39 150 -104 150c-15 0 -33 -6 -61 -34c-15 -15 -23 -44 -23 -79c0 -44 14 -96 43 -133c23 -29 44 -58 62 -80zM159 69c-57 0 -104 -31 -104 -98c0 -61 35 -63 51 -75c8 0 23 52 39 92l32 80c-6 1 -12 1 -18 1zM256 -25 c0 -76 -24 -122 -98 -122h-3c-28 0 -66 7 -84 15c-38 17 -71 55 -71 112c0 55 56 114 124 123c25 3 49 8 61 8c12 33 26 89 26 128c0 104 -55 180 -76 211c-51 -65 -79 -110 -90 -178c-1 -6 -4 -25 -4 -46c0 -18 2 -38 10 -50c5 -7 7 -16 7 -24c0 -13 -6 -24 -15 -24 c-5 0 -12 5 -19 17c-12 21 -24 38 -24 96c0 77 23 115 54 151c38 44 26 28 65 68l1 -1c0 3 -16 27 -60 79c-19 22 -58 58 -58 145c0 76 30 100 53 123c25 25 57 38 102 38c62 0 110 -83 110 -168c0 -13 -2 -26 -4 -39c-10 -52 -83 -130 -111 -163c24 -38 8 -3 55 -91 c34 -63 42 -84 42 -119c0 -10 -1 -22 -2 -37c-4 -63 -11 -76 -20 -116c7 0 12 1 21 -1c14 -4 20 -11 20 -19c0 -19 -30 -19 -52 -24c-6 -13 -67 -174 -67 -181c0 -2 9 -4 19 -4c25 0 41 21 56 73c8 28 14 39 22 39s10 -8 10 -19z"/></symbol></defs><style type="text/css">g.page-margin{font-family:Times,serif;} g.ending, g.fing, g.reh, g.tempo{font-weight:bold;} g.dir, g.dynam, g.mNum{font-style:italic;} g.label{font-weight:normal;}</style><svg class="definition-scale" color="black" viewBox="0 0 10540 4600"><g class="page-margin" transform="translate(500, 500)"><g data-id="m6fk3u5" data-class="mdiv" class="mdiv pageMilestone"/><g data-id="s1nhklyc" data-class="score" class="score pageMilestone"/><g data-id="s1oysj0z" data-class="system" class="system"><path d="M13 540 L13 3060" stroke="currentColor" stroke-width="27"/><g data-id="sy2ahl4" data-class="section" class="section systemMilestone"/><g data-id="s70hav0" data-class="staff" class="staff"><path d="M0 540 L7162 540" stroke="currentColor" stroke-width="13"/><path d="M0 720 L7162 720" stroke="currentColor" stroke-width="13"/><path d="M0 900 L7162 900" stroke="currentColor" stroke-width="13"/><path d="M0 1080 L7162 1080" stroke="currentColor" stroke-width="13"/><path d="M0 1260 L7162 1260" stroke="currentColor" stroke-width="13"/><g data-id="c1oxm0g3" data-class="clef" class="clef"><use href="#E901-p4j5qp" x="117" y="1080" height="720px" width="720px"/></g><g data-id="krh7ibp" data-class="keySig" class="keySig"/><g data-id="l186n93h" data-class="layer" class="layer"><g data-id="n13ndwp5" data-class="note" class="note"><g data-class="notehead" class="notehead"><polygon points="597,1170 793,1170 793,1220 597,1220"/><polygon points="597,1350 793,1350 793,1300 597,1300"/><rect x="579" y="1140" height="240" width="18"/></g><g data-class="stem" class="stem"><rect x="793" y="1140" height="750" width="18"/></g></g><g data-id="difrsyt" data-class="dot" class="dot"><polygon points="3935,1170 3980,1125 4025,1170 3980,1215"/></g><g data-id="b12wz6sw" data-class="barLine" class="barLine"><path d="M7149 540 L7149 1260" stroke="currentColor" stroke-width="27" stroke-dasharray="102 102"/></g></g></g><g data-id="s509l8d" data-class="staff" class="staff"><path d="M0 2340 L7162 2340" stroke="currentColor" stroke-width="13"/><path d="M0 2520 L7162 2520" stroke="currentColor" stroke-width="13"/><path d="M0 2700 L7162 2700" stroke="currentColor" stroke-width="13"/><path d="M0 2880 L7162 2880" stroke="currentColor" stroke-width="13"/><path d="M0 3060 L7162 3060" stroke="currentColor" stroke-width="13"/><g data-id="c1kry6lh" data-class="clef" class="clef"><use href="#E901-p4j5qp" x="117" y="2880" height="720px" width="720px"/></g><g data-id="kd5tjof" data-class="keySig" class="keySig"/><g data-id="l1qaxmje" data-class="layer" class="layer"><g data-id="n1l6eeym" data-class="note" class="note"><g data-class="notehead" class="notehead"><polygon points="597,2700 793,2700 793,2750 597,2750"/><polygon points="597,2880 793,2880 793,2830 597,2830"/><rect x="579" y="2670" height="240" width="18"/><rect x="793" y="2670" height="240" width="18"/></g></g><g data-id="ngpw5kv" data-class="note" class="note"><g data-class="notehead" class="notehead"><polygon points="2787,2700 2983,2700 2983,2750 2787,2750"/><polygon points="2787,2880 2983,2880 2983,2830 2787,2830"/><rect x="2769" y="2670" height="240" width="18"/><rect x="2983" y="2670" height="240" width="18"/></g></g><g data-id="n2yxvs7" data-class="note" class="note"><g data-class="notehead" class="notehead"><polygon points="4977,2700 5173,2700 5173,2750 4977,2750"/><polygon points="4977,2880 5173,2880 5173,2830 4977,2830"/><rect x="4959" y="2670" height="240" width="18"/><rect x="5173" y="2670" height="240" width="18"/></g></g><g data-id="b1c6h9mo" data-class="barLine" class="barLine"><path d="M7149 2340 L7149 3060" stroke="currentColor" stroke-width="27" stroke-dasharray="102 102"/></g></g></g><g data-id="s1s9za65" data-class="staff" class="staff"><path d="M7162 540 L9545 540" stroke="currentColor" stroke-width="13"/><path d="M7162 720 L9545 720" stroke="currentColor" stroke-width="13"/><path d="M7162 900 L9545 900" stroke="currentColor" stroke-width="13"/><path d="M7162 1080 L9545 1080" stroke="currentColor" stroke-width="13"/><path d="M7162 1260 L9545 1260" stroke="currentColor" stroke-width="13"/><g data-id="l7cdfvy" data-class="layer" class="layer"><g data-id="n1jmhcvc" data-class="note" class="note"><g data-class="notehead" class="notehead"><polygon points="7360,1170 7556,1170 7556,1220 7360,1220"/><polygon points="7360,1350 7556,1350 7556,1300 7360,1300"/><rect x="7342" y="1140" height="240" width="18"/><rect x="7556" y="1140" height="240" width="18"/></g></g><g data-id="b17a3xr6" data-class="barLine" class="barLine"><path d="M9532 540 L9532 1260" stroke="currentColor" stroke-width="27" stroke-dasharray="102 102"/></g></g></g><g data-id="szsbzy5" data-class="staff" class="staff"><path d="M7162 2340 L9545 2340" stroke="currentColor" stroke-width="13"/><path d="M7162 2520 L9545 2520" stroke="currentColor" stroke-width="13"/><path d="M7162 2700 L9545 2700" stroke="currentColor" stroke-width="13"/><path d="M7162 2880 L9545 2880" stroke="currentColor" stroke-width="13"/><path d="M7162 3060 L9545 3060" stroke="currentColor" stroke-width="13"/><g data-id="la2mxab" data-class="layer" class="layer"><g data-id="n121q9ki" data-class="note" class="note"><g data-class="notehead" class="notehead"><polygon points="7360,2700 7556,2700 7556,2750 7360,2750"/><polygon points="7360,2880 7556,2880 7556,2830 7360,2830"/><rect x="7342" y="2670" height="240" width="18"/><rect x="7556" y="2670" height="240" width="18"/></g></g><g data-id="b1mgizqt" data-class="barLine" class="barLine"><path d="M9532 2340 L9532 3060" stroke="currentColor" stroke-width="27" stroke-dasharray="102 102"/></g></g></g><g data-id="s1wgygnq" data-class="systemMilestoneEnd" class="systemMilestoneEnd sy2ahl4"/></g><g data-id="p20ik75" data-class="pageMilestoneEnd" class="pageMilestoneEnd s1nhklyc"/><g data-id="pqglj55" data-class="pageMilestoneEnd" class="pageMilestoneEnd m6fk3u5"/></g></svg></svg>