<svg viewBox="0 0 68 28" version="1.1" xmlns="http://www.w3.org/2000/svg" xmlns:xlink="http://www.w3.org/1999/xlink" xmlns:mei="http://www.music-encoding.org/ns/mei" overflow="visible"><desc>Engraved by Verovio 4.2.0-8a772f5</desc><defs><symbol id="E0A4-gsruk3" viewBox="0 0 1000 1000" overflow="inherit"><path transform="scale(1,-1)" d="M0 -39c0 68 73 172 200 172c66 0 114 -37 114 -95c0 -84 -106 -171 -218 -171c-64 0 -96 30 -96 94z"/></symbol><symbol id="E901-gsruk3" viewBox="0 0 1000 1000" overflow="inherit"><path transform="scale(1,-1)" d="M144 488c30 28 83 110 83 176c0 77 -39 150 -104 150c-15 0 -33 -6 -61 -34c-15 -15 -23 -44 -23 -79c0 -44 14 -96 43 -133c23 -29 44 -58 62 -80zM159 69c-57 0 -104 -31 -104 -98c0 -61 35 -63 51 -75c8 0 23 52 39 92l32 80c-6 1 -12 1 -18 1zM256 -25 c0 -76 -24 -122 -98 -122h-3c-28 0 -66 7 -84 15c-38 17 -71 55 -71 112c0 55 56 114 124 123c25 3 49 8 61 8c12 33 26 89 26 128c0 104 -55 180 -76 211c-51 -65 -79 -110 -90 -178c-1 -6 -4 -25 -4 -46c0 -18 2 -38 10 -50c5 -7 7 -16 7 -24c0 -13 -6 -24 -15 -24 c-5 0 -12 5 -19 17c-12 21 -24 38 -24 96c0 77 23 115 54 151c38 44 26 28 65 68l1 -1c0 3 -16 27 -60 79c-19 22 -58 58 -58 145c0 76 30 100 53 123c25 25 57 38 102 38c62 0 110 -83 110 -168c0 -13 -2 -26 -4 -39c-10 -52 -83 -130 -111 -163c24 -38 8 -3 55 -91 c34 -63 42 -84 42 -119c0 -10 -1 -22 -2 -37c-4 -63 -11 -76 -20 -116c7 0 12 1 21 -1c14 -4 20 -11 20 -19c0 -19 -30 -19 -52 -24c-6 -13 -67 -174 -67 -181c0 -2 9 -4 19 -4c25 0 41 21 56 73c8 28 14 39 22 39s10 -8 10 -19z"/></symbol><symbol id="E911-gsruk3" viewBox="0 0 1000 1000" overflow="inherit"><path transform="scale(1,-1)" d="M36 0c0 -113 91 -204 204 -204s204 91 204 204s-91 204 -204 204s-204 -91 -204 -204zM0 0c0 132 108 240 240 240s240 -108 240 -240s-108 -240 -240 -240s-240 108 -240 240z"/></symbol><symbol id="E920-gsruk3" viewBox="0 0 1000 1000" overflow="inherit"><path transform="scale(1,-1)" d="M0 0c0 35 28 63 63 63s63 -28 63 -63s-28 -63 -63 -63s-63 28 -63 63z"/></symbol><symbol id="E925-gsruk3" viewBox="0 0 1000 1000" overflow="inherit"><path transform="scale(1,-1)" d="M0 408h36v-816h-36v816z"/></symbol><symbol id="E915-gsruk3" viewBox="0 0 1000 1000" overflow="inherit"><path transform="scale(1,-1)" d="M421 96c-46 77 -101 108 -181 108c-113 0 -204 -91 -204 -204s91 -204 204 -204c78 0 129 34 177 110l33 -22c-41 -74 -120 -124 -210 -124c-132 0 -240 108 -240 240s108 240 240 240c89 0 163 -45 209 -122z"/></symbol></defs><style type="text/css">g.page-margin{font-family:Times,serif;} g.ending, g.fing, g.reh, g.tempo{font-weight:bold;} g.dir, g.dynam, g.mNum{font-style:italic;} g.label{font-weight:normal;}</style><svg class="definition-scale" color="black" viewBox="0 0 6720 2800"><g class="page-margin" transform="translate(500, 500)"><g data-id="m94o4lh" data-class="mdiv" class="mdiv pageMilestone"/><g data-id="s1uhmzav" data-class="score" class="score pageMilestone"/><g data-id="sp0a0e0" data-class="system" class="system"><g data-id="sukbqx0" data-class="section" class="section systemMilestone"/><g data-id="sdthe4x" data-class="staff" class="staff"><path d="M0 540 L5721 540" stroke="currentColor" stroke-width="13"/><path d="M0 720 L5721 720" stroke="currentColor" stroke-width="13"/><path d="M0 900 L5721 900" stroke="currentColor" stroke-width="13"/><path d="M0 1080 L5721 1080" stroke="currentColor" stroke-width="13"/><path d="M0 1260 L5721 1260" stroke="currentColor" stroke-width="13"/><g data-id="c9bezr0" data-class="clef" class="clef"><use href="#E901-gsruk3" x="90" y="1080" height="720px" width="720px"/></g><g data-id="k14z1nnp" data-class="keySig" class="keySig"/><g data-id="m10zva5z" data-class="mensur" class="mensur" color="red" fill="red"><use href="#E911-gsruk3" x="462" y="900" height="720px" width="720px"/><use href="#E925-gsruk3" x="622" y="900" height="720px" width="720px"/><use href="#E920-gsruk3" x="589" y="900" height="720px" width="720px"/></g><g data-id="l1op1ouj" data-class="layer" class="layer"><g data-id="n11k5gvv" data-class="note" class="note"><g data-class="notehead" class="notehead"><use href="#E0A4-gsruk3" x="1077" y="1260" height="720px" width="720px"/></g></g><g data-id="n18y6dsy" data-class="note" class="note"><g data-class="notehead" class="notehead"><use href="#E0A4-gsruk3" x="1767" y="1260" height="720px" width="720px"/></g></g><g data-id="n878kb9" data-class="note" class="note"><g data-class="notehead" class="notehead"><use href="#E0A4-gsruk3" x="2457" y="1260" height="720px" width="720px"/></g></g><g data-id="m198k2gd" data-class="mensur" class="mensur"><use href="#E915-gsruk3" x="3147" y="990" height="720px" width="720px"/></g><g data-id="n1eh6mnm" data-class="note" class="note"><g data-class="notehead" class="notehead"><use href="#E0A4-gsruk3" x="3651" y="1260" height="720px" width="720px"/></g></g><g data-id="njdmj8f" data-class="note" class="note"><g data-class="notehead" class="notehead"><use href="#E0A4-gsruk3" x="4341" y="1260" height="720px" width="720px"/></g></g><g data-id="nwzw539" data-class="note" class="note"><g data-class="notehead" class="notehead"><use href="#E0A4-gsruk3" x="5031" y="1260" height="720px" width="720px"/></g></g></g></g><g data-id="s16xbve7" data-class="systemMilestoneEnd" class="systemMilestoneEnd sukbqx0"/></g><g data-id="p1ahyt6" data-class="pageMilestoneEnd" class="pageMilestoneEnd s1uhmzav"/><g data-id="p16m10hg" data-class="pageMilestoneEnd" class="pageMilestoneEnd m94o4lh"/></g></svg></svg>