<svg viewBox="0 0 110 46" version="1.1" xmlns="http://www.w3.org/2000/svg" xmlns:xlink="http://www.w3.org/1999/xlink" xmlns:mei="http://www.music-encoding.org/ns/mei" overflow="visible"><desc>Engraved by Verovio 4.2.0-8a772f5</desc><defs><symbol id="E93C-umeb0n" viewBox="0 0 1000 1000" overflow="inherit"><path transform="scale(1,-1)" d="M156 195l156 -195l-156 -195l-156 195zM127 110l-57 -71l115 -149l57 71z"/></symbol><symbol id="E901-umeb0n" viewBox="0 0 1000 1000" overflow="inherit"><path transform="scale(1,-1)" d="M144 488c30 28 83 110 83 176c0 77 -39 150 -104 150c-15 0 -33 -6 -61 -34c-15 -15 -23 -44 -23 -79c0 -44 14 -96 43 -133c23 -29 44 -58 62 -80zM159 69c-57 0 -104 -31 -104 -98c0 -61 35 -63 51 -75c8 0 23 52 39 92l32 80c-6 1 -12 1 -18 1zM256 -25 c0 -76 -24 -122 -98 -122h-3c-28 0 -66 7 -84 15c-38 17 -71 55 -71 112c0 55 56 114 124 123c25 3 49 8 61 8c12 33 26 89 26 128c0 104 -55 180 -76 211c-51 -65 -79 -110 -90 -178c-1 -6 -4 -25 -4 -46c0 -18 2 -38 10 -50c5 -7 7 -16 7 -24c0 -13 -6 -24 -15 -24 c-5 0 -12 5 -19 17c-12 21 -24 38 -24 96c0 77 23 115 54 151c38 44 26 28 65 68l1 -1c0 3 -16 27 -60 79c-19 22 -58 58 -58 145c0 76 30 100 53 123c25 25 57 38 102 38c62 0 110 -83 110 -168c0 -13 -2 -26 -4 -39c-10 -52 -83 -130 -111 -163c24 -38 8 -3 55 -91 c34 -63 42 -84 42 -119c0 -10 -1 -22 -2 -37c-4 -63 -11 -76 -20 -116c7 0 12 1 21 -1c14 -4 20 -11 20 -19c0 -19 -30 -19 -52 -24c-6 -13 -67 -174 -67 -181c0 -2 9 -4 19 -4c25 0 41 21 56 73c8 28 14 39 22 39s10 -8 10 -19z"/></symbol><symbol id="E93E-umeb0n" viewBox="0 0 1000 1000" overflow="inherit"><path transform="scale(1,-1)" d="M0 760h30v-760h-30v760z"/></symbol></defs><style type="text/css">g.page-margin{font-family:Times,serif;} g.ending, g.fing, g.reh, g.tempo{font-weight:bold;} g.dir, g.dynam, g.mNum{font-style:italic;} g.label{font-weight:normal;}</style><svg class="definition-scale" color="black" viewBox="0 0 10920 4600"><g class="page-margin" transform="translate(500, 500)"><g data-id="m113imtd" data-class="mdiv" class="mdiv pageMilestone"/><g data-id="s1x7ujde" data-class="score" class="score pageMilestone"/><g data-id="sp0g22k" data-class="system" class="system"><path d="M13 540 L13 3060" stroke="currentColor" stroke-width="27"/><g data-id="so0qk1x" data-class="section" class="section systemMilestone"/><g data-id="seez73b" data-class="staff" class="staff"><path d="M0 540 L9926 540" stroke="currentColor" stroke-width="13"/><path d="M0 720 L9926 720" stroke="currentColor" stroke-width="13"/><path d="M0 900 L9926 900" stroke="currentColor" stroke-width="13"/><path d="M0 1080 L9926 1080" stroke="currentColor" stroke-width="13"/><path d="M0 1260 L9926 1260" stroke="currentColor" stroke-width="13"/><g data-id="c5xpf5e" data-class="clef" class="clef"><use href="#E901-umeb0n" x="117" y="1080" height="720px" width="720px"/></g><g data-id="k1r3b0ib" data-class="keySig" class="keySig"/><g data-id="l1qczqz8" data-class="layer" class="layer"><g data-id="n1et1v8q" data-class="note" class="note"><g data-class="notehead" class="notehead"><polygon points="597,1170 793,1170 793,1220 597,1220"/><polygon points="597,1350 793,1350 793,1300 597,1300"/><rect x="579" y="1140" height="240" width="18"/></g><g data-class="stem" class="stem"><rect x="793" y="1140" height="750" width="18"/></g></g><g data-id="b11zbsoi" data-class="barLine" class="barLine"><ellipse cx="9056" cy="630" rx="27" ry="27"/><ellipse cx="9056" cy="810" rx="27" ry="27"/><ellipse cx="9056" cy="990" rx="27" ry="27"/><ellipse cx="9056" cy="1170" rx="27" ry="27"/></g><g data-id="n19elesg" data-class="note" class="note"><g data-class="notehead" class="notehead"><use href="#E93C-umeb0n" x="9173" y="1260" height="720px" width="720px"/></g><g data-id="s1rdd2ko" data-class="stem" class="stem"><use href="#E93E-umeb0n" x="9275" y="1180" height="720px" width="720px"/></g></g><g data-id="bzubxhv" data-class="barLine" class="barLine"><path d="M9913 540 L9913 1260" stroke="currentColor" stroke-width="27" stroke-dasharray="102 102"/></g></g></g><g data-id="sa53jrw" data-class="staff" class="staff"><path d="M0 2340 L9926 2340" stroke="currentColor" stroke-width="13"/><path d="M0 2520 L9926 2520" stroke="currentColor" stroke-width="13"/><path d="M0 2700 L9926 2700" stroke="currentColor" stroke-width="13"/><path d="M0 2880 L9926 2880" stroke="currentColor" stroke-width="13"/><path d="M0 3060 L9926 3060" stroke="currentColor" stroke-width="13"/><g data-id="c18h80v9" data-class="clef" class="clef"><use href="#E901-umeb0n" x="117" y="2880" height="720px" width="720px"/></g><g data-id="khh6dnu" data-class="keySig" class="keySig"/><g data-id="l14b3438" data-class="layer" class="layer"><g data-id="n1hf1lxl" data-class="note" class="note"><g data-class="notehead" class="notehead"><use href="#E93C-umeb0n" x="579" y="2790" height="720px" width="720px"/></g><g data-id="s12oq94r" data-class="stem" class="stem"><use href="#E93E-umeb0n" x="681" y="2710" height="720px" width="720px"/></g></g><g data-id="n13055f5" data-class="note" class="note"><g data-class="notehead" class="notehead"><use href="#E93C-umeb0n" x="1319" y="2790" height="720px" width="720px"/></g><g data-id="sor0p4x" data-class="stem" class="stem"><use href="#E93E-umeb0n" x="1421" y="2710" height="720px" width="720px"/></g></g><g data-id="nsvk675" data-class="note" class="note"><g data-class="notehead" class="notehead"><use href="#E93C-umeb0n" x="2059" y="2790" height="720px" width="720px"/></g><g data-id="sihb0u1" data-class="stem" class="stem"><use href="#E93E-umeb0n" x="2161" y="2710" height="720px" width="720px"/></g></g><g data-id="b1kzpyub" data-class="barLine" class="barLine"><ellipse cx="2799" cy="2430" rx="27" ry="27"/><ellipse cx="2799" cy="2610" rx="27" ry="27"/><ellipse cx="2799" cy="2790" rx="27" ry="27"/><ellipse cx="2799" cy="2970" rx="27" ry="27"/></g><g data-id="nvh6yan" data-class="note" class="note"><g data-class="notehead" class="notehead"><use href="#E93C-umeb0n" x="2916" y="2790" height="720px" width="720px"/></g><g data-id="st3d68f" data-class="stem" class="stem"><use href="#E93E-umeb0n" x="3018" y="2710" height="720px" width="720px"/></g></g><g data-id="n1ajwqsi" data-class="note" class="note"><g data-class="notehead" class="notehead"><use href="#E93C-umeb0n" x="3656" y="2790" height="720px" width="720px"/></g><g data-id="s1nbxbgt" data-class="stem" class="stem"><use href="#E93E-umeb0n" x="3758" y="2710" height="720px" width="720px"/></g></g><g data-id="n1ls5qvz" data-class="note" class="note"><g data-class="notehead" class="notehead"><use href="#E93C-umeb0n" x="4396" y="2790" height="720px" width="720px"/></g><g data-id="s1hfklx5" data-class="stem" class="stem"><use href="#E93E-umeb0n" x="4498" y="2710" height="720px" width="720px"/></g></g><g data-id="bty11lo" data-class="barLine" class="barLine"><path d="M5136 2340 L5136 3060" stroke="currentColor" stroke-width="27" stroke-dasharray="102 102"/></g><g data-id="n1ohddtm" data-class="note" class="note"><g data-class="notehead" class="notehead"><use href="#E93C-umeb0n" x="5239" y="2790" height="720px" width="720px"/></g><g data-id="s9qzpuc" data-class="stem" class="stem"><use href="#E93E-umeb0n" x="5341" y="2710" height="720px" width="720px"/></g></g><g data-id="n1hn3tf1" data-class="note" class="note"><g data-class="notehead" class="notehead"><use href="#E93C-umeb0n" x="5979" y="2790" height="720px" width="720px"/></g><g data-id="s19mkf6i" data-class="stem" class="stem"><use href="#E93E-umeb0n" x="6081" y="2710" height="720px" width="720px"/></g></g><g data-id="n18c8bdh" data-class="note" class="note"><g data-class="notehead" class="notehead"><use href="#E93C-umeb0n" x="6719" y="2790" height="720px" width="720px"/></g><g data-id="s153xky7" data-class="stem" class="stem"><use href="#E93E-umeb0n" x="6821" y="2710" height="720px" width="720px"/></g></g><g data-id="b1o9r6fq" data-class="barLine" class="barLine"><ellipse cx="7459" cy="2430" rx="27" ry="27"/><ellipse cx="7459" cy="2610" rx="27" ry="27"/><ellipse cx="7459" cy="2790" rx="27" ry="27"/><ellipse cx="7459" cy="2970" rx="27" ry="27"/></g><g data-id="n59xsv8" data-class="note" class="note"><g data-class="notehead" class="notehead"><use href="#E93C-umeb0n" x="7576" y="2790" height="720px" width="720px"/></g><g data-id="s14d4k6b" data-class="stem" class="stem"><use href="#E93E-umeb0n" x="7678" y="2710" height="720px" width="720px"/></g></g><g data-id="nsyirlq" data-class="note" class="note"><g data-class="notehead" class="notehead"><use href="#E93C-umeb0n" x="8316" y="2790" height="720px" width="720px"/></g><g data-id="s1wmd4ff" data-class="stem" class="stem"><use href="#E93E-umeb0n" x="8418" y="2710" height="720px" width="720px"/></g></g><g data-id="n145dc3v" data-class="note" class="note"><g data-class="notehead" class="notehead"><use href="#E93C-umeb0n" x="9173" y="2790" height="720px" width="720px"/></g><g data-id="s220470" data-class="stem" class="stem"><use href="#E93E-umeb0n" x="9275" y="2710" height="720px" width="720px"/></g></g><g data-id="b7u7a7b" data-class="barLine" class="barLine"><path d="M9913 2340 L9913 3060" stroke="currentColor" stroke-width="27" stroke-dasharray="102 102"/></g></g></g><g data-id="s185och7" data-class="systemMilestoneEnd" class="systemMilestoneEnd so0qk1x"/></g><g data-id="p1kgjgkk" data-class="pageMilestoneEnd" class="pageMilestoneEnd s1x7ujde"/><g data-id="p1e5i7i2" data-class="pageMilestoneEnd" class="pageMilestoneEnd m113imtd"/></g></svg></svg>