<svg viewBox="0 0 87 46" version="1.1" xmlns="http://www.w3.org/2000/svg" xmlns:xlink="http://www.w3.org/1999/xlink" xmlns:mei="http://www.music-encoding.org/ns/mei" overflow="visible"><desc>Engraved by Verovio 4.2.0-8a772f5</desc><defs><symbol id="E93C-1xvjmq6" viewBox="0 0 1000 1000" overflow="inherit"><path transform="scale(1,-1)" d="M156 195l156 -195l-156 -195l-156 195zM127 110l-57 -71l115 -149l57 71z"/></symbol><symbol id="E901-1xvjmq6" viewBox="0 0 1000 1000" overflow="inherit"><path transform="scale(1,-1)" d="M144 488c30 28 83 110 83 176c0 77 -39 150 -104 150c-15 0 -33 -6 -61 -34c-15 -15 -23 -44 -23 -79c0 -44 14 -96 43 -133c23 -29 44 -58 62 -80zM159 69c-57 0 -104 -31 -104 -98c0 -61 35 -63 51 -75c8 0 23 52 39 92l32 80c-6 1 -12 1 -18 1zM256 -25 c0 -76 -24 -122 -98 -122h-3c-28 0 -66 7 -84 15c-38 17 -71 55 -71 112c0 55 56 114 124 123c25 3 49 8 61 8c12 33 26 89 26 128c0 104 -55 180 -76 211c-51 -65 -79 -110 -90 -178c-1 -6 -4 -25 -4 -46c0 -18 2 -38 10 -50c5 -7 7 -16 7 -24c0 -13 -6 -24 -15 -24 c-5 0 -12 5 -19 17c-12 21 -24 38 -24 96c0 77 23 115 54 151c38 44 26 28 65 68l1 -1c0 3 -16 27 -60 79c-19 22 -58 58 -58 145c0 76 30 100 53 123c25 25 57 38 102 38c62 0 110 -83 110 -168c0 -13 -2 -26 -4 -39c-10 -52 -83 -130 -111 -163c24 -38 8 -3 55 -91 c34 -63 42 -84 42 -119c0 -10 -1 -22 -2 -37c-4 -63 -11 -76 -20 -116c7 0 12 1 21 -1c14 -4 20 -11 20 -19c0 -19 -30 -19 -52 -24c-6 -13 -67 -174 -67 -181c0 -2 9 -4 19 -4c25 0 41 21 56 73c8 28 14 39 22 39s10 -8 10 -19z"/></symbol></defs><style type="text/css">g.page-margin{font-family:Times,serif;} g.ending, g.fing, g.reh, g.tempo{font-weight:bold;} g.dir, g.dynam, g.mNum{font-style:italic;} g.label{font-weight:normal;}</style><svg class="definition-scale" color="black" viewBox="0 0 8700 4600"><g class="page-margin" transform="translate(500, 500)"><g data-id="miy127m" data-class="mdiv" class="mdiv pageMilestone"/><g data-id="s19h6t96" data-class="score" class="score pageMilestone"/><g data-id="sq94a8p" data-class="system" class="system"><path d="M13 540 L13 3060" stroke="currentColor" stroke-width="27"/><g data-id="s1yn0mp0" data-class="section" class="section systemMilestone"/><g data-id="sccpbdf" data-class="staff" class="staff"><path d="M0 540 L7709 540" stroke="currentColor" stroke-width="13"/><path d="M0 720 L7709 720" stroke="currentColor" stroke-width="13"/><path d="M0 900 L7709 900" stroke="currentColor" stroke-width="13"/><path d="M0 1080 L7709 1080" stroke="currentColor" stroke-width="13"/><path d="M0 1260 L7709 1260" stroke="currentColor" stroke-width="13"/><g data-id="chxbggr" data-class="clef" class="clef"><use href="#E901-1xvjmq6" x="117" y="1080" height="720px" width="720px"/></g><g data-id="kemp14a" data-class="keySig" class="keySig"/><g data-id="l1hjwxsr" data-class="layer" class="layer"><g data-id="n17g6kgw" data-class="note" class="note"><g data-class="notehead" class="notehead"><use href="#E93C-1xvjmq6" x="579" y="1260" height="720px" width="720px"/></g></g><g data-id="b1v3ozix" data-class="barLine" class="barLine"><ellipse cx="1709" cy="630" rx="27" ry="27"/><ellipse cx="1709" cy="810" rx="27" ry="27"/><ellipse cx="1709" cy="990" rx="27" ry="27"/><ellipse cx="1709" cy="1170" rx="27" ry="27"/></g><g data-id="n113x7t5" data-class="note" class="note"><g data-class="notehead" class="notehead"><polygon points="1844,1170 2040,1170 2040,1220 1844,1220"/><polygon points="1844,1350 2040,1350 2040,1300 1844,1300"/><rect x="1826" y="1140" height="240" width="18"/></g><g data-class="stem" class="stem"><rect x="2040" y="1140" height="750" width="18"/></g></g><g data-id="b15quklg" data-class="barLine" class="barLine"><ellipse cx="6449" cy="630" rx="27" ry="27"/><ellipse cx="6449" cy="810" rx="27" ry="27"/><ellipse cx="6449" cy="990" rx="27" ry="27"/><ellipse cx="6449" cy="1170" rx="27" ry="27"/></g><g data-id="nfecjsb" data-class="note" class="note"><g data-class="notehead" class="notehead"><use href="#E93C-1xvjmq6" x="6566" y="1260" height="720px" width="720px"/></g></g><g data-id="b1w3tg3y" data-class="barLine" class="barLine"><path d="M7696 540 L7696 1260" stroke="currentColor" stroke-width="27" stroke-dasharray="102 102"/></g></g></g><g data-id="s1yzuebo" data-class="staff" class="staff"><path d="M0 2340 L7709 2340" stroke="currentColor" stroke-width="13"/><path d="M0 2520 L7709 2520" stroke="currentColor" stroke-width="13"/><path d="M0 2700 L7709 2700" stroke="currentColor" stroke-width="13"/><path d="M0 2880 L7709 2880" stroke="currentColor" stroke-width="13"/><path d="M0 3060 L7709 3060" stroke="currentColor" stroke-width="13"/><g data-id="c1d9vtmp" data-class="clef" class="clef"><use href="#E901-1xvjmq6" x="117" y="2880" height="720px" width="720px"/></g><g data-id="k9k39bx" data-class="keySig" class="keySig"/><g data-id="l1q846b3" data-class="layer" class="layer"><g data-id="n119xppd" data-class="note" class="note"><g data-class="notehead" class="notehead"><use href="#E93C-1xvjmq6" x="579" y="2790" height="720px" width="720px"/></g></g><g data-id="n1rpzz8x" data-class="note" class="note"><g data-class="notehead" class="notehead"><use href="#E93C-1xvjmq6" x="1826" y="2790" height="720px" width="720px"/></g></g><g data-id="nsm21j7" data-class="note" class="note"><g data-class="notehead" class="notehead"><use href="#E93C-1xvjmq6" x="2956" y="2790" height="720px" width="720px"/></g></g><g data-id="br9ysyw" data-class="barLine" class="barLine"><path d="M4086 2340 L4086 3060" stroke="currentColor" stroke-width="27" stroke-dasharray="102 102"/></g><g data-id="nee6cl5" data-class="note" class="note"><g data-class="notehead" class="notehead"><use href="#E93C-1xvjmq6" x="4189" y="2790" height="720px" width="720px"/></g></g><g data-id="nozalbd" data-class="note" class="note"><g data-class="notehead" class="notehead"><use href="#E93C-1xvjmq6" x="5319" y="2790" height="720px" width="720px"/></g></g><g data-id="ndbp4ci" data-class="note" class="note"><g data-class="notehead" class="notehead"><use href="#E93C-1xvjmq6" x="6566" y="2790" height="720px" width="720px"/></g></g><g data-id="b5axivq" data-class="barLine" class="barLine"><path d="M7696 2340 L7696 3060" stroke="currentColor" stroke-width="27" stroke-dasharray="102 102"/></g></g></g><g data-id="swxqq37" data-class="systemMilestoneEnd" class="systemMilestoneEnd s1yn0mp0"/></g><g data-id="pa523qf" data-class="pageMilestoneEnd" class="pageMilestoneEnd s19h6t96"/><g data-id="p105h858" data-class="pageMilestoneEnd" class="pageMilestoneEnd miy127m"/></g></svg></svg>