<svg viewBox="0 0 147 86" version="1.1" xmlns="http://www.w3.org/2000/svg" xmlns:xlink="http://www.w3.org/1999/xlink" xmlns:mei="http://www.music-encoding.org/ns/mei" overflow="visible"><desc>Engraved by Verovio 4.2.0-8a772f5</desc><defs><symbol id="E901-1dfd421" viewBox="0 0 1000 1000" overflow="inherit"><path transform="scale(1,-1)" d="M144 488c30 28 83 110 83 176c0 77 -39 150 -104 150c-15 0 -33 -6 -61 -34c-15 -15 -23 -44 -23 -79c0 -44 14 -96 43 -133c23 -29 44 -58 62 -80zM159 69c-57 0 -104 -31 -104 -98c0 -61 35 -63 51 -75c8 0 23 52 39 92l32 80c-6 1 -12 1 -18 1zM256 -25 c0 -76 -24 -122 -98 -122h-3c-28 0 -66 7 -84 15c-38 17 -71 55 -71 112c0 55 56 114 124 123c25 3 49 8 61 8c12 33 26 89 26 128c0 104 -55 180 -76 211c-51 -65 -79 -110 -90 -178c-1 -6 -4 -25 -4 -46c0 -18 2 -38 10 -50c5 -7 7 -16 7 -24c0 -13 -6 -24 -15 -24 c-5 0 -12 5 -19 17c-12 21 -24 38 -24 96c0 77 23 115 54 151c38 44 26 28 65 68l1 -1c0 3 -16 27 -60 79c-19 22 -58 58 -58 145c0 76 30 100 53 123c25 25 57 38 102 38c62 0 110 -83 110 -168c0 -13 -2 -26 -4 -39c-10 -52 -83 -130 -111 -163c24 -38 8 -3 55 -91 c34 -63 42 -84 42 -119c0 -10 -1 -22 -2 -37c-4 -63 -11 -76 -20 -116c7 0 12 1 21 -1c14 -4 20 -11 20 -19c0 -19 -30 -19 -52 -24c-6 -13 -67 -174 -67 -181c0 -2 9 -4 19 -4c25 0 41 21 56 73c8 28 14 39 22 39s10 -8 10 -19z"/></symbol></defs><style type="text/css">g.page-margin{font-family:Times,serif;} g.ending, g.fing, g.reh, g.tempo{font-weight:bold;} g.dir, g.dynam, g.mNum{font-style:italic;} g.label{font-weight:normal;}</style><svg class="definition-scale" color="black" viewBox="0 0 14630 8560"><g class="page-margin" transform="translate(500, 500)"><g data-id="m16i6jiv" data-class="mdiv" class="mdiv pageMilestone"/><g data-id="s6f95ay" data-class="score" class="score pageMilestone"/><g data-id="syzq211" data-class="system" class="system"><path d="M13 540 L13 3060" stroke="currentColor" stroke-width="27"/><g data-id="s19oc1tb" data-class="section" class="section systemMilestone"/><g data-id="s13z2g48" data-class="staff" class="staff"><path d="M0 540 L9871 540" stroke="currentColor" stroke-width="13"/><path d="M0 720 L9871 720" stroke="currentColor" stroke-width="13"/><path d="M0 900 L9871 900" stroke="currentColor" stroke-width="13"/><path d="M0 1080 L9871 1080" stroke="currentColor" stroke-width="13"/><path d="M0 1260 L9871 1260" stroke="currentColor" stroke-width="13"/><g data-id="c1lunhbr" data-class="clef" class="clef"><use href="#E901-1dfd421" x="117" y="1080" height="720px" width="720px"/></g><g data-id="keklmt" data-class="keySig" class="keySig"/><g data-id="l1op3z6g" data-class="layer" class="layer"><g data-id="n1z2f4z" data-class="note" class="note"><g data-class="notehead" class="notehead"><polygon points="597,1170 793,1170 793,1220 597,1220"/><polygon points="597,1350 793,1350 793,1300 597,1300"/><rect x="579" y="1140" height="240" width="18"/></g><g data-class="stem" class="stem"><rect x="793" y="1140" height="750" width="18"/></g></g><g data-id="bdwlhii" data-class="barLine" class="barLine"><path d="M9858 540 L9858 1260" stroke="currentColor" stroke-width="27" stroke-dasharray="102 102"/></g></g></g><g data-id="s1r30edy" data-class="staff" class="staff"><path d="M0 2340 L9871 2340" stroke="currentColor" stroke-width="13"/><path d="M0 2520 L9871 2520" stroke="currentColor" stroke-width="13"/><path d="M0 2700 L9871 2700" stroke="currentColor" stroke-width="13"/><path d="M0 2880 L9871 2880" stroke="currentColor" stroke-width="13"/><path d="M0 3060 L9871 3060" stroke="currentColor" stroke-width="13"/><g data-id="cdb2ya8" data-class="clef" class="clef"><use href="#E901-1dfd421" x="117" y="2880" height="720px" width="720px"/></g><g data-id="knwe1iz" data-class="keySig" class="keySig"/><g data-id="ldovom" data-class="layer" class="layer"><g data-id="n7fof5a" data-class="note" class="note"><g data-class="notehead" class="notehead"><polygon points="597,2700 793,2700 793,2750 597,2750"/><polygon points="597,2880 793,2880 793,2830 597,2830"/><rect x="579" y="2670" height="240" width="18"/><rect x="793" y="2670" height="240" width="18"/></g></g><g data-id="n1njn5pe" data-class="note" class="note"><g data-class="notehead" class="notehead"><polygon points="3690,2700 3886,2700 3886,2750 3690,2750"/><polygon points="3690,2880 3886,2880 3886,2830 3690,2830"/><rect x="3672" y="2670" height="240" width="18"/><rect x="3886" y="2670" height="240" width="18"/></g></g><g data-id="n1euo2co" data-class="note" class="note"><g data-class="notehead" class="notehead"><polygon points="6783,2700 6979,2700 6979,2750 6783,2750"/><polygon points="6783,2880 6979,2880 6979,2830 6783,2830"/><rect x="6765" y="2670" height="240" width="18"/><rect x="6979" y="2670" height="240" width="18"/></g></g><g data-id="b5g48x2" data-class="barLine" class="barLine"><path d="M9858 2340 L9858 3060" stroke="currentColor" stroke-width="27" stroke-dasharray="102 102"/></g></g></g><g data-id="syupgtu" data-class="staff" class="staff"><path d="M9871 540 L13157 540" stroke="currentColor" stroke-width="13"/><path d="M9871 720 L13157 720" stroke="currentColor" stroke-width="13"/><path d="M9871 900 L13157 900" stroke="currentColor" stroke-width="13"/><path d="M9871 1080 L13157 1080" stroke="currentColor" stroke-width="13"/><path d="M9871 1260 L13157 1260" stroke="currentColor" stroke-width="13"/><g data-id="l1ws8ox" data-class="layer" class="layer"><g data-id="nzc1akz" data-class="note" class="note"><g data-class="notehead" class="notehead"><polygon points="10069,1170 10265,1170 10265,1220 10069,1220"/><polygon points="10069,1350 10265,1350 10265,1300 10069,1300"/><rect x="10051" y="1140" height="240" width="18"/><rect x="10265" y="1140" height="240" width="18"/></g></g><g data-id="b1qnowd" data-class="barLine" class="barLine"><path d="M13144 540 L13144 1260" stroke="currentColor" stroke-width="27" stroke-dasharray="102 102"/></g></g></g><g data-id="sd78fcl" data-class="staff" class="staff"><path d="M9871 2340 L13157 2340" stroke="currentColor" stroke-width="13"/><path d="M9871 2520 L13157 2520" stroke="currentColor" stroke-width="13"/><path d="M9871 2700 L13157 2700" stroke="currentColor" stroke-width="13"/><path d="M9871 2880 L13157 2880" stroke="currentColor" stroke-width="13"/><path d="M9871 3060 L13157 3060" stroke="currentColor" stroke-width="13"/><g data-id="l14c8prx" data-class="layer" class="layer"><g data-id="n1hl3663" data-class="note" class="note"><g data-class="notehead" class="notehead"><polygon points="10069,2700 10265,2700 10265,2750 10069,2750"/><polygon points="10069,2880 10265,2880 10265,2830 10069,2830"/><rect x="10051" y="2670" height="240" width="18"/><rect x="10265" y="2670" height="240" width="18"/></g></g><g data-id="b7ia8ed" data-class="barLine" class="barLine"><path d="M13144 2340 L13144 3060" stroke="currentColor" stroke-width="27" stroke-dasharray="102 102"/></g></g></g></g><g data-id="sy7l7n0" data-class="system" class="system"><path d="M13 4500 L13 7020" stroke="currentColor" stroke-width="27"/><g data-id="s1gr0yv4" data-class="staff" class="staff"><path d="M0 4500 L5730 4500" stroke="currentColor" stroke-width="13"/><path d="M0 4680 L5730 4680" stroke="currentColor" stroke-width="13"/><path d="M0 4860 L5730 4860" stroke="currentColor" stroke-width="13"/><path d="M0 5040 L5730 5040" stroke="currentColor" stroke-width="13"/><path d="M0 5220 L5730 5220" stroke="currentColor" stroke-width="13"/><g data-id="czswf31" data-class="clef" class="clef"><use href="#E901-1dfd421" x="117" y="5040" height="720px" width="720px"/></g><g data-id="k18uhqmf" data-class="keySig" class="keySig"/><g data-id="l1ogep4q" data-class="layer" class="layer"><g data-id="n2be3xq" data-class="note" class="note"><g data-class="notehead" class="notehead"><polygon points="597,5130 793,5130 793,5180 597,5180"/><polygon points="597,5310 793,5310 793,5260 597,5260"/><rect x="579" y="5100" height="240" width="18"/><rect x="793" y="5100" height="240" width="18"/></g></g><g data-id="bg8wm7" data-class="barLine" class="barLine"><path d="M5717 4500 L5717 5220" stroke="currentColor" stroke-width="27" stroke-dasharray="102 102"/></g></g></g><g data-id="smdye94" data-class="staff" class="staff"><path d="M0 6300 L5730 6300" stroke="currentColor" stroke-width="13"/><path d="M0 6480 L5730 6480" stroke="currentColor" stroke-width="13"/><path d="M0 6660 L5730 6660" stroke="currentColor" stroke-width="13"/><path d="M0 6840 L5730 6840" stroke="currentColor" stroke-width="13"/><path d="M0 7020 L5730 7020" stroke="currentColor" stroke-width="13"/><g data-id="c1m7xp1b" data-class="clef" class="clef"><use href="#E901-1dfd421" x="117" y="6840" height="720px" width="720px"/></g><g data-id="ke4qpg2" data-class="keySig" class="keySig"/><g data-id="la5kjz3" data-class="layer" class="layer"><g data-id="nz4dvrs" data-class="note" class="note"><g data-class="notehead" class="notehead"><polygon points="597,6660 793,6660 793,6710 597,6710"/><polygon points="597,6840 793,6840 793,6790 597,6790"/><rect x="579" y="6630" height="240" width="18"/><rect x="793" y="6630" height="240" width="18"/></g></g><g data-id="nurgvze" data-class="note" class="note"><g data-class="notehead" class="notehead"><polygon points="3166,6660 3362,6660 3362,6710 3166,6710"/><polygon points="3166,6840 3362,6840 3362,6790 3166,6790"/><rect x="3148" y="6630" height="240" width="18"/><rect x="3362" y="6630" height="240" width="18"/></g></g><g data-id="b1vfaqgi" data-class="barLine" class="barLine"><path d="M5717 6300 L5717 7020" stroke="currentColor" stroke-width="27" stroke-dasharray="102 102"/></g></g></g><g data-id="s1upvnld" data-class="staff" class="staff"><path d="M5730 4500 L13630 4500" stroke="currentColor" stroke-width="13"/><path d="M5730 4680 L13630 4680" stroke="currentColor" stroke-width="13"/><path d="M5730 4860 L13630 4860" stroke="currentColor" stroke-width="13"/><path d="M5730 5040 L13630 5040" stroke="currentColor" stroke-width="13"/><path d="M5730 5220 L13630 5220" stroke="currentColor" stroke-width="13"/><g data-id="l1g2aisd" data-class="layer" class="layer"><g data-id="n190s8ky" data-class="note" class="note"><g data-class="notehead" class="notehead"><polygon points="5928,5130 6124,5130 6124,5180 5928,5180"/><polygon points="5928,5310 6124,5310 6124,5260 5928,5260"/><rect x="5910" y="5100" height="240" width="18"/></g><g data-class="stem" class="stem"><rect x="6124" y="5100" height="750" width="18"/></g></g><g data-id="b1d3hou0" data-class="barLine" class="barLine"><path d="M13617 4500 L13617 5220" stroke="currentColor" stroke-width="27" stroke-dasharray="102 102"/></g></g></g><g data-id="s1ftmvop" data-class="staff" class="staff"><path d="M5730 6300 L13630 6300" stroke="currentColor" stroke-width="13"/><path d="M5730 6480 L13630 6480" stroke="currentColor" stroke-width="13"/><path d="M5730 6660 L13630 6660" stroke="currentColor" stroke-width="13"/><path d="M5730 6840 L13630 6840" stroke="currentColor" stroke-width="13"/><path d="M5730 7020 L13630 7020" stroke="currentColor" stroke-width="13"/><g data-id="l1eivshi" data-class="layer" class="layer"><g data-id="n189jbyi" data-class="note" class="note"><g data-class="notehead" class="notehead"><polygon points="5928,6660 6124,6660 6124,6710 5928,6710"/><polygon points="5928,6840 6124,6840 6124,6790 5928,6790"/><rect x="5910" y="6630" height="240" width="18"/><rect x="6124" y="6630" height="240" width="18"/></g></g><g data-id="nqv3ag4" data-class="note" class="note"><g data-class="notehead" class="notehead"><polygon points="8497,6660 8693,6660 8693,6710 8497,6710"/><polygon points="8497,6840 8693,6840 8693,6790 8497,6790"/><rect x="8479" y="6630" height="240" width="18"/><rect x="8693" y="6630" height="240" width="18"/></g></g><g data-id="n7z2edh" data-class="note" class="note"><g data-class="notehead" class="notehead"><polygon points="11066,6660 11262,6660 11262,6710 11066,6710"/><polygon points="11066,6840 11262,6840 11262,6790 11066,6790"/><rect x="11048" y="6630" height="240" width="18"/><rect x="11262" y="6630" height="240" width="18"/></g></g><g data-id="b1bqjokm" data-class="barLine" class="barLine"><path d="M13617 6300 L13617 7020" stroke="currentColor" stroke-width="27" stroke-dasharray="102 102"/></g></g></g><g data-id="s18rf8o6" data-class="systemMilestoneEnd" class="systemMilestoneEnd s19oc1tb"/></g><g data-id="p17oxh6s" data-class="pageMilestoneEnd" class="pageMilestoneEnd s6f95ay"/><g data-id="pzl3z6z" data-class="pageMilestoneEnd" class="pageMilestoneEnd m16i6jiv"/></g></svg></svg>