<svg viewBox="0 0 86 46" version="1.1" xmlns="http://www.w3.org/2000/svg" xmlns:xlink="http://www.w3.org/1999/xlink" xmlns:mei="http://www.music-encoding.org/ns/mei" overflow="visible"><desc>Engraved by Verovio 4.2.0-8a772f5</desc><defs><symbol id="E93C-ism4aa" viewBox="0 0 1000 1000" overflow="inherit"><path transform="scale(1,-1)" d="M156 195l156 -195l-156 -195l-156 195zM127 110l-57 -71l115 -149l57 71z"/></symbol><symbol id="E901-ism4aa" viewBox="0 0 1000 1000" overflow="inherit"><path transform="scale(1,-1)" d="M144 488c30 28 83 110 83 176c0 77 -39 150 -104 150c-15 0 -33 -6 -61 -34c-15 -15 -23 -44 -23 -79c0 -44 14 -96 43 -133c23 -29 44 -58 62 -80zM159 69c-57 0 -104 -31 -104 -98c0 -61 35 -63 51 -75c8 0 23 52 39 92l32 80c-6 1 -12 1 -18 1zM256 -25 c0 -76 -24 -122 -98 -122h-3c-28 0 -66 7 -84 15c-38 17 -71 55 -71 112c0 55 56 114 124 123c25 3 49 8 61 8c12 33 26 89 26 128c0 104 -55 180 -76 211c-51 -65 -79 -110 -90 -178c-1 -6 -4 -25 -4 -46c0 -18 2 -38 10 -50c5 -7 7 -16 7 -24c0 -13 -6 -24 -15 -24 c-5 0 -12 5 -19 17c-12 21 -24 38 -24 96c0 77 23 115 54 151c38 44 26 28 65 68l1 -1c0 3 -16 27 -60 79c-19 22 -58 58 -58 145c0 76 30 100 53 123c25 25 57 38 102 38c62 0 110 -83 110 -168c0 -13 -2 -26 -4 -39c-10 -52 -83 -130 -111 -163c24 -38 8 -3 55 -91 c34 -63 42 -84 42 -119c0 -10 -1 -22 -2 -37c-4 -63 -11 -76 -20 -116c7 0 12 1 21 -1c14 -4 20 -11 20 -19c0 -19 -30 -19 -52 -24c-6 -13 -67 -174 -67 -181c0 -2 9 -4 19 -4c25 0 41 21 56 73c8 28 14 39 22 39s10 -8 10 -19z"/></symbol></defs><style type="text/css">g.page-margin{font-family:Times,serif;} g.ending, g.fing, g.reh, g.tempo{font-weight:bold;} g.dir, g.dynam, g.mNum{font-style:italic;} g.label{font-weight:normal;}</style><svg class="definition-scale" color="black" viewBox="0 0 8590 4600"><g class="page-margin" transform="translate(500, 500)"><g data-id="m1ldwy89" data-class="mdiv" class="mdiv pageMilestone"/><g data-id="s2qreta" data-class="score" class="score pageMilestone"/><g data-id="s686zsz" data-class="system" class="system"><path d="M13 540 L13 3060" stroke="currentColor" stroke-width="27"/><g data-id="sesnzvs" data-class="section" class="section systemMilestone"/><g data-id="sgjgr12" data-class="staff" class="staff"><path d="M0 540 L7592 540" stroke="currentColor" stroke-width="13"/><path d="M0 720 L7592 720" stroke="currentColor" stroke-width="13"/><path d="M0 900 L7592 900" stroke="currentColor" stroke-width="13"/><path d="M0 1080 L7592 1080" stroke="currentColor" stroke-width="13"/><path d="M0 1260 L7592 1260" stroke="currentColor" stroke-width="13"/><g data-id="c1do9e3c" data-class="clef" class="clef"><use href="#E901-ism4aa" x="117" y="1080" height="720px" width="720px"/></g><g data-id="ktz4wup" data-class="keySig" class="keySig"/><g data-id="l1f9y2yi" data-class="layer" class="layer"><g data-id="ng3qnas" data-class="note" class="note"><g data-class="notehead" class="notehead"><polygon points="597,1170 793,1170 793,1220 597,1220"/><polygon points="597,1350 793,1350 793,1300 597,1300"/><rect x="579" y="1140" height="240" width="18"/></g><g data-class="stem" class="stem"><rect x="793" y="1140" height="750" width="18"/></g></g><g data-id="b1ox0xxx" data-class="barLine" class="barLine"><ellipse cx="6332" cy="630" rx="27" ry="27"/><ellipse cx="6332" cy="810" rx="27" ry="27"/><ellipse cx="6332" cy="990" rx="27" ry="27"/><ellipse cx="6332" cy="1170" rx="27" ry="27"/></g><g data-id="n14rmqec" data-class="note" class="note"><g data-class="notehead" class="notehead"><use href="#E93C-ism4aa" x="6449" y="1260" height="720px" width="720px"/></g></g><g data-id="bg96hj7" data-class="barLine" class="barLine"><path d="M7579 540 L7579 1260" stroke="currentColor" stroke-width="27" stroke-dasharray="102 102"/></g></g></g><g data-id="s1it568z" data-class="staff" class="staff"><path d="M0 2340 L7592 2340" stroke="currentColor" stroke-width="13"/><path d="M0 2520 L7592 2520" stroke="currentColor" stroke-width="13"/><path d="M0 2700 L7592 2700" stroke="currentColor" stroke-width="13"/><path d="M0 2880 L7592 2880" stroke="currentColor" stroke-width="13"/><path d="M0 3060 L7592 3060" stroke="currentColor" stroke-width="13"/><g data-id="c1ctbkpc" data-class="clef" class="clef"><use href="#E901-ism4aa" x="117" y="2880" height="720px" width="720px"/></g><g data-id="k1jsunot" data-class="keySig" class="keySig"/><g data-id="lmlgkct" data-class="layer" class="layer"><g data-id="nhrslrs" data-class="note" class="note"><g data-class="notehead" class="notehead"><use href="#E93C-ism4aa" x="579" y="2790" height="720px" width="720px"/></g></g><g data-id="n5s3tnb" data-class="note" class="note"><g data-class="notehead" class="notehead"><use href="#E93C-ism4aa" x="1709" y="2790" height="720px" width="720px"/></g></g><g data-id="n1ljpwh4" data-class="note" class="note"><g data-class="notehead" class="notehead"><use href="#E93C-ism4aa" x="2839" y="2790" height="720px" width="720px"/></g></g><g data-id="bdv1o1h" data-class="barLine" class="barLine"><path d="M3969 2340 L3969 3060" stroke="currentColor" stroke-width="27" stroke-dasharray="102 102"/></g><g data-id="n11sv1o3" data-class="note" class="note"><g data-class="notehead" class="notehead"><use href="#E93C-ism4aa" x="4072" y="2790" height="720px" width="720px"/></g></g><g data-id="n111wc1i" data-class="note" class="note"><g data-class="notehead" class="notehead"><use href="#E93C-ism4aa" x="5202" y="2790" height="720px" width="720px"/></g></g><g data-id="n1d88uaz" data-class="note" class="note"><g data-class="notehead" class="notehead"><use href="#E93C-ism4aa" x="6449" y="2790" height="720px" width="720px"/></g></g><g data-id="b14fpcdg" data-class="barLine" class="barLine"><path d="M7579 2340 L7579 3060" stroke="currentColor" stroke-width="27" stroke-dasharray="102 102"/></g></g></g><g data-id="sb3zbjc" data-class="systemMilestoneEnd" class="systemMilestoneEnd sesnzvs"/></g><g data-id="pb8j4xo" data-class="pageMilestoneEnd" class="pageMilestoneEnd s2qreta"/><g data-id="p1i2pwt" data-class="pageMilestoneEnd" class="pageMilestoneEnd m1ldwy89"/></g></svg></svg>