<svg viewBox="0 0 143 82" version="1.1" xmlns="http://www.w3.org/2000/svg" xmlns:xlink="http://www.w3.org/1999/xlink" xmlns:mei="http://www.music-encoding.org/ns/mei" overflow="visible"><desc>Engraved by Verovio 4.2.0-8a772f5</desc><defs><symbol id="E93C-1lwvm6o" viewBox="0 0 1000 1000" overflow="inherit"><path transform="scale(1,-1)" d="M156 195l156 -195l-156 -195l-156 195zM127 110l-57 -71l115 -149l57 71z"/></symbol><symbol id="E904-1lwvm6o" viewBox="0 0 1000 1000" overflow="inherit"><path transform="scale(1,-1)" d="M428 -39l-54 -67l112 -138l52 66zM428 249l-54 -67l112 -138l52 66zM455 325l142 -178l-115 -144l115 -144l-129 -162v-580h-30v585l-127 157l116 144l-116 144zM232 -50v108h-199v-108h199zM266 -808h-34v693h-199v-93h-33v417h33v-86h199v86h34v-1017z"/></symbol><symbol id="E909-1lwvm6o" viewBox="0 0 1000 1000" overflow="inherit"><path transform="scale(1,-1)" d="M2 206l2 431c0 12 7 17 14 17c8 0 17 -7 17 -17l3 -204l2 -315h79h8c11 0 30 1 35 6c8 8 8 69 8 122v27l4 222s-1 20 19 20s12 -20 12 -20v-244s-1 -130 -1 -176c-1 -8 -1 -12 -4 -19c-7 -7 -8 -7 -16 -7c-45 0 -71 3 -71 3l-69 -3v-49v-48l64 -3l82 -5s5 0 8 -3 s5 -7 5 -7l1 -262v-154s0 -20 -13 -20c-10 0 -14 5 -16 14l-7 138l-2 219s0 4 -3 7s-9 2 -9 2h-40h-70l-3 -378l-3 -132s0 -20 -15 -20c-17 0 -19 17 -19 17c-1 22 -3 446 -3 686c0 49 1 100 1 155z"/></symbol><symbol id="E925-1lwvm6o" viewBox="0 0 1000 1000" overflow="inherit"><path transform="scale(1,-1)" d="M0 408h36v-816h-36v816z"/></symbol><symbol id="E915-1lwvm6o" viewBox="0 0 1000 1000" overflow="inherit"><path transform="scale(1,-1)" d="M421 96c-46 77 -101 108 -181 108c-113 0 -204 -91 -204 -204s91 -204 204 -204c78 0 129 34 177 110l33 -22c-41 -74 -120 -124 -210 -124c-132 0 -240 108 -240 240s108 240 240 240c89 0 163 -45 209 -122z"/></symbol><symbol id="E9E0-1lwvm6o" viewBox="0 0 1000 1000" overflow="inherit"><path transform="scale(1,-1)" d="M0 -49v426c0 13 2 36 18 36c12 -1 12 -18 12 -39c0 -20 -3 -362 -3 -362c0 -3 2 -9 11 -18c28 -33 74 -65 120 -65c6 0 28 2 28 35c0 37 -44 69 -76 86l-42 24s-9 1 -9 27v35c0 3 1 9 14 9c14 -1 50 -6 83 -26c32 -22 61 -38 61 -71v-185c0 -1 -14 -3 -26 -3h-2 c-20 0 -110 1 -171 60c0 0 -11 8 -18 31z"/></symbol><symbol id="E907-1lwvm6o" viewBox="0 0 1000 1000" overflow="inherit"><path transform="scale(1,-1)" d="M2 206l2 431c0 12 7 17 14 17c8 0 17 -7 17 -17l3 -204l2 -315h79h8c11 0 30 1 35 6c8 8 8 139 8 192v27l4 222s-1 20 19 20s12 -20 12 -20v-244s-1 -200 -1 -246c-1 -8 -1 -12 -4 -19c-7 -7 -8 -7 -16 -7c-45 0 -71 3 -71 3l-69 -3v-49v-48l64 -3l82 -5s5 0 8 -3 s5 -7 5 -7l1 -62v-154s0 -20 -13 -20c-10 0 -14 5 -16 14l-7 138l-2 19s0 4 -3 7s-9 2 -9 2h-40h-70l-3 -28l-3 -132s0 -20 -15 -20c-17 0 -19 17 -19 17c-1 22 -3 96 -3 336c0 49 1 100 1 155z"/></symbol><symbol id="E90A-1lwvm6o" viewBox="0 0 1000 1000" overflow="inherit"><path transform="scale(1,-1)" d="M2 -206c0 55 -1 106 -1 155c0 240 2 404 3 426c0 0 2 17 19 17c15 0 15 -20 15 -20l3 -132l3 -118h70h40s6 -1 9 2s3 7 3 7l2 109l7 138c2 9 6 14 16 14c13 0 13 -20 13 -20v-154l-1 -152s-2 -4 -5 -7s-8 -3 -8 -3l-82 -5l-64 -3v-48v-49l69 -3s26 3 71 3c8 0 9 0 16 -7 c3 -7 3 -11 4 -19c0 -46 1 -226 1 -226v-244s8 -20 -12 -20s-19 20 -19 20l-4 222v27c0 53 0 164 -8 172c-5 5 -24 6 -35 6h-8h-79l-2 -315l-3 -204c0 -10 -9 -17 -17 -17c-7 0 -14 5 -14 17z"/></symbol></defs><style type="text/css">g.page-margin{font-family:Times,serif;} g.ending, g.fing, g.reh, g.tempo{font-weight:bold;} g.dir, g.dynam, g.mNum{font-style:italic;} g.label{font-weight:normal;}</style><svg class="definition-scale" color="black" viewBox="0 0 14290 8200"><g class="page-margin" transform="translate(500, 500)"><g data-id="m1q1zh1l" data-class="mdiv" class="mdiv pageMilestone"/><g data-id="s1qt4xxa" data-class="score" class="score pageMilestone"/><g data-id="sp8daq1" data-class="system" class="system"><path d="M13 540 L13 6660" stroke="currentColor" stroke-width="27"/><g data-id="s1xdnq2y" data-class="section" class="section systemMilestone"/><g data-id="s4pqw2k" data-class="staff" class="staff"><path d="M0 540 L13296 540" stroke="currentColor" stroke-width="13"/><path d="M0 720 L13296 720" stroke="currentColor" stroke-width="13"/><path d="M0 900 L13296 900" stroke="currentColor" stroke-width="13"/><path d="M0 1080 L13296 1080" stroke="currentColor" stroke-width="13"/><path d="M0 1260 L13296 1260" stroke="currentColor" stroke-width="13"/><g data-id="c1svhlr2" data-class="clef" class="clef"><use href="#E907-1lwvm6o" x="117" y="1260" height="720px" width="720px"/></g><g data-id="k1flq5g2" data-class="keySig" class="keySig"><g data-id="kbmaant" data-class="keyAccid" class="keyAccid"><use href="#E9E0-1lwvm6o" x="726" y="720" height="720px" width="720px"/></g></g><g data-id="m1ynpwwe" data-class="mensur" class="mensur"><use href="#E915-1lwvm6o" x="1062" y="900" height="720px" width="720px"/><use href="#E925-1lwvm6o" x="1222" y="900" height="720px" width="720px"/></g><g data-id="l103jxu7" data-class="layer" class="layer"><g data-id="n553wlz" data-class="note" class="note"><g data-class="notehead" class="notehead"><polygon points="1674,630 1870,630 1870,680 1674,680"/><polygon points="1674,810 1870,810 1870,760 1674,760"/><rect x="1656" y="600" height="240" width="18"/><rect x="1870" y="600" height="240" width="18"/></g></g><g data-id="n1puv8f4" data-class="note" class="note"><g data-class="notehead" class="notehead"><polygon points="3864,630 4060,630 4060,680 3864,680"/><polygon points="3864,810 4060,810 4060,760 3864,760"/><rect x="3846" y="600" height="240" width="18"/><rect x="4060" y="600" height="240" width="18"/></g></g><g data-id="n1jipq0p" data-class="note" class="note"><g data-class="notehead" class="notehead"><polygon points="6054,720 6250,720 6250,770 6054,770"/><polygon points="6054,900 6250,900 6250,850 6054,850"/><rect x="6036" y="690" height="240" width="18"/><rect x="6250" y="690" height="240" width="18"/></g></g><g data-id="n1c9udcy" data-class="note" class="note"><g data-class="notehead" class="notehead"><polygon points="8244,810 8440,810 8440,860 8244,860"/><polygon points="8244,990 8440,990 8440,940 8244,940"/><rect x="8226" y="780" height="240" width="18"/><rect x="8440" y="780" height="240" width="18"/></g></g><g data-id="n1dpwcdl" data-class="note" class="note"><g data-class="notehead" class="notehead"><use href="#E93C-1lwvm6o" x="10416" y="900" height="720px" width="720px"/></g></g><g data-id="na1gigx" data-class="note" class="note"><g data-class="notehead" class="notehead"><use href="#E93C-1lwvm6o" x="11856" y="900" height="720px" width="720px"/></g></g></g></g><g data-id="s1ybjn87" data-class="staff" class="staff"><path d="M0 2340 L13296 2340" stroke="currentColor" stroke-width="13"/><path d="M0 2520 L13296 2520" stroke="currentColor" stroke-width="13"/><path d="M0 2700 L13296 2700" stroke="currentColor" stroke-width="13"/><path d="M0 2880 L13296 2880" stroke="currentColor" stroke-width="13"/><path d="M0 3060 L13296 3060" stroke="currentColor" stroke-width="13"/><g data-id="cjxmgd9" data-class="clef" class="clef"><use href="#E90A-1lwvm6o" x="117" y="2520" height="720px" width="720px"/></g><g data-id="k7vgs7x" data-class="keySig" class="keySig"><g data-id="k1bgqbtc" data-class="keyAccid" class="keyAccid"><use href="#E9E0-1lwvm6o" x="726" y="2610" height="720px" width="720px"/></g></g><g data-id="mn4gtcl" data-class="mensur" class="mensur"><use href="#E915-1lwvm6o" x="1062" y="2700" height="720px" width="720px"/><use href="#E925-1lwvm6o" x="1222" y="2700" height="720px" width="720px"/></g><g data-id="lsnmjhj" data-class="layer" class="layer"><g data-id="n1s7o5ud" data-class="note" class="note"><g data-class="notehead" class="notehead"><polygon points="1674,2700 1870,2700 1870,2750 1674,2750"/><polygon points="1674,2880 1870,2880 1870,2830 1674,2830"/><rect x="1656" y="2670" height="240" width="18"/><rect x="1870" y="2670" height="240" width="18"/></g></g><g data-id="n1ocou78" data-class="note" class="note"><g data-class="notehead" class="notehead"><polygon points="3864,2520 4060,2520 4060,2570 3864,2570"/><polygon points="3864,2700 4060,2700 4060,2650 3864,2650"/><rect x="3846" y="2490" height="240" width="18"/><rect x="4060" y="2490" height="240" width="18"/></g></g><g data-id="n1skziaw" data-class="note" class="note"><g data-class="notehead" class="notehead"><polygon points="6054,2430 6250,2430 6250,2480 6054,2480"/><polygon points="6054,2610 6250,2610 6250,2560 6054,2560"/><rect x="6036" y="2400" height="240" width="18"/><rect x="6250" y="2400" height="240" width="18"/></g></g><g data-id="n1pyf1v" data-class="note" class="note"><g data-class="notehead" class="notehead"><polygon points="8244,2430 8440,2430 8440,2480 8244,2480"/><polygon points="8244,2610 8440,2610 8440,2560 8244,2560"/><rect x="8226" y="2400" height="240" width="18"/><rect x="8440" y="2400" height="240" width="18"/></g></g><g data-id="nrdullz" data-class="note" class="note"><g data-class="notehead" class="notehead"><use href="#E93C-1lwvm6o" x="10416" y="2520" height="720px" width="720px"/></g></g><g data-id="nvkeopl" data-class="note" class="note"><g data-class="notehead" class="notehead"><use href="#E93C-1lwvm6o" x="11856" y="2520" height="720px" width="720px"/></g></g></g></g><g data-id="s999bhx" data-class="staff" class="staff"><path d="M0 4140 L13296 4140" stroke="currentColor" stroke-width="13"/><path d="M0 4320 L13296 4320" stroke="currentColor" stroke-width="13"/><path d="M0 4500 L13296 4500" stroke="currentColor" stroke-width="13"/><path d="M0 4680 L13296 4680" stroke="currentColor" stroke-width="13"/><path d="M0 4860 L13296 4860" stroke="currentColor" stroke-width="13"/><g data-id="c1o370vz" data-class="clef" class="clef"><use href="#E909-1lwvm6o" x="117" y="4500" height="720px" width="720px"/></g><g data-id="kozcr35" data-class="keySig" class="keySig"><g data-id="k1gq493c" data-class="keyAccid" class="keyAccid"><use href="#E9E0-1lwvm6o" x="726" y="4590" height="720px" width="720px"/></g></g><g data-id="l11h02qi" data-class="layer" class="layer"><g data-id="nlbapjd" data-class="note" class="note"><g data-class="notehead" class="notehead"><polygon points="1674,4320 1870,4320 1870,4370 1674,4370"/><polygon points="1674,4500 1870,4500 1870,4450 1674,4450"/><rect x="1656" y="4290" height="240" width="18"/><rect x="1870" y="4290" height="240" width="18"/></g></g><g data-id="ntneg42" data-class="note" class="note"><g data-class="notehead" class="notehead"><polygon points="3864,4320 4060,4320 4060,4370 3864,4370"/><polygon points="3864,4500 4060,4500 4060,4450 3864,4450"/><rect x="3846" y="4290" height="240" width="18"/><rect x="4060" y="4290" height="240" width="18"/></g></g><g data-id="n1qnf6tw" data-class="note" class="note"><g data-class="notehead" class="notehead"><polygon points="6054,4140 6250,4140 6250,4190 6054,4190"/><polygon points="6054,4320 6250,4320 6250,4270 6054,4270"/><rect x="6036" y="4110" height="240" width="18"/><rect x="6250" y="4110" height="240" width="18"/></g></g><g data-id="n1sgwqld" data-class="note" class="note"><g data-class="notehead" class="notehead"><polygon points="8244,4230 8440,4230 8440,4280 8244,4280"/><polygon points="8244,4410 8440,4410 8440,4360 8244,4360"/><rect x="8226" y="4200" height="240" width="18"/><rect x="8440" y="4200" height="240" width="18"/></g></g><g data-id="n17383ae" data-class="note" class="note"><g data-class="notehead" class="notehead"><use href="#E93C-1lwvm6o" x="10416" y="4320" height="720px" width="720px"/></g></g><g data-id="n1a1b75z" data-class="note" class="note"><g data-class="notehead" class="notehead"><use href="#E93C-1lwvm6o" x="11856" y="4320" height="720px" width="720px"/></g></g></g></g><g data-id="s1c3yxtd" data-class="staff" class="staff"><path d="M0 5940 L13296 5940" stroke="currentColor" stroke-width="13"/><path d="M0 6120 L13296 6120" stroke="currentColor" stroke-width="13"/><path d="M0 6300 L13296 6300" stroke="currentColor" stroke-width="13"/><path d="M0 6480 L13296 6480" stroke="currentColor" stroke-width="13"/><path d="M0 6660 L13296 6660" stroke="currentColor" stroke-width="13"/><g data-id="c1fejq1u" data-class="clef" class="clef"><use href="#E904-1lwvm6o" x="117" y="6120" height="720px" width="720px"/></g><g data-id="k1kr6y4y" data-class="keySig" class="keySig"><g data-id="k3tki3h" data-class="keyAccid" class="keyAccid"><use href="#E9E0-1lwvm6o" x="726" y="6480" height="720px" width="720px"/></g></g><g data-id="lag1913" data-class="layer" class="layer"><g data-id="n1h2v01b" data-class="note" class="note"><g data-class="notehead" class="notehead"><polygon points="1674,6570 1870,6570 1870,6620 1674,6620"/><polygon points="1674,6750 1870,6750 1870,6700 1674,6700"/><rect x="1656" y="6540" height="240" width="18"/><rect x="1870" y="6540" height="240" width="18"/></g></g><g data-id="nqcx9be" data-class="note" class="note"><g data-class="notehead" class="notehead"><polygon points="3864,5940 4060,5940 4060,5990 3864,5990"/><polygon points="3864,6120 4060,6120 4060,6070 3864,6070"/><rect x="3846" y="5910" height="240" width="18"/><rect x="4060" y="5910" height="240" width="18"/></g></g><g data-id="n1qa3032" data-class="note" class="note"><g data-class="notehead" class="notehead"><polygon points="6054,5940 6250,5940 6250,5990 6054,5990"/><polygon points="6054,6120 6250,6120 6250,6070 6054,6070"/><rect x="6036" y="5910" height="240" width="18"/><rect x="6250" y="5910" height="240" width="18"/></g></g><g data-id="nccarhs" data-class="note" class="note"><g data-class="notehead" class="notehead"><polygon points="8244,6300 8440,6300 8440,6350 8244,6350"/><polygon points="8244,6480 8440,6480 8440,6430 8244,6430"/><rect x="8226" y="6270" height="240" width="18"/><rect x="8440" y="6270" height="240" width="18"/></g></g><g data-id="n1lyf7g7" data-class="note" class="note"><g data-class="notehead" class="notehead"><use href="#E93C-1lwvm6o" x="10416" y="6390" height="720px" width="720px"/></g></g><g data-id="n15gpvqz" data-class="note" class="note"><g data-class="notehead" class="notehead"><use href="#E93C-1lwvm6o" x="11856" y="6390" height="720px" width="720px"/></g></g></g></g><g data-id="s19m96w3" data-class="systemMilestoneEnd" class="systemMilestoneEnd s1xdnq2y"/></g><g data-id="p1ecqw5t" data-class="pageMilestoneEnd" class="pageMilestoneEnd s1qt4xxa"/><g data-id="pyx5127" data-class="pageMilestoneEnd" class="pageMilestoneEnd m1q1zh1l"/></g></svg></svg>