<svg viewBox="0 0 155 46" version="1.1" xmlns="http://www.w3.org/2000/svg" xmlns:xlink="http://www.w3.org/1999/xlink" xmlns:mei="http://www.music-encoding.org/ns/mei" overflow="visible"><desc>Engraved by Verovio 4.2.0-8a772f5</desc><defs><symbol id="E93C-1dzoiqu" viewBox="0 0 1000 1000" overflow="inherit"><path transform="scale(1,-1)" d="M156 195l156 -195l-156 -195l-156 195zM127 110l-57 -71l115 -149l57 71z"/></symbol><symbol id="E93D-1dzoiqu" viewBox="0 0 1000 1000" overflow="inherit"><path transform="scale(1,-1)" d="M156 195l156 -195l-156 -195l-156 195z"/></symbol><symbol id="E901-1dzoiqu" viewBox="0 0 1000 1000" overflow="inherit"><path transform="scale(1,-1)" d="M144 488c30 28 83 110 83 176c0 77 -39 150 -104 150c-15 0 -33 -6 -61 -34c-15 -15 -23 -44 -23 -79c0 -44 14 -96 43 -133c23 -29 44 -58 62 -80zM159 69c-57 0 -104 -31 -104 -98c0 -61 35 -63 51 -75c8 0 23 52 39 92l32 80c-6 1 -12 1 -18 1zM256 -25 c0 -76 -24 -122 -98 -122h-3c-28 0 -66 7 -84 15c-38 17 -71 55 -71 112c0 55 56 114 124 123c25 3 49 8 61 8c12 33 26 89 26 128c0 104 -55 180 -76 211c-51 -65 -79 -110 -90 -178c-1 -6 -4 -25 -4 -46c0 -18 2 -38 10 -50c5 -7 7 -16 7 -24c0 -13 -6 -24 -15 -24 c-5 0 -12 5 -19 17c-12 21 -24 38 -24 96c0 77 23 115 54 151c38 44 26 28 65 68l1 -1c0 3 -16 27 -60 79c-19 22 -58 58 -58 145c0 76 30 100 53 123c25 25 57 38 102 38c62 0 110 -83 110 -168c0 -13 -2 -26 -4 -39c-10 -52 -83 -130 -111 -163c24 -38 8 -3 55 -91 c34 -63 42 -84 42 -119c0 -10 -1 -22 -2 -37c-4 -63 -11 -76 -20 -116c7 0 12 1 21 -1c14 -4 20 -11 20 -19c0 -19 -30 -19 -52 -24c-6 -13 -67 -174 -67 -181c0 -2 9 -4 19 -4c25 0 41 21 56 73c8 28 14 39 22 39s10 -8 10 -19z"/></symbol><symbol id="E93E-1dzoiqu" viewBox="0 0 1000 1000" overflow="inherit"><path transform="scale(1,-1)" d="M0 760h30v-760h-30v760z"/></symbol><symbol id="E949-1dzoiqu" viewBox="0 0 1000 1000" overflow="inherit"><path transform="scale(1,-1)" d="M0 0v760h30l150 -259l-26 -15l-124 214v-700h-30z"/></symbol><symbol id="E94B-1dzoiqu" viewBox="0 0 1000 1000" overflow="inherit"><path transform="scale(1,-1)" d="M0 0v760h30l150 -259l-26 -15l-124 214v-80l150 -259l-26 -15l-124 214v-560h-30z"/></symbol><symbol id="E9F3-1dzoiqu" viewBox="0 0 1000 1000" overflow="inherit"><path transform="scale(1,-1)" d="M0 250h40v-250h-40v250z"/></symbol><symbol id="E9F2-1dzoiqu" viewBox="0 0 1000 1000" overflow="inherit"><path transform="scale(1,-1)" d="M0 250h40v-500h-40v500z"/></symbol><symbol id="E9F0-1dzoiqu" viewBox="0 0 1000 1000" overflow="inherit"><path transform="scale(1,-1)" d="M0 500h40v-1000h-40v1000zM90 500h40v-1000h-40v1000z"/></symbol><symbol id="E9F4-1dzoiqu" viewBox="0 0 1000 1000" overflow="inherit"><path transform="scale(1,-1)" d="M0 250h40v-140h-40v140z"/></symbol><symbol id="E9F5-1dzoiqu" viewBox="0 0 1000 1000" overflow="inherit"><path transform="scale(1,-1)" d="M0 140h40v-140h-40v140z"/></symbol><symbol id="E9F6-1dzoiqu" viewBox="0 0 1000 1000" overflow="inherit"><path transform="scale(1,-1)" d="M40 96v-96h-40v140h40l78 -69h-48z"/></symbol><symbol id="E9F7-1dzoiqu" viewBox="0 0 1000 1000" overflow="inherit"><path transform="scale(1,-1)" d="M78 96l-30 -25h-48l78 69h40v-140h-40v96z"/></symbol><symbol id="E9F8-1dzoiqu" viewBox="0 0 1000 1000" overflow="inherit"><path transform="scale(1,-1)" d="M78 96l-30 -25h-48l78 69h40v-140h-40v39l-30 -25h-48l78 69v13z"/></symbol></defs><style type="text/css">g.page-margin{font-family:Times,serif;} g.ending, g.fing, g.reh, g.tempo{font-weight:bold;} g.dir, g.dynam, g.mNum{font-style:italic;} g.label{font-weight:normal;}</style><svg class="definition-scale" color="black" viewBox="0 0 15490 4600"><g class="page-margin" transform="translate(500, 500)"><g data-id="mtpdejd" data-class="mdiv" class="mdiv pageMilestone"/><g data-id="s1g503g7" data-class="score" class="score pageMilestone"/><g data-id="shphzlx" data-class="system" class="system"><path d="M13 540 L13 3060" stroke="currentColor" stroke-width="27"/><g data-id="srgiwgg" data-class="section" class="section systemMilestone"/><g data-id="s2n8dq3" data-class="staff" class="staff"><path d="M0 540 L14493 540" stroke="currentColor" stroke-width="13"/><path d="M0 720 L14493 720" stroke="currentColor" stroke-width="13"/><path d="M0 900 L14493 900" stroke="currentColor" stroke-width="13"/><path d="M0 1080 L14493 1080" stroke="currentColor" stroke-width="13"/><path d="M0 1260 L14493 1260" stroke="currentColor" stroke-width="13"/><g data-id="ceibi6p" data-class="clef" class="clef"><use href="#E901-1dzoiqu" x="117" y="1080" height="720px" width="720px"/></g><g data-id="k1472hnp" data-class="keySig" class="keySig"/><g data-id="l1294j9" data-class="layer" class="layer"><g data-id="n187zaue" data-class="note" class="note"><g data-class="notehead" class="notehead"><polygon points="597,1170 1025,1170 1025,1220 597,1220"/><polygon points="597,1350 1025,1350 1025,1300 597,1300"/><rect x="579" y="1140" height="240" width="18"/></g><g data-class="stem" class="stem"><rect x="1025" y="1140" height="750" width="18"/></g></g><g data-id="nym9t1v" data-class="note" class="note"><g data-class="notehead" class="notehead"><polygon points="7141,1170 7337,1170 7337,1220 7141,1220"/><polygon points="7141,1350 7337,1350 7337,1300 7141,1300"/><rect x="7123" y="1140" height="240" width="18"/></g><g data-class="stem" class="stem"><rect x="7337" y="1140" height="750" width="18"/></g></g><g data-id="n1ozygg4" data-class="note" class="note"><g data-class="notehead" class="notehead"><polygon points="10525,1170 10721,1170 10721,1220 10525,1220"/><polygon points="10525,1350 10721,1350 10721,1300 10525,1300"/><rect x="10507" y="1140" height="240" width="18"/><rect x="10721" y="1140" height="240" width="18"/></g></g><g data-id="n1ek3r3p" data-class="note" class="note"><g data-class="notehead" class="notehead"><use href="#E93C-1dzoiqu" x="12259" y="1260" height="720px" width="720px"/></g></g><g data-id="nncs3yw" data-class="note" class="note"><g data-class="notehead" class="notehead"><use href="#E93C-1dzoiqu" x="13163" y="1260" height="720px" width="720px"/></g><g data-id="sc0m1dh" data-class="stem" class="stem"><use href="#E93E-1dzoiqu" x="13265" y="1180" height="720px" width="720px"/></g></g><g data-id="n1adcyzm" data-class="note" class="note"><g data-class="notehead" class="notehead"><use href="#E93D-1dzoiqu" x="13627" y="1260" height="720px" width="720px"/></g><g data-id="s10h1cnf" data-class="stem" class="stem"><use href="#E93E-1dzoiqu" x="13729" y="1180" height="720px" width="720px"/></g></g><g data-id="n1fb224w" data-class="note" class="note"><g data-class="notehead" class="notehead"><use href="#E93D-1dzoiqu" x="13941" y="1260" height="720px" width="720px"/></g><g data-id="s487xki" data-class="stem" class="stem"><use href="#E949-1dzoiqu" x="14043" y="1180" height="720px" width="720px"/></g></g><g data-id="nt2h2kl" data-class="note" class="note"><g data-class="notehead" class="notehead"><use href="#E93D-1dzoiqu" x="14262" y="1260" height="720px" width="720px"/></g><g data-id="s1fjnyao" data-class="stem" class="stem"><use href="#E94B-1dzoiqu" x="14364" y="1180" height="720px" width="720px"/></g></g></g></g><g data-id="s1sci33c" data-class="staff" class="staff"><path d="M0 2340 L14493 2340" stroke="currentColor" stroke-width="13"/><path d="M0 2520 L14493 2520" stroke="currentColor" stroke-width="13"/><path d="M0 2700 L14493 2700" stroke="currentColor" stroke-width="13"/><path d="M0 2880 L14493 2880" stroke="currentColor" stroke-width="13"/><path d="M0 3060 L14493 3060" stroke="currentColor" stroke-width="13"/><g data-id="cxuuv7t" data-class="clef" class="clef"><use href="#E901-1dzoiqu" x="117" y="2880" height="720px" width="720px"/></g><g data-id="kvv6l0s" data-class="keySig" class="keySig"/><g data-id="l1ufc0ee" data-class="layer" class="layer"><g data-id="rc62h1h" data-class="rest" class="rest"><use href="#E9F0-1dzoiqu" x="579" y="2700" height="720px" width="720px"/></g><g data-id="rcnkysv" data-class="rest" class="rest"><use href="#E9F2-1dzoiqu" x="7123" y="2700" height="720px" width="720px"/></g><g data-id="rl6ujhd" data-class="rest" class="rest"><use href="#E9F3-1dzoiqu" x="10507" y="2700" height="720px" width="720px"/><g data-class="ledgerLines" class="ledgerLines"/></g><g data-id="r1nz8z1l" data-class="rest" class="rest"><use href="#E9F4-1dzoiqu" x="12259" y="2700" height="720px" width="720px"/><g data-class="ledgerLines" class="ledgerLines"/></g><g data-id="r11nme36" data-class="rest" class="rest"><use href="#E9F5-1dzoiqu" x="13163" y="2700" height="720px" width="720px"/><g data-class="ledgerLines" class="ledgerLines"/></g><g data-id="r1ibi5qu" data-class="rest" class="rest"><use href="#E9F6-1dzoiqu" x="13627" y="2700" height="720px" width="720px"/></g><g data-id="r1vveahd" data-class="rest" class="rest"><use href="#E9F7-1dzoiqu" x="13941" y="2700" height="720px" width="720px"/></g><g data-id="rp7jnzl" data-class="rest" class="rest"><use href="#E9F8-1dzoiqu" x="14262" y="2700" height="720px" width="720px"/></g></g></g><g data-id="s1hhxsog" data-class="systemMilestoneEnd" class="systemMilestoneEnd srgiwgg"/></g><g data-id="pcpyd14" data-class="pageMilestoneEnd" class="pageMilestoneEnd s1g503g7"/><g data-id="pbwfznl" data-class="pageMilestoneEnd" class="pageMilestoneEnd mtpdejd"/></g></svg></svg>