<svg viewBox="0 0 141 86" version="1.1" xmlns="http://www.w3.org/2000/svg" xmlns:xlink="http://www.w3.org/1999/xlink" xmlns:mei="http://www.music-encoding.org/ns/mei" overflow="visible"><desc>Engraved by Verovio 4.2.0-8a772f5</desc><defs><symbol id="E901-fym7lo" viewBox="0 0 1000 1000" overflow="inherit"><path transform="scale(1,-1)" d="M144 488c30 28 83 110 83 176c0 77 -39 150 -104 150c-15 0 -33 -6 -61 -34c-15 -15 -23 -44 -23 -79c0 -44 14 -96 43 -133c23 -29 44 -58 62 -80zM159 69c-57 0 -104 -31 -104 -98c0 -61 35 -63 51 -75c8 0 23 52 39 92l32 80c-6 1 -12 1 -18 1zM256 -25 c0 -76 -24 -122 -98 -122h-3c-28 0 -66 7 -84 15c-38 17 -71 55 -71 112c0 55 56 114 124 123c25 3 49 8 61 8c12 33 26 89 26 128c0 104 -55 180 -76 211c-51 -65 -79 -110 -90 -178c-1 -6 -4 -25 -4 -46c0 -18 2 -38 10 -50c5 -7 7 -16 7 -24c0 -13 -6 -24 -15 -24 c-5 0 -12 5 -19 17c-12 21 -24 38 -24 96c0 77 23 115 54 151c38 44 26 28 65 68l1 -1c0 3 -16 27 -60 79c-19 22 -58 58 -58 145c0 76 30 100 53 123c25 25 57 38 102 38c62 0 110 -83 110 -168c0 -13 -2 -26 -4 -39c-10 -52 -83 -130 -111 -163c24 -38 8 -3 55 -91 c34 -63 42 -84 42 -119c0 -10 -1 -22 -2 -37c-4 -63 -11 -76 -20 -116c7 0 12 1 21 -1c14 -4 20 -11 20 -19c0 -19 -30 -19 -52 -24c-6 -13 -67 -174 -67 -181c0 -2 9 -4 19 -4c25 0 41 21 56 73c8 28 14 39 22 39s10 -8 10 -19z"/></symbol></defs><style type="text/css">g.page-margin{font-family:Times,serif;} g.ending, g.fing, g.reh, g.tempo{font-weight:bold;} g.dir, g.dynam, g.mNum{font-style:italic;} g.label{font-weight:normal;}</style><svg class="definition-scale" color="black" viewBox="0 0 14090 8560"><g class="page-margin" transform="translate(500, 500)"><g data-id="m1sm6l1v" data-class="mdiv" class="mdiv pageMilestone"/><g data-id="saki9mq" data-class="score" class="score pageMilestone"/><g data-id="snxcygp" data-class="system" class="system"><path d="M13 540 L13 3060" stroke="currentColor" stroke-width="27"/><g data-id="srxgqlz" data-class="section" class="section systemMilestone"/><g data-id="swjvwl8" data-class="staff" class="staff"><path d="M0 540 L6650 540" stroke="currentColor" stroke-width="13"/><path d="M0 720 L6650 720" stroke="currentColor" stroke-width="13"/><path d="M0 900 L6650 900" stroke="currentColor" stroke-width="13"/><path d="M0 1080 L6650 1080" stroke="currentColor" stroke-width="13"/><path d="M0 1260 L6650 1260" stroke="currentColor" stroke-width="13"/><g data-id="c3v7v21" data-class="clef" class="clef"><use href="#E901-fym7lo" x="117" y="1080" height="720px" width="720px"/></g><g data-id="k7oui8x" data-class="keySig" class="keySig"/><g data-id="lx5pq2l" data-class="layer" class="layer"><g data-id="n1g3cwm0" data-class="note" class="note"><g data-class="notehead" class="notehead"><polygon points="597,1170 793,1170 793,1220 597,1220"/><polygon points="597,1350 793,1350 793,1300 597,1300"/><rect x="579" y="1140" height="240" width="18"/></g><g data-class="stem" class="stem"><rect x="793" y="1140" height="750" width="18"/></g></g><g data-id="b1ucdv54" data-class="barLine" class="barLine"><path d="M6637 540 L6637 1260" stroke="currentColor" stroke-width="27" stroke-dasharray="102 102"/></g></g></g><g data-id="swvl0" data-class="staff" class="staff"><path d="M0 2340 L6650 2340" stroke="currentColor" stroke-width="13"/><path d="M0 2520 L6650 2520" stroke="currentColor" stroke-width="13"/><path d="M0 2700 L6650 2700" stroke="currentColor" stroke-width="13"/><path d="M0 2880 L6650 2880" stroke="currentColor" stroke-width="13"/><path d="M0 3060 L6650 3060" stroke="currentColor" stroke-width="13"/><g data-id="cnskpy3" data-class="clef" class="clef"><use href="#E901-fym7lo" x="117" y="2880" height="720px" width="720px"/></g><g data-id="k1hwcmq4" data-class="keySig" class="keySig"/><g data-id="lzenbns" data-class="layer" class="layer"><g data-id="n6e3ubh" data-class="note" class="note"><g data-class="notehead" class="notehead"><polygon points="597,2700 793,2700 793,2750 597,2750"/><polygon points="597,2880 793,2880 793,2830 597,2830"/><rect x="579" y="2670" height="240" width="18"/><rect x="793" y="2670" height="240" width="18"/></g></g><g data-id="n1hljjbx" data-class="note" class="note"><g data-class="notehead" class="notehead"><polygon points="3626,2700 3822,2700 3822,2750 3626,2750"/><polygon points="3626,2880 3822,2880 3822,2830 3626,2830"/><rect x="3608" y="2670" height="240" width="18"/><rect x="3822" y="2670" height="240" width="18"/></g></g><g data-id="b1vx2715" data-class="barLine" class="barLine"><path d="M6637 2340 L6637 3060" stroke="currentColor" stroke-width="27" stroke-dasharray="102 102"/></g></g></g><g data-id="s1nhsgci" data-class="staff" class="staff"><path d="M6650 540 L9872 540" stroke="currentColor" stroke-width="13"/><path d="M6650 720 L9872 720" stroke="currentColor" stroke-width="13"/><path d="M6650 900 L9872 900" stroke="currentColor" stroke-width="13"/><path d="M6650 1080 L9872 1080" stroke="currentColor" stroke-width="13"/><path d="M6650 1260 L9872 1260" stroke="currentColor" stroke-width="13"/><g data-id="lvthvjh" data-class="layer" class="layer"><g data-id="n1pmgj2u" data-class="note" class="note"><g data-class="notehead" class="notehead"><polygon points="6848,1170 7044,1170 7044,1220 6848,1220"/><polygon points="6848,1350 7044,1350 7044,1300 6848,1300"/><rect x="6830" y="1140" height="240" width="18"/><rect x="7044" y="1140" height="240" width="18"/></g></g><g data-id="d1yuwsu8" data-class="dot" class="dot"><polygon points="8415,1170 8460,1125 8505,1170 8460,1215"/></g><g data-id="b15b4h5s" data-class="barLine" class="barLine"><path d="M9859 540 L9859 1260" stroke="currentColor" stroke-width="27" stroke-dasharray="102 102"/></g></g></g><g data-id="sf22zh0" data-class="staff" class="staff"><path d="M6650 2340 L9872 2340" stroke="currentColor" stroke-width="13"/><path d="M6650 2520 L9872 2520" stroke="currentColor" stroke-width="13"/><path d="M6650 2700 L9872 2700" stroke="currentColor" stroke-width="13"/><path d="M6650 2880 L9872 2880" stroke="currentColor" stroke-width="13"/><path d="M6650 3060 L9872 3060" stroke="currentColor" stroke-width="13"/><g data-id="l1emzhkz" data-class="layer" class="layer"><g data-id="n11j2y4m" data-class="note" class="note"><g data-class="notehead" class="notehead"><polygon points="6848,2700 7044,2700 7044,2750 6848,2750"/><polygon points="6848,2880 7044,2880 7044,2830 6848,2830"/><rect x="6830" y="2670" height="240" width="18"/><rect x="7044" y="2670" height="240" width="18"/></g></g><g data-id="bhbrftd" data-class="barLine" class="barLine"><path d="M9859 2340 L9859 3060" stroke="currentColor" stroke-width="27" stroke-dasharray="102 102"/></g></g></g><g data-id="smy0395" data-class="staff" class="staff"><path d="M9872 540 L13094 540" stroke="currentColor" stroke-width="13"/><path d="M9872 720 L13094 720" stroke="currentColor" stroke-width="13"/><path d="M9872 900 L13094 900" stroke="currentColor" stroke-width="13"/><path d="M9872 1080 L13094 1080" stroke="currentColor" stroke-width="13"/><path d="M9872 1260 L13094 1260" stroke="currentColor" stroke-width="13"/><g data-id="l1ajangu" data-class="layer" class="layer"><g data-id="nh4x0kk" data-class="note" class="note"><g data-class="notehead" class="notehead"><polygon points="10070,1170 10266,1170 10266,1220 10070,1220"/><polygon points="10070,1350 10266,1350 10266,1300 10070,1300"/><rect x="10052" y="1140" height="240" width="18"/><rect x="10266" y="1140" height="240" width="18"/></g></g><g data-id="b4bseh3" data-class="barLine" class="barLine"><path d="M13081 540 L13081 1260" stroke="currentColor" stroke-width="27" stroke-dasharray="102 102"/></g></g></g><g data-id="s10hlzw7" data-class="staff" class="staff"><path d="M9872 2340 L13094 2340" stroke="currentColor" stroke-width="13"/><path d="M9872 2520 L13094 2520" stroke="currentColor" stroke-width="13"/><path d="M9872 2700 L13094 2700" stroke="currentColor" stroke-width="13"/><path d="M9872 2880 L13094 2880" stroke="currentColor" stroke-width="13"/><path d="M9872 3060 L13094 3060" stroke="currentColor" stroke-width="13"/><g data-id="l1sdaw5v" data-class="layer" class="layer"><g data-id="n1hju19" data-class="note" class="note"><g data-class="notehead" class="notehead"><polygon points="10070,2700 10266,2700 10266,2750 10070,2750"/><polygon points="10070,2880 10266,2880 10266,2830 10070,2830"/><rect x="10052" y="2670" height="240" width="18"/><rect x="10266" y="2670" height="240" width="18"/></g></g><g data-id="bjkamic" data-class="barLine" class="barLine"><path d="M13081 2340 L13081 3060" stroke="currentColor" stroke-width="27" stroke-dasharray="102 102"/></g></g></g></g><g data-id="sa20fd3" data-class="system" class="system"><path d="M13 4500 L13 7020" stroke="currentColor" stroke-width="27"/><g data-id="sbzqz0q" data-class="staff" class="staff"><path d="M0 4500 L6650 4500" stroke="currentColor" stroke-width="13"/><path d="M0 4680 L6650 4680" stroke="currentColor" stroke-width="13"/><path d="M0 4860 L6650 4860" stroke="currentColor" stroke-width="13"/><path d="M0 5040 L6650 5040" stroke="currentColor" stroke-width="13"/><path d="M0 5220 L6650 5220" stroke="currentColor" stroke-width="13"/><g data-id="cikcx0r" data-class="clef" class="clef"><use href="#E901-fym7lo" x="117" y="5040" height="720px" width="720px"/></g><g data-id="kyve3mj" data-class="keySig" class="keySig"/><g data-id="l1etokfa" data-class="layer" class="layer"><g data-id="n1309e0m" data-class="note" class="note"><g data-class="notehead" class="notehead"><polygon points="597,5130 793,5130 793,5180 597,5180"/><polygon points="597,5310 793,5310 793,5260 597,5260"/><rect x="579" y="5100" height="240" width="18"/></g><g data-class="stem" class="stem"><rect x="793" y="5100" height="750" width="18"/></g></g><g data-id="bvu0bs6" data-class="barLine" class="barLine"><path d="M6637 4500 L6637 5220" stroke="currentColor" stroke-width="27" stroke-dasharray="102 102"/></g></g></g><g data-id="suedmnm" data-class="staff" class="staff"><path d="M0 6300 L6650 6300" stroke="currentColor" stroke-width="13"/><path d="M0 6480 L6650 6480" stroke="currentColor" stroke-width="13"/><path d="M0 6660 L6650 6660" stroke="currentColor" stroke-width="13"/><path d="M0 6840 L6650 6840" stroke="currentColor" stroke-width="13"/><path d="M0 7020 L6650 7020" stroke="currentColor" stroke-width="13"/><g data-id="c1cuoomk" data-class="clef" class="clef"><use href="#E901-fym7lo" x="117" y="6840" height="720px" width="720px"/></g><g data-id="kzgosfu" data-class="keySig" class="keySig"/><g data-id="lezu983" data-class="layer" class="layer"><g data-id="nb2rkvb" data-class="note" class="note"><g data-class="notehead" class="notehead"><polygon points="597,6660 793,6660 793,6710 597,6710"/><polygon points="597,6840 793,6840 793,6790 597,6790"/><rect x="579" y="6630" height="240" width="18"/><rect x="793" y="6630" height="240" width="18"/></g></g><g data-id="n1vi1ryc" data-class="note" class="note"><g data-class="notehead" class="notehead"><polygon points="3626,6660 3822,6660 3822,6710 3626,6710"/><polygon points="3626,6840 3822,6840 3822,6790 3626,6790"/><rect x="3608" y="6630" height="240" width="18"/><rect x="3822" y="6630" height="240" width="18"/></g></g><g data-id="b1xuvm4" data-class="barLine" class="barLine"><path d="M6637 6300 L6637 7020" stroke="currentColor" stroke-width="27" stroke-dasharray="102 102"/></g></g></g><g data-id="s13g8nnw" data-class="systemMilestoneEnd" class="systemMilestoneEnd srxgqlz"/></g><g data-id="ppqni22" data-class="pageMilestoneEnd" class="pageMilestoneEnd saki9mq"/><g data-id="p1lztwja" data-class="pageMilestoneEnd" class="pageMilestoneEnd m1sm6l1v"/></g></svg></svg>