<svg viewBox="0 0 147 126" version="1.1" xmlns="http://www.w3.org/2000/svg" xmlns:xlink="http://www.w3.org/1999/xlink" xmlns:mei="http://www.music-encoding.org/ns/mei" overflow="visible"><desc>Engraved by Verovio 4.2.0-8a772f5</desc><defs><symbol id="E938-1181w3g" viewBox="0 0 1000 1000" overflow="inherit"><path transform="scale(1,-1)" d="M0 0l141 141l141 -141l-141 -141z"/></symbol><symbol id="E901-1181w3g" viewBox="0 0 1000 1000" overflow="inherit"><path transform="scale(1,-1)" d="M144 488c30 28 83 110 83 176c0 77 -39 150 -104 150c-15 0 -33 -6 -61 -34c-15 -15 -23 -44 -23 -79c0 -44 14 -96 43 -133c23 -29 44 -58 62 -80zM159 69c-57 0 -104 -31 -104 -98c0 -61 35 -63 51 -75c8 0 23 52 39 92l32 80c-6 1 -12 1 -18 1zM256 -25 c0 -76 -24 -122 -98 -122h-3c-28 0 -66 7 -84 15c-38 17 -71 55 -71 112c0 55 56 114 124 123c25 3 49 8 61 8c12 33 26 89 26 128c0 104 -55 180 -76 211c-51 -65 -79 -110 -90 -178c-1 -6 -4 -25 -4 -46c0 -18 2 -38 10 -50c5 -7 7 -16 7 -24c0 -13 -6 -24 -15 -24 c-5 0 -12 5 -19 17c-12 21 -24 38 -24 96c0 77 23 115 54 151c38 44 26 28 65 68l1 -1c0 3 -16 27 -60 79c-19 22 -58 58 -58 145c0 76 30 100 53 123c25 25 57 38 102 38c62 0 110 -83 110 -168c0 -13 -2 -26 -4 -39c-10 -52 -83 -130 -111 -163c24 -38 8 -3 55 -91 c34 -63 42 -84 42 -119c0 -10 -1 -22 -2 -37c-4 -63 -11 -76 -20 -116c7 0 12 1 21 -1c14 -4 20 -11 20 -19c0 -19 -30 -19 -52 -24c-6 -13 -67 -174 -67 -181c0 -2 9 -4 19 -4c25 0 41 21 56 73c8 28 14 39 22 39s10 -8 10 -19z"/></symbol></defs><style type="text/css">g.page-margin{font-family:Times,serif;} g.ending, g.fing, g.reh, g.tempo{font-weight:bold;} g.dir, g.dynam, g.mNum{font-style:italic;} g.label{font-weight:normal;}</style><svg class="definition-scale" color="black" viewBox="0 0 14690 12520"><g class="page-margin" transform="translate(500, 500)"><g data-id="m1im33v3" data-class="mdiv" class="mdiv pageMilestone"/><g data-id="s5lrydw" data-class="score" class="score pageMilestone"/><g data-id="s1ba5uvt" data-class="system" class="system"><path d="M13 540 L13 3060" stroke="currentColor" stroke-width="27"/><g data-id="s1rylrkq" data-class="section" class="section systemMilestone"/><g data-id="svmwtb9" data-class="staff" class="staff"><path d="M0 540 L6937 540" stroke="currentColor" stroke-width="13"/><path d="M0 720 L6937 720" stroke="currentColor" stroke-width="13"/><path d="M0 900 L6937 900" stroke="currentColor" stroke-width="13"/><path d="M0 1080 L6937 1080" stroke="currentColor" stroke-width="13"/><path d="M0 1260 L6937 1260" stroke="currentColor" stroke-width="13"/><g data-id="c1y6mscb" data-class="clef" class="clef"><use href="#E901-1181w3g" x="117" y="1080" height="720px" width="720px"/></g><g data-id="krh30mb" data-class="keySig" class="keySig"/><g data-id="l1iuazf5" data-class="layer" class="layer"><g data-id="n1y0ezh0" data-class="note" class="note"><g data-class="notehead" class="notehead"><rect x="597" y="1188" height="144" width="126"/><rect x="579" y="1188" height="144" width="18"/></g><g data-class="stem" class="stem"><rect x="723" y="1188" height="522" width="18"/></g></g><g data-id="bpdv1yt" data-class="barLine" class="barLine"><path d="M6924 540 L6924 1260" stroke="currentColor" stroke-width="27" stroke-dasharray="102 102"/></g></g></g><g data-id="su0zahe" data-class="staff" class="staff"><path d="M0 2340 L6937 2340" stroke="currentColor" stroke-width="13"/><path d="M0 2520 L6937 2520" stroke="currentColor" stroke-width="13"/><path d="M0 2700 L6937 2700" stroke="currentColor" stroke-width="13"/><path d="M0 2880 L6937 2880" stroke="currentColor" stroke-width="13"/><path d="M0 3060 L6937 3060" stroke="currentColor" stroke-width="13"/><g data-id="cy3ps55" data-class="clef" class="clef"><use href="#E901-1181w3g" x="117" y="2880" height="720px" width="720px"/></g><g data-id="kq2z3yv" data-class="keySig" class="keySig"/><g data-id="lw8e1sn" data-class="layer" class="layer"><g data-id="n1jwyomr" data-class="note" class="note"><g data-class="notehead" class="notehead"><rect x="597" y="2988" height="144" width="126"/><rect x="579" y="2988" height="144" width="18"/><rect x="723" y="2988" height="144" width="18"/></g></g><g data-id="nz2p6zo" data-class="note" class="note"><g data-class="notehead" class="notehead"><rect x="2712" y="2988" height="144" width="126"/><rect x="2694" y="2988" height="144" width="18"/><rect x="2838" y="2988" height="144" width="18"/></g></g><g data-id="n1lxnx5l" data-class="note" class="note"><g data-class="notehead" class="notehead"><rect x="4827" y="2988" height="144" width="126"/><rect x="4809" y="2988" height="144" width="18"/><rect x="4953" y="2988" height="144" width="18"/></g></g><g data-id="b1480w6s" data-class="barLine" class="barLine"><path d="M6924 2340 L6924 3060" stroke="currentColor" stroke-width="27" stroke-dasharray="102 102"/></g></g></g><g data-id="scadhv0" data-class="staff" class="staff"><path d="M6937 540 L10403 540" stroke="currentColor" stroke-width="13"/><path d="M6937 720 L10403 720" stroke="currentColor" stroke-width="13"/><path d="M6937 900 L10403 900" stroke="currentColor" stroke-width="13"/><path d="M6937 1080 L10403 1080" stroke="currentColor" stroke-width="13"/><path d="M6937 1260 L10403 1260" stroke="currentColor" stroke-width="13"/><g data-id="l1ue5ik3" data-class="layer" class="layer"><g data-id="ni53ats" data-class="note" class="note"><g data-class="notehead" class="notehead"><use href="#E938-1181w3g" x="7117" y="1260" height="720px" width="720px"/></g></g><g data-id="n7u33yg" data-class="note" class="note"><g data-class="notehead" class="notehead"><use href="#E938-1181w3g" x="8208" y="1260" height="720px" width="720px"/></g></g><g data-id="na2ykez" data-class="note" class="note"><g data-class="notehead" class="notehead"><use href="#E938-1181w3g" x="9299" y="1260" height="720px" width="720px"/></g></g><g data-id="djjty0s" data-class="dot" class="dot"><polygon points="9900,1170 9945,1125 9990,1170 9945,1215"/></g><g data-id="b1pg6mau" data-class="barLine" class="barLine"><path d="M10390 540 L10390 1260" stroke="currentColor" stroke-width="27" stroke-dasharray="102 102"/></g></g></g><g data-id="s1uavo2v" data-class="staff" class="staff"><path d="M6937 2340 L10403 2340" stroke="currentColor" stroke-width="13"/><path d="M6937 2520 L10403 2520" stroke="currentColor" stroke-width="13"/><path d="M6937 2700 L10403 2700" stroke="currentColor" stroke-width="13"/><path d="M6937 2880 L10403 2880" stroke="currentColor" stroke-width="13"/><path d="M6937 3060 L10403 3060" stroke="currentColor" stroke-width="13"/><g data-id="la5rdge" data-class="layer" class="layer"><g data-id="n11rnjo" data-class="note" class="note"><g data-class="notehead" class="notehead"><rect x="7135" y="2988" height="144" width="126"/><rect x="7117" y="2988" height="144" width="18"/><rect x="7261" y="2988" height="144" width="18"/></g></g><g data-id="bnjbzug" data-class="barLine" class="barLine"><path d="M10390 2340 L10390 3060" stroke="currentColor" stroke-width="27" stroke-dasharray="102 102"/></g></g></g><g data-id="s1vfylmf" data-class="staff" class="staff"><path d="M10403 540 L13338 540" stroke="currentColor" stroke-width="13"/><path d="M10403 720 L13338 720" stroke="currentColor" stroke-width="13"/><path d="M10403 900 L13338 900" stroke="currentColor" stroke-width="13"/><path d="M10403 1080 L13338 1080" stroke="currentColor" stroke-width="13"/><path d="M10403 1260 L13338 1260" stroke="currentColor" stroke-width="13"/><g data-id="l15i8bmb" data-class="layer" class="layer"><g data-id="nt3qbkl" data-class="note" class="note"><g data-class="notehead" class="notehead"><use href="#E938-1181w3g" x="10583" y="1260" height="720px" width="720px"/></g></g><g data-id="n1q2izqw" data-class="note" class="note"><g data-class="notehead" class="notehead"><use href="#E938-1181w3g" x="11674" y="1260" height="720px" width="720px"/></g></g><g data-id="b1lpadko" data-class="barLine" class="barLine"><path d="M13325 540 L13325 1260" stroke="currentColor" stroke-width="27" stroke-dasharray="102 102"/></g></g></g><g data-id="s1m5vhml" data-class="staff" class="staff"><path d="M10403 2340 L13338 2340" stroke="currentColor" stroke-width="13"/><path d="M10403 2520 L13338 2520" stroke="currentColor" stroke-width="13"/><path d="M10403 2700 L13338 2700" stroke="currentColor" stroke-width="13"/><path d="M10403 2880 L13338 2880" stroke="currentColor" stroke-width="13"/><path d="M10403 3060 L13338 3060" stroke="currentColor" stroke-width="13"/><g data-id="lg4buqt" data-class="layer" class="layer"><g data-id="n1h2pmoq" data-class="note" class="note"><g data-class="notehead" class="notehead"><rect x="10601" y="2988" height="144" width="126"/><rect x="10583" y="2988" height="144" width="18"/><rect x="10727" y="2988" height="144" width="18"/></g></g><g data-id="b1b1em2n" data-class="barLine" class="barLine"><path d="M13325 2340 L13325 3060" stroke="currentColor" stroke-width="27" stroke-dasharray="102 102"/></g></g></g></g><g data-id="sw6oz4v" data-class="system" class="system"><path d="M13 4500 L13 7020" stroke="currentColor" stroke-width="27"/><g data-id="su3ac6f" data-class="staff" class="staff"><path d="M0 4500 L12814 4500" stroke="currentColor" stroke-width="13"/><path d="M0 4680 L12814 4680" stroke="currentColor" stroke-width="13"/><path d="M0 4860 L12814 4860" stroke="currentColor" stroke-width="13"/><path d="M0 5040 L12814 5040" stroke="currentColor" stroke-width="13"/><path d="M0 5220 L12814 5220" stroke="currentColor" stroke-width="13"/><g data-id="c176frez" data-class="clef" class="clef"><use href="#E901-1181w3g" x="117" y="5040" height="720px" width="720px"/></g><g data-id="ksnj6af" data-class="keySig" class="keySig"/><g data-id="l1g1yp9r" data-class="layer" class="layer"><g data-id="n13hgfn1" data-class="note" class="note"><g data-class="notehead" class="notehead"><rect x="597" y="5148" height="144" width="126"/><rect x="579" y="5148" height="144" width="18"/><rect x="723" y="5148" height="144" width="18"/></g></g><g data-id="b1lfs7xz" data-class="barLine" class="barLine"><path d="M12801 4500 L12801 5220" stroke="currentColor" stroke-width="27" stroke-dasharray="102 102"/></g></g></g><g data-id="s1ni4wj4" data-class="staff" class="staff"><path d="M0 6300 L12814 6300" stroke="currentColor" stroke-width="13"/><path d="M0 6480 L12814 6480" stroke="currentColor" stroke-width="13"/><path d="M0 6660 L12814 6660" stroke="currentColor" stroke-width="13"/><path d="M0 6840 L12814 6840" stroke="currentColor" stroke-width="13"/><path d="M0 7020 L12814 7020" stroke="currentColor" stroke-width="13"/><g data-id="c2fdfz0" data-class="clef" class="clef"><use href="#E901-1181w3g" x="117" y="6840" height="720px" width="720px"/></g><g data-id="krttbe4" data-class="keySig" class="keySig"/><g data-id="l1litjf1" data-class="layer" class="layer"><g data-id="ne9dnv3" data-class="note" class="note"><g data-class="notehead" class="notehead"><rect x="597" y="6948" height="144" width="126"/><rect x="579" y="6948" height="144" width="18"/><rect x="723" y="6948" height="144" width="18"/></g></g><g data-id="b17mgqy1" data-class="barLine" class="barLine"><path d="M12801 6300 L12801 7020" stroke="currentColor" stroke-width="27" stroke-dasharray="102 102"/></g></g></g></g><g data-id="szk1ug9" data-class="system" class="system"><path d="M13 8460 L13 10980" stroke="currentColor" stroke-width="27"/><g data-id="svl6ows" data-class="staff" class="staff"><path d="M0 8460 L13697 8460" stroke="currentColor" stroke-width="13"/><path d="M0 8640 L13697 8640" stroke="currentColor" stroke-width="13"/><path d="M0 8820 L13697 8820" stroke="currentColor" stroke-width="13"/><path d="M0 9000 L13697 9000" stroke="currentColor" stroke-width="13"/><path d="M0 9180 L13697 9180" stroke="currentColor" stroke-width="13"/><g data-id="c1399sp0" data-class="clef" class="clef"><use href="#E901-1181w3g" x="117" y="9000" height="720px" width="720px"/></g><g data-id="knz00jr" data-class="keySig" class="keySig"/><g data-id="l11i1o01" data-class="layer" class="layer"><g data-id="n7p1mfi" data-class="note" class="note"><g data-class="notehead" class="notehead"><rect x="597" y="9108" height="144" width="126"/><rect x="579" y="9108" height="144" width="18"/></g><g data-class="stem" class="stem"><rect x="723" y="9108" height="522" width="18"/></g></g><g data-id="b1y5ffgm" data-class="barLine" class="barLine"><path d="M13684 8460 L13684 9180" stroke="currentColor" stroke-width="27" stroke-dasharray="102 102"/></g></g></g><g data-id="s1x7306t" data-class="staff" class="staff"><path d="M0 10260 L13697 10260" stroke="currentColor" stroke-width="13"/><path d="M0 10440 L13697 10440" stroke="currentColor" stroke-width="13"/><path d="M0 10620 L13697 10620" stroke="currentColor" stroke-width="13"/><path d="M0 10800 L13697 10800" stroke="currentColor" stroke-width="13"/><path d="M0 10980 L13697 10980" stroke="currentColor" stroke-width="13"/><g data-id="c1u4hi3c" data-class="clef" class="clef"><use href="#E901-1181w3g" x="117" y="10800" height="720px" width="720px"/></g><g data-id="kjlr9b2" data-class="keySig" class="keySig"/><g data-id="l745toe" data-class="layer" class="layer"><g data-id="n1gxnza5" data-class="note" class="note"><g data-class="notehead" class="notehead"><rect x="597" y="10908" height="144" width="126"/><rect x="579" y="10908" height="144" width="18"/><rect x="723" y="10908" height="144" width="18"/></g></g><g data-id="n1iikx3" data-class="note" class="note"><g data-class="notehead" class="notehead"><rect x="2764" y="10908" height="144" width="126"/><rect x="2746" y="10908" height="144" width="18"/><rect x="2890" y="10908" height="144" width="18"/></g></g><g data-id="nvl4ytb" data-class="note" class="note"><g data-class="notehead" class="notehead"><rect x="4931" y="10908" height="144" width="126"/><rect x="4913" y="10908" height="144" width="18"/><rect x="5057" y="10908" height="144" width="18"/></g></g><g data-id="biw4gz5" data-class="barLine" class="barLine"><path d="M7080 10260 L7080 10980" stroke="currentColor" stroke-width="27" stroke-dasharray="102 102"/></g><g data-id="n1navduu" data-class="note" class="note"><g data-class="notehead" class="notehead"><rect x="7201" y="10908" height="144" width="126"/><rect x="7183" y="10908" height="144" width="18"/><rect x="7327" y="10908" height="144" width="18"/></g></g><g data-id="n1ncoxur" data-class="note" class="note"><g data-class="notehead" class="notehead"><rect x="9368" y="10908" height="144" width="126"/><rect x="9350" y="10908" height="144" width="18"/><rect x="9494" y="10908" height="144" width="18"/></g></g><g data-id="n1uf70v4" data-class="note" class="note"><g data-class="notehead" class="notehead"><rect x="11535" y="10908" height="144" width="126"/><rect x="11517" y="10908" height="144" width="18"/><rect x="11661" y="10908" height="144" width="18"/></g></g><g data-id="b6jvz2a" data-class="barLine" class="barLine"><path d="M13684 10260 L13684 10980" stroke="currentColor" stroke-width="27" stroke-dasharray="102 102"/></g></g></g><g data-id="s7ubsy1" data-class="systemMilestoneEnd" class="systemMilestoneEnd s1rylrkq"/></g><g data-id="p16ohkad" data-class="pageMilestoneEnd" class="pageMilestoneEnd s5lrydw"/><g data-id="p1lvg3ck" data-class="pageMilestoneEnd" class="pageMilestoneEnd m1im33v3"/></g></svg></svg>