<svg viewBox="0 0 133 46" version="1.1" xmlns="http://www.w3.org/2000/svg" xmlns:xlink="http://www.w3.org/1999/xlink" xmlns:mei="http://www.music-encoding.org/ns/mei" overflow="visible"><desc>Engraved by Verovio 3.15.0-5abc7c0</desc><defs><symbol id="E925-vncqvg" viewBox="0 0 1000 1000" overflow="inherit"><path transform="scale(1,-1)" d="M0 408h36v-816h-36v816z"/></symbol><symbol id="E93C-vncqvg" viewBox="0 0 1000 1000" overflow="inherit"><path transform="scale(1,-1)" d="M156 195l156 -195l-156 -195l-156 195zM127 110l-57 -71l115 -149l57 71z"/></symbol><symbol id="E93E-vncqvg" viewBox="0 0 1000 1000" overflow="inherit"><path transform="scale(1,-1)" d="M0 760h30v-760h-30v760z"/></symbol><symbol id="E901-vncqvg" viewBox="0 0 1000 1000" overflow="inherit"><path transform="scale(1,-1)" d="M144 488c30 28 83 110 83 176c0 77 -39 150 -104 150c-15 0 -33 -6 -61 -34c-15 -15 -23 -44 -23 -79c0 -44 14 -96 43 -133c23 -29 44 -58 62 -80zM159 69c-57 0 -104 -31 -104 -98c0 -61 35 -63 51 -75c8 0 23 52 39 92l32 80c-6 1 -12 1 -18 1zM256 -25 c0 -76 -24 -122 -98 -122h-3c-28 0 -66 7 -84 15c-38 17 -71 55 -71 112c0 55 56 114 124 123c25 3 49 8 61 8c12 33 26 89 26 128c0 104 -55 180 -76 211c-51 -65 -79 -110 -90 -178c-1 -6 -4 -25 -4 -46c0 -18 2 -38 10 -50c5 -7 7 -16 7 -24c0 -13 -6 -24 -15 -24 c-5 0 -12 5 -19 17c-12 21 -24 38 -24 96c0 77 23 115 54 151c38 44 26 28 65 68l1 -1c0 3 -16 27 -60 79c-19 22 -58 58 -58 145c0 76 30 100 53 123c25 25 57 38 102 38c62 0 110 -83 110 -168c0 -13 -2 -26 -4 -39c-10 -52 -83 -130 -111 -163c24 -38 8 -3 55 -91 c34 -63 42 -84 42 -119c0 -10 -1 -22 -2 -37c-4 -63 -11 -76 -20 -116c7 0 12 1 21 -1c14 -4 20 -11 20 -19c0 -19 -30 -19 -52 -24c-6 -13 -67 -174 -67 -181c0 -2 9 -4 19 -4c25 0 41 21 56 73c8 28 14 39 22 39s10 -8 10 -19z"/></symbol><symbol id="E915-vncqvg" viewBox="0 0 1000 1000" overflow="inherit"><path transform="scale(1,-1)" d="M421 96c-46 77 -101 108 -181 108c-113 0 -204 -91 -204 -204s91 -204 204 -204c78 0 129 34 177 110l33 -22c-41 -74 -120 -124 -210 -124c-132 0 -240 108 -240 240s108 240 240 240c89 0 163 -45 209 -122z"/></symbol><symbol id="E920-vncqvg" viewBox="0 0 1000 1000" overflow="inherit"><path transform="scale(1,-1)" d="M0 0c0 35 28 63 63 63s63 -28 63 -63s-28 -63 -63 -63s-63 28 -63 63z"/></symbol></defs><style type="text/css">g.page-margin{font-family:Times;} g.ending, g.fing, g.reh, g.tempo{font-weight:bold;} g.dir, g.dynam, g.mNum{font-style:italic;} g.label{font-weight:normal;}</style><svg class="definition-scale" color="black" viewBox="0 0 13290 4600"><g class="page-margin" transform="translate(500, 500)"><g data-id="mda8vhc" data-class="mdiv" class="mdiv pageMilestone"/><g data-id="s1ojfb65" data-class="score" class="score pageMilestone"/><g data-id="slnebqj" data-class="system" class="system"><path d="M1881 540 L1881 3060" stroke="currentColor" stroke-width="27"/><g data-id="l15n3s4z" data-class="label" class="label"><text x="1688" y="990" text-anchor="end" font-size="0px"><tspan data-id="tx1m1bv" data-class="text" class="text"><tspan font-size="405px" class="text">voice</tspan></tspan></text></g><g data-id="lalqrxz" data-class="label" class="label"><text x="1688" y="2790" text-anchor="end" font-size="0px"><tspan data-id="t10pyxot" data-class="text" class="text"><tspan font-size="405px" class="text">reference</tspan></tspan></text></g><g data-id="s1319uqc" data-class="section" class="section systemMilestone"/><g data-id="sdatv7t" data-class="staff" class="staff"><path d="M1868 540 L12298 540" stroke="currentColor" stroke-width="13"/><path d="M1868 720 L12298 720" stroke="currentColor" stroke-width="13"/><path d="M1868 900 L12298 900" stroke="currentColor" stroke-width="13"/><path d="M1868 1080 L12298 1080" stroke="currentColor" stroke-width="13"/><path d="M1868 1260 L12298 1260" stroke="currentColor" stroke-width="13"/><g data-id="c1arv6wv" data-class="clef" class="clef"><use href="#E901-vncqvg" x="1985" y="1080" height="720px" width="720px"/></g><g data-id="k1h2h0i5" data-class="keySig" class="keySig"/><g data-id="m1mimvea" data-class="mensur" class="mensur"><use href="#E915-vncqvg" x="2357" y="900" height="720px" width="720px"/><use href="#E925-vncqvg" x="2517" y="900" height="720px" width="720px"/><use href="#E920-vncqvg" x="2484" y="900" height="720px" width="720px"/></g><g data-id="l1lk68mu" data-class="layer" class="layer"><g data-id="nrb7sdo" data-class="note" class="note"><g data-class="notehead" class="notehead"><polygon points="2969,1170 3165,1170 3165,1220 2969,1220"/><polygon points="2969,1350 3165,1350 3165,1300 2969,1300"/><rect x="2951" y="1140" height="240" width="18"/></g><g data-class="stem" class="stem"><rect x="3165" y="1140" height="750" width="18"/></g></g><g data-id="bhvoz5h" data-class="barLine" class="barLine"><ellipse cx="11428" cy="630" rx="27" ry="27"/><ellipse cx="11428" cy="810" rx="27" ry="27"/><ellipse cx="11428" cy="990" rx="27" ry="27"/><ellipse cx="11428" cy="1170" rx="27" ry="27"/></g><g data-id="n162yj89" data-class="note" class="note"><g data-class="notehead" class="notehead"><use href="#E93C-vncqvg" x="11545" y="1260" height="720px" width="720px"/></g><g data-id="s10qm47c" data-class="stem" class="stem"><use href="#E93E-vncqvg" x="11647" y="1180" height="720px" width="720px"/></g></g><g data-id="b1130py2" data-class="barLine" class="barLine"><path d="M12285 540 L12285 1260" stroke="currentColor" stroke-width="27" stroke-dasharray="102 102"/></g></g></g><g data-id="s3q02un" data-class="staff" class="staff"><path d="M1868 2340 L12298 2340" stroke="currentColor" stroke-width="13"/><path d="M1868 2520 L12298 2520" stroke="currentColor" stroke-width="13"/><path d="M1868 2700 L12298 2700" stroke="currentColor" stroke-width="13"/><path d="M1868 2880 L12298 2880" stroke="currentColor" stroke-width="13"/><path d="M1868 3060 L12298 3060" stroke="currentColor" stroke-width="13"/><g data-id="c1u669lp" data-class="clef" class="clef"><use href="#E901-vncqvg" x="1985" y="2880" height="720px" width="720px"/></g><g data-id="kvype5u" data-class="keySig" class="keySig"/><g data-id="md8fg1t" data-class="mensur" class="mensur"><use href="#E915-vncqvg" x="2357" y="2700" height="720px" width="720px"/><use href="#E925-vncqvg" x="2517" y="2700" height="720px" width="720px"/><use href="#E920-vncqvg" x="2484" y="2700" height="720px" width="720px"/></g><g data-id="lbyvwe" data-class="layer" class="layer"><g data-id="n1xyunqw" data-class="note" class="note"><g data-class="notehead" class="notehead"><use href="#E93C-vncqvg" x="2951" y="2790" height="720px" width="720px"/></g><g data-id="s65v2wg" data-class="stem" class="stem"><use href="#E93E-vncqvg" x="3053" y="2710" height="720px" width="720px"/></g></g><g data-id="n1sqrd3" data-class="note" class="note"><g data-class="notehead" class="notehead"><use href="#E93C-vncqvg" x="3691" y="2790" height="720px" width="720px"/></g><g data-id="s11jcehm" data-class="stem" class="stem"><use href="#E93E-vncqvg" x="3793" y="2710" height="720px" width="720px"/></g></g><g data-id="nsfe7p3" data-class="note" class="note"><g data-class="notehead" class="notehead"><use href="#E93C-vncqvg" x="4431" y="2790" height="720px" width="720px"/></g><g data-id="s16g81wi" data-class="stem" class="stem"><use href="#E93E-vncqvg" x="4533" y="2710" height="720px" width="720px"/></g></g><g data-id="b1m0ygwi" data-class="barLine" class="barLine"><ellipse cx="5171" cy="2430" rx="27" ry="27"/><ellipse cx="5171" cy="2610" rx="27" ry="27"/><ellipse cx="5171" cy="2790" rx="27" ry="27"/><ellipse cx="5171" cy="2970" rx="27" ry="27"/></g><g data-id="n179mvxw" data-class="note" class="note"><g data-class="notehead" class="notehead"><use href="#E93C-vncqvg" x="5288" y="2790" height="720px" width="720px"/></g><g data-id="slmtum6" data-class="stem" class="stem"><use href="#E93E-vncqvg" x="5390" y="2710" height="720px" width="720px"/></g></g><g data-id="n11gmpaf" data-class="note" class="note"><g data-class="notehead" class="notehead"><use href="#E93C-vncqvg" x="6028" y="2790" height="720px" width="720px"/></g><g data-id="sh05fhl" data-class="stem" class="stem"><use href="#E93E-vncqvg" x="6130" y="2710" height="720px" width="720px"/></g></g><g data-id="n1f153sl" data-class="note" class="note"><g data-class="notehead" class="notehead"><use href="#E93C-vncqvg" x="6768" y="2790" height="720px" width="720px"/></g><g data-id="sc2645e" data-class="stem" class="stem"><use href="#E93E-vncqvg" x="6870" y="2710" height="720px" width="720px"/></g></g><g data-id="b52qlfs" data-class="barLine" class="barLine"><path d="M7508 2340 L7508 3060" stroke="currentColor" stroke-width="27" stroke-dasharray="102 102"/></g><g data-id="n1fr4v41" data-class="note" class="note"><g data-class="notehead" class="notehead"><use href="#E93C-vncqvg" x="7611" y="2790" height="720px" width="720px"/></g><g data-id="s135u97d" data-class="stem" class="stem"><use href="#E93E-vncqvg" x="7713" y="2710" height="720px" width="720px"/></g></g><g data-id="nzcs927" data-class="note" class="note"><g data-class="notehead" class="notehead"><use href="#E93C-vncqvg" x="8351" y="2790" height="720px" width="720px"/></g><g data-id="s7o16l2" data-class="stem" class="stem"><use href="#E93E-vncqvg" x="8453" y="2710" height="720px" width="720px"/></g></g><g data-id="n1qaci88" data-class="note" class="note"><g data-class="notehead" class="notehead"><use href="#E93C-vncqvg" x="9091" y="2790" height="720px" width="720px"/></g><g data-id="s1rjge8z" data-class="stem" class="stem"><use href="#E93E-vncqvg" x="9193" y="2710" height="720px" width="720px"/></g></g><g data-id="b1pfbtnr" data-class="barLine" class="barLine"><ellipse cx="9831" cy="2430" rx="27" ry="27"/><ellipse cx="9831" cy="2610" rx="27" ry="27"/><ellipse cx="9831" cy="2790" rx="27" ry="27"/><ellipse cx="9831" cy="2970" rx="27" ry="27"/></g><g data-id="n1ognts8" data-class="note" class="note"><g data-class="notehead" class="notehead"><use href="#E93C-vncqvg" x="9948" y="2790" height="720px" width="720px"/></g><g data-id="s10r5ur9" data-class="stem" class="stem"><use href="#E93E-vncqvg" x="10050" y="2710" height="720px" width="720px"/></g></g><g data-id="nwdqxnr" data-class="note" class="note"><g data-class="notehead" class="notehead"><use href="#E93C-vncqvg" x="10688" y="2790" height="720px" width="720px"/></g><g data-id="s1k26v95" data-class="stem" class="stem"><use href="#E93E-vncqvg" x="10790" y="2710" height="720px" width="720px"/></g></g><g data-id="nd458fn" data-class="note" class="note"><g data-class="notehead" class="notehead"><use href="#E93C-vncqvg" x="11545" y="2790" height="720px" width="720px"/></g><g data-id="s41qqcq" data-class="stem" class="stem"><use href="#E93E-vncqvg" x="11647" y="2710" height="720px" width="720px"/></g></g><g data-id="bvagh2b" data-class="barLine" class="barLine"><path d="M12285 2340 L12285 3060" stroke="currentColor" stroke-width="27" stroke-dasharray="102 102"/></g></g></g><g data-id="sntgook" data-class="systemMilestoneEnd" class="systemMilestoneEnd s1319uqc"/></g><g data-id="psvp0pm" data-class="pageMilestoneEnd" class="pageMilestoneEnd s1ojfb65"/><g data-id="p12vjtiq" data-class="pageMilestoneEnd" class="pageMilestoneEnd mda8vhc"/></g></svg></svg>