<svg viewBox="0 0 160 93" version="1.1" xmlns="http://www.w3.org/2000/svg" xmlns:xlink="http://www.w3.org/1999/xlink" xmlns:mei="http://www.music-encoding.org/ns/mei" overflow="visible"><desc>Engraved by Verovio 3.15.0-5abc7c0</desc><defs><symbol id="E901-1vm1op" viewBox="0 0 1000 1000" overflow="inherit"><path transform="scale(1,-1)" d="M144 488c30 28 83 110 83 176c0 77 -39 150 -104 150c-15 0 -33 -6 -61 -34c-15 -15 -23 -44 -23 -79c0 -44 14 -96 43 -133c23 -29 44 -58 62 -80zM159 69c-57 0 -104 -31 -104 -98c0 -61 35 -63 51 -75c8 0 23 52 39 92l32 80c-6 1 -12 1 -18 1zM256 -25 c0 -76 -24 -122 -98 -122h-3c-28 0 -66 7 -84 15c-38 17 -71 55 -71 112c0 55 56 114 124 123c25 3 49 8 61 8c12 33 26 89 26 128c0 104 -55 180 -76 211c-51 -65 -79 -110 -90 -178c-1 -6 -4 -25 -4 -46c0 -18 2 -38 10 -50c5 -7 7 -16 7 -24c0 -13 -6 -24 -15 -24 c-5 0 -12 5 -19 17c-12 21 -24 38 -24 96c0 77 23 115 54 151c38 44 26 28 65 68l1 -1c0 3 -16 27 -60 79c-19 22 -58 58 -58 145c0 76 30 100 53 123c25 25 57 38 102 38c62 0 110 -83 110 -168c0 -13 -2 -26 -4 -39c-10 -52 -83 -130 -111 -163c24 -38 8 -3 55 -91 c34 -63 42 -84 42 -119c0 -10 -1 -22 -2 -37c-4 -63 -11 -76 -20 -116c7 0 12 1 21 -1c14 -4 20 -11 20 -19c0 -19 -30 -19 -52 -24c-6 -13 -67 -174 -67 -181c0 -2 9 -4 19 -4c25 0 41 21 56 73c8 28 14 39 22 39s10 -8 10 -19z"/></symbol></defs><style type="text/css">g.page-margin{font-family:Times;} g.ending, g.fing, g.reh, g.tempo{font-weight:bold;} g.dir, g.dynam, g.mNum{font-style:italic;} g.label{font-weight:normal;}</style><svg class="definition-scale" color="black" viewBox="0 0 15960 9210"><g class="page-margin" transform="translate(500, 500)"><g data-id="m1v2l53w" data-class="mdiv" class="mdiv pageMilestone"/><g data-id="spxo6mw" data-class="score" class="score pageMilestone"/><g data-id="s1or4byw" data-class="system" class="system"><path d="M1881 540 L1881 3060" stroke="currentColor" stroke-width="27"/><g data-id="l1wb9syv" data-class="label" class="label"><text x="1688" y="990" text-anchor="end" font-size="0px"><tspan data-id="ti1oe7q" data-class="text" class="text"><tspan font-size="405px" class="text">voice</tspan></tspan></text></g><g data-id="l15fvtns" data-class="label" class="label"><text x="1688" y="2790" text-anchor="end" font-size="0px"><tspan data-id="ttdjzxn" data-class="text" class="text"><tspan font-size="405px" class="text">reference</tspan></tspan></text></g><g data-id="syynh3v" data-class="section" class="section systemMilestone"/><g data-id="snavixk" data-class="staff" class="staff"><path d="M1868 540 L8518 540" stroke="currentColor" stroke-width="13"/><path d="M1868 720 L8518 720" stroke="currentColor" stroke-width="13"/><path d="M1868 900 L8518 900" stroke="currentColor" stroke-width="13"/><path d="M1868 1080 L8518 1080" stroke="currentColor" stroke-width="13"/><path d="M1868 1260 L8518 1260" stroke="currentColor" stroke-width="13"/><g data-id="c1y7xugk" data-class="clef" class="clef"><use href="#E901-1vm1op" x="1985" y="1080" height="720px" width="720px"/></g><g data-id="k1c36vxm" data-class="keySig" class="keySig"/><g data-id="lsw42v0" data-class="layer" class="layer"><g data-id="n1c7xnyj" data-class="note" class="note"><g data-class="notehead" class="notehead"><polygon points="2465,1170 2661,1170 2661,1220 2465,1220"/><polygon points="2465,1350 2661,1350 2661,1300 2465,1300"/><rect x="2447" y="1140" height="240" width="18"/></g><g data-class="stem" class="stem"><rect x="2661" y="1140" height="750" width="18"/></g></g><g data-id="b14l4ykm" data-class="barLine" class="barLine"><path d="M8505 540 L8505 1260" stroke="currentColor" stroke-width="27" stroke-dasharray="102 102"/></g></g></g><g data-id="s14gbmhd" data-class="staff" class="staff"><path d="M1868 2340 L8518 2340" stroke="currentColor" stroke-width="13"/><path d="M1868 2520 L8518 2520" stroke="currentColor" stroke-width="13"/><path d="M1868 2700 L8518 2700" stroke="currentColor" stroke-width="13"/><path d="M1868 2880 L8518 2880" stroke="currentColor" stroke-width="13"/><path d="M1868 3060 L8518 3060" stroke="currentColor" stroke-width="13"/><g data-id="c1g1kiqe" data-class="clef" class="clef"><use href="#E901-1vm1op" x="1985" y="2880" height="720px" width="720px"/></g><g data-id="ktvlr52" data-class="keySig" class="keySig"/><g data-id="l1l43hcb" data-class="layer" class="layer"><g data-id="n1ruzmba" data-class="note" class="note"><g data-class="notehead" class="notehead"><polygon points="2465,2700 2661,2700 2661,2750 2465,2750"/><polygon points="2465,2880 2661,2880 2661,2830 2465,2830"/><rect x="2447" y="2670" height="240" width="18"/><rect x="2661" y="2670" height="240" width="18"/></g></g><g data-id="nh4fsmd" data-class="note" class="note"><g data-class="notehead" class="notehead"><polygon points="5494,2700 5690,2700 5690,2750 5494,2750"/><polygon points="5494,2880 5690,2880 5690,2830 5494,2830"/><rect x="5476" y="2670" height="240" width="18"/><rect x="5690" y="2670" height="240" width="18"/></g></g><g data-id="b1quxx2g" data-class="barLine" class="barLine"><path d="M8505 2340 L8505 3060" stroke="currentColor" stroke-width="27" stroke-dasharray="102 102"/></g></g></g><g data-id="suwsm6w" data-class="staff" class="staff"><path d="M8518 540 L11740 540" stroke="currentColor" stroke-width="13"/><path d="M8518 720 L11740 720" stroke="currentColor" stroke-width="13"/><path d="M8518 900 L11740 900" stroke="currentColor" stroke-width="13"/><path d="M8518 1080 L11740 1080" stroke="currentColor" stroke-width="13"/><path d="M8518 1260 L11740 1260" stroke="currentColor" stroke-width="13"/><g data-id="l1n5aftf" data-class="layer" class="layer"><g data-id="n1k1c5zn" data-class="note" class="note"><g data-class="notehead" class="notehead"><polygon points="8716,1170 8912,1170 8912,1220 8716,1220"/><polygon points="8716,1350 8912,1350 8912,1300 8716,1300"/><rect x="8698" y="1140" height="240" width="18"/><rect x="8912" y="1140" height="240" width="18"/></g></g><g data-id="d1tlow4y" data-class="dot" class="dot"><polygon points="10283,1170 10328,1125 10373,1170 10328,1215"/></g><g data-id="b1slo4j4" data-class="barLine" class="barLine"><path d="M11727 540 L11727 1260" stroke="currentColor" stroke-width="27" stroke-dasharray="102 102"/></g></g></g><g data-id="sk5i9ic" data-class="staff" class="staff"><path d="M8518 2340 L11740 2340" stroke="currentColor" stroke-width="13"/><path d="M8518 2520 L11740 2520" stroke="currentColor" stroke-width="13"/><path d="M8518 2700 L11740 2700" stroke="currentColor" stroke-width="13"/><path d="M8518 2880 L11740 2880" stroke="currentColor" stroke-width="13"/><path d="M8518 3060 L11740 3060" stroke="currentColor" stroke-width="13"/><g data-id="lqksrdk" data-class="layer" class="layer"><g data-id="nu8v6o3" data-class="note" class="note"><g data-class="notehead" class="notehead"><polygon points="8716,2700 8912,2700 8912,2750 8716,2750"/><polygon points="8716,2880 8912,2880 8912,2830 8716,2830"/><rect x="8698" y="2670" height="240" width="18"/><rect x="8912" y="2670" height="240" width="18"/></g></g><g data-id="bpyp71p" data-class="barLine" class="barLine"><path d="M11727 2340 L11727 3060" stroke="currentColor" stroke-width="27" stroke-dasharray="102 102"/></g></g></g><g data-id="s1jmndxc" data-class="staff" class="staff"><path d="M11740 540 L14962 540" stroke="currentColor" stroke-width="13"/><path d="M11740 720 L14962 720" stroke="currentColor" stroke-width="13"/><path d="M11740 900 L14962 900" stroke="currentColor" stroke-width="13"/><path d="M11740 1080 L14962 1080" stroke="currentColor" stroke-width="13"/><path d="M11740 1260 L14962 1260" stroke="currentColor" stroke-width="13"/><g data-id="l5sfhk" data-class="layer" class="layer"><g data-id="n2e6zle" data-class="note" class="note"><g data-class="notehead" class="notehead"><polygon points="11938,1170 12134,1170 12134,1220 11938,1220"/><polygon points="11938,1350 12134,1350 12134,1300 11938,1300"/><rect x="11920" y="1140" height="240" width="18"/><rect x="12134" y="1140" height="240" width="18"/></g></g><g data-id="b1j2k15k" data-class="barLine" class="barLine"><path d="M14949 540 L14949 1260" stroke="currentColor" stroke-width="27" stroke-dasharray="102 102"/></g></g></g><g data-id="sl4o31t" data-class="staff" class="staff"><path d="M11740 2340 L14962 2340" stroke="currentColor" stroke-width="13"/><path d="M11740 2520 L14962 2520" stroke="currentColor" stroke-width="13"/><path d="M11740 2700 L14962 2700" stroke="currentColor" stroke-width="13"/><path d="M11740 2880 L14962 2880" stroke="currentColor" stroke-width="13"/><path d="M11740 3060 L14962 3060" stroke="currentColor" stroke-width="13"/><g data-id="le25i8c" data-class="layer" class="layer"><g data-id="n8dhzf0" data-class="note" class="note"><g data-class="notehead" class="notehead"><polygon points="11938,2700 12134,2700 12134,2750 11938,2750"/><polygon points="11938,2880 12134,2880 12134,2830 11938,2830"/><rect x="11920" y="2670" height="240" width="18"/><rect x="12134" y="2670" height="240" width="18"/></g></g><g data-id="b1u386vr" data-class="barLine" class="barLine"><path d="M14949 2340 L14949 3060" stroke="currentColor" stroke-width="27" stroke-dasharray="102 102"/></g></g></g></g><g data-id="smz4yxh" data-class="system" class="system"><path d="M13 5152 L13 7672" stroke="currentColor" stroke-width="27"/><g data-id="s1j4gcqb" data-class="staff" class="staff"><path d="M0 5152 L6650 5152" stroke="currentColor" stroke-width="13"/><path d="M0 5332 L6650 5332" stroke="currentColor" stroke-width="13"/><path d="M0 5512 L6650 5512" stroke="currentColor" stroke-width="13"/><path d="M0 5692 L6650 5692" stroke="currentColor" stroke-width="13"/><path d="M0 5872 L6650 5872" stroke="currentColor" stroke-width="13"/><g data-id="cezr9ol" data-class="clef" class="clef"><use href="#E901-1vm1op" x="117" y="5692" height="720px" width="720px"/></g><g data-id="k1n4o4pt" data-class="keySig" class="keySig"/><g data-id="ld2ausv" data-class="layer" class="layer"><g data-id="noysti6" data-class="note" class="note"><g data-class="notehead" class="notehead"><polygon points="597,5782 793,5782 793,5832 597,5832"/><polygon points="597,5962 793,5962 793,5912 597,5912"/><rect x="579" y="5752" height="240" width="18"/></g><g data-class="stem" class="stem"><rect x="793" y="5752" height="750" width="18"/></g></g><g data-id="b13d4eyb" data-class="barLine" class="barLine"><path d="M6637 5152 L6637 5872" stroke="currentColor" stroke-width="27" stroke-dasharray="102 102"/></g></g></g><g data-id="sl26gl1" data-class="staff" class="staff"><path d="M0 6952 L6650 6952" stroke="currentColor" stroke-width="13"/><path d="M0 7132 L6650 7132" stroke="currentColor" stroke-width="13"/><path d="M0 7312 L6650 7312" stroke="currentColor" stroke-width="13"/><path d="M0 7492 L6650 7492" stroke="currentColor" stroke-width="13"/><path d="M0 7672 L6650 7672" stroke="currentColor" stroke-width="13"/><g data-id="cuxdqjo" data-class="clef" class="clef"><use href="#E901-1vm1op" x="117" y="7492" height="720px" width="720px"/></g><g data-id="k1t71xq5" data-class="keySig" class="keySig"/><g data-id="lkqhlje" data-class="layer" class="layer"><g data-id="n15ifx73" data-class="note" class="note"><g data-class="notehead" class="notehead"><polygon points="597,7312 793,7312 793,7362 597,7362"/><polygon points="597,7492 793,7492 793,7442 597,7442"/><rect x="579" y="7282" height="240" width="18"/><rect x="793" y="7282" height="240" width="18"/></g></g><g data-id="n1vp7kkw" data-class="note" class="note"><g data-class="notehead" class="notehead"><polygon points="3626,7312 3822,7312 3822,7362 3626,7362"/><polygon points="3626,7492 3822,7492 3822,7442 3626,7442"/><rect x="3608" y="7282" height="240" width="18"/><rect x="3822" y="7282" height="240" width="18"/></g></g><g data-id="b18ihwzs" data-class="barLine" class="barLine"><path d="M6637 6952 L6637 7672" stroke="currentColor" stroke-width="27" stroke-dasharray="102 102"/></g></g></g><g data-id="smajpdp" data-class="systemMilestoneEnd" class="systemMilestoneEnd syynh3v"/></g><g data-id="p1lsoqcv" data-class="pageMilestoneEnd" class="pageMilestoneEnd spxo6mw"/><g data-id="pgawwyt" data-class="pageMilestoneEnd" class="pageMilestoneEnd m1v2l53w"/></g></svg></svg>