<svg viewBox="0 0 110 46" version="1.1" xmlns="http://www.w3.org/2000/svg" xmlns:xlink="http://www.w3.org/1999/xlink" xmlns:mei="http://www.music-encoding.org/ns/mei" overflow="visible"><desc>Engraved by Verovio 3.15.0-5abc7c0</desc><defs><symbol id="E925-10rdn4f" viewBox="0 0 1000 1000" overflow="inherit"><path transform="scale(1,-1)" d="M0 408h36v-816h-36v816z"/></symbol><symbol id="E93C-10rdn4f" viewBox="0 0 1000 1000" overflow="inherit"><path transform="scale(1,-1)" d="M156 195l156 -195l-156 -195l-156 195zM127 110l-57 -71l115 -149l57 71z"/></symbol><symbol id="E901-10rdn4f" viewBox="0 0 1000 1000" overflow="inherit"><path transform="scale(1,-1)" d="M144 488c30 28 83 110 83 176c0 77 -39 150 -104 150c-15 0 -33 -6 -61 -34c-15 -15 -23 -44 -23 -79c0 -44 14 -96 43 -133c23 -29 44 -58 62 -80zM159 69c-57 0 -104 -31 -104 -98c0 -61 35 -63 51 -75c8 0 23 52 39 92l32 80c-6 1 -12 1 -18 1zM256 -25 c0 -76 -24 -122 -98 -122h-3c-28 0 -66 7 -84 15c-38 17 -71 55 -71 112c0 55 56 114 124 123c25 3 49 8 61 8c12 33 26 89 26 128c0 104 -55 180 -76 211c-51 -65 -79 -110 -90 -178c-1 -6 -4 -25 -4 -46c0 -18 2 -38 10 -50c5 -7 7 -16 7 -24c0 -13 -6 -24 -15 -24 c-5 0 -12 5 -19 17c-12 21 -24 38 -24 96c0 77 23 115 54 151c38 44 26 28 65 68l1 -1c0 3 -16 27 -60 79c-19 22 -58 58 -58 145c0 76 30 100 53 123c25 25 57 38 102 38c62 0 110 -83 110 -168c0 -13 -2 -26 -4 -39c-10 -52 -83 -130 -111 -163c24 -38 8 -3 55 -91 c34 -63 42 -84 42 -119c0 -10 -1 -22 -2 -37c-4 -63 -11 -76 -20 -116c7 0 12 1 21 -1c14 -4 20 -11 20 -19c0 -19 -30 -19 -52 -24c-6 -13 -67 -174 -67 -181c0 -2 9 -4 19 -4c25 0 41 21 56 73c8 28 14 39 22 39s10 -8 10 -19z"/></symbol><symbol id="E911-10rdn4f" viewBox="0 0 1000 1000" overflow="inherit"><path transform="scale(1,-1)" d="M36 0c0 -113 91 -204 204 -204s204 91 204 204s-91 204 -204 204s-204 -91 -204 -204zM0 0c0 132 108 240 240 240s240 -108 240 -240s-108 -240 -240 -240s-240 108 -240 240z"/></symbol></defs><style type="text/css">g.page-margin{font-family:Times;} g.ending, g.fing, g.reh, g.tempo{font-weight:bold;} g.dir, g.dynam, g.mNum{font-style:italic;} g.label{font-weight:normal;}</style><svg class="definition-scale" color="black" viewBox="0 0 10980 4600"><g class="page-margin" transform="translate(500, 500)"><g data-id="m1rqucuc" data-class="mdiv" class="mdiv pageMilestone"/><g data-id="sdtwort" data-class="score" class="score pageMilestone"/><g data-id="sdsydet" data-class="system" class="system"><path d="M1881 540 L1881 3060" stroke="currentColor" stroke-width="27"/><g data-id="l19ynm17" data-class="label" class="label"><text x="1688" y="990" text-anchor="end" font-size="0px"><tspan data-id="t6dgfcm" data-class="text" class="text"><tspan font-size="405px" class="text">voice</tspan></tspan></text></g><g data-id="l1e2ckwi" data-class="label" class="label"><text x="1688" y="2790" text-anchor="end" font-size="0px"><tspan data-id="to3mpew" data-class="text" class="text"><tspan font-size="405px" class="text">reference</tspan></tspan></text></g><g data-id="s12zxrds" data-class="section" class="section systemMilestone"/><g data-id="s843r3g" data-class="staff" class="staff"><path d="M1868 540 L9985 540" stroke="currentColor" stroke-width="13"/><path d="M1868 720 L9985 720" stroke="currentColor" stroke-width="13"/><path d="M1868 900 L9985 900" stroke="currentColor" stroke-width="13"/><path d="M1868 1080 L9985 1080" stroke="currentColor" stroke-width="13"/><path d="M1868 1260 L9985 1260" stroke="currentColor" stroke-width="13"/><g data-id="cstv04c" data-class="clef" class="clef"><use href="#E901-10rdn4f" x="1985" y="1080" height="720px" width="720px"/></g><g data-id="k1e0fnrk" data-class="keySig" class="keySig"/><g data-id="m16bnqf6" data-class="mensur" class="mensur"><use href="#E911-10rdn4f" x="2357" y="900" height="720px" width="720px"/><use href="#E925-10rdn4f" x="2517" y="900" height="720px" width="720px"/></g><g data-id="lkwjpzt" data-class="layer" class="layer"><g data-id="n1119sc9" data-class="note" class="note"><g data-class="notehead" class="notehead"><polygon points="2990,1170 3186,1170 3186,1220 2990,1220"/><polygon points="2990,1350 3186,1350 3186,1300 2990,1300"/><rect x="2972" y="1140" height="240" width="18"/></g><g data-class="stem" class="stem"><rect x="3186" y="1140" height="750" width="18"/></g></g><g data-id="bypdbni" data-class="barLine" class="barLine"><ellipse cx="8725" cy="630" rx="27" ry="27"/><ellipse cx="8725" cy="810" rx="27" ry="27"/><ellipse cx="8725" cy="990" rx="27" ry="27"/><ellipse cx="8725" cy="1170" rx="27" ry="27"/></g><g data-id="naaduxt" data-class="note" class="note"><g data-class="notehead" class="notehead"><use href="#E93C-10rdn4f" x="8842" y="1260" height="720px" width="720px"/></g></g><g data-id="b1ml446y" data-class="barLine" class="barLine"><path d="M9972 540 L9972 1260" stroke="currentColor" stroke-width="27" stroke-dasharray="102 102"/></g></g></g><g data-id="skog9no" data-class="staff" class="staff"><path d="M1868 2340 L9985 2340" stroke="currentColor" stroke-width="13"/><path d="M1868 2520 L9985 2520" stroke="currentColor" stroke-width="13"/><path d="M1868 2700 L9985 2700" stroke="currentColor" stroke-width="13"/><path d="M1868 2880 L9985 2880" stroke="currentColor" stroke-width="13"/><path d="M1868 3060 L9985 3060" stroke="currentColor" stroke-width="13"/><g data-id="csjgtfq" data-class="clef" class="clef"><use href="#E901-10rdn4f" x="1985" y="2880" height="720px" width="720px"/></g><g data-id="k1ifeylx" data-class="keySig" class="keySig"/><g data-id="m1w1ulg" data-class="mensur" class="mensur"><use href="#E911-10rdn4f" x="2357" y="2700" height="720px" width="720px"/><use href="#E925-10rdn4f" x="2517" y="2700" height="720px" width="720px"/></g><g data-id="l12dtjsq" data-class="layer" class="layer"><g data-id="n1qzwlko" data-class="note" class="note"><g data-class="notehead" class="notehead"><use href="#E93C-10rdn4f" x="2972" y="2790" height="720px" width="720px"/></g></g><g data-id="n10ysnt4" data-class="note" class="note"><g data-class="notehead" class="notehead"><use href="#E93C-10rdn4f" x="4102" y="2790" height="720px" width="720px"/></g></g><g data-id="ngiqshq" data-class="note" class="note"><g data-class="notehead" class="notehead"><use href="#E93C-10rdn4f" x="5232" y="2790" height="720px" width="720px"/></g></g><g data-id="b1rvudm8" data-class="barLine" class="barLine"><path d="M6362 2340 L6362 3060" stroke="currentColor" stroke-width="27" stroke-dasharray="102 102"/></g><g data-id="n7rtes2" data-class="note" class="note"><g data-class="notehead" class="notehead"><use href="#E93C-10rdn4f" x="6465" y="2790" height="720px" width="720px"/></g></g><g data-id="n1eoqulq" data-class="note" class="note"><g data-class="notehead" class="notehead"><use href="#E93C-10rdn4f" x="7595" y="2790" height="720px" width="720px"/></g></g><g data-id="nfo688d" data-class="note" class="note"><g data-class="notehead" class="notehead"><use href="#E93C-10rdn4f" x="8842" y="2790" height="720px" width="720px"/></g></g><g data-id="b1ne6aq" data-class="barLine" class="barLine"><path d="M9972 2340 L9972 3060" stroke="currentColor" stroke-width="27" stroke-dasharray="102 102"/></g></g></g><g data-id="s1nczrdj" data-class="systemMilestoneEnd" class="systemMilestoneEnd s12zxrds"/></g><g data-id="p8h8g8t" data-class="pageMilestoneEnd" class="pageMilestoneEnd sdtwort"/><g data-id="p1q80zv7" data-class="pageMilestoneEnd" class="pageMilestoneEnd m1rqucuc"/></g></svg></svg>