<svg viewBox="0 0 130 46" version="1.1" xmlns="http://www.w3.org/2000/svg" xmlns:xlink="http://www.w3.org/1999/xlink" xmlns:mei="http://www.music-encoding.org/ns/mei" overflow="visible"><desc>Engraved by Verovio 3.15.0-5abc7c0</desc><defs><symbol id="E925-1g45iqc" viewBox="0 0 1000 1000" overflow="inherit"><path transform="scale(1,-1)" d="M0 408h36v-816h-36v816z"/></symbol><symbol id="E901-1g45iqc" viewBox="0 0 1000 1000" overflow="inherit"><path transform="scale(1,-1)" d="M144 488c30 28 83 110 83 176c0 77 -39 150 -104 150c-15 0 -33 -6 -61 -34c-15 -15 -23 -44 -23 -79c0 -44 14 -96 43 -133c23 -29 44 -58 62 -80zM159 69c-57 0 -104 -31 -104 -98c0 -61 35 -63 51 -75c8 0 23 52 39 92l32 80c-6 1 -12 1 -18 1zM256 -25 c0 -76 -24 -122 -98 -122h-3c-28 0 -66 7 -84 15c-38 17 -71 55 -71 112c0 55 56 114 124 123c25 3 49 8 61 8c12 33 26 89 26 128c0 104 -55 180 -76 211c-51 -65 -79 -110 -90 -178c-1 -6 -4 -25 -4 -46c0 -18 2 -38 10 -50c5 -7 7 -16 7 -24c0 -13 -6 -24 -15 -24 c-5 0 -12 5 -19 17c-12 21 -24 38 -24 96c0 77 23 115 54 151c38 44 26 28 65 68l1 -1c0 3 -16 27 -60 79c-19 22 -58 58 -58 145c0 76 30 100 53 123c25 25 57 38 102 38c62 0 110 -83 110 -168c0 -13 -2 -26 -4 -39c-10 -52 -83 -130 -111 -163c24 -38 8 -3 55 -91 c34 -63 42 -84 42 -119c0 -10 -1 -22 -2 -37c-4 -63 -11 -76 -20 -116c7 0 12 1 21 -1c14 -4 20 -11 20 -19c0 -19 -30 -19 -52 -24c-6 -13 -67 -174 -67 -181c0 -2 9 -4 19 -4c25 0 41 21 56 73c8 28 14 39 22 39s10 -8 10 -19z"/></symbol><symbol id="E915-1g45iqc" viewBox="0 0 1000 1000" overflow="inherit"><path transform="scale(1,-1)" d="M421 96c-46 77 -101 108 -181 108c-113 0 -204 -91 -204 -204s91 -204 204 -204c78 0 129 34 177 110l33 -22c-41 -74 -120 -124 -210 -124c-132 0 -240 108 -240 240s108 240 240 240c89 0 163 -45 209 -122z"/></symbol></defs><style type="text/css">g.page-margin{font-family:Times;} g.ending, g.fing, g.reh, g.tempo{font-weight:bold;} g.dir, g.dynam, g.mNum{font-style:italic;} g.label{font-weight:normal;}</style><svg class="definition-scale" color="black" viewBox="0 0 12910 4600"><g class="page-margin" transform="translate(500, 500)"><g data-id="m1omjxlz" data-class="mdiv" class="mdiv pageMilestone"/><g data-id="s7lv1qh" data-class="score" class="score pageMilestone"/><g data-id="ssclaa6" data-class="system" class="system"><path d="M1881 540 L1881 3060" stroke="currentColor" stroke-width="27"/><g data-id="l1l2viz1" data-class="label" class="label"><text x="1688" y="990" text-anchor="end" font-size="0px"><tspan data-id="t1kzqyga" data-class="text" class="text"><tspan font-size="405px" class="text">voice</tspan></tspan></text></g><g data-id="litqg2i" data-class="label" class="label"><text x="1688" y="2790" text-anchor="end" font-size="0px"><tspan data-id="t19f7lsw" data-class="text" class="text"><tspan font-size="405px" class="text">reference</tspan></tspan></text></g><g data-id="s1b7ani3" data-class="section" class="section systemMilestone"/><g data-id="sny1har" data-class="staff" class="staff"><path d="M1868 540 L9534 540" stroke="currentColor" stroke-width="13"/><path d="M1868 720 L9534 720" stroke="currentColor" stroke-width="13"/><path d="M1868 900 L9534 900" stroke="currentColor" stroke-width="13"/><path d="M1868 1080 L9534 1080" stroke="currentColor" stroke-width="13"/><path d="M1868 1260 L9534 1260" stroke="currentColor" stroke-width="13"/><g data-id="cpqliwz" data-class="clef" class="clef"><use href="#E901-1g45iqc" x="1985" y="1080" height="720px" width="720px"/></g><g data-id="kbr0l3y" data-class="keySig" class="keySig"/><g data-id="mmldcia" data-class="mensur" class="mensur"><use href="#E915-1g45iqc" x="2357" y="900" height="720px" width="720px"/><use href="#E925-1g45iqc" x="2517" y="900" height="720px" width="720px"/></g><g data-id="l1flnf7" data-class="layer" class="layer"><g data-id="nff8ssm" data-class="note" class="note"><g data-class="notehead" class="notehead"><polygon points="2969,1170 3165,1170 3165,1220 2969,1220"/><polygon points="2969,1350 3165,1350 3165,1300 2969,1300"/><rect x="2951" y="1140" height="240" width="18"/></g><g data-class="stem" class="stem"><rect x="3165" y="1140" height="750" width="18"/></g></g><g data-id="d14fmz2d" data-class="dot" class="dot"><polygon points="6307,1170 6352,1125 6397,1170 6352,1215"/></g><g data-id="bb2yztr" data-class="barLine" class="barLine"><path d="M9521 540 L9521 1260" stroke="currentColor" stroke-width="27" stroke-dasharray="102 102"/></g></g></g><g data-id="s1k9ewl9" data-class="staff" class="staff"><path d="M1868 2340 L9534 2340" stroke="currentColor" stroke-width="13"/><path d="M1868 2520 L9534 2520" stroke="currentColor" stroke-width="13"/><path d="M1868 2700 L9534 2700" stroke="currentColor" stroke-width="13"/><path d="M1868 2880 L9534 2880" stroke="currentColor" stroke-width="13"/><path d="M1868 3060 L9534 3060" stroke="currentColor" stroke-width="13"/><g data-id="cna0oil" data-class="clef" class="clef"><use href="#E901-1g45iqc" x="1985" y="2880" height="720px" width="720px"/></g><g data-id="kh3bh4p" data-class="keySig" class="keySig"/><g data-id="m1jbxv5t" data-class="mensur" class="mensur"><use href="#E915-1g45iqc" x="2357" y="2700" height="720px" width="720px"/><use href="#E925-1g45iqc" x="2517" y="2700" height="720px" width="720px"/></g><g data-id="l1dblncf" data-class="layer" class="layer"><g data-id="nseinxw" data-class="note" class="note"><g data-class="notehead" class="notehead"><polygon points="2969,2700 3165,2700 3165,2750 2969,2750"/><polygon points="2969,2880 3165,2880 3165,2830 2969,2830"/><rect x="2951" y="2670" height="240" width="18"/><rect x="3165" y="2670" height="240" width="18"/></g></g><g data-id="nbo5zjw" data-class="note" class="note"><g data-class="notehead" class="notehead"><polygon points="5159,2700 5355,2700 5355,2750 5159,2750"/><polygon points="5159,2880 5355,2880 5355,2830 5159,2830"/><rect x="5141" y="2670" height="240" width="18"/><rect x="5355" y="2670" height="240" width="18"/></g></g><g data-id="n1avinxm" data-class="note" class="note"><g data-class="notehead" class="notehead"><polygon points="7349,2700 7545,2700 7545,2750 7349,2750"/><polygon points="7349,2880 7545,2880 7545,2830 7349,2830"/><rect x="7331" y="2670" height="240" width="18"/><rect x="7545" y="2670" height="240" width="18"/></g></g><g data-id="b15j9gui" data-class="barLine" class="barLine"><path d="M9521 2340 L9521 3060" stroke="currentColor" stroke-width="27" stroke-dasharray="102 102"/></g></g></g><g data-id="s1tdco1a" data-class="staff" class="staff"><path d="M9534 540 L11917 540" stroke="currentColor" stroke-width="13"/><path d="M9534 720 L11917 720" stroke="currentColor" stroke-width="13"/><path d="M9534 900 L11917 900" stroke="currentColor" stroke-width="13"/><path d="M9534 1080 L11917 1080" stroke="currentColor" stroke-width="13"/><path d="M9534 1260 L11917 1260" stroke="currentColor" stroke-width="13"/><g data-id="lp313z9" data-class="layer" class="layer"><g data-id="n10p7fvx" data-class="note" class="note"><g data-class="notehead" class="notehead"><polygon points="9732,1170 9928,1170 9928,1220 9732,1220"/><polygon points="9732,1350 9928,1350 9928,1300 9732,1300"/><rect x="9714" y="1140" height="240" width="18"/><rect x="9928" y="1140" height="240" width="18"/></g></g><g data-id="b3yqq3s" data-class="barLine" class="barLine"><path d="M11904 540 L11904 1260" stroke="currentColor" stroke-width="27" stroke-dasharray="102 102"/></g></g></g><g data-id="sgk0i16" data-class="staff" class="staff"><path d="M9534 2340 L11917 2340" stroke="currentColor" stroke-width="13"/><path d="M9534 2520 L11917 2520" stroke="currentColor" stroke-width="13"/><path d="M9534 2700 L11917 2700" stroke="currentColor" stroke-width="13"/><path d="M9534 2880 L11917 2880" stroke="currentColor" stroke-width="13"/><path d="M9534 3060 L11917 3060" stroke="currentColor" stroke-width="13"/><g data-id="l1i5223m" data-class="layer" class="layer"><g data-id="n1bvd9ks" data-class="note" class="note"><g data-class="notehead" class="notehead"><polygon points="9732,2700 9928,2700 9928,2750 9732,2750"/><polygon points="9732,2880 9928,2880 9928,2830 9732,2830"/><rect x="9714" y="2670" height="240" width="18"/><rect x="9928" y="2670" height="240" width="18"/></g></g><g data-id="b1afznmw" data-class="barLine" class="barLine"><path d="M11904 2340 L11904 3060" stroke="currentColor" stroke-width="27" stroke-dasharray="102 102"/></g></g></g><g data-id="s6c4uwk" data-class="systemMilestoneEnd" class="systemMilestoneEnd s1b7ani3"/></g><g data-id="pc8ms09" data-class="pageMilestoneEnd" class="pageMilestoneEnd s7lv1qh"/><g data-id="p1623rm0" data-class="pageMilestoneEnd" class="pageMilestoneEnd m1omjxlz"/></g></svg></svg>