<svg viewBox="0 0 155 82" version="1.1" xmlns="http://www.w3.org/2000/svg" xmlns:xlink="http://www.w3.org/1999/xlink" xmlns:mei="http://www.music-encoding.org/ns/mei" overflow="visible"><desc>Engraved by Verovio 3.15.0-5abc7c0</desc><defs><symbol id="E925-vffujq" viewBox="0 0 1000 1000" overflow="inherit"><path transform="scale(1,-1)" d="M0 408h36v-816h-36v816z"/></symbol><symbol id="E93C-vffujq" viewBox="0 0 1000 1000" overflow="inherit"><path transform="scale(1,-1)" d="M156 195l156 -195l-156 -195l-156 195zM127 110l-57 -71l115 -149l57 71z"/></symbol><symbol id="E904-vffujq" viewBox="0 0 1000 1000" overflow="inherit"><path transform="scale(1,-1)" d="M428 -39l-54 -67l112 -138l52 66zM428 249l-54 -67l112 -138l52 66zM455 325l142 -178l-115 -144l115 -144l-129 -162v-580h-30v585l-127 157l116 144l-116 144zM232 -50v108h-199v-108h199zM266 -808h-34v693h-199v-93h-33v417h33v-86h199v86h34v-1017z"/></symbol><symbol id="E907-vffujq" viewBox="0 0 1000 1000" overflow="inherit"><path transform="scale(1,-1)" d="M2 206l2 431c0 12 7 17 14 17c8 0 17 -7 17 -17l3 -204l2 -315h79h8c11 0 30 1 35 6c8 8 8 139 8 192v27l4 222s-1 20 19 20s12 -20 12 -20v-244s-1 -200 -1 -246c-1 -8 -1 -12 -4 -19c-7 -7 -8 -7 -16 -7c-45 0 -71 3 -71 3l-69 -3v-49v-48l64 -3l82 -5s5 0 8 -3 s5 -7 5 -7l1 -62v-154s0 -20 -13 -20c-10 0 -14 5 -16 14l-7 138l-2 19s0 4 -3 7s-9 2 -9 2h-40h-70l-3 -28l-3 -132s0 -20 -15 -20c-17 0 -19 17 -19 17c-1 22 -3 96 -3 336c0 49 1 100 1 155z"/></symbol><symbol id="E909-vffujq" viewBox="0 0 1000 1000" overflow="inherit"><path transform="scale(1,-1)" d="M2 206l2 431c0 12 7 17 14 17c8 0 17 -7 17 -17l3 -204l2 -315h79h8c11 0 30 1 35 6c8 8 8 69 8 122v27l4 222s-1 20 19 20s12 -20 12 -20v-244s-1 -130 -1 -176c-1 -8 -1 -12 -4 -19c-7 -7 -8 -7 -16 -7c-45 0 -71 3 -71 3l-69 -3v-49v-48l64 -3l82 -5s5 0 8 -3 s5 -7 5 -7l1 -262v-154s0 -20 -13 -20c-10 0 -14 5 -16 14l-7 138l-2 219s0 4 -3 7s-9 2 -9 2h-40h-70l-3 -378l-3 -132s0 -20 -15 -20c-17 0 -19 17 -19 17c-1 22 -3 446 -3 686c0 49 1 100 1 155z"/></symbol><symbol id="E90A-vffujq" viewBox="0 0 1000 1000" overflow="inherit"><path transform="scale(1,-1)" d="M2 -206c0 55 -1 106 -1 155c0 240 2 404 3 426c0 0 2 17 19 17c15 0 15 -20 15 -20l3 -132l3 -118h70h40s6 -1 9 2s3 7 3 7l2 109l7 138c2 9 6 14 16 14c13 0 13 -20 13 -20v-154l-1 -152s-2 -4 -5 -7s-8 -3 -8 -3l-82 -5l-64 -3v-48v-49l69 -3s26 3 71 3c8 0 9 0 16 -7 c3 -7 3 -11 4 -19c0 -46 1 -226 1 -226v-244s8 -20 -12 -20s-19 20 -19 20l-4 222v27c0 53 0 164 -8 172c-5 5 -24 6 -35 6h-8h-79l-2 -315l-3 -204c0 -10 -9 -17 -17 -17c-7 0 -14 5 -14 17z"/></symbol><symbol id="E915-vffujq" viewBox="0 0 1000 1000" overflow="inherit"><path transform="scale(1,-1)" d="M421 96c-46 77 -101 108 -181 108c-113 0 -204 -91 -204 -204s91 -204 204 -204c78 0 129 34 177 110l33 -22c-41 -74 -120 -124 -210 -124c-132 0 -240 108 -240 240s108 240 240 240c89 0 163 -45 209 -122z"/></symbol></defs><style type="text/css">g.page-margin{font-family:Times;} g.ending, g.fing, g.reh, g.tempo{font-weight:bold;} g.dir, g.dynam, g.mNum{font-style:italic;} g.label{font-weight:normal;}</style><svg class="definition-scale" color="black" viewBox="0 0 15440 8200"><g class="page-margin" transform="translate(500, 500)"><g data-id="m1v9wktx" data-class="mdiv" class="mdiv pageMilestone"/><g data-id="s1ed1a2l" data-class="score" class="score pageMilestone"/><g data-id="s1o1zjsb" data-class="system" class="system"><path d="M1501 540 L1501 6660" stroke="currentColor" stroke-width="27"/><g data-id="l47cf2q" data-class="label" class="label"><text x="1308" y="990" text-anchor="end" font-size="0px"><tspan data-id="t68c2lv" data-class="text" class="text"><tspan font-size="405px" class="text">Cantus</tspan></tspan></text></g><g data-id="lt5bltm" data-class="label" class="label"><text x="1308" y="2790" text-anchor="end" font-size="0px"><tspan data-id="t1pfnibf" data-class="text" class="text"><tspan font-size="405px" class="text">Tenor</tspan></tspan></text></g><g data-id="la2b6c2" data-class="label" class="label"><text x="1308" y="4590" text-anchor="end" font-size="0px"><tspan data-id="toz3fbm" data-class="text" class="text"><tspan font-size="405px" class="text">Altus</tspan></tspan></text></g><g data-id="l1lv4nlw" data-class="label" class="label"><text x="1308" y="6390" text-anchor="end" font-size="0px"><tspan data-id="tad7hrm" data-class="text" class="text"><tspan font-size="405px" class="text">Bassus</tspan></tspan></text></g><g data-id="s1y4w34l" data-class="section" class="section systemMilestone"/><g data-id="silwxhh" data-class="staff" class="staff"><path d="M1488 540 L14448 540" stroke="currentColor" stroke-width="13"/><path d="M1488 720 L14448 720" stroke="currentColor" stroke-width="13"/><path d="M1488 900 L14448 900" stroke="currentColor" stroke-width="13"/><path d="M1488 1080 L14448 1080" stroke="currentColor" stroke-width="13"/><path d="M1488 1260 L14448 1260" stroke="currentColor" stroke-width="13"/><g data-id="c1f3lpd8" data-class="clef" class="clef"><use href="#E907-vffujq" x="1605" y="1260" height="720px" width="720px"/></g><g data-id="k8sih30" data-class="keySig" class="keySig"/><g data-id="mqsw8ff" data-class="mensur" class="mensur"><use href="#E915-vffujq" x="2214" y="900" height="720px" width="720px"/><use href="#E925-vffujq" x="2374" y="900" height="720px" width="720px"/></g><g data-id="l1r2fkge" data-class="layer" class="layer"><g data-id="n1icw7t9" data-class="note" class="note"><g data-class="notehead" class="notehead"><polygon points="2826,630 3022,630 3022,680 2826,680"/><polygon points="2826,810 3022,810 3022,760 2826,760"/><rect x="2808" y="600" height="240" width="18"/><rect x="3022" y="600" height="240" width="18"/></g></g><g data-id="n2io191" data-class="note" class="note"><g data-class="notehead" class="notehead"><polygon points="5016,630 5212,630 5212,680 5016,680"/><polygon points="5016,810 5212,810 5212,760 5016,760"/><rect x="4998" y="600" height="240" width="18"/><rect x="5212" y="600" height="240" width="18"/></g></g><g data-id="n1ib4tjk" data-class="note" class="note"><g data-class="notehead" class="notehead"><polygon points="7206,720 7402,720 7402,770 7206,770"/><polygon points="7206,900 7402,900 7402,850 7206,850"/><rect x="7188" y="690" height="240" width="18"/><rect x="7402" y="690" height="240" width="18"/></g></g><g data-id="ngd7wqp" data-class="note" class="note"><g data-class="notehead" class="notehead"><polygon points="9396,810 9592,810 9592,860 9396,860"/><polygon points="9396,990 9592,990 9592,940 9396,940"/><rect x="9378" y="780" height="240" width="18"/><rect x="9592" y="780" height="240" width="18"/></g></g><g data-id="n12uwbgl" data-class="note" class="note"><g data-class="notehead" class="notehead"><use href="#E93C-vffujq" x="11568" y="900" height="720px" width="720px"/></g></g><g data-id="n17rm15n" data-class="note" class="note"><g data-class="notehead" class="notehead"><use href="#E93C-vffujq" x="13008" y="900" height="720px" width="720px"/></g></g></g></g><g data-id="scs9g7z" data-class="staff" class="staff"><path d="M1488 2340 L14448 2340" stroke="currentColor" stroke-width="13"/><path d="M1488 2520 L14448 2520" stroke="currentColor" stroke-width="13"/><path d="M1488 2700 L14448 2700" stroke="currentColor" stroke-width="13"/><path d="M1488 2880 L14448 2880" stroke="currentColor" stroke-width="13"/><path d="M1488 3060 L14448 3060" stroke="currentColor" stroke-width="13"/><g data-id="carqaus" data-class="clef" class="clef"><use href="#E90A-vffujq" x="1605" y="2520" height="720px" width="720px"/></g><g data-id="kwu9ih4" data-class="keySig" class="keySig"/><g data-id="m1i30i8o" data-class="mensur" class="mensur"><use href="#E915-vffujq" x="2214" y="2700" height="720px" width="720px"/><use href="#E925-vffujq" x="2374" y="2700" height="720px" width="720px"/></g><g data-id="l17uob6s" data-class="layer" class="layer"><g data-id="n1abrqoc" data-class="note" class="note"><g data-class="notehead" class="notehead"><polygon points="2826,2700 3022,2700 3022,2750 2826,2750"/><polygon points="2826,2880 3022,2880 3022,2830 2826,2830"/><rect x="2808" y="2670" height="240" width="18"/><rect x="3022" y="2670" height="240" width="18"/></g></g><g data-id="nvywipr" data-class="note" class="note"><g data-class="notehead" class="notehead"><polygon points="5016,2520 5212,2520 5212,2570 5016,2570"/><polygon points="5016,2700 5212,2700 5212,2650 5016,2650"/><rect x="4998" y="2490" height="240" width="18"/><rect x="5212" y="2490" height="240" width="18"/></g></g><g data-id="n1iulh1s" data-class="note" class="note"><g data-class="notehead" class="notehead"><polygon points="7206,2430 7402,2430 7402,2480 7206,2480"/><polygon points="7206,2610 7402,2610 7402,2560 7206,2560"/><rect x="7188" y="2400" height="240" width="18"/><rect x="7402" y="2400" height="240" width="18"/></g></g><g data-id="n1rn8do8" data-class="note" class="note"><g data-class="notehead" class="notehead"><polygon points="9396,2430 9592,2430 9592,2480 9396,2480"/><polygon points="9396,2610 9592,2610 9592,2560 9396,2560"/><rect x="9378" y="2400" height="240" width="18"/><rect x="9592" y="2400" height="240" width="18"/></g></g><g data-id="ntkvm9n" data-class="note" class="note"><g data-class="notehead" class="notehead"><use href="#E93C-vffujq" x="11568" y="2520" height="720px" width="720px"/></g></g><g data-id="n1xkt4l8" data-class="note" class="note"><g data-class="notehead" class="notehead"><use href="#E93C-vffujq" x="13008" y="2520" height="720px" width="720px"/></g></g></g></g><g data-id="s1ynqwxz" data-class="staff" class="staff"><path d="M1488 4140 L14448 4140" stroke="currentColor" stroke-width="13"/><path d="M1488 4320 L14448 4320" stroke="currentColor" stroke-width="13"/><path d="M1488 4500 L14448 4500" stroke="currentColor" stroke-width="13"/><path d="M1488 4680 L14448 4680" stroke="currentColor" stroke-width="13"/><path d="M1488 4860 L14448 4860" stroke="currentColor" stroke-width="13"/><g data-id="cn78sjx" data-class="clef" class="clef"><use href="#E909-vffujq" x="1605" y="4500" height="720px" width="720px"/></g><g data-id="ksmkfdc" data-class="keySig" class="keySig"/><g data-id="mjprjg0" data-class="mensur" class="mensur"><use href="#E915-vffujq" x="2214" y="4500" height="720px" width="720px"/><use href="#E925-vffujq" x="2374" y="4500" height="720px" width="720px"/></g><g data-id="l1k8jdie" data-class="layer" class="layer"><g data-id="nil8hjh" data-class="note" class="note"><g data-class="notehead" class="notehead"><polygon points="2826,4320 3022,4320 3022,4370 2826,4370"/><polygon points="2826,4500 3022,4500 3022,4450 2826,4450"/><rect x="2808" y="4290" height="240" width="18"/><rect x="3022" y="4290" height="240" width="18"/></g></g><g data-id="n1pzl20h" data-class="note" class="note"><g data-class="notehead" class="notehead"><polygon points="5016,4320 5212,4320 5212,4370 5016,4370"/><polygon points="5016,4500 5212,4500 5212,4450 5016,4450"/><rect x="4998" y="4290" height="240" width="18"/><rect x="5212" y="4290" height="240" width="18"/></g></g><g data-id="n11wlxi8" data-class="note" class="note"><g data-class="notehead" class="notehead"><polygon points="7206,4140 7402,4140 7402,4190 7206,4190"/><polygon points="7206,4320 7402,4320 7402,4270 7206,4270"/><rect x="7188" y="4110" height="240" width="18"/><rect x="7402" y="4110" height="240" width="18"/></g></g><g data-id="n1jb1c4e" data-class="note" class="note"><g data-class="notehead" class="notehead"><polygon points="9396,4230 9592,4230 9592,4280 9396,4280"/><polygon points="9396,4410 9592,4410 9592,4360 9396,4360"/><rect x="9378" y="4200" height="240" width="18"/><rect x="9592" y="4200" height="240" width="18"/></g></g><g data-id="n1yt9kk9" data-class="note" class="note"><g data-class="notehead" class="notehead"><use href="#E93C-vffujq" x="11568" y="4320" height="720px" width="720px"/></g></g><g data-id="n1pwjswz" data-class="note" class="note"><g data-class="notehead" class="notehead"><use href="#E93C-vffujq" x="13008" y="4320" height="720px" width="720px"/></g></g></g></g><g data-id="s1isaarq" data-class="staff" class="staff"><path d="M1488 5940 L14448 5940" stroke="currentColor" stroke-width="13"/><path d="M1488 6120 L14448 6120" stroke="currentColor" stroke-width="13"/><path d="M1488 6300 L14448 6300" stroke="currentColor" stroke-width="13"/><path d="M1488 6480 L14448 6480" stroke="currentColor" stroke-width="13"/><path d="M1488 6660 L14448 6660" stroke="currentColor" stroke-width="13"/><g data-id="cevrgg7" data-class="clef" class="clef"><use href="#E904-vffujq" x="1605" y="6120" height="720px" width="720px"/></g><g data-id="kh6nnj2" data-class="keySig" class="keySig"/><g data-id="majd4oc" data-class="mensur" class="mensur"><use href="#E915-vffujq" x="2214" y="6300" height="720px" width="720px"/><use href="#E925-vffujq" x="2374" y="6300" height="720px" width="720px"/></g><g data-id="l1xc2r8e" data-class="layer" class="layer"><g data-id="n1299t2w" data-class="note" class="note"><g data-class="notehead" class="notehead"><polygon points="2826,6570 3022,6570 3022,6620 2826,6620"/><polygon points="2826,6750 3022,6750 3022,6700 2826,6700"/><rect x="2808" y="6540" height="240" width="18"/><rect x="3022" y="6540" height="240" width="18"/></g></g><g data-id="n1oi87g0" data-class="note" class="note"><g data-class="notehead" class="notehead"><polygon points="5016,5940 5212,5940 5212,5990 5016,5990"/><polygon points="5016,6120 5212,6120 5212,6070 5016,6070"/><rect x="4998" y="5910" height="240" width="18"/><rect x="5212" y="5910" height="240" width="18"/></g></g><g data-id="n13gk9af" data-class="note" class="note"><g data-class="notehead" class="notehead"><polygon points="7206,5940 7402,5940 7402,5990 7206,5990"/><polygon points="7206,6120 7402,6120 7402,6070 7206,6070"/><rect x="7188" y="5910" height="240" width="18"/><rect x="7402" y="5910" height="240" width="18"/></g></g><g data-id="n6tx3hl" data-class="note" class="note"><g data-class="notehead" class="notehead"><polygon points="9396,6300 9592,6300 9592,6350 9396,6350"/><polygon points="9396,6480 9592,6480 9592,6430 9396,6430"/><rect x="9378" y="6270" height="240" width="18"/><rect x="9592" y="6270" height="240" width="18"/></g></g><g data-id="nn46h7d" data-class="note" class="note"><g data-class="notehead" class="notehead"><use href="#E93C-vffujq" x="11568" y="6390" height="720px" width="720px"/></g></g><g data-id="no3pzpz" data-class="note" class="note"><g data-class="notehead" class="notehead"><use href="#E93C-vffujq" x="13008" y="6390" height="720px" width="720px"/></g></g></g></g><g data-id="s158cufs" data-class="systemMilestoneEnd" class="systemMilestoneEnd s1y4w34l"/></g><g data-id="p8xpyyy" data-class="pageMilestoneEnd" class="pageMilestoneEnd s1ed1a2l"/><g data-id="p3o2bdv" data-class="pageMilestoneEnd" class="pageMilestoneEnd m1v9wktx"/></g></svg></svg>