<svg viewBox="0 0 111 46" version="1.1" xmlns="http://www.w3.org/2000/svg" xmlns:xlink="http://www.w3.org/1999/xlink" xmlns:mei="http://www.music-encoding.org/ns/mei" overflow="visible"><desc>Engraved by Verovio 3.15.0-5abc7c0</desc><defs><symbol id="E925-1koaawi" viewBox="0 0 1000 1000" overflow="inherit"><path transform="scale(1,-1)" d="M0 408h36v-816h-36v816z"/></symbol><symbol id="E93C-1koaawi" viewBox="0 0 1000 1000" overflow="inherit"><path transform="scale(1,-1)" d="M156 195l156 -195l-156 -195l-156 195zM127 110l-57 -71l115 -149l57 71z"/></symbol><symbol id="E901-1koaawi" viewBox="0 0 1000 1000" overflow="inherit"><path transform="scale(1,-1)" d="M144 488c30 28 83 110 83 176c0 77 -39 150 -104 150c-15 0 -33 -6 -61 -34c-15 -15 -23 -44 -23 -79c0 -44 14 -96 43 -133c23 -29 44 -58 62 -80zM159 69c-57 0 -104 -31 -104 -98c0 -61 35 -63 51 -75c8 0 23 52 39 92l32 80c-6 1 -12 1 -18 1zM256 -25 c0 -76 -24 -122 -98 -122h-3c-28 0 -66 7 -84 15c-38 17 -71 55 -71 112c0 55 56 114 124 123c25 3 49 8 61 8c12 33 26 89 26 128c0 104 -55 180 -76 211c-51 -65 -79 -110 -90 -178c-1 -6 -4 -25 -4 -46c0 -18 2 -38 10 -50c5 -7 7 -16 7 -24c0 -13 -6 -24 -15 -24 c-5 0 -12 5 -19 17c-12 21 -24 38 -24 96c0 77 23 115 54 151c38 44 26 28 65 68l1 -1c0 3 -16 27 -60 79c-19 22 -58 58 -58 145c0 76 30 100 53 123c25 25 57 38 102 38c62 0 110 -83 110 -168c0 -13 -2 -26 -4 -39c-10 -52 -83 -130 -111 -163c24 -38 8 -3 55 -91 c34 -63 42 -84 42 -119c0 -10 -1 -22 -2 -37c-4 -63 -11 -76 -20 -116c7 0 12 1 21 -1c14 -4 20 -11 20 -19c0 -19 -30 -19 -52 -24c-6 -13 -67 -174 -67 -181c0 -2 9 -4 19 -4c25 0 41 21 56 73c8 28 14 39 22 39s10 -8 10 -19z"/></symbol><symbol id="E911-1koaawi" viewBox="0 0 1000 1000" overflow="inherit"><path transform="scale(1,-1)" d="M36 0c0 -113 91 -204 204 -204s204 91 204 204s-91 204 -204 204s-204 -91 -204 -204zM0 0c0 132 108 240 240 240s240 -108 240 -240s-108 -240 -240 -240s-240 108 -240 240z"/></symbol></defs><style type="text/css">g.page-margin{font-family:Times;} g.ending, g.fing, g.reh, g.tempo{font-weight:bold;} g.dir, g.dynam, g.mNum{font-style:italic;} g.label{font-weight:normal;}</style><svg class="definition-scale" color="black" viewBox="0 0 11100 4600"><g class="page-margin" transform="translate(500, 500)"><g data-id="mcpvv3t" data-class="mdiv" class="mdiv pageMilestone"/><g data-id="s1fw8zk0" data-class="score" class="score pageMilestone"/><g data-id="s11fhayf" data-class="system" class="system"><path d="M1881 540 L1881 3060" stroke="currentColor" stroke-width="27"/><g data-id="l1jjcnff" data-class="label" class="label"><text x="1688" y="990" text-anchor="end" font-size="0px"><tspan data-id="t1d5qd6b" data-class="text" class="text"><tspan font-size="405px" class="text">voice</tspan></tspan></text></g><g data-id="lob8q5e" data-class="label" class="label"><text x="1688" y="2790" text-anchor="end" font-size="0px"><tspan data-id="t1ckhv7k" data-class="text" class="text"><tspan font-size="405px" class="text">reference</tspan></tspan></text></g><g data-id="scgo33q" data-class="section" class="section systemMilestone"/><g data-id="s164y0hg" data-class="staff" class="staff"><path d="M1868 540 L10102 540" stroke="currentColor" stroke-width="13"/><path d="M1868 720 L10102 720" stroke="currentColor" stroke-width="13"/><path d="M1868 900 L10102 900" stroke="currentColor" stroke-width="13"/><path d="M1868 1080 L10102 1080" stroke="currentColor" stroke-width="13"/><path d="M1868 1260 L10102 1260" stroke="currentColor" stroke-width="13"/><g data-id="c2zhqfh" data-class="clef" class="clef"><use href="#E901-1koaawi" x="1985" y="1080" height="720px" width="720px"/></g><g data-id="k1f7qhiq" data-class="keySig" class="keySig"/><g data-id="meh5gtp" data-class="mensur" class="mensur"><use href="#E911-1koaawi" x="2357" y="900" height="720px" width="720px"/><use href="#E925-1koaawi" x="2517" y="900" height="720px" width="720px"/></g><g data-id="l6b080f" data-class="layer" class="layer"><g data-id="nmwonvz" data-class="note" class="note"><g data-class="notehead" class="notehead"><use href="#E93C-1koaawi" x="2972" y="1260" height="720px" width="720px"/></g></g><g data-id="b11hn5b" data-class="barLine" class="barLine"><ellipse cx="4102" cy="630" rx="27" ry="27"/><ellipse cx="4102" cy="810" rx="27" ry="27"/><ellipse cx="4102" cy="990" rx="27" ry="27"/><ellipse cx="4102" cy="1170" rx="27" ry="27"/></g><g data-id="n1s2m0m8" data-class="note" class="note"><g data-class="notehead" class="notehead"><polygon points="4237,1170 4433,1170 4433,1220 4237,1220"/><polygon points="4237,1350 4433,1350 4433,1300 4237,1300"/><rect x="4219" y="1140" height="240" width="18"/></g><g data-class="stem" class="stem"><rect x="4433" y="1140" height="750" width="18"/></g></g><g data-id="b1kvnaa1" data-class="barLine" class="barLine"><ellipse cx="8842" cy="630" rx="27" ry="27"/><ellipse cx="8842" cy="810" rx="27" ry="27"/><ellipse cx="8842" cy="990" rx="27" ry="27"/><ellipse cx="8842" cy="1170" rx="27" ry="27"/></g><g data-id="nhbgbis" data-class="note" class="note"><g data-class="notehead" class="notehead"><use href="#E93C-1koaawi" x="8959" y="1260" height="720px" width="720px"/></g></g><g data-id="b1ilw09z" data-class="barLine" class="barLine"><path d="M10089 540 L10089 1260" stroke="currentColor" stroke-width="27" stroke-dasharray="102 102"/></g></g></g><g data-id="s1f0u9sk" data-class="staff" class="staff"><path d="M1868 2340 L10102 2340" stroke="currentColor" stroke-width="13"/><path d="M1868 2520 L10102 2520" stroke="currentColor" stroke-width="13"/><path d="M1868 2700 L10102 2700" stroke="currentColor" stroke-width="13"/><path d="M1868 2880 L10102 2880" stroke="currentColor" stroke-width="13"/><path d="M1868 3060 L10102 3060" stroke="currentColor" stroke-width="13"/><g data-id="cpntzs4" data-class="clef" class="clef"><use href="#E901-1koaawi" x="1985" y="2880" height="720px" width="720px"/></g><g data-id="k1s62z6b" data-class="keySig" class="keySig"/><g data-id="m1igu0l" data-class="mensur" class="mensur"><use href="#E911-1koaawi" x="2357" y="2700" height="720px" width="720px"/><use href="#E925-1koaawi" x="2517" y="2700" height="720px" width="720px"/></g><g data-id="l1o91kc9" data-class="layer" class="layer"><g data-id="n2n8vlq" data-class="note" class="note"><g data-class="notehead" class="notehead"><use href="#E93C-1koaawi" x="2972" y="2790" height="720px" width="720px"/></g></g><g data-id="nquo95a" data-class="note" class="note"><g data-class="notehead" class="notehead"><use href="#E93C-1koaawi" x="4219" y="2790" height="720px" width="720px"/></g></g><g data-id="n15lnbl9" data-class="note" class="note"><g data-class="notehead" class="notehead"><use href="#E93C-1koaawi" x="5349" y="2790" height="720px" width="720px"/></g></g><g data-id="btd12h6" data-class="barLine" class="barLine"><path d="M6479 2340 L6479 3060" stroke="currentColor" stroke-width="27" stroke-dasharray="102 102"/></g><g data-id="n18c1ypw" data-class="note" class="note"><g data-class="notehead" class="notehead"><use href="#E93C-1koaawi" x="6582" y="2790" height="720px" width="720px"/></g></g><g data-id="n1hwes7b" data-class="note" class="note"><g data-class="notehead" class="notehead"><use href="#E93C-1koaawi" x="7712" y="2790" height="720px" width="720px"/></g></g><g data-id="nj1h0pk" data-class="note" class="note"><g data-class="notehead" class="notehead"><use href="#E93C-1koaawi" x="8959" y="2790" height="720px" width="720px"/></g></g><g data-id="b19qsfx9" data-class="barLine" class="barLine"><path d="M10089 2340 L10089 3060" stroke="currentColor" stroke-width="27" stroke-dasharray="102 102"/></g></g></g><g data-id="st0tjao" data-class="systemMilestoneEnd" class="systemMilestoneEnd scgo33q"/></g><g data-id="p149wz72" data-class="pageMilestoneEnd" class="pageMilestoneEnd s1fw8zk0"/><g data-id="pgw2fsu" data-class="pageMilestoneEnd" class="pageMilestoneEnd mcpvv3t"/></g></svg></svg>