<svg viewBox="0 0 161 93" version="1.1" xmlns="http://www.w3.org/2000/svg" xmlns:xlink="http://www.w3.org/1999/xlink" xmlns:mei="http://www.music-encoding.org/ns/mei" overflow="visible"><desc>Engraved by Verovio 3.15.0-5abc7c0</desc><defs><symbol id="E901-1me50g" viewBox="0 0 1000 1000" overflow="inherit"><path transform="scale(1,-1)" d="M144 488c30 28 83 110 83 176c0 77 -39 150 -104 150c-15 0 -33 -6 -61 -34c-15 -15 -23 -44 -23 -79c0 -44 14 -96 43 -133c23 -29 44 -58 62 -80zM159 69c-57 0 -104 -31 -104 -98c0 -61 35 -63 51 -75c8 0 23 52 39 92l32 80c-6 1 -12 1 -18 1zM256 -25 c0 -76 -24 -122 -98 -122h-3c-28 0 -66 7 -84 15c-38 17 -71 55 -71 112c0 55 56 114 124 123c25 3 49 8 61 8c12 33 26 89 26 128c0 104 -55 180 -76 211c-51 -65 -79 -110 -90 -178c-1 -6 -4 -25 -4 -46c0 -18 2 -38 10 -50c5 -7 7 -16 7 -24c0 -13 -6 -24 -15 -24 c-5 0 -12 5 -19 17c-12 21 -24 38 -24 96c0 77 23 115 54 151c38 44 26 28 65 68l1 -1c0 3 -16 27 -60 79c-19 22 -58 58 -58 145c0 76 30 100 53 123c25 25 57 38 102 38c62 0 110 -83 110 -168c0 -13 -2 -26 -4 -39c-10 -52 -83 -130 -111 -163c24 -38 8 -3 55 -91 c34 -63 42 -84 42 -119c0 -10 -1 -22 -2 -37c-4 -63 -11 -76 -20 -116c7 0 12 1 21 -1c14 -4 20 -11 20 -19c0 -19 -30 -19 -52 -24c-6 -13 -67 -174 -67 -181c0 -2 9 -4 19 -4c25 0 41 21 56 73c8 28 14 39 22 39s10 -8 10 -19z"/></symbol></defs><style type="text/css">g.page-margin{font-family:Times;} g.ending, g.fing, g.reh, g.tempo{font-weight:bold;} g.dir, g.dynam, g.mNum{font-style:italic;} g.label{font-weight:normal;}</style><svg class="definition-scale" color="black" viewBox="0 0 16020 9210"><g class="page-margin" transform="translate(500, 500)"><g data-id="m13sv08e" data-class="mdiv" class="mdiv pageMilestone"/><g data-id="s1idksjg" data-class="score" class="score pageMilestone"/><g data-id="sq49sho" data-class="system" class="system"><path d="M1881 540 L1881 3060" stroke="currentColor" stroke-width="27"/><g data-id="l1b2oz5k" data-class="label" class="label"><text x="1688" y="990" text-anchor="end" font-size="0px"><tspan data-id="tvkjwxl" data-class="text" class="text"><tspan font-size="405px" class="text">voice</tspan></tspan></text></g><g data-id="l1jkf60g" data-class="label" class="label"><text x="1688" y="2790" text-anchor="end" font-size="0px"><tspan data-id="tz35mom" data-class="text" class="text"><tspan font-size="405px" class="text">reference</tspan></tspan></text></g><g data-id="s1bm7k25" data-class="section" class="section systemMilestone"/><g data-id="s1w0y6tf" data-class="staff" class="staff"><path d="M1868 540 L11739 540" stroke="currentColor" stroke-width="13"/><path d="M1868 720 L11739 720" stroke="currentColor" stroke-width="13"/><path d="M1868 900 L11739 900" stroke="currentColor" stroke-width="13"/><path d="M1868 1080 L11739 1080" stroke="currentColor" stroke-width="13"/><path d="M1868 1260 L11739 1260" stroke="currentColor" stroke-width="13"/><g data-id="cv3o5tw" data-class="clef" class="clef"><use href="#E901-1me50g" x="1985" y="1080" height="720px" width="720px"/></g><g data-id="kstt2e1" data-class="keySig" class="keySig"/><g data-id="l19yikg9" data-class="layer" class="layer"><g data-id="n1bti4ed" data-class="note" class="note"><g data-class="notehead" class="notehead"><polygon points="2465,1170 2661,1170 2661,1220 2465,1220"/><polygon points="2465,1350 2661,1350 2661,1300 2465,1300"/><rect x="2447" y="1140" height="240" width="18"/></g><g data-class="stem" class="stem"><rect x="2661" y="1140" height="750" width="18"/></g></g><g data-id="b1v43iaw" data-class="barLine" class="barLine"><path d="M11726 540 L11726 1260" stroke="currentColor" stroke-width="27" stroke-dasharray="102 102"/></g></g></g><g data-id="sm4btdr" data-class="staff" class="staff"><path d="M1868 2340 L11739 2340" stroke="currentColor" stroke-width="13"/><path d="M1868 2520 L11739 2520" stroke="currentColor" stroke-width="13"/><path d="M1868 2700 L11739 2700" stroke="currentColor" stroke-width="13"/><path d="M1868 2880 L11739 2880" stroke="currentColor" stroke-width="13"/><path d="M1868 3060 L11739 3060" stroke="currentColor" stroke-width="13"/><g data-id="c39dta6" data-class="clef" class="clef"><use href="#E901-1me50g" x="1985" y="2880" height="720px" width="720px"/></g><g data-id="kt97i8k" data-class="keySig" class="keySig"/><g data-id="l1ilcqe9" data-class="layer" class="layer"><g data-id="n1tt1zpq" data-class="note" class="note"><g data-class="notehead" class="notehead"><polygon points="2465,2700 2661,2700 2661,2750 2465,2750"/><polygon points="2465,2880 2661,2880 2661,2830 2465,2830"/><rect x="2447" y="2670" height="240" width="18"/><rect x="2661" y="2670" height="240" width="18"/></g></g><g data-id="n11y8sjs" data-class="note" class="note"><g data-class="notehead" class="notehead"><polygon points="5558,2700 5754,2700 5754,2750 5558,2750"/><polygon points="5558,2880 5754,2880 5754,2830 5558,2830"/><rect x="5540" y="2670" height="240" width="18"/><rect x="5754" y="2670" height="240" width="18"/></g></g><g data-id="nbvxo5w" data-class="note" class="note"><g data-class="notehead" class="notehead"><polygon points="8651,2700 8847,2700 8847,2750 8651,2750"/><polygon points="8651,2880 8847,2880 8847,2830 8651,2830"/><rect x="8633" y="2670" height="240" width="18"/><rect x="8847" y="2670" height="240" width="18"/></g></g><g data-id="b1jb2lxk" data-class="barLine" class="barLine"><path d="M11726 2340 L11726 3060" stroke="currentColor" stroke-width="27" stroke-dasharray="102 102"/></g></g></g><g data-id="s1btrc2r" data-class="staff" class="staff"><path d="M11739 540 L15025 540" stroke="currentColor" stroke-width="13"/><path d="M11739 720 L15025 720" stroke="currentColor" stroke-width="13"/><path d="M11739 900 L15025 900" stroke="currentColor" stroke-width="13"/><path d="M11739 1080 L15025 1080" stroke="currentColor" stroke-width="13"/><path d="M11739 1260 L15025 1260" stroke="currentColor" stroke-width="13"/><g data-id="l1kpo2q6" data-class="layer" class="layer"><g data-id="nxh7ds9" data-class="note" class="note"><g data-class="notehead" class="notehead"><polygon points="11937,1170 12133,1170 12133,1220 11937,1220"/><polygon points="11937,1350 12133,1350 12133,1300 11937,1300"/><rect x="11919" y="1140" height="240" width="18"/><rect x="12133" y="1140" height="240" width="18"/></g></g><g data-id="b11tz7be" data-class="barLine" class="barLine"><path d="M15012 540 L15012 1260" stroke="currentColor" stroke-width="27" stroke-dasharray="102 102"/></g></g></g><g data-id="swpxv4" data-class="staff" class="staff"><path d="M11739 2340 L15025 2340" stroke="currentColor" stroke-width="13"/><path d="M11739 2520 L15025 2520" stroke="currentColor" stroke-width="13"/><path d="M11739 2700 L15025 2700" stroke="currentColor" stroke-width="13"/><path d="M11739 2880 L15025 2880" stroke="currentColor" stroke-width="13"/><path d="M11739 3060 L15025 3060" stroke="currentColor" stroke-width="13"/><g data-id="l1vcc2kq" data-class="layer" class="layer"><g data-id="n1tmuk0n" data-class="note" class="note"><g data-class="notehead" class="notehead"><polygon points="11937,2700 12133,2700 12133,2750 11937,2750"/><polygon points="11937,2880 12133,2880 12133,2830 11937,2830"/><rect x="11919" y="2670" height="240" width="18"/><rect x="12133" y="2670" height="240" width="18"/></g></g><g data-id="bo98qp" data-class="barLine" class="barLine"><path d="M15012 2340 L15012 3060" stroke="currentColor" stroke-width="27" stroke-dasharray="102 102"/></g></g></g></g><g data-id="s120qtp4" data-class="system" class="system"><path d="M13 5152 L13 7672" stroke="currentColor" stroke-width="27"/><g data-id="soyla39" data-class="staff" class="staff"><path d="M0 5152 L5730 5152" stroke="currentColor" stroke-width="13"/><path d="M0 5332 L5730 5332" stroke="currentColor" stroke-width="13"/><path d="M0 5512 L5730 5512" stroke="currentColor" stroke-width="13"/><path d="M0 5692 L5730 5692" stroke="currentColor" stroke-width="13"/><path d="M0 5872 L5730 5872" stroke="currentColor" stroke-width="13"/><g data-id="c1tly2ls" data-class="clef" class="clef"><use href="#E901-1me50g" x="117" y="5692" height="720px" width="720px"/></g><g data-id="k1l8uq5k" data-class="keySig" class="keySig"/><g data-id="le9nfob" data-class="layer" class="layer"><g data-id="n18jkela" data-class="note" class="note"><g data-class="notehead" class="notehead"><polygon points="597,5782 793,5782 793,5832 597,5832"/><polygon points="597,5962 793,5962 793,5912 597,5912"/><rect x="579" y="5752" height="240" width="18"/><rect x="793" y="5752" height="240" width="18"/></g></g><g data-id="b1u77t15" data-class="barLine" class="barLine"><path d="M5717 5152 L5717 5872" stroke="currentColor" stroke-width="27" stroke-dasharray="102 102"/></g></g></g><g data-id="s164nk5f" data-class="staff" class="staff"><path d="M0 6952 L5730 6952" stroke="currentColor" stroke-width="13"/><path d="M0 7132 L5730 7132" stroke="currentColor" stroke-width="13"/><path d="M0 7312 L5730 7312" stroke="currentColor" stroke-width="13"/><path d="M0 7492 L5730 7492" stroke="currentColor" stroke-width="13"/><path d="M0 7672 L5730 7672" stroke="currentColor" stroke-width="13"/><g data-id="c1va8ftj" data-class="clef" class="clef"><use href="#E901-1me50g" x="117" y="7492" height="720px" width="720px"/></g><g data-id="kqx4trf" data-class="keySig" class="keySig"/><g data-id="lbfxfjc" data-class="layer" class="layer"><g data-id="nh09q3s" data-class="note" class="note"><g data-class="notehead" class="notehead"><polygon points="597,7312 793,7312 793,7362 597,7362"/><polygon points="597,7492 793,7492 793,7442 597,7442"/><rect x="579" y="7282" height="240" width="18"/><rect x="793" y="7282" height="240" width="18"/></g></g><g data-id="nw4f9zm" data-class="note" class="note"><g data-class="notehead" class="notehead"><polygon points="3166,7312 3362,7312 3362,7362 3166,7362"/><polygon points="3166,7492 3362,7492 3362,7442 3166,7442"/><rect x="3148" y="7282" height="240" width="18"/><rect x="3362" y="7282" height="240" width="18"/></g></g><g data-id="b9eovmj" data-class="barLine" class="barLine"><path d="M5717 6952 L5717 7672" stroke="currentColor" stroke-width="27" stroke-dasharray="102 102"/></g></g></g><g data-id="s1ot812c" data-class="staff" class="staff"><path d="M5730 5152 L13630 5152" stroke="currentColor" stroke-width="13"/><path d="M5730 5332 L13630 5332" stroke="currentColor" stroke-width="13"/><path d="M5730 5512 L13630 5512" stroke="currentColor" stroke-width="13"/><path d="M5730 5692 L13630 5692" stroke="currentColor" stroke-width="13"/><path d="M5730 5872 L13630 5872" stroke="currentColor" stroke-width="13"/><g data-id="lp4hqmy" data-class="layer" class="layer"><g data-id="n1u7h10c" data-class="note" class="note"><g data-class="notehead" class="notehead"><polygon points="5928,5782 6124,5782 6124,5832 5928,5832"/><polygon points="5928,5962 6124,5962 6124,5912 5928,5912"/><rect x="5910" y="5752" height="240" width="18"/></g><g data-class="stem" class="stem"><rect x="6124" y="5752" height="750" width="18"/></g></g><g data-id="bfelko4" data-class="barLine" class="barLine"><path d="M13617 5152 L13617 5872" stroke="currentColor" stroke-width="27" stroke-dasharray="102 102"/></g></g></g><g data-id="s7jjewx" data-class="staff" class="staff"><path d="M5730 6952 L13630 6952" stroke="currentColor" stroke-width="13"/><path d="M5730 7132 L13630 7132" stroke="currentColor" stroke-width="13"/><path d="M5730 7312 L13630 7312" stroke="currentColor" stroke-width="13"/><path d="M5730 7492 L13630 7492" stroke="currentColor" stroke-width="13"/><path d="M5730 7672 L13630 7672" stroke="currentColor" stroke-width="13"/><g data-id="lkcw5hk" data-class="layer" class="layer"><g data-id="n1e8ge7i" data-class="note" class="note"><g data-class="notehead" class="notehead"><polygon points="5928,7312 6124,7312 6124,7362 5928,7362"/><polygon points="5928,7492 6124,7492 6124,7442 5928,7442"/><rect x="5910" y="7282" height="240" width="18"/><rect x="6124" y="7282" height="240" width="18"/></g></g><g data-id="nletskf" data-class="note" class="note"><g data-class="notehead" class="notehead"><polygon points="8497,7312 8693,7312 8693,7362 8497,7362"/><polygon points="8497,7492 8693,7492 8693,7442 8497,7442"/><rect x="8479" y="7282" height="240" width="18"/><rect x="8693" y="7282" height="240" width="18"/></g></g><g data-id="n4f4e2i" data-class="note" class="note"><g data-class="notehead" class="notehead"><polygon points="11066,7312 11262,7312 11262,7362 11066,7362"/><polygon points="11066,7492 11262,7492 11262,7442 11066,7442"/><rect x="11048" y="7282" height="240" width="18"/><rect x="11262" y="7282" height="240" width="18"/></g></g><g data-id="b1yx2mq3" data-class="barLine" class="barLine"><path d="M13617 6952 L13617 7672" stroke="currentColor" stroke-width="27" stroke-dasharray="102 102"/></g></g></g><g data-id="s13p0ltg" data-class="systemMilestoneEnd" class="systemMilestoneEnd s1bm7k25"/></g><g data-id="pp15bsp" data-class="pageMilestoneEnd" class="pageMilestoneEnd s1idksjg"/><g data-id="pm4g72d" data-class="pageMilestoneEnd" class="pageMilestoneEnd m13sv08e"/></g></svg></svg>