<svg viewBox="0 0 110 46" version="1.1" xmlns="http://www.w3.org/2000/svg" xmlns:xlink="http://www.w3.org/1999/xlink" xmlns:mei="http://www.music-encoding.org/ns/mei" overflow="visible"><desc>Engraved by Verovio 4.0.1-a99660b</desc><defs><symbol id="E93C-1fx2a0m" viewBox="0 0 1000 1000" overflow="inherit"><path transform="scale(1,-1)" d="M156 195l156 -195l-156 -195l-156 195zM127 110l-57 -71l115 -149l57 71z"/></symbol><symbol id="E901-1fx2a0m" viewBox="0 0 1000 1000" overflow="inherit"><path transform="scale(1,-1)" d="M144 488c30 28 83 110 83 176c0 77 -39 150 -104 150c-15 0 -33 -6 -61 -34c-15 -15 -23 -44 -23 -79c0 -44 14 -96 43 -133c23 -29 44 -58 62 -80zM159 69c-57 0 -104 -31 -104 -98c0 -61 35 -63 51 -75c8 0 23 52 39 92l32 80c-6 1 -12 1 -18 1zM256 -25 c0 -76 -24 -122 -98 -122h-3c-28 0 -66 7 -84 15c-38 17 -71 55 -71 112c0 55 56 114 124 123c25 3 49 8 61 8c12 33 26 89 26 128c0 104 -55 180 -76 211c-51 -65 -79 -110 -90 -178c-1 -6 -4 -25 -4 -46c0 -18 2 -38 10 -50c5 -7 7 -16 7 -24c0 -13 -6 -24 -15 -24 c-5 0 -12 5 -19 17c-12 21 -24 38 -24 96c0 77 23 115 54 151c38 44 26 28 65 68l1 -1c0 3 -16 27 -60 79c-19 22 -58 58 -58 145c0 76 30 100 53 123c25 25 57 38 102 38c62 0 110 -83 110 -168c0 -13 -2 -26 -4 -39c-10 -52 -83 -130 -111 -163c24 -38 8 -3 55 -91 c34 -63 42 -84 42 -119c0 -10 -1 -22 -2 -37c-4 -63 -11 -76 -20 -116c7 0 12 1 21 -1c14 -4 20 -11 20 -19c0 -19 -30 -19 -52 -24c-6 -13 -67 -174 -67 -181c0 -2 9 -4 19 -4c25 0 41 21 56 73c8 28 14 39 22 39s10 -8 10 -19z"/></symbol><symbol id="E93E-1fx2a0m" viewBox="0 0 1000 1000" overflow="inherit"><path transform="scale(1,-1)" d="M0 760h30v-760h-30v760z"/></symbol></defs><style type="text/css">g.page-margin{font-family:Times,serif;} g.ending, g.fing, g.reh, g.tempo{font-weight:bold;} g.dir, g.dynam, g.mNum{font-style:italic;} g.label{font-weight:normal;}</style><svg class="definition-scale" color="black" viewBox="0 0 10920 4600"><g class="page-margin" transform="translate(500, 500)"><g data-id="mvy7bdl" data-class="mdiv" class="mdiv pageMilestone"/><g data-id="s1rx9y9v" data-class="score" class="score pageMilestone"/><g data-id="s1f79ie9" data-class="system" class="system"><path d="M13 540 L13 3060" stroke="currentColor" stroke-width="27"/><g data-id="s1go3vrv" data-class="section" class="section systemMilestone"/><g data-id="s164d279" data-class="staff" class="staff"><path d="M0 540 L9926 540" stroke="currentColor" stroke-width="13"/><path d="M0 720 L9926 720" stroke="currentColor" stroke-width="13"/><path d="M0 900 L9926 900" stroke="currentColor" stroke-width="13"/><path d="M0 1080 L9926 1080" stroke="currentColor" stroke-width="13"/><path d="M0 1260 L9926 1260" stroke="currentColor" stroke-width="13"/><g data-id="cp3ymhm" data-class="clef" class="clef"><use href="#E901-1fx2a0m" x="117" y="1080" height="720px" width="720px"/></g><g data-id="kq8738b" data-class="keySig" class="keySig"/><g data-id="l1m44nqe" data-class="layer" class="layer"><g data-id="ne6phnf" data-class="note" class="note"><g data-class="notehead" class="notehead"><polygon points="597,1170 793,1170 793,1220 597,1220"/><polygon points="597,1350 793,1350 793,1300 597,1300"/><rect x="579" y="1140" height="240" width="18"/></g><g data-class="stem" class="stem"><rect x="793" y="1140" height="750" width="18"/></g></g><g data-id="b1a2wwrc" data-class="barLine" class="barLine"><ellipse cx="9056" cy="630" rx="27" ry="27"/><ellipse cx="9056" cy="810" rx="27" ry="27"/><ellipse cx="9056" cy="990" rx="27" ry="27"/><ellipse cx="9056" cy="1170" rx="27" ry="27"/></g><g data-id="n1dbnzx6" data-class="note" class="note"><g data-class="notehead" class="notehead"><use href="#E93C-1fx2a0m" x="9173" y="1260" height="720px" width="720px"/></g><g data-id="s1tu3g6m" data-class="stem" class="stem"><use href="#E93E-1fx2a0m" x="9275" y="1180" height="720px" width="720px"/></g></g><g data-id="b1gt61yl" data-class="barLine" class="barLine"><path d="M9913 540 L9913 1260" stroke="currentColor" stroke-width="27" stroke-dasharray="102 102"/></g></g></g><g data-id="s1ra1g1m" data-class="staff" class="staff"><path d="M0 2340 L9926 2340" stroke="currentColor" stroke-width="13"/><path d="M0 2520 L9926 2520" stroke="currentColor" stroke-width="13"/><path d="M0 2700 L9926 2700" stroke="currentColor" stroke-width="13"/><path d="M0 2880 L9926 2880" stroke="currentColor" stroke-width="13"/><path d="M0 3060 L9926 3060" stroke="currentColor" stroke-width="13"/><g data-id="czx4d5" data-class="clef" class="clef"><use href="#E901-1fx2a0m" x="117" y="2880" height="720px" width="720px"/></g><g data-id="k11ev41b" data-class="keySig" class="keySig"/><g data-id="l61ehby" data-class="layer" class="layer"><g data-id="nc7l7ee" data-class="note" class="note"><g data-class="notehead" class="notehead"><use href="#E93C-1fx2a0m" x="579" y="2790" height="720px" width="720px"/></g><g data-id="sp17pf" data-class="stem" class="stem"><use href="#E93E-1fx2a0m" x="681" y="2710" height="720px" width="720px"/></g></g><g data-id="nipua7i" data-class="note" class="note"><g data-class="notehead" class="notehead"><use href="#E93C-1fx2a0m" x="1319" y="2790" height="720px" width="720px"/></g><g data-id="s14pltl8" data-class="stem" class="stem"><use href="#E93E-1fx2a0m" x="1421" y="2710" height="720px" width="720px"/></g></g><g data-id="n1uwp7r4" data-class="note" class="note"><g data-class="notehead" class="notehead"><use href="#E93C-1fx2a0m" x="2059" y="2790" height="720px" width="720px"/></g><g data-id="s1kwq0ar" data-class="stem" class="stem"><use href="#E93E-1fx2a0m" x="2161" y="2710" height="720px" width="720px"/></g></g><g data-id="bn8s2pa" data-class="barLine" class="barLine"><ellipse cx="2799" cy="2430" rx="27" ry="27"/><ellipse cx="2799" cy="2610" rx="27" ry="27"/><ellipse cx="2799" cy="2790" rx="27" ry="27"/><ellipse cx="2799" cy="2970" rx="27" ry="27"/></g><g data-id="n1f7dabk" data-class="note" class="note"><g data-class="notehead" class="notehead"><use href="#E93C-1fx2a0m" x="2916" y="2790" height="720px" width="720px"/></g><g data-id="sqsrjas" data-class="stem" class="stem"><use href="#E93E-1fx2a0m" x="3018" y="2710" height="720px" width="720px"/></g></g><g data-id="n1yxj914" data-class="note" class="note"><g data-class="notehead" class="notehead"><use href="#E93C-1fx2a0m" x="3656" y="2790" height="720px" width="720px"/></g><g data-id="sgzbskj" data-class="stem" class="stem"><use href="#E93E-1fx2a0m" x="3758" y="2710" height="720px" width="720px"/></g></g><g data-id="n13euqsd" data-class="note" class="note"><g data-class="notehead" class="notehead"><use href="#E93C-1fx2a0m" x="4396" y="2790" height="720px" width="720px"/></g><g data-id="sxa1rqu" data-class="stem" class="stem"><use href="#E93E-1fx2a0m" x="4498" y="2710" height="720px" width="720px"/></g></g><g data-id="b1ukt3dz" data-class="barLine" class="barLine"><path d="M5136 2340 L5136 3060" stroke="currentColor" stroke-width="27" stroke-dasharray="102 102"/></g><g data-id="n1x8m6lu" data-class="note" class="note"><g data-class="notehead" class="notehead"><use href="#E93C-1fx2a0m" x="5239" y="2790" height="720px" width="720px"/></g><g data-id="skv8r91" data-class="stem" class="stem"><use href="#E93E-1fx2a0m" x="5341" y="2710" height="720px" width="720px"/></g></g><g data-id="n17u8od" data-class="note" class="note"><g data-class="notehead" class="notehead"><use href="#E93C-1fx2a0m" x="5979" y="2790" height="720px" width="720px"/></g><g data-id="sazfjo1" data-class="stem" class="stem"><use href="#E93E-1fx2a0m" x="6081" y="2710" height="720px" width="720px"/></g></g><g data-id="n23gstf" data-class="note" class="note"><g data-class="notehead" class="notehead"><use href="#E93C-1fx2a0m" x="6719" y="2790" height="720px" width="720px"/></g><g data-id="s1k91lj8" data-class="stem" class="stem"><use href="#E93E-1fx2a0m" x="6821" y="2710" height="720px" width="720px"/></g></g><g data-id="bzjvx3c" data-class="barLine" class="barLine"><ellipse cx="7459" cy="2430" rx="27" ry="27"/><ellipse cx="7459" cy="2610" rx="27" ry="27"/><ellipse cx="7459" cy="2790" rx="27" ry="27"/><ellipse cx="7459" cy="2970" rx="27" ry="27"/></g><g data-id="n16yjyfs" data-class="note" class="note"><g data-class="notehead" class="notehead"><use href="#E93C-1fx2a0m" x="7576" y="2790" height="720px" width="720px"/></g><g data-id="sl9k2os" data-class="stem" class="stem"><use href="#E93E-1fx2a0m" x="7678" y="2710" height="720px" width="720px"/></g></g><g data-id="nkxl7d6" data-class="note" class="note"><g data-class="notehead" class="notehead"><use href="#E93C-1fx2a0m" x="8316" y="2790" height="720px" width="720px"/></g><g data-id="s17beglz" data-class="stem" class="stem"><use href="#E93E-1fx2a0m" x="8418" y="2710" height="720px" width="720px"/></g></g><g data-id="nyuu0tz" data-class="note" class="note"><g data-class="notehead" class="notehead"><use href="#E93C-1fx2a0m" x="9173" y="2790" height="720px" width="720px"/></g><g data-id="s1ncfz16" data-class="stem" class="stem"><use href="#E93E-1fx2a0m" x="9275" y="2710" height="720px" width="720px"/></g></g><g data-id="b1i91djh" data-class="barLine" class="barLine"><path d="M9913 2340 L9913 3060" stroke="currentColor" stroke-width="27" stroke-dasharray="102 102"/></g></g></g><g data-id="s9ha1xc" data-class="systemMilestoneEnd" class="systemMilestoneEnd s1go3vrv"/></g><g data-id="p1ltyhk9" data-class="pageMilestoneEnd" class="pageMilestoneEnd s1rx9y9v"/><g data-id="p1ol7lv" data-class="pageMilestoneEnd" class="pageMilestoneEnd mvy7bdl"/></g></svg></svg>