<svg viewBox="0 0 94 46" version="1.1" xmlns="http://www.w3.org/2000/svg" xmlns:xlink="http://www.w3.org/1999/xlink" overflow="visible" id="j9lkly0"><desc>Engraved by Verovio 6.0.1-ffbc336</desc><defs><g id="E901-j9lkly0"><path transform="scale(1,-1)" d="M144 488c30 28 83 110 83 176c0 77 -39 150 -104 150c-15 0 -33 -6 -61 -34c-15 -15 -23 -44 -23 -79c0 -44 14 -96 43 -133c23 -29 44 -58 62 -80zM159 69c-57 0 -104 -31 -104 -98c0 -61 35 -63 51 -75c8 0 23 52 39 92l32 80c-6 1 -12 1 -18 1zM256 -25 c0 -76 -24 -122 -98 -122h-3c-28 0 -66 7 -84 15c-38 17 -71 55 -71 112c0 55 56 114 124 123c25 3 49 8 61 8c12 33 26 89 26 128c0 104 -55 180 -76 211c-51 -65 -79 -110 -90 -178c-1 -6 -4 -25 -4 -46c0 -18 2 -38 10 -50c5 -7 7 -16 7 -24c0 -13 -6 -24 -15 -24 c-5 0 -12 5 -19 17c-12 21 -24 38 -24 96c0 77 23 115 54 151c38 44 26 28 65 68l1 -1c0 3 -16 27 -60 79c-19 22 -58 58 -58 145c0 76 30 100 53 123c25 25 57 38 102 38c62 0 110 -83 110 -168c0 -13 -2 -26 -4 -39c-10 -52 -83 -130 -111 -163c24 -38 8 -3 55 -91 c34 -63 42 -84 42 -119c0 -10 -1 -22 -2 -37c-4 -63 -11 -76 -20 -116c7 0 12 1 21 -1c14 -4 20 -11 20 -19c0 -19 -30 -19 -52 -24c-6 -13 -67 -174 -67 -181c0 -2 9 -4 19 -4c25 0 41 21 56 73c8 28 14 39 22 39s10 -8 10 -19z"/></g><g id="E93C-j9lkly0"><path transform="scale(1,-1)" d="M156 195l156 -195l-156 -195l-156 195zM127 110l-57 -71l115 -149l57 71z"/></g></defs><style type="text/css">#j9lkly0 g.ending, #j9lkly0 g.fing, #j9lkly0 g.reh, #j9lkly0 g.tempo {font-weight:bold;}#j9lkly0 g.dir, #j9lkly0 g.dynam, #j9lkly0 g.mNum {font-style:italic;}#j9lkly0 g.label {font-weight:normal;}#j9lkly0 ellipse, #j9lkly0 path, #j9lkly0 polygon, #j9lkly0 polyline, #j9lkly0 rect {stroke:currentColor}</style><svg class="definition-scale" color="black" font-family="Times, serif" viewBox="0 0 9330 4600"><g class="page-margin" transform="translate(500, 500)"><g data-id="k1flsire" data-class="mdiv" class="mdiv pageMilestone"/><g data-id="l1rhl99d" data-class="score" class="score pageMilestone"/><g data-id="c2yzou3" data-class="system" class="system"><path d="M13 540 L13 3060" stroke-width="27"/><g data-id="i1r8p72o" data-class="section" class="section systemMilestone"/><g data-id="sj7x85j" data-class="staff" class="staff"><path d="M0 540 L1766 540" stroke-width="13"/><path d="M0 720 L1766 720" stroke-width="13"/><path d="M0 900 L1766 900" stroke-width="13"/><path d="M0 1080 L1766 1080" stroke-width="13"/><path d="M0 1260 L1766 1260" stroke-width="13"/><g data-id="miorsdk" data-class="clef" class="clef"><use href="#E901-j9lkly0" transform="translate(117, 1080) scale(0.72, 0.72)"/></g><g data-id="ncmz86u" data-class="keySig" class="keySig"/><g data-id="t9egmjc" data-class="layer" class="layer"><g data-id="uzp4klx" data-class="note" class="note"><g data-class="notehead" class="notehead"><use href="#E93C-j9lkly0" transform="translate(489, 1260) scale(0.72, 0.72)"/></g></g><g data-id="vkc0qba" data-class="barLine" class="barLine"><ellipse cx="1739" cy="630" rx="27" ry="27"/><ellipse cx="1739" cy="810" rx="27" ry="27"/><ellipse cx="1739" cy="990" rx="27" ry="27"/><ellipse cx="1739" cy="1170" rx="27" ry="27"/></g></g></g><g data-id="a1anqn5y" data-class="staff" class="staff"><path d="M0 2340 L1766 2340" stroke-width="13"/><path d="M0 2520 L1766 2520" stroke-width="13"/><path d="M0 2700 L1766 2700" stroke-width="13"/><path d="M0 2880 L1766 2880" stroke-width="13"/><path d="M0 3060 L1766 3060" stroke-width="13"/><g data-id="ow24nq3" data-class="clef" class="clef"><use href="#E901-j9lkly0" transform="translate(117, 2880) scale(0.72, 0.72)"/></g><g data-id="p12tdhm2" data-class="keySig" class="keySig"/><g data-id="bda19xu" data-class="layer" class="layer"><g data-id="c1yxi35x" data-class="note" class="note"><g data-class="notehead" class="notehead"><use href="#E93C-j9lkly0" transform="translate(489, 2790) scale(0.72, 0.72)"/></g></g></g></g><g data-id="ek1mu25" data-class="staff" class="staff"><path d="M1766 540 L6986 540" stroke-width="13"/><path d="M1766 720 L6986 720" stroke-width="13"/><path d="M1766 900 L6986 900" stroke-width="13"/><path d="M1766 1080 L6986 1080" stroke-width="13"/><path d="M1766 1260 L6986 1260" stroke-width="13"/><g data-id="fycyp0q" data-class="layer" class="layer"><g data-id="wl03o2z" data-class="note" class="note"><g data-class="notehead" class="notehead"><polygon points="1874,1170 2070,1170 2070,1220 1874,1220"/><polygon points="1874,1350 2070,1350 2070,1300 1874,1300"/><rect x="1856" y="1140" height="240" width="18"/></g><g data-class="stem" class="stem"><rect x="2070" y="630" height="750" width="18"/></g></g><g data-id="xq0y6d3" data-class="barLine" class="barLine"><ellipse cx="6959" cy="630" rx="27" ry="27"/><ellipse cx="6959" cy="810" rx="27" ry="27"/><ellipse cx="6959" cy="990" rx="27" ry="27"/><ellipse cx="6959" cy="1170" rx="27" ry="27"/></g></g></g><g data-id="ksedd43" data-class="staff" class="staff"><path d="M1766 2340 L6986 2340" stroke-width="13"/><path d="M1766 2520 L6986 2520" stroke-width="13"/><path d="M1766 2700 L6986 2700" stroke-width="13"/><path d="M1766 2880 L6986 2880" stroke-width="13"/><path d="M1766 3060 L6986 3060" stroke-width="13"/><g data-id="l1a3t0qo" data-class="layer" class="layer"><g data-id="d17z4yf7" data-class="note" class="note"><g data-class="notehead" class="notehead"><use href="#E93C-j9lkly0" transform="translate(1856, 2790) scale(0.72, 0.72)"/></g></g><g data-id="e1u9f3k5" data-class="note" class="note"><g data-class="notehead" class="notehead"><use href="#E93C-j9lkly0" transform="translate(3106, 2790) scale(0.72, 0.72)"/></g></g><g data-id="fsqduv0" data-class="barLine" class="barLine"><path d="M4356 2340 L4356 3060" stroke-width="27" stroke-dasharray="102 102"/></g><g data-id="g1piiwqu" data-class="note" class="note"><g data-class="notehead" class="notehead"><use href="#E93C-j9lkly0" transform="translate(4459, 2790) scale(0.72, 0.72)"/></g></g><g data-id="h1sjw554" data-class="note" class="note"><g data-class="notehead" class="notehead"><use href="#E93C-j9lkly0" transform="translate(5709, 2790) scale(0.72, 0.72)"/></g></g></g></g><g data-id="g1jo3bj5" data-class="staff" class="staff"><path d="M6986 540 L8339 540" stroke-width="13"/><path d="M6986 720 L8339 720" stroke-width="13"/><path d="M6986 900 L8339 900" stroke-width="13"/><path d="M6986 1080 L8339 1080" stroke-width="13"/><path d="M6986 1260 L8339 1260" stroke-width="13"/><g data-id="h1ftlzew" data-class="layer" class="layer"><g data-id="y1856cd0" data-class="note" class="note"><g data-class="notehead" class="notehead"><use href="#E93C-j9lkly0" transform="translate(7076, 1260) scale(0.72, 0.72)"/></g></g><g data-id="z1608iun" data-class="barLine" class="barLine"><path d="M8326 540 L8326 1260" stroke-width="27" stroke-dasharray="102 102"/></g></g></g><g data-id="mxlif0q" data-class="staff" class="staff"><path d="M6986 2340 L8339 2340" stroke-width="13"/><path d="M6986 2520 L8339 2520" stroke-width="13"/><path d="M6986 2700 L8339 2700" stroke-width="13"/><path d="M6986 2880 L8339 2880" stroke-width="13"/><path d="M6986 3060 L8339 3060" stroke-width="13"/><g data-id="nkgee3m" data-class="layer" class="layer"><g data-id="i1cy04oe" data-class="note" class="note"><g data-class="notehead" class="notehead"><use href="#E93C-j9lkly0" transform="translate(7076, 2790) scale(0.72, 0.72)"/></g></g><g data-id="jz9xoxv" data-class="barLine" class="barLine"><path d="M8326 2340 L8326 3060" stroke-width="27" stroke-dasharray="102 102"/></g></g></g><g data-id="r19nb4tn" data-class="systemMilestoneEnd" class="systemMilestoneEnd i1r8p72o"/></g><g data-id="scbkn80" data-class="pageMilestoneEnd" class="pageMilestoneEnd l1rhl99d"/><g data-id="t1avdox6" data-class="pageMilestoneEnd" class="pageMilestoneEnd k1flsire"/></g></svg></svg>