<svg viewBox="0 0 93 46" version="1.1" xmlns="http://www.w3.org/2000/svg" xmlns:xlink="http://www.w3.org/1999/xlink" overflow="visible" id="y1xna8gj"><desc>Engraved by Verovio 6.1.0-682d606</desc><defs><g id="E901-y1xna8gj"><path transform="scale(1,-1)" d="M144 488c30 28 83 110 83 176c0 77 -39 150 -104 150c-15 0 -33 -6 -61 -34c-15 -15 -23 -44 -23 -79c0 -44 14 -96 43 -133c23 -29 44 -58 62 -80zM159 69c-57 0 -104 -31 -104 -98c0 -61 35 -63 51 -75c8 0 23 52 39 92l32 80c-6 1 -12 1 -18 1zM256 -25 c0 -76 -24 -122 -98 -122h-3c-28 0 -66 7 -84 15c-38 17 -71 55 -71 112c0 55 56 114 124 123c25 3 49 8 61 8c12 33 26 89 26 128c0 104 -55 180 -76 211c-51 -65 -79 -110 -90 -178c-1 -6 -4 -25 -4 -46c0 -18 2 -38 10 -50c5 -7 7 -16 7 -24c0 -13 -6 -24 -15 -24 c-5 0 -12 5 -19 17c-12 21 -24 38 -24 96c0 77 23 115 54 151c38 44 26 28 65 68l1 -1c0 3 -16 27 -60 79c-19 22 -58 58 -58 145c0 76 30 100 53 123c25 25 57 38 102 38c62 0 110 -83 110 -168c0 -13 -2 -26 -4 -39c-10 -52 -83 -130 -111 -163c24 -38 8 -3 55 -91 c34 -63 42 -84 42 -119c0 -10 -1 -22 -2 -37c-4 -63 -11 -76 -20 -116c7 0 12 1 21 -1c14 -4 20 -11 20 -19c0 -19 -30 -19 -52 -24c-6 -13 -67 -174 -67 -181c0 -2 9 -4 19 -4c25 0 41 21 56 73c8 28 14 39 22 39s10 -8 10 -19z"/></g><g id="E93C-y1xna8gj"><path transform="scale(1,-1)" d="M156 195l156 -195l-156 -195l-156 195zM127 110l-57 -71l115 -149l57 71z"/></g></defs><style type="text/css">#y1xna8gj g.ending, #y1xna8gj g.fing, #y1xna8gj g.reh, #y1xna8gj g.tempo {font-weight:bold;}#y1xna8gj g.dir, #y1xna8gj g.dynam, #y1xna8gj g.mNum {font-style:italic;}#y1xna8gj g.label {font-weight:normal;}#y1xna8gj ellipse, #y1xna8gj path, #y1xna8gj polygon, #y1xna8gj polyline, #y1xna8gj rect {stroke:currentColor}</style><svg class="definition-scale" color="black" font-family="Times, serif" viewBox="0 0 9220 4600"><g class="page-margin" transform="translate(500, 500)"><g data-id="z130a6qe" data-class="mdiv" class="mdiv pageMilestone"/><g data-id="aw4r02g" data-class="score" class="score pageMilestone"/><g data-id="p1pk6pxp" data-class="system" class="system"><path d="M13 540 L13 3060" stroke-width="27"/><g data-id="xm7aso8" data-class="section" class="section systemMilestone"/><g data-id="h2l237f" data-class="staff" class="staff"><path d="M0 540 L6869 540" stroke-width="13"/><path d="M0 720 L6869 720" stroke-width="13"/><path d="M0 900 L6869 900" stroke-width="13"/><path d="M0 1080 L6869 1080" stroke-width="13"/><path d="M0 1260 L6869 1260" stroke-width="13"/><g data-id="zmlf10h" data-class="clef" class="clef"><use href="#E901-y1xna8gj" transform="translate(117, 1080) scale(0.72, 0.72)"/></g><g data-id="a1uoxwxx" data-class="keySig" class="keySig"/><g data-id="imj29k6" data-class="layer" class="layer"><g data-id="jlfeeis" data-class="note" class="note"><g data-class="notehead" class="notehead"><polygon points="507,1170 703,1170 703,1220 507,1220"/><polygon points="507,1350 703,1350 703,1300 507,1300"/><rect x="489" y="1140" height="240" width="18"/></g><g data-class="stem" class="stem"><rect x="703" y="630" height="750" width="18"/></g></g><g data-id="k15y0haa" data-class="barLine" class="barLine"><ellipse cx="6842" cy="630" rx="27" ry="27"/><ellipse cx="6842" cy="810" rx="27" ry="27"/><ellipse cx="6842" cy="990" rx="27" ry="27"/><ellipse cx="6842" cy="1170" rx="27" ry="27"/></g></g></g><g data-id="nlaz5wz" data-class="staff" class="staff"><path d="M0 2340 L6869 2340" stroke-width="13"/><path d="M0 2520 L6869 2520" stroke-width="13"/><path d="M0 2700 L6869 2700" stroke-width="13"/><path d="M0 2880 L6869 2880" stroke-width="13"/><path d="M0 3060 L6869 3060" stroke-width="13"/><g data-id="bretj81" data-class="clef" class="clef"><use href="#E901-y1xna8gj" transform="translate(117, 2880) scale(0.72, 0.72)"/></g><g data-id="c1xhpwnt" data-class="keySig" class="keySig"/><g data-id="o1bd9kxr" data-class="layer" class="layer"><g data-id="pl2o9ft" data-class="note" class="note"><g data-class="notehead" class="notehead"><use href="#E93C-y1xna8gj" transform="translate(489, 2790) scale(0.72, 0.72)"/></g></g><g data-id="qj3ch7m" data-class="note" class="note"><g data-class="notehead" class="notehead"><use href="#E93C-y1xna8gj" transform="translate(1739, 2790) scale(0.72, 0.72)"/></g></g><g data-id="r1v3gb6w" data-class="note" class="note"><g data-class="notehead" class="notehead"><use href="#E93C-y1xna8gj" transform="translate(2989, 2790) scale(0.72, 0.72)"/></g></g><g data-id="s150bzxe" data-class="barLine" class="barLine"><path d="M4239 2340 L4239 3060" stroke-width="27" stroke-dasharray="102 102"/></g><g data-id="t1jpbgcm" data-class="note" class="note"><g data-class="notehead" class="notehead"><use href="#E93C-y1xna8gj" transform="translate(4342, 2790) scale(0.72, 0.72)"/></g></g><g data-id="u1eb0b1h" data-class="note" class="note"><g data-class="notehead" class="notehead"><use href="#E93C-y1xna8gj" transform="translate(5592, 2790) scale(0.72, 0.72)"/></g></g></g></g><g data-id="esdb570" data-class="staff" class="staff"><path d="M6869 540 L8222 540" stroke-width="13"/><path d="M6869 720 L8222 720" stroke-width="13"/><path d="M6869 900 L8222 900" stroke-width="13"/><path d="M6869 1080 L8222 1080" stroke-width="13"/><path d="M6869 1260 L8222 1260" stroke-width="13"/><g data-id="f1rpabth" data-class="layer" class="layer"><g data-id="lb8ws7h" data-class="note" class="note"><g data-class="notehead" class="notehead"><use href="#E93C-y1xna8gj" transform="translate(6959, 1260) scale(0.72, 0.72)"/></g></g><g data-id="mvqay2y" data-class="barLine" class="barLine"><path d="M8209 540 L8209 1260" stroke-width="27" stroke-dasharray="102 102"/></g></g></g><g data-id="i13wstju" data-class="staff" class="staff"><path d="M6869 2340 L8222 2340" stroke-width="13"/><path d="M6869 2520 L8222 2520" stroke-width="13"/><path d="M6869 2700 L8222 2700" stroke-width="13"/><path d="M6869 2880 L8222 2880" stroke-width="13"/><path d="M6869 3060 L8222 3060" stroke-width="13"/><g data-id="jqljsp" data-class="layer" class="layer"><g data-id="vdhdsrg" data-class="note" class="note"><g data-class="notehead" class="notehead"><use href="#E93C-y1xna8gj" transform="translate(6959, 2790) scale(0.72, 0.72)"/></g></g><g data-id="w19ar8wu" data-class="barLine" class="barLine"><path d="M8209 2340 L8209 3060" stroke-width="27" stroke-dasharray="102 102"/></g></g></g><g data-id="e1tcckop" data-class="systemMilestoneEnd" class="systemMilestoneEnd xm7aso8"/></g><g data-id="fgt5jzd" data-class="pageMilestoneEnd" class="pageMilestoneEnd aw4r02g"/><g data-id="g1bk7bsf" data-class="pageMilestoneEnd" class="pageMilestoneEnd z130a6qe"/></g></svg></svg>