<svg viewBox="0 0 118 46" version="1.1" xmlns="http://www.w3.org/2000/svg" xmlns:xlink="http://www.w3.org/1999/xlink" overflow="visible" id="zj6uyxo"><desc>Engraved by Verovio 6.1.0-682d606</desc><defs><g id="E901-zj6uyxo"><path transform="scale(1,-1)" d="M144 488c30 28 83 110 83 176c0 77 -39 150 -104 150c-15 0 -33 -6 -61 -34c-15 -15 -23 -44 -23 -79c0 -44 14 -96 43 -133c23 -29 44 -58 62 -80zM159 69c-57 0 -104 -31 -104 -98c0 -61 35 -63 51 -75c8 0 23 52 39 92l32 80c-6 1 -12 1 -18 1zM256 -25 c0 -76 -24 -122 -98 -122h-3c-28 0 -66 7 -84 15c-38 17 -71 55 -71 112c0 55 56 114 124 123c25 3 49 8 61 8c12 33 26 89 26 128c0 104 -55 180 -76 211c-51 -65 -79 -110 -90 -178c-1 -6 -4 -25 -4 -46c0 -18 2 -38 10 -50c5 -7 7 -16 7 -24c0 -13 -6 -24 -15 -24 c-5 0 -12 5 -19 17c-12 21 -24 38 -24 96c0 77 23 115 54 151c38 44 26 28 65 68l1 -1c0 3 -16 27 -60 79c-19 22 -58 58 -58 145c0 76 30 100 53 123c25 25 57 38 102 38c62 0 110 -83 110 -168c0 -13 -2 -26 -4 -39c-10 -52 -83 -130 -111 -163c24 -38 8 -3 55 -91 c34 -63 42 -84 42 -119c0 -10 -1 -22 -2 -37c-4 -63 -11 -76 -20 -116c7 0 12 1 21 -1c14 -4 20 -11 20 -19c0 -19 -30 -19 -52 -24c-6 -13 -67 -174 -67 -181c0 -2 9 -4 19 -4c25 0 41 21 56 73c8 28 14 39 22 39s10 -8 10 -19z"/></g><g id="E93C-zj6uyxo"><path transform="scale(1,-1)" d="M156 195l156 -195l-156 -195l-156 195zM127 110l-57 -71l115 -149l57 71z"/></g><g id="E93E-zj6uyxo"><path transform="scale(1,-1)" d="M0 760h30v-760h-30v760z"/></g></defs><style type="text/css">#zj6uyxo g.ending, #zj6uyxo g.fing, #zj6uyxo g.reh, #zj6uyxo g.tempo {font-weight:bold;}#zj6uyxo g.dir, #zj6uyxo g.dynam, #zj6uyxo g.mNum {font-style:italic;}#zj6uyxo g.label {font-weight:normal;}#zj6uyxo ellipse, #zj6uyxo path, #zj6uyxo polygon, #zj6uyxo polyline, #zj6uyxo rect {stroke:currentColor}</style><svg class="definition-scale" color="black" font-family="Times, serif" viewBox="0 0 11790 4600"><g class="page-margin" transform="translate(500, 500)"><g data-id="arjkhme" data-class="mdiv" class="mdiv pageMilestone"/><g data-id="b1cbllx5" data-class="score" class="score pageMilestone"/><g data-id="k1g5aeqw" data-class="system" class="system"><path d="M13 540 L13 3060" stroke-width="27"/><g data-id="y1gywdvh" data-class="section" class="section systemMilestone"/><g data-id="i4s008t" data-class="staff" class="staff"><path d="M0 540 L9873 540" stroke-width="13"/><path d="M0 720 L9873 720" stroke-width="13"/><path d="M0 900 L9873 900" stroke-width="13"/><path d="M0 1080 L9873 1080" stroke-width="13"/><path d="M0 1260 L9873 1260" stroke-width="13"/><g data-id="uurvjx7" data-class="clef" class="clef"><use href="#E901-zj6uyxo" transform="translate(117, 1080) scale(0.72, 0.72)"/></g><g data-id="vplir4g" data-class="keySig" class="keySig"/><g data-id="jj5h7xd" data-class="layer" class="layer"><g data-id="k9nxz3p" data-class="note" class="note"><g data-class="notehead" class="notehead"><polygon points="507,1170 703,1170 703,1220 507,1220"/><polygon points="507,1350 703,1350 703,1300 507,1300"/><rect x="489" y="1140" height="240" width="18"/></g><g data-class="stem" class="stem"><rect x="703" y="630" height="750" width="18"/></g></g><g data-id="l1w7jti4" data-class="barLine" class="barLine"><ellipse cx="9846" cy="630" rx="27" ry="27"/><ellipse cx="9846" cy="810" rx="27" ry="27"/><ellipse cx="9846" cy="990" rx="27" ry="27"/><ellipse cx="9846" cy="1170" rx="27" ry="27"/></g></g></g><g data-id="o1pec6b8" data-class="staff" class="staff"><path d="M0 2340 L9873 2340" stroke-width="13"/><path d="M0 2520 L9873 2520" stroke-width="13"/><path d="M0 2700 L9873 2700" stroke-width="13"/><path d="M0 2880 L9873 2880" stroke-width="13"/><path d="M0 3060 L9873 3060" stroke-width="13"/><g data-id="w1dvangq" data-class="clef" class="clef"><use href="#E901-zj6uyxo" transform="translate(117, 2880) scale(0.72, 0.72)"/></g><g data-id="x1az968y" data-class="keySig" class="keySig"/><g data-id="p1p8efte" data-class="layer" class="layer"><g data-id="qv14fjm" data-class="note" class="note"><g data-class="notehead" class="notehead"><use href="#E93C-zj6uyxo" transform="translate(489, 2790) scale(0.72, 0.72)"/></g><g data-id="s18j3ew7" data-class="stem" class="stem"><use href="#E93E-zj6uyxo" transform="translate(591, 2710) scale(0.72, 0.72)"/></g></g><g data-id="r4ayqr3" data-class="note" class="note"><g data-class="notehead" class="notehead"><use href="#E93C-zj6uyxo" transform="translate(1309, 2790) scale(0.72, 0.72)"/></g><g data-id="tvj5c52" data-class="stem" class="stem"><use href="#E93E-zj6uyxo" transform="translate(1411, 2710) scale(0.72, 0.72)"/></g></g><g data-id="sz1hqa9" data-class="note" class="note"><g data-class="notehead" class="notehead"><use href="#E93C-zj6uyxo" transform="translate(2129, 2790) scale(0.72, 0.72)"/></g><g data-id="ua6gf8q" data-class="stem" class="stem"><use href="#E93E-zj6uyxo" transform="translate(2231, 2710) scale(0.72, 0.72)"/></g></g><g data-id="t1ppisjh" data-class="barLine" class="barLine"><ellipse cx="2949" cy="2430" rx="27" ry="27"/><ellipse cx="2949" cy="2610" rx="27" ry="27"/><ellipse cx="2949" cy="2790" rx="27" ry="27"/><ellipse cx="2949" cy="2970" rx="27" ry="27"/></g><g data-id="u8uzcc2" data-class="note" class="note"><g data-class="notehead" class="notehead"><use href="#E93C-zj6uyxo" transform="translate(3066, 2790) scale(0.72, 0.72)"/></g><g data-id="v1rr521n" data-class="stem" class="stem"><use href="#E93E-zj6uyxo" transform="translate(3168, 2710) scale(0.72, 0.72)"/></g></g><g data-id="vfe4sk6" data-class="note" class="note"><g data-class="notehead" class="notehead"><use href="#E93C-zj6uyxo" transform="translate(3886, 2790) scale(0.72, 0.72)"/></g><g data-id="wxzet6q" data-class="stem" class="stem"><use href="#E93E-zj6uyxo" transform="translate(3988, 2710) scale(0.72, 0.72)"/></g></g><g data-id="w1t5y9k7" data-class="note" class="note"><g data-class="notehead" class="notehead"><use href="#E93C-zj6uyxo" transform="translate(4706, 2790) scale(0.72, 0.72)"/></g><g data-id="x1nhulzq" data-class="stem" class="stem"><use href="#E93E-zj6uyxo" transform="translate(4808, 2710) scale(0.72, 0.72)"/></g></g><g data-id="xjswi9t" data-class="barLine" class="barLine"><path d="M5526 2340 L5526 3060" stroke-width="27" stroke-dasharray="102 102"/></g><g data-id="yzp2qjw" data-class="note" class="note"><g data-class="notehead" class="notehead"><use href="#E93C-zj6uyxo" transform="translate(5629, 2790) scale(0.72, 0.72)"/></g><g data-id="y10ujmn" data-class="stem" class="stem"><use href="#E93E-zj6uyxo" transform="translate(5731, 2710) scale(0.72, 0.72)"/></g></g><g data-id="z1oxqehn" data-class="note" class="note"><g data-class="notehead" class="notehead"><use href="#E93C-zj6uyxo" transform="translate(6449, 2790) scale(0.72, 0.72)"/></g><g data-id="zf3j79g" data-class="stem" class="stem"><use href="#E93E-zj6uyxo" transform="translate(6551, 2710) scale(0.72, 0.72)"/></g></g><g data-id="a15swlyz" data-class="note" class="note"><g data-class="notehead" class="notehead"><use href="#E93C-zj6uyxo" transform="translate(7269, 2790) scale(0.72, 0.72)"/></g><g data-id="a1icknmx" data-class="stem" class="stem"><use href="#E93E-zj6uyxo" transform="translate(7371, 2710) scale(0.72, 0.72)"/></g></g><g data-id="b1cz0204" data-class="barLine" class="barLine"><ellipse cx="8089" cy="2430" rx="27" ry="27"/><ellipse cx="8089" cy="2610" rx="27" ry="27"/><ellipse cx="8089" cy="2790" rx="27" ry="27"/><ellipse cx="8089" cy="2970" rx="27" ry="27"/></g><g data-id="c1i3m6qf" data-class="note" class="note"><g data-class="notehead" class="notehead"><use href="#E93C-zj6uyxo" transform="translate(8206, 2790) scale(0.72, 0.72)"/></g><g data-id="b1f3aoe0" data-class="stem" class="stem"><use href="#E93E-zj6uyxo" transform="translate(8308, 2710) scale(0.72, 0.72)"/></g></g><g data-id="dbfqfh8" data-class="note" class="note"><g data-class="notehead" class="notehead"><use href="#E93C-zj6uyxo" transform="translate(9026, 2790) scale(0.72, 0.72)"/></g><g data-id="c1qbvq6g" data-class="stem" class="stem"><use href="#E93E-zj6uyxo" transform="translate(9128, 2710) scale(0.72, 0.72)"/></g></g></g></g><g data-id="j1ifzxx5" data-class="staff" class="staff"><path d="M9873 540 L10796 540" stroke-width="13"/><path d="M9873 720 L10796 720" stroke-width="13"/><path d="M9873 900 L10796 900" stroke-width="13"/><path d="M9873 1080 L10796 1080" stroke-width="13"/><path d="M9873 1260 L10796 1260" stroke-width="13"/><g data-id="k6fmmx5" data-class="layer" class="layer"><g data-id="m4rn8ch" data-class="note" class="note"><g data-class="notehead" class="notehead"><use href="#E93C-zj6uyxo" transform="translate(9963, 1260) scale(0.72, 0.72)"/></g><g data-id="r1e1dd3e" data-class="stem" class="stem"><use href="#E93E-zj6uyxo" transform="translate(10065, 1180) scale(0.72, 0.72)"/></g></g><g data-id="ntgf9xr" data-class="barLine" class="barLine"><path d="M10783 540 L10783 1260" stroke-width="27" stroke-dasharray="102 102"/></g></g></g><g data-id="n11ft3s9" data-class="staff" class="staff"><path d="M9873 2340 L10796 2340" stroke-width="13"/><path d="M9873 2520 L10796 2520" stroke-width="13"/><path d="M9873 2700 L10796 2700" stroke-width="13"/><path d="M9873 2880 L10796 2880" stroke-width="13"/><path d="M9873 3060 L10796 3060" stroke-width="13"/><g data-id="oqc93vy" data-class="layer" class="layer"><g data-id="enkbfiz" data-class="note" class="note"><g data-class="notehead" class="notehead"><use href="#E93C-zj6uyxo" transform="translate(9963, 2790) scale(0.72, 0.72)"/></g><g data-id="dq9tebf" data-class="stem" class="stem"><use href="#E93E-zj6uyxo" transform="translate(10065, 2710) scale(0.72, 0.72)"/></g></g><g data-id="f1ulop8v" data-class="barLine" class="barLine"><path d="M10783 2340 L10783 3060" stroke-width="27" stroke-dasharray="102 102"/></g></g></g><g data-id="n162naws" data-class="systemMilestoneEnd" class="systemMilestoneEnd y1gywdvh"/></g><g data-id="ordqsyu" data-class="pageMilestoneEnd" class="pageMilestoneEnd b1cbllx5"/><g data-id="p1evgmvl" data-class="pageMilestoneEnd" class="pageMilestoneEnd arjkhme"/></g></svg></svg>