<svg viewBox="0 0 144 158" version="1.1" xmlns="http://www.w3.org/2000/svg" xmlns:xlink="http://www.w3.org/1999/xlink" overflow="visible" id="t1c75yn3"><desc>Engraved by Verovio 6.0.1-ffbc336</desc><defs><g id="E907-t1c75yn3"><path transform="scale(1,-1)" d="M2 206l2 431c0 12 7 17 14 17c8 0 17 -7 17 -17l3 -204l2 -315h79h8c11 0 30 1 35 6c8 8 8 139 8 192v27l4 222s-1 20 19 20s12 -20 12 -20v-244s-1 -200 -1 -246c-1 -8 -1 -12 -4 -19c-7 -7 -8 -7 -16 -7c-45 0 -71 3 -71 3l-69 -3v-49v-48l64 -3l82 -5s5 0 8 -3 s5 -7 5 -7l1 -62v-154s0 -20 -13 -20c-10 0 -14 5 -16 14l-7 138l-2 19s0 4 -3 7s-9 2 -9 2h-40h-70l-3 -28l-3 -132s0 -20 -15 -20c-17 0 -19 17 -19 17c-1 22 -3 96 -3 336c0 49 1 100 1 155z"/></g><g id="E9E0-t1c75yn3"><path transform="scale(1,-1)" d="M0 -49v426c0 13 2 36 18 36c12 -1 12 -18 12 -39c0 -20 -3 -362 -3 -362c0 -3 2 -9 11 -18c28 -33 74 -65 120 -65c6 0 28 2 28 35c0 37 -44 69 -76 86l-42 24s-9 1 -9 27v35c0 3 1 9 14 9c14 -1 50 -6 83 -26c32 -22 61 -38 61 -71v-185c0 -1 -14 -3 -26 -3h-2 c-20 0 -110 1 -171 60c0 0 -11 8 -18 31z"/></g><g id="E915-t1c75yn3"><path transform="scale(1,-1)" d="M421 96c-46 77 -101 108 -181 108c-113 0 -204 -91 -204 -204s91 -204 204 -204c78 0 129 34 177 110l33 -22c-41 -74 -120 -124 -210 -124c-132 0 -240 108 -240 240s108 240 240 240c89 0 163 -45 209 -122z"/></g><g id="E925-t1c75yn3"><path transform="scale(1,-1)" d="M0 408h36v-816h-36v816z"/></g><g id="E90A-t1c75yn3"><path transform="scale(1,-1)" d="M2 -206c0 55 -1 106 -1 155c0 240 2 404 3 426c0 0 2 17 19 17c15 0 15 -20 15 -20l3 -132l3 -118h70h40s6 -1 9 2s3 7 3 7l2 109l7 138c2 9 6 14 16 14c13 0 13 -20 13 -20v-154l-1 -152s-2 -4 -5 -7s-8 -3 -8 -3l-82 -5l-64 -3v-48v-49l69 -3s26 3 71 3c8 0 9 0 16 -7 c3 -7 3 -11 4 -19c0 -46 1 -226 1 -226v-244s8 -20 -12 -20s-19 20 -19 20l-4 222v27c0 53 0 164 -8 172c-5 5 -24 6 -35 6h-8h-79l-2 -315l-3 -204c0 -10 -9 -17 -17 -17c-7 0 -14 5 -14 17z"/></g><g id="E909-t1c75yn3"><path transform="scale(1,-1)" d="M2 206l2 431c0 12 7 17 14 17c8 0 17 -7 17 -17l3 -204l2 -315h79h8c11 0 30 1 35 6c8 8 8 69 8 122v27l4 222s-1 20 19 20s12 -20 12 -20v-244s-1 -130 -1 -176c-1 -8 -1 -12 -4 -19c-7 -7 -8 -7 -16 -7c-45 0 -71 3 -71 3l-69 -3v-49v-48l64 -3l82 -5s5 0 8 -3 s5 -7 5 -7l1 -262v-154s0 -20 -13 -20c-10 0 -14 5 -16 14l-7 138l-2 219s0 4 -3 7s-9 2 -9 2h-40h-70l-3 -378l-3 -132s0 -20 -15 -20c-17 0 -19 17 -19 17c-1 22 -3 446 -3 686c0 49 1 100 1 155z"/></g><g id="E904-t1c75yn3"><path transform="scale(1,-1)" d="M428 -39l-54 -67l112 -138l52 66zM428 249l-54 -67l112 -138l52 66zM455 325l142 -178l-115 -144l115 -144l-129 -162v-580h-30v585l-127 157l116 144l-116 144zM232 -50v108h-199v-108h199zM266 -808h-34v693h-199v-93h-33v417h33v-86h199v86h34v-1017z"/></g><g id="E93C-t1c75yn3"><path transform="scale(1,-1)" d="M156 195l156 -195l-156 -195l-156 195zM127 110l-57 -71l115 -149l57 71z"/></g></defs><style type="text/css">#t1c75yn3 g.ending, #t1c75yn3 g.fing, #t1c75yn3 g.reh, #t1c75yn3 g.tempo {font-weight:bold;}#t1c75yn3 g.dir, #t1c75yn3 g.dynam, #t1c75yn3 g.mNum {font-style:italic;}#t1c75yn3 g.label {font-weight:normal;}#t1c75yn3 ellipse, #t1c75yn3 path, #t1c75yn3 polygon, #t1c75yn3 polyline, #t1c75yn3 rect {stroke:currentColor}</style><svg class="definition-scale" color="black" font-family="Times, serif" viewBox="0 0 14360 15760"><g class="page-margin" transform="translate(500, 500)"><g data-id="u16oy887" data-class="mdiv" class="mdiv pageMilestone"/><g data-id="v14j8tod" data-class="score" class="score pageMilestone"/><g data-id="b9h3oxn" data-class="system" class="system"><path d="M13 540 L13 6660" stroke-width="27"/><g data-id="l1w8wabc" data-class="section" class="section systemMilestone"/><g data-id="vwis76a" data-class="staff" class="staff"><path d="M0 540 L4022 540" stroke-width="13"/><path d="M0 720 L4022 720" stroke-width="13"/><path d="M0 900 L4022 900" stroke-width="13"/><path d="M0 1080 L4022 1080" stroke-width="13"/><path d="M0 1260 L4022 1260" stroke-width="13"/><g data-id="tfulg9s" data-class="clef" class="clef"><use href="#E907-t1c75yn3" transform="translate(117, 1260) scale(0.72, 0.72)"/></g><g data-id="upunf7f" data-class="keySig" class="keySig"><g data-id="v192rb2f" data-class="keyAccid" class="keyAccid"><use href="#E9E0-t1c75yn3" transform="translate(726, 720) scale(0.72, 0.72)"/></g></g><g data-id="wwd0uc6" data-class="mensur" class="mensur"><use href="#E915-t1c75yn3" transform="translate(1062, 900) scale(0.72, 0.72)"/><use href="#E925-t1c75yn3" transform="translate(1222, 900) scale(0.72, 0.72)"/></g><g data-id="w1eautkp" data-class="layer" class="layer"><g data-id="xnih5dw" data-class="note" class="note"><g data-class="notehead" class="notehead"><polygon points="1584,630 1780,630 1780,680 1584,680"/><polygon points="1584,810 1780,810 1780,760 1584,760"/><rect x="1566" y="600" height="240" width="18"/><rect x="1780" y="600" height="240" width="18"/></g></g></g></g><g data-id="d1k1a1" data-class="staff" class="staff"><path d="M0 2340 L4022 2340" stroke-width="13"/><path d="M0 2520 L4022 2520" stroke-width="13"/><path d="M0 2700 L4022 2700" stroke-width="13"/><path d="M0 2880 L4022 2880" stroke-width="13"/><path d="M0 3060 L4022 3060" stroke-width="13"/><g data-id="x9uwpi3" data-class="clef" class="clef"><use href="#E90A-t1c75yn3" transform="translate(117, 2520) scale(0.72, 0.72)"/></g><g data-id="yyo0dne" data-class="keySig" class="keySig"><g data-id="zi5icut" data-class="keyAccid" class="keyAccid"><use href="#E9E0-t1c75yn3" transform="translate(726, 2610) scale(0.72, 0.72)"/></g></g><g data-id="a1gjsv22" data-class="mensur" class="mensur"><use href="#E915-t1c75yn3" transform="translate(1062, 2700) scale(0.72, 0.72)"/><use href="#E925-t1c75yn3" transform="translate(1222, 2700) scale(0.72, 0.72)"/></g><g data-id="ev417zk" data-class="layer" class="layer"><g data-id="f1mvtqll" data-class="note" class="note"><g data-class="notehead" class="notehead"><polygon points="1584,2700 1780,2700 1780,2750 1584,2750"/><polygon points="1584,2880 1780,2880 1780,2830 1584,2830"/><rect x="1566" y="2670" height="240" width="18"/><rect x="1780" y="2670" height="240" width="18"/></g></g></g></g><g data-id="l1o9whkp" data-class="staff" class="staff"><path d="M0 4140 L4022 4140" stroke-width="13"/><path d="M0 4320 L4022 4320" stroke-width="13"/><path d="M0 4500 L4022 4500" stroke-width="13"/><path d="M0 4680 L4022 4680" stroke-width="13"/><path d="M0 4860 L4022 4860" stroke-width="13"/><g data-id="buxcwyo" data-class="clef" class="clef"><use href="#E909-t1c75yn3" transform="translate(117, 4500) scale(0.72, 0.72)"/></g><g data-id="crwjqmw" data-class="keySig" class="keySig"><g data-id="d2wsbec" data-class="keyAccid" class="keyAccid"><use href="#E9E0-t1c75yn3" transform="translate(726, 4590) scale(0.72, 0.72)"/></g></g><g data-id="mbv0bvx" data-class="layer" class="layer"><g data-id="n1jwww60" data-class="note" class="note"><g data-class="notehead" class="notehead"><polygon points="1584,4320 1780,4320 1780,4370 1584,4370"/><polygon points="1584,4500 1780,4500 1780,4450 1584,4450"/><rect x="1566" y="4290" height="240" width="18"/><rect x="1780" y="4290" height="240" width="18"/></g></g></g></g><g data-id="t1chv18k" data-class="staff" class="staff"><path d="M0 5940 L4022 5940" stroke-width="13"/><path d="M0 6120 L4022 6120" stroke-width="13"/><path d="M0 6300 L4022 6300" stroke-width="13"/><path d="M0 6480 L4022 6480" stroke-width="13"/><path d="M0 6660 L4022 6660" stroke-width="13"/><g data-id="ewk8qua" data-class="clef" class="clef"><use href="#E904-t1c75yn3" transform="translate(117, 6120) scale(0.72, 0.72)"/></g><g data-id="f1kv3zre" data-class="keySig" class="keySig"><g data-id="g7jwpb0" data-class="keyAccid" class="keyAccid"><use href="#E9E0-t1c75yn3" transform="translate(726, 6480) scale(0.72, 0.72)"/></g></g><g data-id="uatu1j8" data-class="layer" class="layer"><g data-id="vjjkub0" data-class="note" class="note"><g data-class="notehead" class="notehead"><polygon points="1584,6570 1780,6570 1780,6620 1584,6620"/><polygon points="1584,6750 1780,6750 1780,6700 1584,6700"/><rect x="1566" y="6540" height="240" width="18"/><rect x="1780" y="6540" height="240" width="18"/></g></g></g></g><g data-id="t1vyhygz" data-class="staff" class="staff"><path d="M4022 540 L6568 540" stroke-width="13"/><path d="M4022 720 L6568 720" stroke-width="13"/><path d="M4022 900 L6568 900" stroke-width="13"/><path d="M4022 1080 L6568 1080" stroke-width="13"/><path d="M4022 1260 L6568 1260" stroke-width="13"/><g data-id="u1eoxv3" data-class="layer" class="layer"><g data-id="yr4gurw" data-class="note" class="note"><g data-class="notehead" class="notehead"><polygon points="4130,630 4326,630 4326,680 4130,680"/><polygon points="4130,810 4326,810 4326,760 4130,760"/><rect x="4112" y="600" height="240" width="18"/><rect x="4326" y="600" height="240" width="18"/></g></g></g></g><g data-id="f1r4i0il" data-class="staff" class="staff"><path d="M4022 2340 L6568 2340" stroke-width="13"/><path d="M4022 2520 L6568 2520" stroke-width="13"/><path d="M4022 2700 L6568 2700" stroke-width="13"/><path d="M4022 2880 L6568 2880" stroke-width="13"/><path d="M4022 3060 L6568 3060" stroke-width="13"/><g data-id="g1q9mtcp" data-class="layer" class="layer"><g data-id="g5iohn9" data-class="note" class="note"><g data-class="notehead" class="notehead"><polygon points="4130,2520 4326,2520 4326,2570 4130,2570"/><polygon points="4130,2700 4326,2700 4326,2650 4130,2650"/><rect x="4112" y="2490" height="240" width="18"/><rect x="4326" y="2490" height="240" width="18"/></g></g></g></g><g data-id="r1ydix5s" data-class="staff" class="staff"><path d="M4022 4140 L6568 4140" stroke-width="13"/><path d="M4022 4320 L6568 4320" stroke-width="13"/><path d="M4022 4500 L6568 4500" stroke-width="13"/><path d="M4022 4680 L6568 4680" stroke-width="13"/><path d="M4022 4860 L6568 4860" stroke-width="13"/><g data-id="s1uzjx01" data-class="layer" class="layer"><g data-id="o1ah230t" data-class="note" class="note"><g data-class="notehead" class="notehead"><polygon points="4130,4320 4326,4320 4326,4370 4130,4370"/><polygon points="4130,4500 4326,4500 4326,4450 4130,4450"/><rect x="4112" y="4290" height="240" width="18"/><rect x="4326" y="4290" height="240" width="18"/></g></g></g></g><g data-id="d12g26er" data-class="staff" class="staff"><path d="M4022 5940 L6568 5940" stroke-width="13"/><path d="M4022 6120 L6568 6120" stroke-width="13"/><path d="M4022 6300 L6568 6300" stroke-width="13"/><path d="M4022 6480 L6568 6480" stroke-width="13"/><path d="M4022 6660 L6568 6660" stroke-width="13"/><g data-id="e9f6ayf" data-class="layer" class="layer"><g data-id="w124d7a0" data-class="note" class="note"><g data-class="notehead" class="notehead"><polygon points="4130,5940 4326,5940 4326,5990 4130,5990"/><polygon points="4130,6120 4326,6120 4326,6070 4130,6070"/><rect x="4112" y="5910" height="240" width="18"/><rect x="4326" y="5910" height="240" width="18"/></g></g></g></g><g data-id="vxz17we" data-class="staff" class="staff"><path d="M6568 540 L9114 540" stroke-width="13"/><path d="M6568 720 L9114 720" stroke-width="13"/><path d="M6568 900 L9114 900" stroke-width="13"/><path d="M6568 1080 L9114 1080" stroke-width="13"/><path d="M6568 1260 L9114 1260" stroke-width="13"/><g data-id="wjns8yg" data-class="layer" class="layer"><g data-id="z1u86v33" data-class="note" class="note"><g data-class="notehead" class="notehead"><polygon points="6676,720 6872,720 6872,770 6676,770"/><polygon points="6676,900 6872,900 6872,850 6676,850"/><rect x="6658" y="690" height="240" width="18"/><rect x="6872" y="690" height="240" width="18"/></g></g></g></g><g data-id="ho8srtf" data-class="staff" class="staff"><path d="M6568 2340 L9114 2340" stroke-width="13"/><path d="M6568 2520 L9114 2520" stroke-width="13"/><path d="M6568 2700 L9114 2700" stroke-width="13"/><path d="M6568 2880 L9114 2880" stroke-width="13"/><path d="M6568 3060 L9114 3060" stroke-width="13"/><g data-id="ikvymqz" data-class="layer" class="layer"><g data-id="he2u48z" data-class="note" class="note"><g data-class="notehead" class="notehead"><polygon points="6676,2430 6872,2430 6872,2480 6676,2480"/><polygon points="6676,2610 6872,2610 6872,2560 6676,2560"/><rect x="6658" y="2400" height="240" width="18"/><rect x="6872" y="2400" height="240" width="18"/></g></g></g></g><g data-id="t1ifzsu4" data-class="staff" class="staff"><path d="M6568 4140 L9114 4140" stroke-width="13"/><path d="M6568 4320 L9114 4320" stroke-width="13"/><path d="M6568 4500 L9114 4500" stroke-width="13"/><path d="M6568 4680 L9114 4680" stroke-width="13"/><path d="M6568 4860 L9114 4860" stroke-width="13"/><g data-id="u1lm4d06" data-class="layer" class="layer"><g data-id="p70j0g5" data-class="note" class="note"><g data-class="notehead" class="notehead"><polygon points="6676,4140 6872,4140 6872,4190 6676,4190"/><polygon points="6676,4320 6872,4320 6872,4270 6676,4270"/><rect x="6658" y="4110" height="240" width="18"/><rect x="6872" y="4110" height="240" width="18"/></g></g></g></g><g data-id="fevfobd" data-class="staff" class="staff"><path d="M6568 5940 L9114 5940" stroke-width="13"/><path d="M6568 6120 L9114 6120" stroke-width="13"/><path d="M6568 6300 L9114 6300" stroke-width="13"/><path d="M6568 6480 L9114 6480" stroke-width="13"/><path d="M6568 6660 L9114 6660" stroke-width="13"/><g data-id="g5zcwaw" data-class="layer" class="layer"><g data-id="x17swffe" data-class="note" class="note"><g data-class="notehead" class="notehead"><polygon points="6676,5940 6872,5940 6872,5990 6676,5990"/><polygon points="6676,6120 6872,6120 6872,6070 6676,6070"/><rect x="6658" y="5910" height="240" width="18"/><rect x="6872" y="5910" height="240" width="18"/></g></g></g></g><g data-id="x1cyirom" data-class="staff" class="staff"><path d="M9114 540 L11660 540" stroke-width="13"/><path d="M9114 720 L11660 720" stroke-width="13"/><path d="M9114 900 L11660 900" stroke-width="13"/><path d="M9114 1080 L11660 1080" stroke-width="13"/><path d="M9114 1260 L11660 1260" stroke-width="13"/><g data-id="yvfqxbj" data-class="layer" class="layer"><g data-id="a175ix2s" data-class="note" class="note"><g data-class="notehead" class="notehead"><polygon points="9222,810 9418,810 9418,860 9222,860"/><polygon points="9222,990 9418,990 9418,940 9222,940"/><rect x="9204" y="780" height="240" width="18"/><rect x="9418" y="780" height="240" width="18"/></g></g></g></g><g data-id="j1iert59" data-class="staff" class="staff"><path d="M9114 2340 L11660 2340" stroke-width="13"/><path d="M9114 2520 L11660 2520" stroke-width="13"/><path d="M9114 2700 L11660 2700" stroke-width="13"/><path d="M9114 2880 L11660 2880" stroke-width="13"/><path d="M9114 3060 L11660 3060" stroke-width="13"/><g data-id="k1w8u9ko" data-class="layer" class="layer"><g data-id="iox8i7z" data-class="note" class="note"><g data-class="notehead" class="notehead"><polygon points="9222,2430 9418,2430 9418,2480 9222,2480"/><polygon points="9222,2610 9418,2610 9418,2560 9222,2560"/><rect x="9204" y="2400" height="240" width="18"/><rect x="9418" y="2400" height="240" width="18"/></g></g></g></g><g data-id="v4uh54i" data-class="staff" class="staff"><path d="M9114 4140 L11660 4140" stroke-width="13"/><path d="M9114 4320 L11660 4320" stroke-width="13"/><path d="M9114 4500 L11660 4500" stroke-width="13"/><path d="M9114 4680 L11660 4680" stroke-width="13"/><path d="M9114 4860 L11660 4860" stroke-width="13"/><g data-id="wlqbbkj" data-class="layer" class="layer"><g data-id="q125et4q" data-class="note" class="note"><g data-class="notehead" class="notehead"><polygon points="9222,4230 9418,4230 9418,4280 9222,4280"/><polygon points="9222,4410 9418,4410 9418,4360 9222,4360"/><rect x="9204" y="4200" height="240" width="18"/><rect x="9418" y="4200" height="240" width="18"/></g></g></g></g><g data-id="h1qazwrw" data-class="staff" class="staff"><path d="M9114 5940 L11660 5940" stroke-width="13"/><path d="M9114 6120 L11660 6120" stroke-width="13"/><path d="M9114 6300 L11660 6300" stroke-width="13"/><path d="M9114 6480 L11660 6480" stroke-width="13"/><path d="M9114 6660 L11660 6660" stroke-width="13"/><g data-id="i1mvhini" data-class="layer" class="layer"><g data-id="y1a3lr97" data-class="note" class="note"><g data-class="notehead" class="notehead"><polygon points="9222,6300 9418,6300 9418,6350 9222,6350"/><polygon points="9222,6480 9418,6480 9418,6430 9222,6430"/><rect x="9204" y="6270" height="240" width="18"/><rect x="9418" y="6270" height="240" width="18"/></g></g></g></g><g data-id="z145r2j5" data-class="staff" class="staff"><path d="M11660 540 L13364 540" stroke-width="13"/><path d="M11660 720 L13364 720" stroke-width="13"/><path d="M11660 900 L13364 900" stroke-width="13"/><path d="M11660 1080 L13364 1080" stroke-width="13"/><path d="M11660 1260 L13364 1260" stroke-width="13"/><g data-id="awxs1at" data-class="layer" class="layer"><g data-id="b14ok2lb" data-class="note" class="note"><g data-class="notehead" class="notehead"><use href="#E93C-t1c75yn3" transform="translate(11750, 900) scale(0.72, 0.72)"/></g></g></g></g><g data-id="lhg36w7" data-class="staff" class="staff"><path d="M11660 2340 L13364 2340" stroke-width="13"/><path d="M11660 2520 L13364 2520" stroke-width="13"/><path d="M11660 2700 L13364 2700" stroke-width="13"/><path d="M11660 2880 L13364 2880" stroke-width="13"/><path d="M11660 3060 L13364 3060" stroke-width="13"/><g data-id="m18iaphk" data-class="layer" class="layer"><g data-id="jocw7py" data-class="note" class="note"><g data-class="notehead" class="notehead"><use href="#E93C-t1c75yn3" transform="translate(11750, 2520) scale(0.72, 0.72)"/></g></g></g></g><g data-id="x1ylppkp" data-class="staff" class="staff"><path d="M11660 4140 L13364 4140" stroke-width="13"/><path d="M11660 4320 L13364 4320" stroke-width="13"/><path d="M11660 4500 L13364 4500" stroke-width="13"/><path d="M11660 4680 L13364 4680" stroke-width="13"/><path d="M11660 4860 L13364 4860" stroke-width="13"/><g data-id="y16gzq94" data-class="layer" class="layer"><g data-id="rq446gc" data-class="note" class="note"><g data-class="notehead" class="notehead"><use href="#E93C-t1c75yn3" transform="translate(11750, 4320) scale(0.72, 0.72)"/></g></g></g></g><g data-id="j1koclvp" data-class="staff" class="staff"><path d="M11660 5940 L13364 5940" stroke-width="13"/><path d="M11660 6120 L13364 6120" stroke-width="13"/><path d="M11660 6300 L13364 6300" stroke-width="13"/><path d="M11660 6480 L13364 6480" stroke-width="13"/><path d="M11660 6660 L13364 6660" stroke-width="13"/><g data-id="kuweloc" data-class="layer" class="layer"><g data-id="z1fslska" data-class="note" class="note"><g data-class="notehead" class="notehead"><use href="#E93C-t1c75yn3" transform="translate(11750, 6390) scale(0.72, 0.72)"/></g></g></g></g></g><g data-id="e1rclez8" data-class="system" class="system"><path d="M13 8100 L13 14220" stroke-width="27"/><g data-id="bf79sd0" data-class="staff" class="staff"><path d="M0 8100 L2676 8100" stroke-width="13"/><path d="M0 8280 L2676 8280" stroke-width="13"/><path d="M0 8460 L2676 8460" stroke-width="13"/><path d="M0 8640 L2676 8640" stroke-width="13"/><path d="M0 8820 L2676 8820" stroke-width="13"/><g data-id="thuzih1" data-class="clef" class="clef"><use href="#E907-t1c75yn3" transform="translate(117, 8820) scale(0.72, 0.72)"/></g><g data-id="uglnjv9" data-class="keySig" class="keySig"><g data-id="vn468s2" data-class="keyAccid" class="keyAccid"><use href="#E9E0-t1c75yn3" transform="translate(726, 8280) scale(0.72, 0.72)"/></g></g><g data-id="ct8st0z" data-class="layer" class="layer"><g data-id="c8y7p7b" data-class="note" class="note"><g data-class="notehead" class="notehead"><use href="#E93C-t1c75yn3" transform="translate(1062, 8460) scale(0.72, 0.72)"/></g></g></g></g><g data-id="n9qgn2u" data-class="staff" class="staff"><path d="M0 9900 L2676 9900" stroke-width="13"/><path d="M0 10080 L2676 10080" stroke-width="13"/><path d="M0 10260 L2676 10260" stroke-width="13"/><path d="M0 10440 L2676 10440" stroke-width="13"/><path d="M0 10620 L2676 10620" stroke-width="13"/><g data-id="wcuudi4" data-class="clef" class="clef"><use href="#E90A-t1c75yn3" transform="translate(117, 10080) scale(0.72, 0.72)"/></g><g data-id="x1dbfhmk" data-class="keySig" class="keySig"><g data-id="y13rcf5q" data-class="keyAccid" class="keyAccid"><use href="#E9E0-t1c75yn3" transform="translate(726, 10170) scale(0.72, 0.72)"/></g></g><g data-id="o1g8ujvs" data-class="layer" class="layer"><g data-id="k1vrk12g" data-class="note" class="note"><g data-class="notehead" class="notehead"><use href="#E93C-t1c75yn3" transform="translate(1062, 10080) scale(0.72, 0.72)"/></g></g></g></g><g data-id="ze2zqir" data-class="staff" class="staff"><path d="M0 11700 L2676 11700" stroke-width="13"/><path d="M0 11880 L2676 11880" stroke-width="13"/><path d="M0 12060 L2676 12060" stroke-width="13"/><path d="M0 12240 L2676 12240" stroke-width="13"/><path d="M0 12420 L2676 12420" stroke-width="13"/><g data-id="z11nhgwg" data-class="clef" class="clef"><use href="#E909-t1c75yn3" transform="translate(117, 12060) scale(0.72, 0.72)"/></g><g data-id="a1lvw8og" data-class="keySig" class="keySig"><g data-id="bl6q322" data-class="keyAccid" class="keyAccid"><use href="#E9E0-t1c75yn3" transform="translate(726, 12150) scale(0.72, 0.72)"/></g></g><g data-id="a10cfxi" data-class="layer" class="layer"><g data-id="s1lrzkqn" data-class="note" class="note"><g data-class="notehead" class="notehead"><use href="#E93C-t1c75yn3" transform="translate(1062, 11880) scale(0.72, 0.72)"/></g></g></g></g><g data-id="l1jpij5g" data-class="staff" class="staff"><path d="M0 13500 L2676 13500" stroke-width="13"/><path d="M0 13680 L2676 13680" stroke-width="13"/><path d="M0 13860 L2676 13860" stroke-width="13"/><path d="M0 14040 L2676 14040" stroke-width="13"/><path d="M0 14220 L2676 14220" stroke-width="13"/><g data-id="cw94s4w" data-class="clef" class="clef"><use href="#E904-t1c75yn3" transform="translate(117, 13680) scale(0.72, 0.72)"/></g><g data-id="d1kpzud" data-class="keySig" class="keySig"><g data-id="ei3x138" data-class="keyAccid" class="keyAccid"><use href="#E9E0-t1c75yn3" transform="translate(726, 14040) scale(0.72, 0.72)"/></g></g><g data-id="myrdboz" data-class="layer" class="layer"><g data-id="a177xx3o" data-class="note" class="note"><g data-class="notehead" class="notehead"><use href="#E93C-t1c75yn3" transform="translate(1062, 13950) scale(0.72, 0.72)"/></g></g></g></g><g data-id="i1npr8kl" data-class="systemMilestoneEnd" class="systemMilestoneEnd l1w8wabc"/></g><g data-id="jiye5m2" data-class="pageMilestoneEnd" class="pageMilestoneEnd v14j8tod"/><g data-id="k7lqgh6" data-class="pageMilestoneEnd" class="pageMilestoneEnd u16oy887"/></g></svg></svg>