<svg viewBox="0 0 144 86" version="1.1" xmlns="http://www.w3.org/2000/svg" xmlns:xlink="http://www.w3.org/1999/xlink" overflow="visible" id="rlt3klp"><desc>Engraved by Verovio 6.1.0-682d606</desc><defs><g id="E901-rlt3klp"><path transform="scale(1,-1)" d="M144 488c30 28 83 110 83 176c0 77 -39 150 -104 150c-15 0 -33 -6 -61 -34c-15 -15 -23 -44 -23 -79c0 -44 14 -96 43 -133c23 -29 44 -58 62 -80zM159 69c-57 0 -104 -31 -104 -98c0 -61 35 -63 51 -75c8 0 23 52 39 92l32 80c-6 1 -12 1 -18 1zM256 -25 c0 -76 -24 -122 -98 -122h-3c-28 0 -66 7 -84 15c-38 17 -71 55 -71 112c0 55 56 114 124 123c25 3 49 8 61 8c12 33 26 89 26 128c0 104 -55 180 -76 211c-51 -65 -79 -110 -90 -178c-1 -6 -4 -25 -4 -46c0 -18 2 -38 10 -50c5 -7 7 -16 7 -24c0 -13 -6 -24 -15 -24 c-5 0 -12 5 -19 17c-12 21 -24 38 -24 96c0 77 23 115 54 151c38 44 26 28 65 68l1 -1c0 3 -16 27 -60 79c-19 22 -58 58 -58 145c0 76 30 100 53 123c25 25 57 38 102 38c62 0 110 -83 110 -168c0 -13 -2 -26 -4 -39c-10 -52 -83 -130 -111 -163c24 -38 8 -3 55 -91 c34 -63 42 -84 42 -119c0 -10 -1 -22 -2 -37c-4 -63 -11 -76 -20 -116c7 0 12 1 21 -1c14 -4 20 -11 20 -19c0 -19 -30 -19 -52 -24c-6 -13 -67 -174 -67 -181c0 -2 9 -4 19 -4c25 0 41 21 56 73c8 28 14 39 22 39s10 -8 10 -19z"/></g><g id="E93C-rlt3klp"><path transform="scale(1,-1)" d="M156 195l156 -195l-156 -195l-156 195zM127 110l-57 -71l115 -149l57 71z"/></g><g id="E93E-rlt3klp"><path transform="scale(1,-1)" d="M0 760h30v-760h-30v760z"/></g></defs><style type="text/css">#rlt3klp g.ending, #rlt3klp g.fing, #rlt3klp g.reh, #rlt3klp g.tempo {font-weight:bold;}#rlt3klp g.dir, #rlt3klp g.dynam, #rlt3klp g.mNum {font-style:italic;}#rlt3klp g.label {font-weight:normal;}#rlt3klp ellipse, #rlt3klp path, #rlt3klp polygon, #rlt3klp polyline, #rlt3klp rect {stroke:currentColor}</style><svg class="definition-scale" color="black" font-family="Times, serif" viewBox="0 0 14390 8560"><g class="page-margin" transform="translate(500, 500)"><g data-id="sa5agpt" data-class="mdiv" class="mdiv pageMilestone"/><g data-id="tlzdort" data-class="score" class="score pageMilestone"/><g data-id="w1px2kje" data-class="system" class="system"><path d="M13 540 L13 3060" stroke-width="27"/><g data-id="q6ddqo8" data-class="section" class="section systemMilestone"/><g data-id="as3atku" data-class="staff" class="staff"><path d="M0 540 L13398 540" stroke-width="13"/><path d="M0 720 L13398 720" stroke-width="13"/><path d="M0 900 L13398 900" stroke-width="13"/><path d="M0 1080 L13398 1080" stroke-width="13"/><path d="M0 1260 L13398 1260" stroke-width="13"/><g data-id="g1slct3a" data-class="clef" class="clef"><use href="#E901-rlt3klp" transform="translate(117, 1080) scale(0.72, 0.72)"/></g><g data-id="h10qzlf5" data-class="keySig" class="keySig"/><g data-id="bd8ddr5" data-class="layer" class="layer"><g data-id="c1qchnui" data-class="note" class="note"><g data-class="notehead" class="notehead"><polygon points="507,1170 703,1170 703,1220 507,1220"/><polygon points="507,1350 703,1350 703,1300 507,1300"/><rect x="489" y="1140" height="240" width="18"/></g><g data-class="stem" class="stem"><rect x="703" y="630" height="750" width="18"/></g></g><g data-id="d16chdhy" data-class="barLine" class="barLine"><ellipse cx="13371" cy="630" rx="27" ry="27"/><ellipse cx="13371" cy="810" rx="27" ry="27"/><ellipse cx="13371" cy="990" rx="27" ry="27"/><ellipse cx="13371" cy="1170" rx="27" ry="27"/></g></g></g><g data-id="g62c6jv" data-class="staff" class="staff"><path d="M0 2340 L13398 2340" stroke-width="13"/><path d="M0 2520 L13398 2520" stroke-width="13"/><path d="M0 2700 L13398 2700" stroke-width="13"/><path d="M0 2880 L13398 2880" stroke-width="13"/><path d="M0 3060 L13398 3060" stroke-width="13"/><g data-id="istzpyt" data-class="clef" class="clef"><use href="#E901-rlt3klp" transform="translate(117, 2880) scale(0.72, 0.72)"/></g><g data-id="j56gj70" data-class="keySig" class="keySig"/><g data-id="hutjq5i" data-class="layer" class="layer"><g data-id="i1qbuvs" data-class="note" class="note"><g data-class="notehead" class="notehead"><use href="#E93C-rlt3klp" transform="translate(489, 2790) scale(0.72, 0.72)"/></g><g data-id="s1wv8yjn" data-class="stem" class="stem"><use href="#E93E-rlt3klp" transform="translate(591, 2710) scale(0.72, 0.72)"/></g></g><g data-id="j1fg9don" data-class="note" class="note"><g data-class="notehead" class="notehead"><use href="#E93C-rlt3klp" transform="translate(1214, 2790) scale(0.72, 0.72)"/></g><g data-id="tu25arw" data-class="stem" class="stem"><use href="#E93E-rlt3klp" transform="translate(1316, 2710) scale(0.72, 0.72)"/></g></g><g data-id="ktva9x8" data-class="note" class="note"><g data-class="notehead" class="notehead"><use href="#E93C-rlt3klp" transform="translate(1939, 2790) scale(0.72, 0.72)"/></g><g data-id="uhnxbhz" data-class="stem" class="stem"><use href="#E93E-rlt3klp" transform="translate(2041, 2710) scale(0.72, 0.72)"/></g></g><g data-id="l6jh644" data-class="barLine" class="barLine"><ellipse cx="2664" cy="2430" rx="27" ry="27"/><ellipse cx="2664" cy="2610" rx="27" ry="27"/><ellipse cx="2664" cy="2790" rx="27" ry="27"/><ellipse cx="2664" cy="2970" rx="27" ry="27"/></g><g data-id="m68688a" data-class="note" class="note"><g data-class="notehead" class="notehead"><use href="#E93C-rlt3klp" transform="translate(2781, 2790) scale(0.72, 0.72)"/></g><g data-id="vzoq7az" data-class="stem" class="stem"><use href="#E93E-rlt3klp" transform="translate(2883, 2710) scale(0.72, 0.72)"/></g></g><g data-id="n1397m4t" data-class="note" class="note"><g data-class="notehead" class="notehead"><use href="#E93C-rlt3klp" transform="translate(3506, 2790) scale(0.72, 0.72)"/></g><g data-id="w6kbih6" data-class="stem" class="stem"><use href="#E93E-rlt3klp" transform="translate(3608, 2710) scale(0.72, 0.72)"/></g></g><g data-id="o1uk0d9y" data-class="note" class="note"><g data-class="notehead" class="notehead"><use href="#E93C-rlt3klp" transform="translate(4231, 2790) scale(0.72, 0.72)"/></g><g data-id="x1bawwgr" data-class="stem" class="stem"><use href="#E93E-rlt3klp" transform="translate(4333, 2710) scale(0.72, 0.72)"/></g></g><g data-id="p1qzfofq" data-class="barLine" class="barLine"><path d="M4956 2340 L4956 3060" stroke-width="27" stroke-dasharray="102 102"/></g><g data-id="q6fvcaw" data-class="note" class="note"><g data-class="notehead" class="notehead"><use href="#E93C-rlt3klp" transform="translate(5059, 2790) scale(0.72, 0.72)"/></g><g data-id="y1f1xgfb" data-class="stem" class="stem"><use href="#E93E-rlt3klp" transform="translate(5161, 2710) scale(0.72, 0.72)"/></g></g><g data-id="r9te5da" data-class="note" class="note"><g data-class="notehead" class="notehead"><use href="#E93C-rlt3klp" transform="translate(5784, 2790) scale(0.72, 0.72)"/></g><g data-id="z1kq9kq3" data-class="stem" class="stem"><use href="#E93E-rlt3klp" transform="translate(5886, 2710) scale(0.72, 0.72)"/></g></g><g data-id="s1cwp9nz" data-class="note" class="note"><g data-class="notehead" class="notehead"><use href="#E93C-rlt3klp" transform="translate(6509, 2790) scale(0.72, 0.72)"/></g><g data-id="a1szp0oj" data-class="stem" class="stem"><use href="#E93E-rlt3klp" transform="translate(6611, 2710) scale(0.72, 0.72)"/></g></g><g data-id="tnypxs4" data-class="barLine" class="barLine"><ellipse cx="7234" cy="2430" rx="27" ry="27"/><ellipse cx="7234" cy="2610" rx="27" ry="27"/><ellipse cx="7234" cy="2790" rx="27" ry="27"/><ellipse cx="7234" cy="2970" rx="27" ry="27"/></g><g data-id="u1373s55" data-class="note" class="note"><g data-class="notehead" class="notehead"><use href="#E93C-rlt3klp" transform="translate(7351, 2790) scale(0.72, 0.72)"/></g><g data-id="bb7qfya" data-class="stem" class="stem"><use href="#E93E-rlt3klp" transform="translate(7453, 2710) scale(0.72, 0.72)"/></g></g><g data-id="vz7a3sq" data-class="note" class="note"><g data-class="notehead" class="notehead"><use href="#E93C-rlt3klp" transform="translate(8076, 2790) scale(0.72, 0.72)"/></g><g data-id="czgbp8g" data-class="stem" class="stem"><use href="#E93E-rlt3klp" transform="translate(8178, 2710) scale(0.72, 0.72)"/></g></g><g data-id="w16nkogp" data-class="note" class="note"><g data-class="notehead" class="notehead"><use href="#E93C-rlt3klp" transform="translate(8801, 2790) scale(0.72, 0.72)"/></g><g data-id="d1s09fof" data-class="stem" class="stem"><use href="#E93E-rlt3klp" transform="translate(8903, 2710) scale(0.72, 0.72)"/></g></g><g data-id="xsh75c6" data-class="barLine" class="barLine"><path d="M9526 2340 L9526 3060" stroke-width="27" stroke-dasharray="102 102"/></g><g data-id="y8fxxg6" data-class="note" class="note"><g data-class="notehead" class="notehead"><use href="#E93C-rlt3klp" transform="translate(9629, 2790) scale(0.72, 0.72)"/></g><g data-id="e101hilm" data-class="stem" class="stem"><use href="#E93E-rlt3klp" transform="translate(9731, 2710) scale(0.72, 0.72)"/></g></g><g data-id="z6xlei2" data-class="note" class="note"><g data-class="notehead" class="notehead"><use href="#E93C-rlt3klp" transform="translate(10354, 2790) scale(0.72, 0.72)"/></g><g data-id="fp9eu1o" data-class="stem" class="stem"><use href="#E93E-rlt3klp" transform="translate(10456, 2710) scale(0.72, 0.72)"/></g></g><g data-id="aj5y932" data-class="note" class="note"><g data-class="notehead" class="notehead"><use href="#E93C-rlt3klp" transform="translate(11079, 2790) scale(0.72, 0.72)"/></g><g data-id="g1bs9tmo" data-class="stem" class="stem"><use href="#E93E-rlt3klp" transform="translate(11181, 2710) scale(0.72, 0.72)"/></g></g><g data-id="b2o15pw" data-class="barLine" class="barLine"><ellipse cx="11804" cy="2430" rx="27" ry="27"/><ellipse cx="11804" cy="2610" rx="27" ry="27"/><ellipse cx="11804" cy="2790" rx="27" ry="27"/><ellipse cx="11804" cy="2970" rx="27" ry="27"/></g><g data-id="c1tnmbu0" data-class="note" class="note"><g data-class="notehead" class="notehead"><use href="#E93C-rlt3klp" transform="translate(11921, 2790) scale(0.72, 0.72)"/></g><g data-id="h1kw4k2e" data-class="stem" class="stem"><use href="#E93E-rlt3klp" transform="translate(12023, 2710) scale(0.72, 0.72)"/></g></g><g data-id="d1ily6a5" data-class="note" class="note"><g data-class="notehead" class="notehead"><use href="#E93C-rlt3klp" transform="translate(12646, 2790) scale(0.72, 0.72)"/></g><g data-id="i3tljoj" data-class="stem" class="stem"><use href="#E93E-rlt3klp" transform="translate(12748, 2710) scale(0.72, 0.72)"/></g></g></g></g></g><g data-id="z1p7lqa5" data-class="system" class="system"><path d="M13 4500 L13 7020" stroke-width="27"/><g data-id="fnjvs85" data-class="staff" class="staff"><path d="M0 4500 L1227 4500" stroke-width="13"/><path d="M0 4680 L1227 4680" stroke-width="13"/><path d="M0 4860 L1227 4860" stroke-width="13"/><path d="M0 5040 L1227 5040" stroke-width="13"/><path d="M0 5220 L1227 5220" stroke-width="13"/><g data-id="a4uqjhh" data-class="clef" class="clef"><use href="#E901-rlt3klp" transform="translate(117, 5040) scale(0.72, 0.72)"/></g><g data-id="b16bnawi" data-class="keySig" class="keySig"/><g data-id="g7sphep" data-class="layer" class="layer"><g data-id="e1ysqsxj" data-class="note" class="note"><g data-class="notehead" class="notehead"><use href="#E93C-rlt3klp" transform="translate(489, 5220) scale(0.72, 0.72)"/></g><g data-id="rgsmpz7" data-class="stem" class="stem"><use href="#E93E-rlt3klp" transform="translate(591, 5140) scale(0.72, 0.72)"/></g></g><g data-id="f1vco5yi" data-class="barLine" class="barLine"><path d="M1214 4500 L1214 5220" stroke-width="27" stroke-dasharray="102 102"/></g></g></g><g data-id="j1c7lc0o" data-class="staff" class="staff"><path d="M0 6300 L1227 6300" stroke-width="13"/><path d="M0 6480 L1227 6480" stroke-width="13"/><path d="M0 6660 L1227 6660" stroke-width="13"/><path d="M0 6840 L1227 6840" stroke-width="13"/><path d="M0 7020 L1227 7020" stroke-width="13"/><g data-id="c1emnsp8" data-class="clef" class="clef"><use href="#E901-rlt3klp" transform="translate(117, 6840) scale(0.72, 0.72)"/></g><g data-id="dheklk7" data-class="keySig" class="keySig"/><g data-id="k4nnutj" data-class="layer" class="layer"><g data-id="e1s2wzaw" data-class="note" class="note"><g data-class="notehead" class="notehead"><use href="#E93C-rlt3klp" transform="translate(489, 6750) scale(0.72, 0.72)"/></g><g data-id="j10gu9bi" data-class="stem" class="stem"><use href="#E93E-rlt3klp" transform="translate(591, 6670) scale(0.72, 0.72)"/></g></g><g data-id="f1vfsqw6" data-class="barLine" class="barLine"><path d="M1214 6300 L1214 7020" stroke-width="27" stroke-dasharray="102 102"/></g></g></g><g data-id="n1i6la0p" data-class="systemMilestoneEnd" class="systemMilestoneEnd q6ddqo8"/></g><g data-id="o1687zo8" data-class="pageMilestoneEnd" class="pageMilestoneEnd tlzdort"/><g data-id="pv0h5s2" data-class="pageMilestoneEnd" class="pageMilestoneEnd sa5agpt"/></g></svg></svg>