<svg viewBox="0 0 145 86" version="1.1" xmlns="http://www.w3.org/2000/svg" xmlns:xlink="http://www.w3.org/1999/xlink" overflow="visible" id="i1ec0wg7"><desc>Engraved by Verovio 6.0.1-ffbc336</desc><defs><g id="E901-i1ec0wg7"><path transform="scale(1,-1)" d="M144 488c30 28 83 110 83 176c0 77 -39 150 -104 150c-15 0 -33 -6 -61 -34c-15 -15 -23 -44 -23 -79c0 -44 14 -96 43 -133c23 -29 44 -58 62 -80zM159 69c-57 0 -104 -31 -104 -98c0 -61 35 -63 51 -75c8 0 23 52 39 92l32 80c-6 1 -12 1 -18 1zM256 -25 c0 -76 -24 -122 -98 -122h-3c-28 0 -66 7 -84 15c-38 17 -71 55 -71 112c0 55 56 114 124 123c25 3 49 8 61 8c12 33 26 89 26 128c0 104 -55 180 -76 211c-51 -65 -79 -110 -90 -178c-1 -6 -4 -25 -4 -46c0 -18 2 -38 10 -50c5 -7 7 -16 7 -24c0 -13 -6 -24 -15 -24 c-5 0 -12 5 -19 17c-12 21 -24 38 -24 96c0 77 23 115 54 151c38 44 26 28 65 68l1 -1c0 3 -16 27 -60 79c-19 22 -58 58 -58 145c0 76 30 100 53 123c25 25 57 38 102 38c62 0 110 -83 110 -168c0 -13 -2 -26 -4 -39c-10 -52 -83 -130 -111 -163c24 -38 8 -3 55 -91 c34 -63 42 -84 42 -119c0 -10 -1 -22 -2 -37c-4 -63 -11 -76 -20 -116c7 0 12 1 21 -1c14 -4 20 -11 20 -19c0 -19 -30 -19 -52 -24c-6 -13 -67 -174 -67 -181c0 -2 9 -4 19 -4c25 0 41 21 56 73c8 28 14 39 22 39s10 -8 10 -19z"/></g><g id="E9F0-i1ec0wg7"><path transform="scale(1,-1)" d="M0 500h40v-1000h-40v1000zM90 500h40v-1000h-40v1000z"/></g><g id="E9F2-i1ec0wg7"><path transform="scale(1,-1)" d="M0 250h40v-500h-40v500z"/></g><g id="E9F3-i1ec0wg7"><path transform="scale(1,-1)" d="M0 250h40v-250h-40v250z"/></g><g id="E93C-i1ec0wg7"><path transform="scale(1,-1)" d="M156 195l156 -195l-156 -195l-156 195zM127 110l-57 -71l115 -149l57 71z"/></g><g id="E9F4-i1ec0wg7"><path transform="scale(1,-1)" d="M0 250h40v-140h-40v140z"/></g><g id="E93E-i1ec0wg7"><path transform="scale(1,-1)" d="M0 760h30v-760h-30v760z"/></g><g id="E9F5-i1ec0wg7"><path transform="scale(1,-1)" d="M0 140h40v-140h-40v140z"/></g><g id="E93D-i1ec0wg7"><path transform="scale(1,-1)" d="M156 195l156 -195l-156 -195l-156 195z"/></g><g id="E9F6-i1ec0wg7"><path transform="scale(1,-1)" d="M40 96v-96h-40v140h40l78 -69h-48z"/></g><g id="E949-i1ec0wg7"><path transform="scale(1,-1)" d="M0 0v760h30l150 -259l-26 -15l-124 214v-700h-30z"/></g><g id="E9F7-i1ec0wg7"><path transform="scale(1,-1)" d="M78 96l-30 -25h-48l78 69h40v-140h-40v96z"/></g><g id="E94B-i1ec0wg7"><path transform="scale(1,-1)" d="M0 0v760h30l150 -259l-26 -15l-124 214v-80l150 -259l-26 -15l-124 214v-560h-30z"/></g><g id="E9F8-i1ec0wg7"><path transform="scale(1,-1)" d="M78 96l-30 -25h-48l78 69h40v-140h-40v39l-30 -25h-48l78 69v13z"/></g></defs><style type="text/css">#i1ec0wg7 g.ending, #i1ec0wg7 g.fing, #i1ec0wg7 g.reh, #i1ec0wg7 g.tempo {font-weight:bold;}#i1ec0wg7 g.dir, #i1ec0wg7 g.dynam, #i1ec0wg7 g.mNum {font-style:italic;}#i1ec0wg7 g.label {font-weight:normal;}#i1ec0wg7 ellipse, #i1ec0wg7 path, #i1ec0wg7 polygon, #i1ec0wg7 polyline, #i1ec0wg7 rect {stroke:currentColor}</style><svg class="definition-scale" color="black" font-family="Times, serif" viewBox="0 0 14470 8560"><g class="page-margin" transform="translate(500, 500)"><g data-id="j1hr8wla" data-class="mdiv" class="mdiv pageMilestone"/><g data-id="k9755h5" data-class="score" class="score pageMilestone"/><g data-id="d11vlzde" data-class="system" class="system"><path d="M13 540 L13 3060" stroke-width="27"/><g data-id="f1xy485v" data-class="section" class="section systemMilestone"/><g data-id="p1wj0m8" data-class="staff" class="staff"><path d="M0 540 L13282 540" stroke-width="13"/><path d="M0 720 L13282 720" stroke-width="13"/><path d="M0 900 L13282 900" stroke-width="13"/><path d="M0 1080 L13282 1080" stroke-width="13"/><path d="M0 1260 L13282 1260" stroke-width="13"/><g data-id="v7ug3sq" data-class="clef" class="clef"><use href="#E901-i1ec0wg7" transform="translate(117, 1080) scale(0.72, 0.72)"/></g><g data-id="w14h9tmf" data-class="keySig" class="keySig"/><g data-id="ql3k7hd" data-class="layer" class="layer"><g data-id="r1xv47fm" data-class="note" class="note"><g data-class="notehead" class="notehead"><polygon points="507,1170 935,1170 935,1220 507,1220"/><polygon points="507,1350 935,1350 935,1300 507,1300"/><rect x="489" y="1140" height="240" width="18"/></g><g data-class="stem" class="stem"><rect x="935" y="630" height="750" width="18"/></g></g></g></g><g data-id="z1ue0k9r" data-class="staff" class="staff"><path d="M0 2340 L13282 2340" stroke-width="13"/><path d="M0 2520 L13282 2520" stroke-width="13"/><path d="M0 2700 L13282 2700" stroke-width="13"/><path d="M0 2880 L13282 2880" stroke-width="13"/><path d="M0 3060 L13282 3060" stroke-width="13"/><g data-id="x12tll63" data-class="clef" class="clef"><use href="#E901-i1ec0wg7" transform="translate(117, 2880) scale(0.72, 0.72)"/></g><g data-id="yf93c0" data-class="keySig" class="keySig"/><g data-id="a1d1tn7p" data-class="layer" class="layer"><g data-id="b1y6k1tk" data-class="rest" class="rest"><use href="#E9F0-i1ec0wg7" transform="translate(489, 2700) scale(0.72, 0.72)"/></g></g></g></g><g data-id="gzbizne" data-class="system" class="system"><path d="M13 4500 L13 7020" stroke-width="27"/><g data-id="bp7d1jh" data-class="staff" class="staff"><path d="M0 4500 L6388 4500" stroke-width="13"/><path d="M0 4680 L6388 4680" stroke-width="13"/><path d="M0 4860 L6388 4860" stroke-width="13"/><path d="M0 5040 L6388 5040" stroke-width="13"/><path d="M0 5220 L6388 5220" stroke-width="13"/><g data-id="lpo5tej" data-class="clef" class="clef"><use href="#E901-i1ec0wg7" transform="translate(117, 5040) scale(0.72, 0.72)"/></g><g data-id="m8khzq2" data-class="keySig" class="keySig"/><g data-id="ctc29dp" data-class="layer" class="layer"><g data-id="s1iz3xij" data-class="note" class="note"><g data-class="notehead" class="notehead"><polygon points="507,5130 703,5130 703,5180 507,5180"/><polygon points="507,5310 703,5310 703,5260 507,5260"/><rect x="489" y="5100" height="240" width="18"/></g><g data-class="stem" class="stem"><rect x="703" y="4590" height="750" width="18"/></g></g></g></g><g data-id="rraqy13" data-class="staff" class="staff"><path d="M0 6300 L6388 6300" stroke-width="13"/><path d="M0 6480 L6388 6480" stroke-width="13"/><path d="M0 6660 L6388 6660" stroke-width="13"/><path d="M0 6840 L6388 6840" stroke-width="13"/><path d="M0 7020 L6388 7020" stroke-width="13"/><g data-id="neunerd" data-class="clef" class="clef"><use href="#E901-i1ec0wg7" transform="translate(117, 6840) scale(0.72, 0.72)"/></g><g data-id="o2la2zi" data-class="keySig" class="keySig"/><g data-id="s3ih5zv" data-class="layer" class="layer"><g data-id="c1csuayj" data-class="rest" class="rest"><use href="#E9F2-i1ec0wg7" transform="translate(489, 6660) scale(0.72, 0.72)"/></g></g></g><g data-id="dszop2o" data-class="staff" class="staff"><path d="M6388 4500 L9528 4500" stroke-width="13"/><path d="M6388 4680 L9528 4680" stroke-width="13"/><path d="M6388 4860 L9528 4860" stroke-width="13"/><path d="M6388 5040 L9528 5040" stroke-width="13"/><path d="M6388 5220 L9528 5220" stroke-width="13"/><g data-id="esqvjoh" data-class="layer" class="layer"><g data-id="tl7xl05" data-class="note" class="note"><g data-class="notehead" class="notehead"><polygon points="6496,5130 6692,5130 6692,5180 6496,5180"/><polygon points="6496,5310 6692,5310 6692,5260 6496,5260"/><rect x="6478" y="5100" height="240" width="18"/><rect x="6692" y="5100" height="240" width="18"/></g></g></g></g><g data-id="tlfpjg8" data-class="staff" class="staff"><path d="M6388 6300 L9528 6300" stroke-width="13"/><path d="M6388 6480 L9528 6480" stroke-width="13"/><path d="M6388 6660 L9528 6660" stroke-width="13"/><path d="M6388 6840 L9528 6840" stroke-width="13"/><path d="M6388 7020 L9528 7020" stroke-width="13"/><g data-id="u1qmj61" data-class="layer" class="layer"><g data-id="dyymdjn" data-class="rest" class="rest"><use href="#E9F3-i1ec0wg7" transform="translate(6478, 6660) scale(0.72, 0.72)"/><g data-class="ledgerLines" class="ledgerLines"/></g></g></g><g data-id="f1u8jb5r" data-class="staff" class="staff"><path d="M9528 4500 L11193 4500" stroke-width="13"/><path d="M9528 4680 L11193 4680" stroke-width="13"/><path d="M9528 4860 L11193 4860" stroke-width="13"/><path d="M9528 5040 L11193 5040" stroke-width="13"/><path d="M9528 5220 L11193 5220" stroke-width="13"/><g data-id="g1a1gsoj" data-class="layer" class="layer"><g data-id="ufbj9rw" data-class="note" class="note"><g data-class="notehead" class="notehead"><use href="#E93C-i1ec0wg7" transform="translate(9618, 5220) scale(0.72, 0.72)"/></g></g></g></g><g data-id="vmry7em" data-class="staff" class="staff"><path d="M9528 6300 L11193 6300" stroke-width="13"/><path d="M9528 6480 L11193 6480" stroke-width="13"/><path d="M9528 6660 L11193 6660" stroke-width="13"/><path d="M9528 6840 L11193 6840" stroke-width="13"/><path d="M9528 7020 L11193 7020" stroke-width="13"/><g data-id="w18vczv1" data-class="layer" class="layer"><g data-id="e12p2p83" data-class="rest" class="rest"><use href="#E9F4-i1ec0wg7" transform="translate(9618, 6660) scale(0.72, 0.72)"/><g data-class="ledgerLines" class="ledgerLines"/></g></g></g><g data-id="h5cg7k0" data-class="staff" class="staff"><path d="M11193 4500 L12089 4500" stroke-width="13"/><path d="M11193 4680 L12089 4680" stroke-width="13"/><path d="M11193 4860 L12089 4860" stroke-width="13"/><path d="M11193 5040 L12089 5040" stroke-width="13"/><path d="M11193 5220 L12089 5220" stroke-width="13"/><g data-id="i7nonzm" data-class="layer" class="layer"><g data-id="vusja0j" data-class="note" class="note"><g data-class="notehead" class="notehead"><use href="#E93C-i1ec0wg7" transform="translate(11283, 5220) scale(0.72, 0.72)"/></g><g data-id="xx32vu" data-class="stem" class="stem"><use href="#E93E-i1ec0wg7" transform="translate(11385, 5140) scale(0.72, 0.72)"/></g></g></g></g><g data-id="x1mbpcqf" data-class="staff" class="staff"><path d="M11193 6300 L12089 6300" stroke-width="13"/><path d="M11193 6480 L12089 6480" stroke-width="13"/><path d="M11193 6660 L12089 6660" stroke-width="13"/><path d="M11193 6840 L12089 6840" stroke-width="13"/><path d="M11193 7020 L12089 7020" stroke-width="13"/><g data-id="y12sq4z5" data-class="layer" class="layer"><g data-id="faabrj9" data-class="rest" class="rest"><use href="#E9F5-i1ec0wg7" transform="translate(11283, 6660) scale(0.72, 0.72)"/><g data-class="ledgerLines" class="ledgerLines"/></g></g></g><g data-id="ja0aw9q" data-class="staff" class="staff"><path d="M12089 4500 L12708 4500" stroke-width="13"/><path d="M12089 4680 L12708 4680" stroke-width="13"/><path d="M12089 4860 L12708 4860" stroke-width="13"/><path d="M12089 5040 L12708 5040" stroke-width="13"/><path d="M12089 5220 L12708 5220" stroke-width="13"/><g data-id="k1y84eaq" data-class="layer" class="layer"><g data-id="wqemohh" data-class="note" class="note"><g data-class="notehead" class="notehead"><use href="#E93D-i1ec0wg7" transform="translate(12179, 5220) scale(0.72, 0.72)"/></g><g data-id="yih28cp" data-class="stem" class="stem"><use href="#E93E-i1ec0wg7" transform="translate(12281, 5140) scale(0.72, 0.72)"/></g></g></g></g><g data-id="z1qhvlp7" data-class="staff" class="staff"><path d="M12089 6300 L12708 6300" stroke-width="13"/><path d="M12089 6480 L12708 6480" stroke-width="13"/><path d="M12089 6660 L12708 6660" stroke-width="13"/><path d="M12089 6840 L12708 6840" stroke-width="13"/><path d="M12089 7020 L12708 7020" stroke-width="13"/><g data-id="awmgcmy" data-class="layer" class="layer"><g data-id="g1w8f7h" data-class="rest" class="rest"><use href="#E9F6-i1ec0wg7" transform="translate(12179, 6660) scale(0.72, 0.72)"/></g></g></g><g data-id="l124exu4" data-class="staff" class="staff"><path d="M12708 4500 L13150 4500" stroke-width="13"/><path d="M12708 4680 L13150 4680" stroke-width="13"/><path d="M12708 4860 L13150 4860" stroke-width="13"/><path d="M12708 5040 L13150 5040" stroke-width="13"/><path d="M12708 5220 L13150 5220" stroke-width="13"/><g data-id="mw7d4g" data-class="layer" class="layer"><g data-id="x1wle2lu" data-class="note" class="note"><g data-class="notehead" class="notehead"><use href="#E93D-i1ec0wg7" transform="translate(12798, 5220) scale(0.72, 0.72)"/></g><g data-id="z132rggt" data-class="stem" class="stem"><use href="#E949-i1ec0wg7" transform="translate(12900, 5140) scale(0.72, 0.72)"/></g></g></g></g><g data-id="b1nco64f" data-class="staff" class="staff"><path d="M12708 6300 L13150 6300" stroke-width="13"/><path d="M12708 6480 L13150 6480" stroke-width="13"/><path d="M12708 6660 L13150 6660" stroke-width="13"/><path d="M12708 6840 L13150 6840" stroke-width="13"/><path d="M12708 7020 L13150 7020" stroke-width="13"/><g data-id="c1eyp31i" data-class="layer" class="layer"><g data-id="h2d3z1e" data-class="rest" class="rest"><use href="#E9F7-i1ec0wg7" transform="translate(12798, 6660) scale(0.72, 0.72)"/></g></g></g><g data-id="nokn97j" data-class="staff" class="staff"><path d="M13150 4500 L13471 4500" stroke-width="13"/><path d="M13150 4680 L13471 4680" stroke-width="13"/><path d="M13150 4860 L13471 4860" stroke-width="13"/><path d="M13150 5040 L13471 5040" stroke-width="13"/><path d="M13150 5220 L13471 5220" stroke-width="13"/><g data-id="o19rxn35" data-class="layer" class="layer"><g data-id="yfaakj9" data-class="note" class="note"><g data-class="notehead" class="notehead"><use href="#E93D-i1ec0wg7" transform="translate(13240, 5220) scale(0.72, 0.72)"/></g><g data-id="a11b2ht6" data-class="stem" class="stem"><use href="#E94B-i1ec0wg7" transform="translate(13342, 5140) scale(0.72, 0.72)"/></g></g></g></g><g data-id="d2beq1k" data-class="staff" class="staff"><path d="M13150 6300 L13471 6300" stroke-width="13"/><path d="M13150 6480 L13471 6480" stroke-width="13"/><path d="M13150 6660 L13471 6660" stroke-width="13"/><path d="M13150 6840 L13471 6840" stroke-width="13"/><path d="M13150 7020 L13471 7020" stroke-width="13"/><g data-id="e10j0x0v" data-class="layer" class="layer"><g data-id="i1ih40dx" data-class="rest" class="rest"><use href="#E9F8-i1ec0wg7" transform="translate(13240, 6660) scale(0.72, 0.72)"/></g></g></g><g data-id="q1v2d3s" data-class="systemMilestoneEnd" class="systemMilestoneEnd f1xy485v"/></g><g data-id="rng5ht9" data-class="pageMilestoneEnd" class="pageMilestoneEnd k9755h5"/><g data-id="soex6kd" data-class="pageMilestoneEnd" class="pageMilestoneEnd j1hr8wla"/></g></svg></svg>