<svg viewBox="0 0 163 46" version="1.1" xmlns="http://www.w3.org/2000/svg" xmlns:xlink="http://www.w3.org/1999/xlink" xmlns:mei="http://www.music-encoding.org/ns/mei" overflow="visible"><desc>Engraved by Verovio 3.15.0-5abc7c0</desc><defs><symbol id="E925-1ioaksu" viewBox="0 0 1000 1000" overflow="inherit"><path transform="scale(1,-1)" d="M0 408h36v-816h-36v816z"/></symbol><symbol id="E93C-1ioaksu" viewBox="0 0 1000 1000" overflow="inherit"><path transform="scale(1,-1)" d="M156 195l156 -195l-156 -195l-156 195zM127 110l-57 -71l115 -149l57 71z"/></symbol><symbol id="E93E-1ioaksu" viewBox="0 0 1000 1000" overflow="inherit"><path transform="scale(1,-1)" d="M0 760h30v-760h-30v760z"/></symbol><symbol id="E901-1ioaksu" viewBox="0 0 1000 1000" overflow="inherit"><path transform="scale(1,-1)" d="M144 488c30 28 83 110 83 176c0 77 -39 150 -104 150c-15 0 -33 -6 -61 -34c-15 -15 -23 -44 -23 -79c0 -44 14 -96 43 -133c23 -29 44 -58 62 -80zM159 69c-57 0 -104 -31 -104 -98c0 -61 35 -63 51 -75c8 0 23 52 39 92l32 80c-6 1 -12 1 -18 1zM256 -25 c0 -76 -24 -122 -98 -122h-3c-28 0 -66 7 -84 15c-38 17 -71 55 -71 112c0 55 56 114 124 123c25 3 49 8 61 8c12 33 26 89 26 128c0 104 -55 180 -76 211c-51 -65 -79 -110 -90 -178c-1 -6 -4 -25 -4 -46c0 -18 2 -38 10 -50c5 -7 7 -16 7 -24c0 -13 -6 -24 -15 -24 c-5 0 -12 5 -19 17c-12 21 -24 38 -24 96c0 77 23 115 54 151c38 44 26 28 65 68l1 -1c0 3 -16 27 -60 79c-19 22 -58 58 -58 145c0 76 30 100 53 123c25 25 57 38 102 38c62 0 110 -83 110 -168c0 -13 -2 -26 -4 -39c-10 -52 -83 -130 -111 -163c24 -38 8 -3 55 -91 c34 -63 42 -84 42 -119c0 -10 -1 -22 -2 -37c-4 -63 -11 -76 -20 -116c7 0 12 1 21 -1c14 -4 20 -11 20 -19c0 -19 -30 -19 -52 -24c-6 -13 -67 -174 -67 -181c0 -2 9 -4 19 -4c25 0 41 21 56 73c8 28 14 39 22 39s10 -8 10 -19z"/></symbol><symbol id="E915-1ioaksu" viewBox="0 0 1000 1000" overflow="inherit"><path transform="scale(1,-1)" d="M421 96c-46 77 -101 108 -181 108c-113 0 -204 -91 -204 -204s91 -204 204 -204c78 0 129 34 177 110l33 -22c-41 -74 -120 -124 -210 -124c-132 0 -240 108 -240 240s108 240 240 240c89 0 163 -45 209 -122z"/></symbol><symbol id="E920-1ioaksu" viewBox="0 0 1000 1000" overflow="inherit"><path transform="scale(1,-1)" d="M0 0c0 35 28 63 63 63s63 -28 63 -63s-28 -63 -63 -63s-63 28 -63 63z"/></symbol></defs><style type="text/css">g.page-margin{font-family:Times;} g.ending, g.fing, g.reh, g.tempo{font-weight:bold;} g.dir, g.dynam, g.mNum{font-style:italic;} g.label{font-weight:normal;}</style><svg class="definition-scale" color="black" viewBox="0 0 16300 4600"><g class="page-margin" transform="translate(500, 500)"><g data-id="m1fxofl5" data-class="mdiv" class="mdiv pageMilestone"/><g data-id="s1862cqc" data-class="score" class="score pageMilestone"/><g data-id="sg6gk1n" data-class="system" class="system"><path d="M1881 540 L1881 3060" stroke="currentColor" stroke-width="27"/><g data-id="l15rpxhf" data-class="label" class="label"><text x="1688" y="990" text-anchor="end" font-size="0px"><tspan data-id="tatgykz" data-class="text" class="text"><tspan font-size="405px" class="text">voice</tspan></tspan></text></g><g data-id="l13oe2fu" data-class="label" class="label"><text x="1688" y="2790" text-anchor="end" font-size="0px"><tspan data-id="t1cuc5c5" data-class="text" class="text"><tspan font-size="405px" class="text">reference</tspan></tspan></text></g><g data-id="s1nzqgyi" data-class="section" class="section systemMilestone"/><g data-id="scdeq3z" data-class="staff" class="staff"><path d="M1868 540 L15302 540" stroke="currentColor" stroke-width="13"/><path d="M1868 720 L15302 720" stroke="currentColor" stroke-width="13"/><path d="M1868 900 L15302 900" stroke="currentColor" stroke-width="13"/><path d="M1868 1080 L15302 1080" stroke="currentColor" stroke-width="13"/><path d="M1868 1260 L15302 1260" stroke="currentColor" stroke-width="13"/><g data-id="cry5jbs" data-class="clef" class="clef"><use href="#E901-1ioaksu" x="1985" y="1080" height="720px" width="720px"/></g><g data-id="ksp593u" data-class="keySig" class="keySig"/><g data-id="m16krp5z" data-class="mensur" class="mensur"><use href="#E915-1ioaksu" x="2357" y="900" height="720px" width="720px"/><use href="#E925-1ioaksu" x="2517" y="900" height="720px" width="720px"/><use href="#E920-1ioaksu" x="2484" y="900" height="720px" width="720px"/></g><g data-id="l1jp220k" data-class="layer" class="layer"><g data-id="n79346t" data-class="note" class="note"><g data-class="notehead" class="notehead"><polygon points="2969,1170 3165,1170 3165,1220 2969,1220"/><polygon points="2969,1350 3165,1350 3165,1300 2969,1300"/><rect x="2951" y="1140" height="240" width="18"/></g><g data-class="stem" class="stem"><rect x="3165" y="1140" height="750" width="18"/></g></g><g data-id="bmkqba5" data-class="barLine" class="barLine"><ellipse cx="14524" cy="630" rx="27" ry="27"/><ellipse cx="14524" cy="810" rx="27" ry="27"/><ellipse cx="14524" cy="990" rx="27" ry="27"/><ellipse cx="14524" cy="1170" rx="27" ry="27"/></g><g data-id="n1cdc5yc" data-class="note" class="note"><g data-class="notehead" class="notehead"><use href="#E93C-1ioaksu" x="14641" y="1260" height="720px" width="720px"/></g><g data-id="s1qk20a3" data-class="stem" class="stem"><use href="#E93E-1ioaksu" x="14743" y="1180" height="720px" width="720px"/></g></g><g data-id="b9j6wr8" data-class="barLine" class="barLine"><path d="M15289 540 L15289 1260" stroke="currentColor" stroke-width="27" stroke-dasharray="102 102"/></g></g></g><g data-id="sk2l56o" data-class="staff" class="staff"><path d="M1868 2340 L15302 2340" stroke="currentColor" stroke-width="13"/><path d="M1868 2520 L15302 2520" stroke="currentColor" stroke-width="13"/><path d="M1868 2700 L15302 2700" stroke="currentColor" stroke-width="13"/><path d="M1868 2880 L15302 2880" stroke="currentColor" stroke-width="13"/><path d="M1868 3060 L15302 3060" stroke="currentColor" stroke-width="13"/><g data-id="c99uo5b" data-class="clef" class="clef"><use href="#E901-1ioaksu" x="1985" y="2880" height="720px" width="720px"/></g><g data-id="k19acex0" data-class="keySig" class="keySig"/><g data-id="m1hbfow5" data-class="mensur" class="mensur"><use href="#E915-1ioaksu" x="2357" y="2700" height="720px" width="720px"/><use href="#E925-1ioaksu" x="2517" y="2700" height="720px" width="720px"/><use href="#E920-1ioaksu" x="2484" y="2700" height="720px" width="720px"/></g><g data-id="l1w2clp3" data-class="layer" class="layer"><g data-id="n16e5ka3" data-class="note" class="note"><g data-class="notehead" class="notehead"><use href="#E93C-1ioaksu" x="2951" y="2790" height="720px" width="720px"/></g><g data-id="sfo3pqq" data-class="stem" class="stem"><use href="#E93E-1ioaksu" x="3053" y="2710" height="720px" width="720px"/></g></g><g data-id="nnp3otc" data-class="note" class="note"><g data-class="notehead" class="notehead"><use href="#E93C-1ioaksu" x="3599" y="2790" height="720px" width="720px"/></g><g data-id="sqpwtvs" data-class="stem" class="stem"><use href="#E93E-1ioaksu" x="3701" y="2710" height="720px" width="720px"/></g></g><g data-id="n4h6ssu" data-class="note" class="note"><g data-class="notehead" class="notehead"><use href="#E93C-1ioaksu" x="4247" y="2790" height="720px" width="720px"/></g><g data-id="s1bpraty" data-class="stem" class="stem"><use href="#E93E-1ioaksu" x="4349" y="2710" height="720px" width="720px"/></g></g><g data-id="blpoxuc" data-class="barLine" class="barLine"><ellipse cx="4895" cy="2430" rx="27" ry="27"/><ellipse cx="4895" cy="2610" rx="27" ry="27"/><ellipse cx="4895" cy="2790" rx="27" ry="27"/><ellipse cx="4895" cy="2970" rx="27" ry="27"/></g><g data-id="n1vuwxvy" data-class="note" class="note"><g data-class="notehead" class="notehead"><use href="#E93C-1ioaksu" x="5012" y="2790" height="720px" width="720px"/></g><g data-id="sqe309w" data-class="stem" class="stem"><use href="#E93E-1ioaksu" x="5114" y="2710" height="720px" width="720px"/></g></g><g data-id="n150zvn9" data-class="note" class="note"><g data-class="notehead" class="notehead"><use href="#E93C-1ioaksu" x="5660" y="2790" height="720px" width="720px"/></g><g data-id="s1u5kjxs" data-class="stem" class="stem"><use href="#E93E-1ioaksu" x="5762" y="2710" height="720px" width="720px"/></g></g><g data-id="n1t9flwf" data-class="note" class="note"><g data-class="notehead" class="notehead"><use href="#E93C-1ioaksu" x="6308" y="2790" height="720px" width="720px"/></g><g data-id="s5wkwd9" data-class="stem" class="stem"><use href="#E93E-1ioaksu" x="6410" y="2710" height="720px" width="720px"/></g></g><g data-id="b1p2knjq" data-class="barLine" class="barLine"><path d="M6956 2340 L6956 3060" stroke="currentColor" stroke-width="27" stroke-dasharray="102 102"/></g><g data-id="nrbuf6f" data-class="note" class="note"><g data-class="notehead" class="notehead"><use href="#E93C-1ioaksu" x="7059" y="2790" height="720px" width="720px"/></g><g data-id="sd1ui1h" data-class="stem" class="stem"><use href="#E93E-1ioaksu" x="7161" y="2710" height="720px" width="720px"/></g></g><g data-id="nvsez6r" data-class="note" class="note"><g data-class="notehead" class="notehead"><use href="#E93C-1ioaksu" x="7707" y="2790" height="720px" width="720px"/></g><g data-id="s4f1hk7" data-class="stem" class="stem"><use href="#E93E-1ioaksu" x="7809" y="2710" height="720px" width="720px"/></g></g><g data-id="n1lkv8th" data-class="note" class="note"><g data-class="notehead" class="notehead"><use href="#E93C-1ioaksu" x="8355" y="2790" height="720px" width="720px"/></g><g data-id="snh5vw6" data-class="stem" class="stem"><use href="#E93E-1ioaksu" x="8457" y="2710" height="720px" width="720px"/></g></g><g data-id="bi5c6vy" data-class="barLine" class="barLine"><ellipse cx="9003" cy="2430" rx="27" ry="27"/><ellipse cx="9003" cy="2610" rx="27" ry="27"/><ellipse cx="9003" cy="2790" rx="27" ry="27"/><ellipse cx="9003" cy="2970" rx="27" ry="27"/></g><g data-id="n107dmia" data-class="note" class="note"><g data-class="notehead" class="notehead"><use href="#E93C-1ioaksu" x="9120" y="2790" height="720px" width="720px"/></g><g data-id="sxjko5l" data-class="stem" class="stem"><use href="#E93E-1ioaksu" x="9222" y="2710" height="720px" width="720px"/></g></g><g data-id="nsciqt7" data-class="note" class="note"><g data-class="notehead" class="notehead"><use href="#E93C-1ioaksu" x="9768" y="2790" height="720px" width="720px"/></g><g data-id="s1s52ubi" data-class="stem" class="stem"><use href="#E93E-1ioaksu" x="9870" y="2710" height="720px" width="720px"/></g></g><g data-id="n1r7u8iu" data-class="note" class="note"><g data-class="notehead" class="notehead"><use href="#E93C-1ioaksu" x="10416" y="2790" height="720px" width="720px"/></g><g data-id="s1g790z5" data-class="stem" class="stem"><use href="#E93E-1ioaksu" x="10518" y="2710" height="720px" width="720px"/></g></g><g data-id="bku55hr" data-class="barLine" class="barLine"><path d="M11064 2340 L11064 3060" stroke="currentColor" stroke-width="27" stroke-dasharray="102 102"/></g><g data-id="nj5wwf5" data-class="note" class="note"><g data-class="notehead" class="notehead"><use href="#E93C-1ioaksu" x="11167" y="2790" height="720px" width="720px"/></g><g data-id="s1ka191d" data-class="stem" class="stem"><use href="#E93E-1ioaksu" x="11269" y="2710" height="720px" width="720px"/></g></g><g data-id="nee6gky" data-class="note" class="note"><g data-class="notehead" class="notehead"><use href="#E93C-1ioaksu" x="11815" y="2790" height="720px" width="720px"/></g><g data-id="s1uvxd7q" data-class="stem" class="stem"><use href="#E93E-1ioaksu" x="11917" y="2710" height="720px" width="720px"/></g></g><g data-id="n1ebarru" data-class="note" class="note"><g data-class="notehead" class="notehead"><use href="#E93C-1ioaksu" x="12463" y="2790" height="720px" width="720px"/></g><g data-id="sh8ddxc" data-class="stem" class="stem"><use href="#E93E-1ioaksu" x="12565" y="2710" height="720px" width="720px"/></g></g><g data-id="bscqhf7" data-class="barLine" class="barLine"><ellipse cx="13111" cy="2430" rx="27" ry="27"/><ellipse cx="13111" cy="2610" rx="27" ry="27"/><ellipse cx="13111" cy="2790" rx="27" ry="27"/><ellipse cx="13111" cy="2970" rx="27" ry="27"/></g><g data-id="nxo2o51" data-class="note" class="note"><g data-class="notehead" class="notehead"><use href="#E93C-1ioaksu" x="13228" y="2790" height="720px" width="720px"/></g><g data-id="s18aint2" data-class="stem" class="stem"><use href="#E93E-1ioaksu" x="13330" y="2710" height="720px" width="720px"/></g></g><g data-id="n1dsh37t" data-class="note" class="note"><g data-class="notehead" class="notehead"><use href="#E93C-1ioaksu" x="13876" y="2790" height="720px" width="720px"/></g><g data-id="s16cvu8g" data-class="stem" class="stem"><use href="#E93E-1ioaksu" x="13978" y="2710" height="720px" width="720px"/></g></g><g data-id="n4um3dz" data-class="note" class="note"><g data-class="notehead" class="notehead"><use href="#E93C-1ioaksu" x="14641" y="2790" height="720px" width="720px"/></g><g data-id="s1izjauz" data-class="stem" class="stem"><use href="#E93E-1ioaksu" x="14743" y="2710" height="720px" width="720px"/></g></g><g data-id="bm47y8l" data-class="barLine" class="barLine"><path d="M15289 2340 L15289 3060" stroke="currentColor" stroke-width="27" stroke-dasharray="102 102"/></g></g></g><g data-id="s1exhkhm" data-class="systemMilestoneEnd" class="systemMilestoneEnd s1nzqgyi"/></g><g data-id="pch6169" data-class="pageMilestoneEnd" class="pageMilestoneEnd s1862cqc"/><g data-id="pa6bs5s" data-class="pageMilestoneEnd" class="pageMilestoneEnd m1fxofl5"/></g></svg></svg>