<svg viewBox="0 0 162 138" version="1.1" xmlns="http://www.w3.org/2000/svg" xmlns:xlink="http://www.w3.org/1999/xlink" xmlns:mei="http://www.music-encoding.org/ns/mei" overflow="visible"><desc>Engraved by Verovio 3.15.0-5abc7c0</desc><defs><symbol id="E925-28g9ze" viewBox="0 0 1000 1000" overflow="inherit"><path transform="scale(1,-1)" d="M0 408h36v-816h-36v816z"/></symbol><symbol id="E938-28g9ze" viewBox="0 0 1000 1000" overflow="inherit"><path transform="scale(1,-1)" d="M0 0l141 141l141 -141l-141 -141z"/></symbol><symbol id="E901-28g9ze" viewBox="0 0 1000 1000" overflow="inherit"><path transform="scale(1,-1)" d="M144 488c30 28 83 110 83 176c0 77 -39 150 -104 150c-15 0 -33 -6 -61 -34c-15 -15 -23 -44 -23 -79c0 -44 14 -96 43 -133c23 -29 44 -58 62 -80zM159 69c-57 0 -104 -31 -104 -98c0 -61 35 -63 51 -75c8 0 23 52 39 92l32 80c-6 1 -12 1 -18 1zM256 -25 c0 -76 -24 -122 -98 -122h-3c-28 0 -66 7 -84 15c-38 17 -71 55 -71 112c0 55 56 114 124 123c25 3 49 8 61 8c12 33 26 89 26 128c0 104 -55 180 -76 211c-51 -65 -79 -110 -90 -178c-1 -6 -4 -25 -4 -46c0 -18 2 -38 10 -50c5 -7 7 -16 7 -24c0 -13 -6 -24 -15 -24 c-5 0 -12 5 -19 17c-12 21 -24 38 -24 96c0 77 23 115 54 151c38 44 26 28 65 68l1 -1c0 3 -16 27 -60 79c-19 22 -58 58 -58 145c0 76 30 100 53 123c25 25 57 38 102 38c62 0 110 -83 110 -168c0 -13 -2 -26 -4 -39c-10 -52 -83 -130 -111 -163c24 -38 8 -3 55 -91 c34 -63 42 -84 42 -119c0 -10 -1 -22 -2 -37c-4 -63 -11 -76 -20 -116c7 0 12 1 21 -1c14 -4 20 -11 20 -19c0 -19 -30 -19 -52 -24c-6 -13 -67 -174 -67 -181c0 -2 9 -4 19 -4c25 0 41 21 56 73c8 28 14 39 22 39s10 -8 10 -19z"/></symbol><symbol id="E911-28g9ze" viewBox="0 0 1000 1000" overflow="inherit"><path transform="scale(1,-1)" d="M36 0c0 -113 91 -204 204 -204s204 91 204 204s-91 204 -204 204s-204 -91 -204 -204zM0 0c0 132 108 240 240 240s240 -108 240 -240s-108 -240 -240 -240s-240 108 -240 240z"/></symbol></defs><style type="text/css">g.page-margin{font-family:Times;} g.ending, g.fing, g.reh, g.tempo{font-weight:bold;} g.dir, g.dynam, g.mNum{font-style:italic;} g.label{font-weight:normal;}</style><svg class="definition-scale" color="black" viewBox="0 0 16130 13790"><g class="page-margin" transform="translate(500, 500)"><g data-id="myq2yx3" data-class="mdiv" class="mdiv pageMilestone"/><g data-id="skqoruu" data-class="score" class="score pageMilestone"/><g data-id="s1v47wly" data-class="system" class="system"><path d="M1881 540 L1881 3060" stroke="currentColor" stroke-width="27"/><g data-id="l9uykd2" data-class="label" class="label"><text x="1688" y="990" text-anchor="end" font-size="0px"><tspan data-id="t1tf9vbs" data-class="text" class="text"><tspan font-size="405px" class="text">voice</tspan></tspan></text></g><g data-id="l1wpf3bv" data-class="label" class="label"><text x="1688" y="2790" text-anchor="end" font-size="0px"><tspan data-id="tspo9et" data-class="text" class="text"><tspan font-size="405px" class="text">reference</tspan></tspan></text></g><g data-id="s1bwrrka" data-class="section" class="section systemMilestone"/><g data-id="s16wglw4" data-class="staff" class="staff"><path d="M1868 540 L10872 540" stroke="currentColor" stroke-width="13"/><path d="M1868 720 L10872 720" stroke="currentColor" stroke-width="13"/><path d="M1868 900 L10872 900" stroke="currentColor" stroke-width="13"/><path d="M1868 1080 L10872 1080" stroke="currentColor" stroke-width="13"/><path d="M1868 1260 L10872 1260" stroke="currentColor" stroke-width="13"/><g data-id="c1xh36l6" data-class="clef" class="clef"><use href="#E901-28g9ze" x="1985" y="1080" height="720px" width="720px"/></g><g data-id="k1d3hpju" data-class="keySig" class="keySig"/><g data-id="m1h8rz2s" data-class="mensur" class="mensur"><use href="#E911-28g9ze" x="2357" y="900" height="720px" width="720px"/><use href="#E925-28g9ze" x="2517" y="900" height="720px" width="720px"/></g><g data-id="lxrhoyf" data-class="layer" class="layer"><g data-id="n81a5z4" data-class="note" class="note"><g data-class="notehead" class="notehead"><rect x="2990" y="1188" height="144" width="126"/><rect x="2972" y="1188" height="144" width="18"/></g><g data-class="stem" class="stem"><rect x="3116" y="1188" height="522" width="18"/></g></g><g data-id="b1j1zj2p" data-class="barLine" class="barLine"><path d="M10859 540 L10859 1260" stroke="currentColor" stroke-width="27" stroke-dasharray="102 102"/></g></g></g><g data-id="s1519vus" data-class="staff" class="staff"><path d="M1868 2340 L10872 2340" stroke="currentColor" stroke-width="13"/><path d="M1868 2520 L10872 2520" stroke="currentColor" stroke-width="13"/><path d="M1868 2700 L10872 2700" stroke="currentColor" stroke-width="13"/><path d="M1868 2880 L10872 2880" stroke="currentColor" stroke-width="13"/><path d="M1868 3060 L10872 3060" stroke="currentColor" stroke-width="13"/><g data-id="c1h6th60" data-class="clef" class="clef"><use href="#E901-28g9ze" x="1985" y="2880" height="720px" width="720px"/></g><g data-id="k1b4ul7b" data-class="keySig" class="keySig"/><g data-id="m1sdmm6m" data-class="mensur" class="mensur"><use href="#E911-28g9ze" x="2357" y="2700" height="720px" width="720px"/><use href="#E925-28g9ze" x="2517" y="2700" height="720px" width="720px"/></g><g data-id="l50gcsa" data-class="layer" class="layer"><g data-id="n1jr61bq" data-class="note" class="note"><g data-class="notehead" class="notehead"><rect x="2990" y="2988" height="144" width="126"/><rect x="2972" y="2988" height="144" width="18"/><rect x="3116" y="2988" height="144" width="18"/></g></g><g data-id="n172wij4" data-class="note" class="note"><g data-class="notehead" class="notehead"><rect x="5619" y="2988" height="144" width="126"/><rect x="5601" y="2988" height="144" width="18"/><rect x="5745" y="2988" height="144" width="18"/></g></g><g data-id="n1cwvti6" data-class="note" class="note"><g data-class="notehead" class="notehead"><rect x="8248" y="2988" height="144" width="126"/><rect x="8230" y="2988" height="144" width="18"/><rect x="8374" y="2988" height="144" width="18"/></g></g><g data-id="b1pd9fyc" data-class="barLine" class="barLine"><path d="M10859 2340 L10859 3060" stroke="currentColor" stroke-width="27" stroke-dasharray="102 102"/></g></g></g><g data-id="s16o4gip" data-class="staff" class="staff"><path d="M10872 540 L15133 540" stroke="currentColor" stroke-width="13"/><path d="M10872 720 L15133 720" stroke="currentColor" stroke-width="13"/><path d="M10872 900 L15133 900" stroke="currentColor" stroke-width="13"/><path d="M10872 1080 L15133 1080" stroke="currentColor" stroke-width="13"/><path d="M10872 1260 L15133 1260" stroke="currentColor" stroke-width="13"/><g data-id="l1htfh4t" data-class="layer" class="layer"><g data-id="n31n4ub" data-class="note" class="note"><g data-class="notehead" class="notehead"><use href="#E938-28g9ze" x="11052" y="1260" height="720px" width="720px"/></g></g><g data-id="n14axkw7" data-class="note" class="note"><g data-class="notehead" class="notehead"><use href="#E938-28g9ze" x="12408" y="1260" height="720px" width="720px"/></g></g><g data-id="n1qq7877" data-class="note" class="note"><g data-class="notehead" class="notehead"><use href="#E938-28g9ze" x="13764" y="1260" height="720px" width="720px"/></g></g><g data-id="d1hmh2vo" data-class="dot" class="dot"><polygon points="14498,1170 14543,1125 14588,1170 14543,1215"/></g><g data-id="b1h92v5h" data-class="barLine" class="barLine"><path d="M15120 540 L15120 1260" stroke="currentColor" stroke-width="27" stroke-dasharray="102 102"/></g></g></g><g data-id="shnf4ay" data-class="staff" class="staff"><path d="M10872 2340 L15133 2340" stroke="currentColor" stroke-width="13"/><path d="M10872 2520 L15133 2520" stroke="currentColor" stroke-width="13"/><path d="M10872 2700 L15133 2700" stroke="currentColor" stroke-width="13"/><path d="M10872 2880 L15133 2880" stroke="currentColor" stroke-width="13"/><path d="M10872 3060 L15133 3060" stroke="currentColor" stroke-width="13"/><g data-id="lgy270m" data-class="layer" class="layer"><g data-id="nvj9mat" data-class="note" class="note"><g data-class="notehead" class="notehead"><rect x="11070" y="2988" height="144" width="126"/><rect x="11052" y="2988" height="144" width="18"/><rect x="11196" y="2988" height="144" width="18"/></g></g><g data-id="b1r13ntr" data-class="barLine" class="barLine"><path d="M15120 2340 L15120 3060" stroke="currentColor" stroke-width="27" stroke-dasharray="102 102"/></g></g></g></g><g data-id="s1g8w230" data-class="system" class="system"><path d="M13 5135 L13 7655" stroke="currentColor" stroke-width="27"/><g data-id="s1osc3xw" data-class="staff" class="staff"><path d="M0 5135 L7565 5135" stroke="currentColor" stroke-width="13"/><path d="M0 5315 L7565 5315" stroke="currentColor" stroke-width="13"/><path d="M0 5495 L7565 5495" stroke="currentColor" stroke-width="13"/><path d="M0 5675 L7565 5675" stroke="currentColor" stroke-width="13"/><path d="M0 5855 L7565 5855" stroke="currentColor" stroke-width="13"/><g data-id="c8nciae" data-class="clef" class="clef"><use href="#E901-28g9ze" x="117" y="5675" height="720px" width="720px"/></g><g data-id="k3m9j1s" data-class="keySig" class="keySig"/><g data-id="lib6ogn" data-class="layer" class="layer"><g data-id="n1j7gkwp" data-class="note" class="note"><g data-class="notehead" class="notehead"><use href="#E938-28g9ze" x="579" y="5855" height="720px" width="720px"/></g></g><g data-id="n1b0exha" data-class="note" class="note"><g data-class="notehead" class="notehead"><use href="#E938-28g9ze" x="3353" y="5855" height="720px" width="720px"/></g></g><g data-id="b15stj8g" data-class="barLine" class="barLine"><path d="M7552 5135 L7552 5855" stroke="currentColor" stroke-width="27" stroke-dasharray="102 102"/></g></g></g><g data-id="s1z0harb" data-class="staff" class="staff"><path d="M0 6935 L7565 6935" stroke="currentColor" stroke-width="13"/><path d="M0 7115 L7565 7115" stroke="currentColor" stroke-width="13"/><path d="M0 7295 L7565 7295" stroke="currentColor" stroke-width="13"/><path d="M0 7475 L7565 7475" stroke="currentColor" stroke-width="13"/><path d="M0 7655 L7565 7655" stroke="currentColor" stroke-width="13"/><g data-id="cgn4s07" data-class="clef" class="clef"><use href="#E901-28g9ze" x="117" y="7475" height="720px" width="720px"/></g><g data-id="kb793vk" data-class="keySig" class="keySig"/><g data-id="lbihrox" data-class="layer" class="layer"><g data-id="nlts9od" data-class="note" class="note"><g data-class="notehead" class="notehead"><rect x="597" y="7583" height="144" width="126"/><rect x="579" y="7583" height="144" width="18"/><rect x="723" y="7583" height="144" width="18"/></g></g><g data-id="b1ywbsb2" data-class="barLine" class="barLine"><path d="M7552 6935 L7552 7655" stroke="currentColor" stroke-width="27" stroke-dasharray="102 102"/></g></g></g><g data-id="suztjrd" data-class="staff" class="staff"><path d="M7565 5135 L13135 5135" stroke="currentColor" stroke-width="13"/><path d="M7565 5315 L13135 5315" stroke="currentColor" stroke-width="13"/><path d="M7565 5495 L13135 5495" stroke="currentColor" stroke-width="13"/><path d="M7565 5675 L13135 5675" stroke="currentColor" stroke-width="13"/><path d="M7565 5855 L13135 5855" stroke="currentColor" stroke-width="13"/><g data-id="l9p7nms" data-class="layer" class="layer"><g data-id="n1a0ixxy" data-class="note" class="note"><g data-class="notehead" class="notehead"><rect x="7763" y="5783" height="144" width="126"/><rect x="7745" y="5783" height="144" width="18"/><rect x="7889" y="5783" height="144" width="18"/></g></g><g data-id="bwv8cxf" data-class="barLine" class="barLine"><path d="M13122 5135 L13122 5855" stroke="currentColor" stroke-width="27" stroke-dasharray="102 102"/></g></g></g><g data-id="srirtd" data-class="staff" class="staff"><path d="M7565 6935 L13135 6935" stroke="currentColor" stroke-width="13"/><path d="M7565 7115 L13135 7115" stroke="currentColor" stroke-width="13"/><path d="M7565 7295 L13135 7295" stroke="currentColor" stroke-width="13"/><path d="M7565 7475 L13135 7475" stroke="currentColor" stroke-width="13"/><path d="M7565 7655 L13135 7655" stroke="currentColor" stroke-width="13"/><g data-id="l1r8ru40" data-class="layer" class="layer"><g data-id="n1v12tl2" data-class="note" class="note"><g data-class="notehead" class="notehead"><rect x="7763" y="7583" height="144" width="126"/><rect x="7745" y="7583" height="144" width="18"/><rect x="7889" y="7583" height="144" width="18"/></g></g><g data-id="bd61fy8" data-class="barLine" class="barLine"><path d="M13122 6935 L13122 7655" stroke="currentColor" stroke-width="27" stroke-dasharray="102 102"/></g></g></g></g><g data-id="ssroejt" data-class="system" class="system"><path d="M13 9730 L13 12250" stroke="currentColor" stroke-width="27"/><g data-id="s1i3vmqn" data-class="staff" class="staff"><path d="M0 9730 L13697 9730" stroke="currentColor" stroke-width="13"/><path d="M0 9910 L13697 9910" stroke="currentColor" stroke-width="13"/><path d="M0 10090 L13697 10090" stroke="currentColor" stroke-width="13"/><path d="M0 10270 L13697 10270" stroke="currentColor" stroke-width="13"/><path d="M0 10450 L13697 10450" stroke="currentColor" stroke-width="13"/><g data-id="c185iddr" data-class="clef" class="clef"><use href="#E901-28g9ze" x="117" y="10270" height="720px" width="720px"/></g><g data-id="k1036dec" data-class="keySig" class="keySig"/><g data-id="lboqrzr" data-class="layer" class="layer"><g data-id="n1cyfrym" data-class="note" class="note"><g data-class="notehead" class="notehead"><rect x="597" y="10378" height="144" width="126"/><rect x="579" y="10378" height="144" width="18"/></g><g data-class="stem" class="stem"><rect x="723" y="10378" height="522" width="18"/></g></g><g data-id="btsakyp" data-class="barLine" class="barLine"><path d="M13684 9730 L13684 10450" stroke="currentColor" stroke-width="27" stroke-dasharray="102 102"/></g></g></g><g data-id="seqxrib" data-class="staff" class="staff"><path d="M0 11530 L13697 11530" stroke="currentColor" stroke-width="13"/><path d="M0 11710 L13697 11710" stroke="currentColor" stroke-width="13"/><path d="M0 11890 L13697 11890" stroke="currentColor" stroke-width="13"/><path d="M0 12070 L13697 12070" stroke="currentColor" stroke-width="13"/><path d="M0 12250 L13697 12250" stroke="currentColor" stroke-width="13"/><g data-id="coaef8o" data-class="clef" class="clef"><use href="#E901-28g9ze" x="117" y="12070" height="720px" width="720px"/></g><g data-id="kbjvodg" data-class="keySig" class="keySig"/><g data-id="l1irmgar" data-class="layer" class="layer"><g data-id="n7vmqs3" data-class="note" class="note"><g data-class="notehead" class="notehead"><rect x="597" y="12178" height="144" width="126"/><rect x="579" y="12178" height="144" width="18"/><rect x="723" y="12178" height="144" width="18"/></g></g><g data-id="n9u9eha" data-class="note" class="note"><g data-class="notehead" class="notehead"><rect x="2764" y="12178" height="144" width="126"/><rect x="2746" y="12178" height="144" width="18"/><rect x="2890" y="12178" height="144" width="18"/></g></g><g data-id="n1620m16" data-class="note" class="note"><g data-class="notehead" class="notehead"><rect x="4931" y="12178" height="144" width="126"/><rect x="4913" y="12178" height="144" width="18"/><rect x="5057" y="12178" height="144" width="18"/></g></g><g data-id="baoblg7" data-class="barLine" class="barLine"><path d="M7080 11530 L7080 12250" stroke="currentColor" stroke-width="27" stroke-dasharray="102 102"/></g><g data-id="n10kc13y" data-class="note" class="note"><g data-class="notehead" class="notehead"><rect x="7201" y="12178" height="144" width="126"/><rect x="7183" y="12178" height="144" width="18"/><rect x="7327" y="12178" height="144" width="18"/></g></g><g data-id="n12yj5x9" data-class="note" class="note"><g data-class="notehead" class="notehead"><rect x="9368" y="12178" height="144" width="126"/><rect x="9350" y="12178" height="144" width="18"/><rect x="9494" y="12178" height="144" width="18"/></g></g><g data-id="n1587d0v" data-class="note" class="note"><g data-class="notehead" class="notehead"><rect x="11535" y="12178" height="144" width="126"/><rect x="11517" y="12178" height="144" width="18"/><rect x="11661" y="12178" height="144" width="18"/></g></g><g data-id="b1vs3xmv" data-class="barLine" class="barLine"><path d="M13684 11530 L13684 12250" stroke="currentColor" stroke-width="27" stroke-dasharray="102 102"/></g></g></g><g data-id="s1gejkud" data-class="systemMilestoneEnd" class="systemMilestoneEnd s1bwrrka"/></g><g data-id="p1otk2qf" data-class="pageMilestoneEnd" class="pageMilestoneEnd skqoruu"/><g data-id="p12nvqer" data-class="pageMilestoneEnd" class="pageMilestoneEnd myq2yx3"/></g></svg></svg>