<svg viewBox="0 0 168 46" version="1.1" xmlns="http://www.w3.org/2000/svg" xmlns:xlink="http://www.w3.org/1999/xlink" xmlns:mei="http://www.music-encoding.org/ns/mei" overflow="visible"><desc>Engraved by Verovio 3.15.0-5abc7c0</desc><defs><symbol id="E93C-gb9rr3" viewBox="0 0 1000 1000" overflow="inherit"><path transform="scale(1,-1)" d="M156 195l156 -195l-156 -195l-156 195zM127 110l-57 -71l115 -149l57 71z"/></symbol><symbol id="E93D-gb9rr3" viewBox="0 0 1000 1000" overflow="inherit"><path transform="scale(1,-1)" d="M156 195l156 -195l-156 -195l-156 195z"/></symbol><symbol id="E93E-gb9rr3" viewBox="0 0 1000 1000" overflow="inherit"><path transform="scale(1,-1)" d="M0 760h30v-760h-30v760z"/></symbol><symbol id="E901-gb9rr3" viewBox="0 0 1000 1000" overflow="inherit"><path transform="scale(1,-1)" d="M144 488c30 28 83 110 83 176c0 77 -39 150 -104 150c-15 0 -33 -6 -61 -34c-15 -15 -23 -44 -23 -79c0 -44 14 -96 43 -133c23 -29 44 -58 62 -80zM159 69c-57 0 -104 -31 -104 -98c0 -61 35 -63 51 -75c8 0 23 52 39 92l32 80c-6 1 -12 1 -18 1zM256 -25 c0 -76 -24 -122 -98 -122h-3c-28 0 -66 7 -84 15c-38 17 -71 55 -71 112c0 55 56 114 124 123c25 3 49 8 61 8c12 33 26 89 26 128c0 104 -55 180 -76 211c-51 -65 -79 -110 -90 -178c-1 -6 -4 -25 -4 -46c0 -18 2 -38 10 -50c5 -7 7 -16 7 -24c0 -13 -6 -24 -15 -24 c-5 0 -12 5 -19 17c-12 21 -24 38 -24 96c0 77 23 115 54 151c38 44 26 28 65 68l1 -1c0 3 -16 27 -60 79c-19 22 -58 58 -58 145c0 76 30 100 53 123c25 25 57 38 102 38c62 0 110 -83 110 -168c0 -13 -2 -26 -4 -39c-10 -52 -83 -130 -111 -163c24 -38 8 -3 55 -91 c34 -63 42 -84 42 -119c0 -10 -1 -22 -2 -37c-4 -63 -11 -76 -20 -116c7 0 12 1 21 -1c14 -4 20 -11 20 -19c0 -19 -30 -19 -52 -24c-6 -13 -67 -174 -67 -181c0 -2 9 -4 19 -4c25 0 41 21 56 73c8 28 14 39 22 39s10 -8 10 -19z"/></symbol><symbol id="E949-gb9rr3" viewBox="0 0 1000 1000" overflow="inherit"><path transform="scale(1,-1)" d="M0 0v760h30l150 -259l-26 -15l-124 214v-700h-30z"/></symbol><symbol id="E94B-gb9rr3" viewBox="0 0 1000 1000" overflow="inherit"><path transform="scale(1,-1)" d="M0 0v760h30l150 -259l-26 -15l-124 214v-80l150 -259l-26 -15l-124 214v-560h-30z"/></symbol><symbol id="E9F0-gb9rr3" viewBox="0 0 1000 1000" overflow="inherit"><path transform="scale(1,-1)" d="M0 500h40v-1000h-40v1000zM90 500h40v-1000h-40v1000z"/></symbol><symbol id="E9F2-gb9rr3" viewBox="0 0 1000 1000" overflow="inherit"><path transform="scale(1,-1)" d="M0 250h40v-500h-40v500z"/></symbol><symbol id="E9F3-gb9rr3" viewBox="0 0 1000 1000" overflow="inherit"><path transform="scale(1,-1)" d="M0 250h40v-250h-40v250z"/></symbol><symbol id="E9F4-gb9rr3" viewBox="0 0 1000 1000" overflow="inherit"><path transform="scale(1,-1)" d="M0 250h40v-140h-40v140z"/></symbol><symbol id="E9F5-gb9rr3" viewBox="0 0 1000 1000" overflow="inherit"><path transform="scale(1,-1)" d="M0 140h40v-140h-40v140z"/></symbol><symbol id="E9F6-gb9rr3" viewBox="0 0 1000 1000" overflow="inherit"><path transform="scale(1,-1)" d="M40 96v-96h-40v140h40l78 -69h-48z"/></symbol><symbol id="E9F7-gb9rr3" viewBox="0 0 1000 1000" overflow="inherit"><path transform="scale(1,-1)" d="M78 96l-30 -25h-48l78 69h40v-140h-40v96z"/></symbol><symbol id="E9F8-gb9rr3" viewBox="0 0 1000 1000" overflow="inherit"><path transform="scale(1,-1)" d="M78 96l-30 -25h-48l78 69h40v-140h-40v39l-30 -25h-48l78 69v13z"/></symbol></defs><style type="text/css">g.page-margin{font-family:Times;} g.ending, g.fing, g.reh, g.tempo{font-weight:bold;} g.dir, g.dynam, g.mNum{font-style:italic;} g.label{font-weight:normal;}</style><svg class="definition-scale" color="black" viewBox="0 0 16710 4600"><g class="page-margin" transform="translate(500, 500)"><g data-id="m1e23kdz" data-class="mdiv" class="mdiv pageMilestone"/><g data-id="sa49sdw" data-class="score" class="score pageMilestone"/><g data-id="s1d2uahb" data-class="system" class="system"><path d="M1230 540 L1230 3060" stroke="currentColor" stroke-width="27"/><g data-id="l3mkpw2" data-class="label" class="label"><text x="1037" y="990" text-anchor="end" font-size="0px"><tspan data-id="t16ec6tt" data-class="text" class="text"><tspan font-size="405px" class="text">notes</tspan></tspan></text></g><g data-id="lzvlh06" data-class="label" class="label"><text x="1037" y="2790" text-anchor="end" font-size="0px"><tspan data-id="tv8rdov" data-class="text" class="text"><tspan font-size="405px" class="text">rests</tspan></tspan></text></g><g data-id="s1pt8gvd" data-class="section" class="section systemMilestone"/><g data-id="s1qm39bh" data-class="staff" class="staff"><path d="M1217 540 L15710 540" stroke="currentColor" stroke-width="13"/><path d="M1217 720 L15710 720" stroke="currentColor" stroke-width="13"/><path d="M1217 900 L15710 900" stroke="currentColor" stroke-width="13"/><path d="M1217 1080 L15710 1080" stroke="currentColor" stroke-width="13"/><path d="M1217 1260 L15710 1260" stroke="currentColor" stroke-width="13"/><g data-id="c10oap10" data-class="clef" class="clef"><use href="#E901-gb9rr3" x="1334" y="1080" height="720px" width="720px"/></g><g data-id="k1z07xj4" data-class="keySig" class="keySig"/><g data-id="l58y64j" data-class="layer" class="layer"><g data-id="n178yh7q" data-class="note" class="note"><g data-class="notehead" class="notehead"><polygon points="1814,1170 2242,1170 2242,1220 1814,1220"/><polygon points="1814,1350 2242,1350 2242,1300 1814,1300"/><rect x="1796" y="1140" height="240" width="18"/></g><g data-class="stem" class="stem"><rect x="2242" y="1140" height="750" width="18"/></g></g><g data-id="ntsidqa" data-class="note" class="note"><g data-class="notehead" class="notehead"><polygon points="8358,1170 8554,1170 8554,1220 8358,1220"/><polygon points="8358,1350 8554,1350 8554,1300 8358,1300"/><rect x="8340" y="1140" height="240" width="18"/></g><g data-class="stem" class="stem"><rect x="8554" y="1140" height="750" width="18"/></g></g><g data-id="n14mvn3a" data-class="note" class="note"><g data-class="notehead" class="notehead"><polygon points="11742,1170 11938,1170 11938,1220 11742,1220"/><polygon points="11742,1350 11938,1350 11938,1300 11742,1300"/><rect x="11724" y="1140" height="240" width="18"/><rect x="11938" y="1140" height="240" width="18"/></g></g><g data-id="n1n5blps" data-class="note" class="note"><g data-class="notehead" class="notehead"><use href="#E93C-gb9rr3" x="13476" y="1260" height="720px" width="720px"/></g></g><g data-id="ntr55pz" data-class="note" class="note"><g data-class="notehead" class="notehead"><use href="#E93C-gb9rr3" x="14380" y="1260" height="720px" width="720px"/></g><g data-id="s1crmh07" data-class="stem" class="stem"><use href="#E93E-gb9rr3" x="14482" y="1180" height="720px" width="720px"/></g></g><g data-id="n5gp3ob" data-class="note" class="note"><g data-class="notehead" class="notehead"><use href="#E93D-gb9rr3" x="14844" y="1260" height="720px" width="720px"/></g><g data-id="scaqe2b" data-class="stem" class="stem"><use href="#E93E-gb9rr3" x="14946" y="1180" height="720px" width="720px"/></g></g><g data-id="nh36s57" data-class="note" class="note"><g data-class="notehead" class="notehead"><use href="#E93D-gb9rr3" x="15158" y="1260" height="720px" width="720px"/></g><g data-id="st66ygt" data-class="stem" class="stem"><use href="#E949-gb9rr3" x="15260" y="1180" height="720px" width="720px"/></g></g><g data-id="nu6v0kr" data-class="note" class="note"><g data-class="notehead" class="notehead"><use href="#E93D-gb9rr3" x="15479" y="1260" height="720px" width="720px"/></g><g data-id="se53awf" data-class="stem" class="stem"><use href="#E94B-gb9rr3" x="15581" y="1180" height="720px" width="720px"/></g></g></g></g><g data-id="sr85ek2" data-class="staff" class="staff"><path d="M1217 2340 L15710 2340" stroke="currentColor" stroke-width="13"/><path d="M1217 2520 L15710 2520" stroke="currentColor" stroke-width="13"/><path d="M1217 2700 L15710 2700" stroke="currentColor" stroke-width="13"/><path d="M1217 2880 L15710 2880" stroke="currentColor" stroke-width="13"/><path d="M1217 3060 L15710 3060" stroke="currentColor" stroke-width="13"/><g data-id="c1a3b7ww" data-class="clef" class="clef"><use href="#E901-gb9rr3" x="1334" y="2880" height="720px" width="720px"/></g><g data-id="k1pv6y2r" data-class="keySig" class="keySig"/><g data-id="l1xtz96i" data-class="layer" class="layer"><g data-id="rcpotr8" data-class="rest" class="rest"><use href="#E9F0-gb9rr3" x="1796" y="2700" height="720px" width="720px"/></g><g data-id="r146fgwl" data-class="rest" class="rest"><use href="#E9F2-gb9rr3" x="8340" y="2700" height="720px" width="720px"/></g><g data-id="r1k72ucl" data-class="rest" class="rest"><use href="#E9F3-gb9rr3" x="11724" y="2700" height="720px" width="720px"/><g data-class="ledgerLines" class="ledgerLines"/></g><g data-id="r1vs1vr2" data-class="rest" class="rest"><use href="#E9F4-gb9rr3" x="13476" y="2700" height="720px" width="720px"/><g data-class="ledgerLines" class="ledgerLines"/></g><g data-id="r1gqwfgs" data-class="rest" class="rest"><use href="#E9F5-gb9rr3" x="14380" y="2700" height="720px" width="720px"/><g data-class="ledgerLines" class="ledgerLines"/></g><g data-id="rmajpc" data-class="rest" class="rest"><use href="#E9F6-gb9rr3" x="14844" y="2700" height="720px" width="720px"/></g><g data-id="rdvwxeb" data-class="rest" class="rest"><use href="#E9F7-gb9rr3" x="15158" y="2700" height="720px" width="720px"/></g><g data-id="r1uvkxfw" data-class="rest" class="rest"><use href="#E9F8-gb9rr3" x="15479" y="2700" height="720px" width="720px"/></g></g></g><g data-id="s1u037wq" data-class="systemMilestoneEnd" class="systemMilestoneEnd s1pt8gvd"/></g><g data-id="p150hnf1" data-class="pageMilestoneEnd" class="pageMilestoneEnd sa49sdw"/><g data-id="pfccz15" data-class="pageMilestoneEnd" class="pageMilestoneEnd m1e23kdz"/></g></svg></svg>