<svg viewBox="0 0 145 86" version="1.1" xmlns="http://www.w3.org/2000/svg" xmlns:xlink="http://www.w3.org/1999/xlink" overflow="visible" id="hp2tbuf"><desc>Engraved by Verovio 6.0.1-ffbc336</desc><defs><g id="E901-hp2tbuf"><path transform="scale(1,-1)" d="M144 488c30 28 83 110 83 176c0 77 -39 150 -104 150c-15 0 -33 -6 -61 -34c-15 -15 -23 -44 -23 -79c0 -44 14 -96 43 -133c23 -29 44 -58 62 -80zM159 69c-57 0 -104 -31 -104 -98c0 -61 35 -63 51 -75c8 0 23 52 39 92l32 80c-6 1 -12 1 -18 1zM256 -25 c0 -76 -24 -122 -98 -122h-3c-28 0 -66 7 -84 15c-38 17 -71 55 -71 112c0 55 56 114 124 123c25 3 49 8 61 8c12 33 26 89 26 128c0 104 -55 180 -76 211c-51 -65 -79 -110 -90 -178c-1 -6 -4 -25 -4 -46c0 -18 2 -38 10 -50c5 -7 7 -16 7 -24c0 -13 -6 -24 -15 -24 c-5 0 -12 5 -19 17c-12 21 -24 38 -24 96c0 77 23 115 54 151c38 44 26 28 65 68l1 -1c0 3 -16 27 -60 79c-19 22 -58 58 -58 145c0 76 30 100 53 123c25 25 57 38 102 38c62 0 110 -83 110 -168c0 -13 -2 -26 -4 -39c-10 -52 -83 -130 -111 -163c24 -38 8 -3 55 -91 c34 -63 42 -84 42 -119c0 -10 -1 -22 -2 -37c-4 -63 -11 -76 -20 -116c7 0 12 1 21 -1c14 -4 20 -11 20 -19c0 -19 -30 -19 -52 -24c-6 -13 -67 -174 -67 -181c0 -2 9 -4 19 -4c25 0 41 21 56 73c8 28 14 39 22 39s10 -8 10 -19z"/></g><g id="E9F0-hp2tbuf"><path transform="scale(1,-1)" d="M0 500h40v-1000h-40v1000zM90 500h40v-1000h-40v1000z"/></g><g id="E9F2-hp2tbuf"><path transform="scale(1,-1)" d="M0 250h40v-500h-40v500z"/></g><g id="E9F3-hp2tbuf"><path transform="scale(1,-1)" d="M0 250h40v-250h-40v250z"/></g><g id="E93C-hp2tbuf"><path transform="scale(1,-1)" d="M156 195l156 -195l-156 -195l-156 195zM127 110l-57 -71l115 -149l57 71z"/></g><g id="E9F4-hp2tbuf"><path transform="scale(1,-1)" d="M0 250h40v-140h-40v140z"/></g><g id="E93E-hp2tbuf"><path transform="scale(1,-1)" d="M0 760h30v-760h-30v760z"/></g><g id="E9F5-hp2tbuf"><path transform="scale(1,-1)" d="M0 140h40v-140h-40v140z"/></g><g id="E93D-hp2tbuf"><path transform="scale(1,-1)" d="M156 195l156 -195l-156 -195l-156 195z"/></g><g id="E9F6-hp2tbuf"><path transform="scale(1,-1)" d="M40 96v-96h-40v140h40l78 -69h-48z"/></g><g id="E949-hp2tbuf"><path transform="scale(1,-1)" d="M0 0v760h30l150 -259l-26 -15l-124 214v-700h-30z"/></g><g id="E9F7-hp2tbuf"><path transform="scale(1,-1)" d="M78 96l-30 -25h-48l78 69h40v-140h-40v96z"/></g><g id="E94B-hp2tbuf"><path transform="scale(1,-1)" d="M0 0v760h30l150 -259l-26 -15l-124 214v-80l150 -259l-26 -15l-124 214v-560h-30z"/></g><g id="E9F8-hp2tbuf"><path transform="scale(1,-1)" d="M78 96l-30 -25h-48l78 69h40v-140h-40v39l-30 -25h-48l78 69v13z"/></g></defs><style type="text/css">#hp2tbuf g.ending, #hp2tbuf g.fing, #hp2tbuf g.reh, #hp2tbuf g.tempo {font-weight:bold;}#hp2tbuf g.dir, #hp2tbuf g.dynam, #hp2tbuf g.mNum {font-style:italic;}#hp2tbuf g.label {font-weight:normal;}#hp2tbuf ellipse, #hp2tbuf path, #hp2tbuf polygon, #hp2tbuf polyline, #hp2tbuf rect {stroke:currentColor}</style><svg class="definition-scale" color="black" font-family="Times, serif" viewBox="0 0 14470 8560"><g class="page-margin" transform="translate(500, 500)"><g data-id="i19o3xx6" data-class="mdiv" class="mdiv pageMilestone"/><g data-id="j8keoh6" data-class="score" class="score pageMilestone"/><g data-id="c1sj6p5u" data-class="system" class="system"><path d="M13 540 L13 3060" stroke-width="27"/><g data-id="e1wymdpd" data-class="section" class="section systemMilestone"/><g data-id="omipsaw" data-class="staff" class="staff"><path d="M0 540 L13282 540" stroke-width="13"/><path d="M0 720 L13282 720" stroke-width="13"/><path d="M0 900 L13282 900" stroke-width="13"/><path d="M0 1080 L13282 1080" stroke-width="13"/><path d="M0 1260 L13282 1260" stroke-width="13"/><g data-id="utgf24s" data-class="clef" class="clef"><use href="#E901-hp2tbuf" transform="translate(117, 1080) scale(0.72, 0.72)"/></g><g data-id="vel9q8h" data-class="keySig" class="keySig"/><g data-id="p1spu8r5" data-class="layer" class="layer"><g data-id="q3npvlf" data-class="note" class="note"><g data-class="notehead" class="notehead"><polygon points="507,1170 935,1170 935,1220 507,1220"/><polygon points="507,1350 935,1350 935,1300 507,1300"/><rect x="489" y="1140" height="240" width="18"/></g><g data-class="stem" class="stem"><rect x="935" y="630" height="750" width="18"/></g></g></g></g><g data-id="y1vyfstk" data-class="staff" class="staff"><path d="M0 2340 L13282 2340" stroke-width="13"/><path d="M0 2520 L13282 2520" stroke-width="13"/><path d="M0 2700 L13282 2700" stroke-width="13"/><path d="M0 2880 L13282 2880" stroke-width="13"/><path d="M0 3060 L13282 3060" stroke-width="13"/><g data-id="wasyxns" data-class="clef" class="clef"><use href="#E901-hp2tbuf" transform="translate(117, 2880) scale(0.72, 0.72)"/></g><g data-id="xpoci8t" data-class="keySig" class="keySig"/><g data-id="z13nit8r" data-class="layer" class="layer"><g data-id="a111a6wf" data-class="rest" class="rest"><use href="#E9F0-hp2tbuf" transform="translate(489, 2700) scale(0.72, 0.72)"/></g></g></g></g><g data-id="fx4o6wc" data-class="system" class="system"><path d="M13 4500 L13 7020" stroke-width="27"/><g data-id="a190ec4h" data-class="staff" class="staff"><path d="M0 4500 L6388 4500" stroke-width="13"/><path d="M0 4680 L6388 4680" stroke-width="13"/><path d="M0 4860 L6388 4860" stroke-width="13"/><path d="M0 5040 L6388 5040" stroke-width="13"/><path d="M0 5220 L6388 5220" stroke-width="13"/><g data-id="k1mk550u" data-class="clef" class="clef"><use href="#E901-hp2tbuf" transform="translate(117, 5040) scale(0.72, 0.72)"/></g><g data-id="lukdxw5" data-class="keySig" class="keySig"/><g data-id="b8wgjat" data-class="layer" class="layer"><g data-id="rg8if39" data-class="note" class="note"><g data-class="notehead" class="notehead"><polygon points="507,5130 703,5130 703,5180 507,5180"/><polygon points="507,5310 703,5310 703,5260 507,5260"/><rect x="489" y="5100" height="240" width="18"/></g><g data-class="stem" class="stem"><rect x="703" y="4590" height="750" width="18"/></g></g></g></g><g data-id="qp1qk8s" data-class="staff" class="staff"><path d="M0 6300 L6388 6300" stroke-width="13"/><path d="M0 6480 L6388 6480" stroke-width="13"/><path d="M0 6660 L6388 6660" stroke-width="13"/><path d="M0 6840 L6388 6840" stroke-width="13"/><path d="M0 7020 L6388 7020" stroke-width="13"/><g data-id="m1fvdfm" data-class="clef" class="clef"><use href="#E901-hp2tbuf" transform="translate(117, 6840) scale(0.72, 0.72)"/></g><g data-id="n17rgtp0" data-class="keySig" class="keySig"/><g data-id="rtjnoqm" data-class="layer" class="layer"><g data-id="b19bau6" data-class="rest" class="rest"><use href="#E9F2-hp2tbuf" transform="translate(489, 6660) scale(0.72, 0.72)"/></g></g></g><g data-id="c1l2pa4c" data-class="staff" class="staff"><path d="M6388 4500 L9528 4500" stroke-width="13"/><path d="M6388 4680 L9528 4680" stroke-width="13"/><path d="M6388 4860 L9528 4860" stroke-width="13"/><path d="M6388 5040 L9528 5040" stroke-width="13"/><path d="M6388 5220 L9528 5220" stroke-width="13"/><g data-id="dnasad3" data-class="layer" class="layer"><g data-id="s1li0nui" data-class="note" class="note"><g data-class="notehead" class="notehead"><polygon points="6496,5130 6692,5130 6692,5180 6496,5180"/><polygon points="6496,5310 6692,5310 6692,5260 6496,5260"/><rect x="6478" y="5100" height="240" width="18"/><rect x="6692" y="5100" height="240" width="18"/></g></g></g></g><g data-id="szou1fp" data-class="staff" class="staff"><path d="M6388 6300 L9528 6300" stroke-width="13"/><path d="M6388 6480 L9528 6480" stroke-width="13"/><path d="M6388 6660 L9528 6660" stroke-width="13"/><path d="M6388 6840 L9528 6840" stroke-width="13"/><path d="M6388 7020 L9528 7020" stroke-width="13"/><g data-id="t1sm7bl2" data-class="layer" class="layer"><g data-id="cvyj0sm" data-class="rest" class="rest"><use href="#E9F3-hp2tbuf" transform="translate(6478, 6660) scale(0.72, 0.72)"/><g data-class="ledgerLines" class="ledgerLines"/></g></g></g><g data-id="ev7yw4v" data-class="staff" class="staff"><path d="M9528 4500 L11193 4500" stroke-width="13"/><path d="M9528 4680 L11193 4680" stroke-width="13"/><path d="M9528 4860 L11193 4860" stroke-width="13"/><path d="M9528 5040 L11193 5040" stroke-width="13"/><path d="M9528 5220 L11193 5220" stroke-width="13"/><g data-id="fxaab4d" data-class="layer" class="layer"><g data-id="t1p73x1d" data-class="note" class="note"><g data-class="notehead" class="notehead"><use href="#E93C-hp2tbuf" transform="translate(9618, 5220) scale(0.72, 0.72)"/></g></g></g></g><g data-id="u6he4vi" data-class="staff" class="staff"><path d="M9528 6300 L11193 6300" stroke-width="13"/><path d="M9528 6480 L11193 6480" stroke-width="13"/><path d="M9528 6660 L11193 6660" stroke-width="13"/><path d="M9528 6840 L11193 6840" stroke-width="13"/><path d="M9528 7020 L11193 7020" stroke-width="13"/><g data-id="vcfeo33" data-class="layer" class="layer"><g data-id="d1n1szg5" data-class="rest" class="rest"><use href="#E9F4-hp2tbuf" transform="translate(9618, 6660) scale(0.72, 0.72)"/><g data-class="ledgerLines" class="ledgerLines"/></g></g></g><g data-id="ghps2hh" data-class="staff" class="staff"><path d="M11193 4500 L12089 4500" stroke-width="13"/><path d="M11193 4680 L12089 4680" stroke-width="13"/><path d="M11193 4860 L12089 4860" stroke-width="13"/><path d="M11193 5040 L12089 5040" stroke-width="13"/><path d="M11193 5220 L12089 5220" stroke-width="13"/><g data-id="h11aul6s" data-class="layer" class="layer"><g data-id="ubh8na7" data-class="note" class="note"><g data-class="notehead" class="notehead"><use href="#E93C-hp2tbuf" transform="translate(11283, 5220) scale(0.72, 0.72)"/></g><g data-id="w1pn70i3" data-class="stem" class="stem"><use href="#E93E-hp2tbuf" transform="translate(11385, 5140) scale(0.72, 0.72)"/></g></g></g></g><g data-id="wfp8bl7" data-class="staff" class="staff"><path d="M11193 6300 L12089 6300" stroke-width="13"/><path d="M11193 6480 L12089 6480" stroke-width="13"/><path d="M11193 6660 L12089 6660" stroke-width="13"/><path d="M11193 6840 L12089 6840" stroke-width="13"/><path d="M11193 7020 L12089 7020" stroke-width="13"/><g data-id="xx0b75i" data-class="layer" class="layer"><g data-id="e194jzw" data-class="rest" class="rest"><use href="#E9F5-hp2tbuf" transform="translate(11283, 6660) scale(0.72, 0.72)"/><g data-class="ledgerLines" class="ledgerLines"/></g></g></g><g data-id="isxdmta" data-class="staff" class="staff"><path d="M12089 4500 L12708 4500" stroke-width="13"/><path d="M12089 4680 L12708 4680" stroke-width="13"/><path d="M12089 4860 L12708 4860" stroke-width="13"/><path d="M12089 5040 L12708 5040" stroke-width="13"/><path d="M12089 5220 L12708 5220" stroke-width="13"/><g data-id="jqzt6gj" data-class="layer" class="layer"><g data-id="v9sbscv" data-class="note" class="note"><g data-class="notehead" class="notehead"><use href="#E93D-hp2tbuf" transform="translate(12179, 5220) scale(0.72, 0.72)"/></g><g data-id="x12tm85a" data-class="stem" class="stem"><use href="#E93E-hp2tbuf" transform="translate(12281, 5140) scale(0.72, 0.72)"/></g></g></g></g><g data-id="ysmyshj" data-class="staff" class="staff"><path d="M12089 6300 L12708 6300" stroke-width="13"/><path d="M12089 6480 L12708 6480" stroke-width="13"/><path d="M12089 6660 L12708 6660" stroke-width="13"/><path d="M12089 6840 L12708 6840" stroke-width="13"/><path d="M12089 7020 L12708 7020" stroke-width="13"/><g data-id="za4jjh9" data-class="layer" class="layer"><g data-id="f1nqa9ol" data-class="rest" class="rest"><use href="#E9F6-hp2tbuf" transform="translate(12179, 6660) scale(0.72, 0.72)"/></g></g></g><g data-id="k10nxw6a" data-class="staff" class="staff"><path d="M12708 4500 L13150 4500" stroke-width="13"/><path d="M12708 4680 L13150 4680" stroke-width="13"/><path d="M12708 4860 L13150 4860" stroke-width="13"/><path d="M12708 5040 L13150 5040" stroke-width="13"/><path d="M12708 5220 L13150 5220" stroke-width="13"/><g data-id="lk0777" data-class="layer" class="layer"><g data-id="wamxqpm" data-class="note" class="note"><g data-class="notehead" class="notehead"><use href="#E93D-hp2tbuf" transform="translate(12798, 5220) scale(0.72, 0.72)"/></g><g data-id="yf5czuj" data-class="stem" class="stem"><use href="#E949-hp2tbuf" transform="translate(12900, 5140) scale(0.72, 0.72)"/></g></g></g></g><g data-id="ab9b3kf" data-class="staff" class="staff"><path d="M12708 6300 L13150 6300" stroke-width="13"/><path d="M12708 6480 L13150 6480" stroke-width="13"/><path d="M12708 6660 L13150 6660" stroke-width="13"/><path d="M12708 6840 L13150 6840" stroke-width="13"/><path d="M12708 7020 L13150 7020" stroke-width="13"/><g data-id="bjj1vdv" data-class="layer" class="layer"><g data-id="g1ykpd0x" data-class="rest" class="rest"><use href="#E9F7-hp2tbuf" transform="translate(12798, 6660) scale(0.72, 0.72)"/></g></g></g><g data-id="m3lfrch" data-class="staff" class="staff"><path d="M13150 4500 L13471 4500" stroke-width="13"/><path d="M13150 4680 L13471 4680" stroke-width="13"/><path d="M13150 4860 L13471 4860" stroke-width="13"/><path d="M13150 5040 L13471 5040" stroke-width="13"/><path d="M13150 5220 L13471 5220" stroke-width="13"/><g data-id="n14p35ps" data-class="layer" class="layer"><g data-id="x17ezsme" data-class="note" class="note"><g data-class="notehead" class="notehead"><use href="#E93D-hp2tbuf" transform="translate(13240, 5220) scale(0.72, 0.72)"/></g><g data-id="z1fy1n7h" data-class="stem" class="stem"><use href="#E94B-hp2tbuf" transform="translate(13342, 5140) scale(0.72, 0.72)"/></g></g></g></g><g data-id="c1yyej4s" data-class="staff" class="staff"><path d="M13150 6300 L13471 6300" stroke-width="13"/><path d="M13150 6480 L13471 6480" stroke-width="13"/><path d="M13150 6660 L13471 6660" stroke-width="13"/><path d="M13150 6840 L13471 6840" stroke-width="13"/><path d="M13150 7020 L13471 7020" stroke-width="13"/><g data-id="d194bhsz" data-class="layer" class="layer"><g data-id="hat4i2" data-class="rest" class="rest"><use href="#E9F8-hp2tbuf" transform="translate(13240, 6660) scale(0.72, 0.72)"/></g></g></g><g data-id="p12g9ya5" data-class="systemMilestoneEnd" class="systemMilestoneEnd e1wymdpd"/></g><g data-id="qgqe441" data-class="pageMilestoneEnd" class="pageMilestoneEnd j8keoh6"/><g data-id="r179xdti" data-class="pageMilestoneEnd" class="pageMilestoneEnd i19o3xx6"/></g></svg></svg>