<svg viewBox="0 0 143 86" version="1.1" xmlns="http://www.w3.org/2000/svg" xmlns:xlink="http://www.w3.org/1999/xlink" overflow="visible" id="e1w9b1s0"><desc>Engraved by Verovio 6.1.0-682d606</desc><defs><g id="E901-e1w9b1s0"><path transform="scale(1,-1)" d="M144 488c30 28 83 110 83 176c0 77 -39 150 -104 150c-15 0 -33 -6 -61 -34c-15 -15 -23 -44 -23 -79c0 -44 14 -96 43 -133c23 -29 44 -58 62 -80zM159 69c-57 0 -104 -31 -104 -98c0 -61 35 -63 51 -75c8 0 23 52 39 92l32 80c-6 1 -12 1 -18 1zM256 -25 c0 -76 -24 -122 -98 -122h-3c-28 0 -66 7 -84 15c-38 17 -71 55 -71 112c0 55 56 114 124 123c25 3 49 8 61 8c12 33 26 89 26 128c0 104 -55 180 -76 211c-51 -65 -79 -110 -90 -178c-1 -6 -4 -25 -4 -46c0 -18 2 -38 10 -50c5 -7 7 -16 7 -24c0 -13 -6 -24 -15 -24 c-5 0 -12 5 -19 17c-12 21 -24 38 -24 96c0 77 23 115 54 151c38 44 26 28 65 68l1 -1c0 3 -16 27 -60 79c-19 22 -58 58 -58 145c0 76 30 100 53 123c25 25 57 38 102 38c62 0 110 -83 110 -168c0 -13 -2 -26 -4 -39c-10 -52 -83 -130 -111 -163c24 -38 8 -3 55 -91 c34 -63 42 -84 42 -119c0 -10 -1 -22 -2 -37c-4 -63 -11 -76 -20 -116c7 0 12 1 21 -1c14 -4 20 -11 20 -19c0 -19 -30 -19 -52 -24c-6 -13 -67 -174 -67 -181c0 -2 9 -4 19 -4c25 0 41 21 56 73c8 28 14 39 22 39s10 -8 10 -19z"/></g></defs><style type="text/css">#e1w9b1s0 g.ending, #e1w9b1s0 g.fing, #e1w9b1s0 g.reh, #e1w9b1s0 g.tempo {font-weight:bold;}#e1w9b1s0 g.dir, #e1w9b1s0 g.dynam, #e1w9b1s0 g.mNum {font-style:italic;}#e1w9b1s0 g.label {font-weight:normal;}#e1w9b1s0 ellipse, #e1w9b1s0 path, #e1w9b1s0 polygon, #e1w9b1s0 polyline, #e1w9b1s0 rect {stroke:currentColor}</style><svg class="definition-scale" color="black" font-family="Times, serif" viewBox="0 0 14220 8560"><g class="page-margin" transform="translate(500, 500)"><g data-id="fshw3g7" data-class="mdiv" class="mdiv pageMilestone"/><g data-id="g146prmx" data-class="score" class="score pageMilestone"/><g data-id="omprbkx" data-class="system" class="system"><path d="M13 540 L13 3060" stroke-width="27"/><g data-id="bn4k6jn" data-class="section" class="section systemMilestone"/><g data-id="l9r8lke" data-class="staff" class="staff"><path d="M0 540 L6762 540" stroke-width="13"/><path d="M0 720 L6762 720" stroke-width="13"/><path d="M0 900 L6762 900" stroke-width="13"/><path d="M0 1080 L6762 1080" stroke-width="13"/><path d="M0 1260 L6762 1260" stroke-width="13"/><g data-id="g10zcr54" data-class="clef" class="clef"><use href="#E901-e1w9b1s0" transform="translate(117, 1080) scale(0.72, 0.72)"/></g><g data-id="h6ax0ye" data-class="keySig" class="keySig"/><g data-id="mhqi4j0" data-class="layer" class="layer"><g data-id="n1je8exw" data-class="note" class="note"><g data-class="notehead" class="notehead"><polygon points="507,1170 703,1170 703,1220 507,1220"/><polygon points="507,1350 703,1350 703,1300 507,1300"/><rect x="489" y="1140" height="240" width="18"/></g><g data-class="stem" class="stem"><rect x="703" y="630" height="750" width="18"/></g></g><g data-id="o1lp6xtd" data-class="barLine" class="barLine"><path d="M6749 540 L6749 1260" stroke-width="27" stroke-dasharray="102 102"/></g></g></g><g data-id="wafl1hj" data-class="staff" class="staff"><path d="M0 2340 L6762 2340" stroke-width="13"/><path d="M0 2520 L6762 2520" stroke-width="13"/><path d="M0 2700 L6762 2700" stroke-width="13"/><path d="M0 2880 L6762 2880" stroke-width="13"/><path d="M0 3060 L6762 3060" stroke-width="13"/><g data-id="i15uc217" data-class="clef" class="clef"><use href="#E901-e1w9b1s0" transform="translate(117, 2880) scale(0.72, 0.72)"/></g><g data-id="j13lgh77" data-class="keySig" class="keySig"/><g data-id="xdbvama" data-class="layer" class="layer"><g data-id="y1lcaumr" data-class="note" class="note"><g data-class="notehead" class="notehead"><polygon points="507,2700 703,2700 703,2750 507,2750"/><polygon points="507,2880 703,2880 703,2830 507,2830"/><rect x="489" y="2670" height="240" width="18"/><rect x="703" y="2670" height="240" width="18"/></g></g><g data-id="zrjeh6f" data-class="note" class="note"><g data-class="notehead" class="notehead"><polygon points="3637,2700 3833,2700 3833,2750 3637,2750"/><polygon points="3637,2880 3833,2880 3833,2830 3637,2830"/><rect x="3619" y="2670" height="240" width="18"/><rect x="3833" y="2670" height="240" width="18"/></g></g><g data-id="a1j1l40h" data-class="barLine" class="barLine"><path d="M6749 2340 L6749 3060" stroke-width="27" stroke-dasharray="102 102"/></g></g></g><g data-id="w18xvzb7" data-class="staff" class="staff"><path d="M6762 540 L9995 540" stroke-width="13"/><path d="M6762 720 L9995 720" stroke-width="13"/><path d="M6762 900 L9995 900" stroke-width="13"/><path d="M6762 1080 L9995 1080" stroke-width="13"/><path d="M6762 1260 L9995 1260" stroke-width="13"/><g data-id="x1ukv8x" data-class="layer" class="layer"><g data-id="p18etc1a" data-class="note" class="note"><g data-class="notehead" class="notehead"><polygon points="6870,1170 7066,1170 7066,1220 6870,1220"/><polygon points="6870,1350 7066,1350 7066,1300 6870,1300"/><rect x="6852" y="1140" height="240" width="18"/><rect x="7066" y="1140" height="240" width="18"/></g></g><g data-id="q598igo" data-class="dot" class="dot"><polygon fill-opacity="1" points="8488,1170 8533,1125 8578,1170 8533,1215"/></g><g data-id="r1lr68we" data-class="barLine" class="barLine"><path d="M9982 540 L9982 1260" stroke-width="27" stroke-dasharray="102 102"/></g></g></g><g data-id="e5n3c09" data-class="staff" class="staff"><path d="M6762 2340 L9995 2340" stroke-width="13"/><path d="M6762 2520 L9995 2520" stroke-width="13"/><path d="M6762 2700 L9995 2700" stroke-width="13"/><path d="M6762 2880 L9995 2880" stroke-width="13"/><path d="M6762 3060 L9995 3060" stroke-width="13"/><g data-id="f180ekeo" data-class="layer" class="layer"><g data-id="bk9cfzh" data-class="note" class="note"><g data-class="notehead" class="notehead"><polygon points="6870,2700 7066,2700 7066,2750 6870,2750"/><polygon points="6870,2880 7066,2880 7066,2830 6870,2830"/><rect x="6852" y="2670" height="240" width="18"/><rect x="7066" y="2670" height="240" width="18"/></g></g><g data-id="ckix7rj" data-class="barLine" class="barLine"><path d="M9982 2340 L9982 3060" stroke-width="27" stroke-dasharray="102 102"/></g></g></g><g data-id="ynyt3t8" data-class="staff" class="staff"><path d="M9995 540 L13228 540" stroke-width="13"/><path d="M9995 720 L13228 720" stroke-width="13"/><path d="M9995 900 L13228 900" stroke-width="13"/><path d="M9995 1080 L13228 1080" stroke-width="13"/><path d="M9995 1260 L13228 1260" stroke-width="13"/><g data-id="zfn0aec" data-class="layer" class="layer"><g data-id="sqpbm4y" data-class="note" class="note"><g data-class="notehead" class="notehead"><polygon points="10103,1170 10299,1170 10299,1220 10103,1220"/><polygon points="10103,1350 10299,1350 10299,1300 10103,1300"/><rect x="10085" y="1140" height="240" width="18"/><rect x="10299" y="1140" height="240" width="18"/></g></g><g data-id="t1t1sks7" data-class="barLine" class="barLine"><path d="M13215 540 L13215 1260" stroke-width="27" stroke-dasharray="102 102"/></g></g></g><g data-id="gn3iwba" data-class="staff" class="staff"><path d="M9995 2340 L13228 2340" stroke-width="13"/><path d="M9995 2520 L13228 2520" stroke-width="13"/><path d="M9995 2700 L13228 2700" stroke-width="13"/><path d="M9995 2880 L13228 2880" stroke-width="13"/><path d="M9995 3060 L13228 3060" stroke-width="13"/><g data-id="h1atmhik" data-class="layer" class="layer"><g data-id="dlb9r00" data-class="note" class="note"><g data-class="notehead" class="notehead"><polygon points="10103,2700 10299,2700 10299,2750 10103,2750"/><polygon points="10103,2880 10299,2880 10299,2830 10103,2830"/><rect x="10085" y="2670" height="240" width="18"/><rect x="10299" y="2670" height="240" width="18"/></g></g><g data-id="e1knnrod" data-class="barLine" class="barLine"><path d="M13215 2340 L13215 3060" stroke-width="27" stroke-dasharray="102 102"/></g></g></g></g><g data-id="r1l8d4sg" data-class="system" class="system"><path d="M13 4500 L13 7020" stroke-width="27"/><g data-id="a1x7259x" data-class="staff" class="staff"><path d="M0 4500 L6762 4500" stroke-width="13"/><path d="M0 4680 L6762 4680" stroke-width="13"/><path d="M0 4860 L6762 4860" stroke-width="13"/><path d="M0 5040 L6762 5040" stroke-width="13"/><path d="M0 5220 L6762 5220" stroke-width="13"/><g data-id="w1cj027i" data-class="clef" class="clef"><use href="#E901-e1w9b1s0" transform="translate(117, 5040) scale(0.72, 0.72)"/></g><g data-id="xaa8pfu" data-class="keySig" class="keySig"/><g data-id="b1944nxf" data-class="layer" class="layer"><g data-id="urfeg37" data-class="note" class="note"><g data-class="notehead" class="notehead"><polygon points="507,5130 703,5130 703,5180 507,5180"/><polygon points="507,5310 703,5310 703,5260 507,5260"/><rect x="489" y="5100" height="240" width="18"/></g><g data-class="stem" class="stem"><rect x="703" y="4590" height="750" width="18"/></g></g><g data-id="v9fuybz" data-class="barLine" class="barLine"><path d="M6749 4500 L6749 5220" stroke-width="27" stroke-dasharray="102 102"/></g></g></g><g data-id="i17u9k9m" data-class="staff" class="staff"><path d="M0 6300 L6762 6300" stroke-width="13"/><path d="M0 6480 L6762 6480" stroke-width="13"/><path d="M0 6660 L6762 6660" stroke-width="13"/><path d="M0 6840 L6762 6840" stroke-width="13"/><path d="M0 7020 L6762 7020" stroke-width="13"/><g data-id="yl25l7v" data-class="clef" class="clef"><use href="#E901-e1w9b1s0" transform="translate(117, 6840) scale(0.72, 0.72)"/></g><g data-id="zdkct9s" data-class="keySig" class="keySig"/><g data-id="j7ywvx7" data-class="layer" class="layer"><g data-id="f1swnyat" data-class="note" class="note"><g data-class="notehead" class="notehead"><polygon points="507,6660 703,6660 703,6710 507,6710"/><polygon points="507,6840 703,6840 703,6790 507,6790"/><rect x="489" y="6630" height="240" width="18"/><rect x="703" y="6630" height="240" width="18"/></g></g><g data-id="gqhabvc" data-class="note" class="note"><g data-class="notehead" class="notehead"><polygon points="3637,6660 3833,6660 3833,6710 3637,6710"/><polygon points="3637,6840 3833,6840 3833,6790 3637,6790"/><rect x="3619" y="6630" height="240" width="18"/><rect x="3833" y="6630" height="240" width="18"/></g></g><g data-id="h1oc94w6" data-class="barLine" class="barLine"><path d="M6749 6300 L6749 7020" stroke-width="27" stroke-dasharray="102 102"/></g></g></g><g data-id="p1efhkjx" data-class="systemMilestoneEnd" class="systemMilestoneEnd bn4k6jn"/></g><g data-id="q2tox9n" data-class="pageMilestoneEnd" class="pageMilestoneEnd g146prmx"/><g data-id="r6sf8hf" data-class="pageMilestoneEnd" class="pageMilestoneEnd fshw3g7"/></g></svg></svg>