<svg viewBox="0 0 113 46" version="1.1" xmlns="http://www.w3.org/2000/svg" xmlns:xlink="http://www.w3.org/1999/xlink" overflow="visible" id="w1wvq0ht"><desc>Engraved by Verovio 6.1.0-682d606</desc><defs><g id="E901-w1wvq0ht"><path transform="scale(1,-1)" d="M144 488c30 28 83 110 83 176c0 77 -39 150 -104 150c-15 0 -33 -6 -61 -34c-15 -15 -23 -44 -23 -79c0 -44 14 -96 43 -133c23 -29 44 -58 62 -80zM159 69c-57 0 -104 -31 -104 -98c0 -61 35 -63 51 -75c8 0 23 52 39 92l32 80c-6 1 -12 1 -18 1zM256 -25 c0 -76 -24 -122 -98 -122h-3c-28 0 -66 7 -84 15c-38 17 -71 55 -71 112c0 55 56 114 124 123c25 3 49 8 61 8c12 33 26 89 26 128c0 104 -55 180 -76 211c-51 -65 -79 -110 -90 -178c-1 -6 -4 -25 -4 -46c0 -18 2 -38 10 -50c5 -7 7 -16 7 -24c0 -13 -6 -24 -15 -24 c-5 0 -12 5 -19 17c-12 21 -24 38 -24 96c0 77 23 115 54 151c38 44 26 28 65 68l1 -1c0 3 -16 27 -60 79c-19 22 -58 58 -58 145c0 76 30 100 53 123c25 25 57 38 102 38c62 0 110 -83 110 -168c0 -13 -2 -26 -4 -39c-10 -52 -83 -130 -111 -163c24 -38 8 -3 55 -91 c34 -63 42 -84 42 -119c0 -10 -1 -22 -2 -37c-4 -63 -11 -76 -20 -116c7 0 12 1 21 -1c14 -4 20 -11 20 -19c0 -19 -30 -19 -52 -24c-6 -13 -67 -174 -67 -181c0 -2 9 -4 19 -4c25 0 41 21 56 73c8 28 14 39 22 39s10 -8 10 -19z"/></g></defs><style type="text/css">#w1wvq0ht g.ending, #w1wvq0ht g.fing, #w1wvq0ht g.reh, #w1wvq0ht g.tempo {font-weight:bold;}#w1wvq0ht g.dir, #w1wvq0ht g.dynam, #w1wvq0ht g.mNum {font-style:italic;}#w1wvq0ht g.label {font-weight:normal;}#w1wvq0ht ellipse, #w1wvq0ht path, #w1wvq0ht polygon, #w1wvq0ht polyline, #w1wvq0ht rect {stroke:currentColor}</style><svg class="definition-scale" color="black" font-family="Times, serif" viewBox="0 0 11280 4600"><g class="page-margin" transform="translate(500, 500)"><g data-id="xtggs97" data-class="mdiv" class="mdiv pageMilestone"/><g data-id="y1mxt5m5" data-class="score" class="score pageMilestone"/><g data-id="a11d8deu" data-class="system" class="system"><path d="M13 540 L13 3060" stroke-width="27"/><g data-id="vu12o7w" data-class="section" class="section systemMilestone"/><g data-id="fbmj8z0" data-class="staff" class="staff"><path d="M0 540 L7762 540" stroke-width="13"/><path d="M0 720 L7762 720" stroke-width="13"/><path d="M0 900 L7762 900" stroke-width="13"/><path d="M0 1080 L7762 1080" stroke-width="13"/><path d="M0 1260 L7762 1260" stroke-width="13"/><g data-id="k2ie52f" data-class="clef" class="clef"><use href="#E901-w1wvq0ht" transform="translate(117, 1080) scale(0.72, 0.72)"/></g><g data-id="lekd45d" data-class="keySig" class="keySig"/><g data-id="g12ao7y5" data-class="layer" class="layer"><g data-id="h1jwml8o" data-class="note" class="note"><g data-class="notehead" class="notehead"><polygon points="507,1170 703,1170 703,1220 507,1220"/><polygon points="507,1350 703,1350 703,1300 507,1300"/><rect x="489" y="1140" height="240" width="18"/></g><g data-class="stem" class="stem"><rect x="703" y="630" height="750" width="18"/></g></g><g data-id="iuqrx0w" data-class="dot" class="dot"><polygon fill-opacity="1" points="759,1170 804,1125 849,1170 804,1215"/></g><g data-id="j16gilbz" data-class="barLine" class="barLine"><path d="M7749 540 L7749 1260" stroke-width="27" stroke-dasharray="102 102"/></g></g></g><g data-id="m1m2zvnm" data-class="staff" class="staff"><path d="M0 2340 L7762 2340" stroke-width="13"/><path d="M0 2520 L7762 2520" stroke-width="13"/><path d="M0 2700 L7762 2700" stroke-width="13"/><path d="M0 2880 L7762 2880" stroke-width="13"/><path d="M0 3060 L7762 3060" stroke-width="13"/><g data-id="mhu7381" data-class="clef" class="clef"><use href="#E901-w1wvq0ht" transform="translate(117, 2880) scale(0.72, 0.72)"/></g><g data-id="n1j89mg7" data-class="keySig" class="keySig"/><g data-id="n19is2ix" data-class="layer" class="layer"><g data-id="o10kt86t" data-class="note" class="note"><g data-class="notehead" class="notehead"><polygon points="507,2700 703,2700 703,2750 507,2750"/><polygon points="507,2880 703,2880 703,2830 507,2830"/><rect x="489" y="2670" height="240" width="18"/><rect x="703" y="2670" height="240" width="18"/></g></g><g data-id="p1osg3d3" data-class="note" class="note"><g data-class="notehead" class="notehead"><polygon points="2927,2700 3123,2700 3123,2750 2927,2750"/><polygon points="2927,2880 3123,2880 3123,2830 2927,2830"/><rect x="2909" y="2670" height="240" width="18"/><rect x="3123" y="2670" height="240" width="18"/></g></g><g data-id="q1sz0h4c" data-class="note" class="note"><g data-class="notehead" class="notehead"><polygon points="5347,2700 5543,2700 5543,2750 5347,2750"/><polygon points="5347,2880 5543,2880 5543,2830 5347,2830"/><rect x="5329" y="2670" height="240" width="18"/><rect x="5543" y="2670" height="240" width="18"/></g></g><g data-id="rq6hdwa" data-class="barLine" class="barLine"><path d="M7749 2340 L7749 3060" stroke-width="27" stroke-dasharray="102 102"/></g></g></g><g data-id="u13h5psq" data-class="staff" class="staff"><path d="M7762 540 L10285 540" stroke-width="13"/><path d="M7762 720 L10285 720" stroke-width="13"/><path d="M7762 900 L10285 900" stroke-width="13"/><path d="M7762 1080 L10285 1080" stroke-width="13"/><path d="M7762 1260 L10285 1260" stroke-width="13"/><g data-id="vtdgcpt" data-class="layer" class="layer"><g data-id="k1vhhrb3" data-class="note" class="note"><g data-class="notehead" class="notehead"><polygon points="7870,1170 8066,1170 8066,1220 7870,1220"/><polygon points="7870,1350 8066,1350 8066,1300 7870,1300"/><rect x="7852" y="1140" height="240" width="18"/><rect x="8066" y="1140" height="240" width="18"/></g></g><g data-id="l1u0gofu" data-class="barLine" class="barLine"><path d="M10272 540 L10272 1260" stroke-width="27" stroke-dasharray="102 102"/></g></g></g><g data-id="y1u3ad0m" data-class="staff" class="staff"><path d="M7762 2340 L10285 2340" stroke-width="13"/><path d="M7762 2520 L10285 2520" stroke-width="13"/><path d="M7762 2700 L10285 2700" stroke-width="13"/><path d="M7762 2880 L10285 2880" stroke-width="13"/><path d="M7762 3060 L10285 3060" stroke-width="13"/><g data-id="z1tr9ixx" data-class="layer" class="layer"><g data-id="s1ebnzvc" data-class="note" class="note"><g data-class="notehead" class="notehead"><polygon points="7870,2700 8066,2700 8066,2750 7870,2750"/><polygon points="7870,2880 8066,2880 8066,2830 7870,2830"/><rect x="7852" y="2670" height="240" width="18"/><rect x="8066" y="2670" height="240" width="18"/></g></g><g data-id="t1rzs4po" data-class="barLine" class="barLine"><path d="M10272 2340 L10272 3060" stroke-width="27" stroke-dasharray="102 102"/></g></g></g><g data-id="b2cyio3" data-class="systemMilestoneEnd" class="systemMilestoneEnd vu12o7w"/></g><g data-id="cdh80me" data-class="pageMilestoneEnd" class="pageMilestoneEnd y1mxt5m5"/><g data-id="dm111so" data-class="pageMilestoneEnd" class="pageMilestoneEnd xtggs97"/></g></svg></svg>