<svg viewBox="0 0 149 89" version="1.1" xmlns="http://www.w3.org/2000/svg" xmlns:xlink="http://www.w3.org/1999/xlink" overflow="visible" id="wwdwy60"><desc>Engraved by Verovio 6.0.1-ffbc336</desc><defs><g id="E050-wwdwy60"><path transform="scale(1,-1)" d="M441 -245c-23 -4 -48 -6 -76 -6c-59 0 -102 7 -130 20c-88 42 -150 93 -187 154c-26 44 -43 103 -48 176c0 6 -1 13 -1 19c0 54 15 111 45 170c29 57 65 106 110 148s96 85 153 127c-3 16 -8 46 -13 92c-4 43 -5 73 -5 89c0 117 16 172 69 257c34 54 64 82 89 82 c21 0 43 -30 69 -92s39 -115 41 -159v-15c0 -109 -21 -162 -67 -241c-13 -20 -63 -90 -98 -118c-13 -9 -25 -19 -37 -29l31 -181c8 1 18 2 28 2c58 0 102 -12 133 -35c59 -43 92 -104 98 -184c1 -7 1 -15 1 -22c0 -123 -87 -209 -181 -248c8 -57 17 -110 25 -162 c5 -31 6 -58 6 -80c0 -30 -5 -53 -14 -70c-35 -64 -88 -99 -158 -103c-5 0 -11 -1 -16 -1c-37 0 -72 10 -108 27c-50 24 -77 59 -80 105v11c0 29 7 55 20 76c18 28 45 42 79 44h6c49 0 93 -42 97 -87v-9c0 -51 -34 -86 -105 -106c17 -24 51 -36 102 -36c62 0 116 43 140 85 c9 16 13 41 13 74c0 20 -1 42 -5 67c-8 53 -18 106 -26 159zM461 939c-95 0 -135 -175 -135 -286c0 -24 2 -48 5 -71c50 39 92 82 127 128c40 53 60 100 60 140v8c-4 53 -22 81 -55 81h-2zM406 119l54 -326c73 25 110 78 110 161c0 7 0 15 -1 23c-7 95 -57 142 -151 142h-12 zM382 117c-72 -2 -128 -47 -128 -120v-7c2 -46 43 -99 75 -115c-3 -2 -7 -5 -10 -10c-70 33 -116 88 -123 172v11c0 68 44 126 88 159c23 17 49 29 78 36l-29 170c-21 -13 -52 -37 -92 -73c-50 -44 -86 -84 -109 -119c-45 -69 -67 -130 -67 -182v-13c5 -68 35 -127 93 -176 s125 -73 203 -73c25 0 50 3 75 9c-19 111 -36 221 -54 331z"/></g><g id="E0A3-wwdwy60"><path transform="scale(1,-1)" d="M278 64c0 22 -17 39 -43 39c-12 0 -26 -3 -41 -10c-85 -43 -165 -94 -165 -156c5 -25 15 -32 49 -32c67 11 200 95 200 159zM0 -36c0 68 73 174 200 174c66 0 114 -39 114 -97c0 -84 -106 -173 -218 -173c-64 0 -96 32 -96 96z"/></g><g id="E0A4-wwdwy60"><path transform="scale(1,-1)" d="M0 -39c0 68 73 172 200 172c66 0 114 -37 114 -95c0 -84 -106 -171 -218 -171c-64 0 -96 30 -96 94z"/></g><g id="E0A2-wwdwy60"><path transform="scale(1,-1)" d="M198 133c102 0 207 -45 207 -133c0 -92 -118 -133 -227 -133c-101 0 -178 46 -178 133c0 88 93 133 198 133zM293 -21c0 14 -3 29 -8 44c-7 20 -18 38 -33 54c-20 21 -43 31 -68 31l-20 -2c-15 -5 -27 -14 -36 -28c-4 -9 -6 -17 -8 -24s-3 -16 -3 -27c0 -15 3 -34 9 -57 s18 -41 34 -55c15 -15 36 -23 62 -23c4 0 10 1 18 2c19 5 32 15 40 30s13 34 13 55z"/></g><g id="E510-wwdwy60"><path transform="scale(1,-1)" d="M86 180c-15 17 -25 40 -28 67c0 11 3 22 8 33s13 21 23 29c21 15 47 23 78 23c29 0 53 -9 71 -27s27 -37 28 -58c0 -17 -6 -32 -17 -45s-28 -25 -51 -36c21 -25 32 -52 32 -80c0 -23 -10 -44 -30 -61c-21 -16 -51 -24 -90 -24c-34 0 -61 8 -80 25s-29 37 -30 60 c0 18 7 36 22 55c13 16 34 29 64 39zM98 168c-19 -12 -34 -25 -43 -38s-14 -28 -15 -44c2 -23 9 -38 21 -47s30 -15 55 -18c17 0 29 4 38 12s13 21 14 38c-3 21 -26 54 -70 97zM187 180c26 20 39 44 39 71c0 17 -5 31 -16 44s-25 19 -42 20c-28 0 -44 -15 -47 -44l2 -12 c7 -22 29 -48 64 -79z"/></g><g id="E51A-wwdwy60"><path transform="scale(1,-1)" d="M115 -14v-9c0 -1 -1 -2 -1 -2h-2c-78 43 -112 104 -112 175s37 132 112 175c1 1 2 0 2 0s1 -2 1 -3v-8s-1 -3 -3 -5c-47 -34 -70 -81 -70 -159s26 -124 70 -160c3 -2 3 -2 3 -4z"/></g><g id="E51B-wwdwy60"><path transform="scale(1,-1)" d="M0 -14c0 2 0 2 3 4c44 36 70 82 70 160s-23 125 -70 159c-2 2 -3 5 -3 5v8c0 1 1 3 1 3h2c75 -43 112 -104 112 -175s-34 -132 -112 -175h-2s-1 1 -1 2v9z"/></g><g id="E514-wwdwy60"><path transform="scale(1,-1)" d="M108 41c0 -18 15 -22 33 -24l12 1l14 2l-5 -20h-159l5 20h19c15 0 25 1 29 3c5 4 9 11 12 21l52 211l1 5c-4 4 -7 6 -9 6l-53 1l5 20c17 0 34 3 51 9c19 5 35 12 50 22h12l-67 -266l-2 -6v-5zM224 137c-9 2 -11 2 -13 13c0 7 5 15 16 24c9 28 17 57 25 85l16 61l47 -9 c5 -1 13 -2 25 -2c5 -1 9 -1 14 -1c26 0 48 4 66 13l6 -4c-18 -32 -41 -51 -89 -51c-11 0 -49 6 -58 7l-26 -86c20 11 32 14 59 16c51 0 81 -33 81 -84c0 -31 -12 -60 -37 -87s-56 -40 -93 -40c-44 0 -83 24 -83 70c0 24 11 41 34 41c14 0 26 -13 26 -28c0 -7 -1 -11 -3 -13 l-16 -13l-8 -5l-2 -4c0 -18 25 -29 47 -29c21 0 40 10 59 30s28 47 29 81c0 37 -21 57 -55 57c-26 0 -33 -5 -46 -17c-3 -13 -7 -25 -21 -25z"/></g></defs><style type="text/css">#wwdwy60 g.ending, #wwdwy60 g.fing, #wwdwy60 g.reh, #wwdwy60 g.tempo {font-weight:bold;}#wwdwy60 g.dir, #wwdwy60 g.dynam, #wwdwy60 g.mNum {font-style:italic;}#wwdwy60 g.label {font-weight:normal;}#wwdwy60 ellipse, #wwdwy60 path, #wwdwy60 polygon, #wwdwy60 polyline, #wwdwy60 rect {stroke:currentColor}</style><svg class="definition-scale" color="black" font-family="Times, serif" viewBox="0 0 14820 8870"><g class="page-margin" transform="translate(500, 500)"><g data-id="xv1nmw3" data-class="mdiv" class="mdiv pageMilestone"/><g data-id="yppk5m" data-class="score" class="score pageMilestone"/><g data-id="u1rn2nr5" data-class="system" class="system"><g data-id="l19lvnop" data-class="section" class="section systemMilestone"/><g data-id="mdlgpl8" data-class="measure" class="measure"><g data-id="vzv774g" data-class="staff" class="staff"><path d="M0 1086 L3643 1086" stroke-width="13"/><path d="M0 1266 L3643 1266" stroke-width="13"/><path d="M0 1446 L3643 1446" stroke-width="13"/><path d="M0 1626 L3643 1626" stroke-width="13"/><path d="M0 1806 L3643 1806" stroke-width="13"/><g data-id="x6haqo2" data-class="clef" class="clef"><use href="#E050-wwdwy60" transform="translate(90, 1626) scale(0.72, 0.72)"/></g><g data-id="y18bp6qe" data-class="keySig" class="keySig"/><g data-class="ledgerLines" class="ledgerLines above"><g data-class="lineDash" class="lineDash" data-related="#x1dcwsr"><path d="M777 906 L1099 906" stroke-width="22"/></g><g data-class="lineDash" class="lineDash" data-related="#z1tnv970"><path d="M1810 906 L2132 906" stroke-width="22"/></g><g data-class="lineDash" class="lineDash" data-related="#a2uls55"><path d="M2253 906 L2575 906" stroke-width="22"/></g><g data-class="lineDash" class="lineDash" data-related="#b7kleem"><path d="M2696 906 L3018 906" stroke-width="22"/></g><g data-class="lineDash" class="lineDash" data-related="#c10nzw4g"><path d="M3139 906 L3461 906" stroke-width="22"/></g><g data-class="lineDash" class="lineDash" data-related="#x1dcwsr"><path d="M777 726 L1099 726" stroke-width="22"/></g><g data-class="lineDash" class="lineDash" data-related="#z1tnv970"><path d="M1810 726 L2132 726" stroke-width="22"/></g><g data-class="lineDash" class="lineDash" data-related="#a2uls55"><path d="M2253 726 L2575 726" stroke-width="22"/></g><g data-class="lineDash" class="lineDash" data-related="#b7kleem"><path d="M2696 726 L3018 726" stroke-width="22"/></g><g data-class="lineDash" class="lineDash" data-related="#c10nzw4g"><path d="M3139 726 L3461 726" stroke-width="22"/></g><g data-class="lineDash" class="lineDash" data-related="#x1dcwsr"><path d="M777 546 L1099 546" stroke-width="22"/></g><g data-class="lineDash" class="lineDash" data-related="#z1tnv970"><path d="M1810 546 L2132 546" stroke-width="22"/></g><g data-class="lineDash" class="lineDash" data-related="#a2uls55"><path d="M2253 546 L2575 546" stroke-width="22"/></g><g data-class="lineDash" class="lineDash" data-related="#b7kleem"><path d="M2696 546 L3018 546" stroke-width="22"/></g><g data-class="lineDash" class="lineDash" data-related="#c10nzw4g"><path d="M3139 546 L3461 546" stroke-width="22"/></g><g data-class="lineDash" class="lineDash" data-related="#a2uls55"><path d="M2253 366 L2575 366" stroke-width="22"/></g><g data-class="lineDash" class="lineDash" data-related="#b7kleem"><path d="M2696 366 L3018 366" stroke-width="22"/></g><g data-class="lineDash" class="lineDash" data-related="#c10nzw4g"><path d="M3139 366 L3461 366" stroke-width="22"/></g><g data-class="lineDash" class="lineDash" data-related="#c10nzw4g"><path d="M3139 186 L3461 186" stroke-width="22"/></g></g><g data-id="w199d8nw" data-class="layer" class="layer"><g data-id="x1dcwsr" data-class="note" class="note"><g data-class="notehead" class="notehead"><use href="#E0A3-wwdwy60" transform="translate(825, 546) scale(0.72, 0.72)"/></g><g data-id="t1wk7jrs" data-class="stem" class="stem"><path d="M834 571 L834 1446" stroke-width="18"/></g></g><g data-id="yklsoe6" data-class="beam" class="beam"><polygon points="1858,1626 3205,1446 3205,1356 1858,1536"/><g data-id="z1tnv970" data-class="note" class="note"><g data-class="notehead" class="notehead"><use href="#E0A4-wwdwy60" transform="translate(1858, 456) scale(0.72, 0.72)"/></g><g data-id="ujxnrc6" data-class="stem" class="stem"><path d="M1867 484 L1867 1608" stroke-width="18"/></g></g><g data-id="a2uls55" data-class="note" class="note"><g data-class="notehead" class="notehead"><use href="#E0A4-wwdwy60" transform="translate(2301, 276) scale(0.72, 0.72)"/></g><g data-id="v1qvhi0s" data-class="stem" class="stem"><path d="M2310 304 L2310 1548" stroke-width="18"/></g></g><g data-id="b7kleem" data-class="note" class="note"><g data-class="notehead" class="notehead"><use href="#E0A4-wwdwy60" transform="translate(2744, 366) scale(0.72, 0.72)"/></g><g data-id="wijf69c" data-class="stem" class="stem"><path d="M2753 394 L2753 1488" stroke-width="18"/></g></g><g data-id="c10nzw4g" data-class="note" class="note"><g data-class="notehead" class="notehead"><use href="#E0A4-wwdwy60" transform="translate(3187, 186) scale(0.72, 0.72)"/></g><g data-id="x1locp0d" data-class="stem" class="stem"><path d="M3196 214 L3196 1428" stroke-width="18"/></g></g></g></g></g><g data-id="u2gtl5v" data-class="barLine" class="barLine"><path d="M3630 1086 L3630 1806" stroke-width="27"/></g></g><g data-id="d1n7vhis" data-class="measure" class="measure"><g data-id="mkzkzqk" data-class="staff" class="staff"><path d="M3643 1086 L5500 1086" stroke-width="13"/><path d="M3643 1266 L5500 1266" stroke-width="13"/><path d="M3643 1446 L5500 1446" stroke-width="13"/><path d="M3643 1626 L5500 1626" stroke-width="13"/><path d="M3643 1806 L5500 1806" stroke-width="13"/><g data-class="ledgerLines" class="ledgerLines above"><g data-class="lineDash" class="lineDash" data-related="#oeb6mlo"><path d="M3775 906 L4161 906" stroke-width="22"/></g><g data-class="lineDash" class="lineDash" data-related="#oeb6mlo"><path d="M3775 726 L4161 726" stroke-width="22"/></g><g data-class="lineDash" class="lineDash" data-related="#oeb6mlo"><path d="M3775 546 L4161 546" stroke-width="22"/></g><g data-class="lineDash" class="lineDash" data-related="#oeb6mlo"><path d="M3775 366 L4161 366" stroke-width="22"/></g><g data-class="lineDash" class="lineDash" data-related="#oeb6mlo"><path d="M3775 186 L4161 186" stroke-width="22"/></g></g><g data-id="n1ee1sho" data-class="layer" class="layer"><g data-id="oeb6mlo" data-class="note" class="note"><g data-class="notehead" class="notehead"><use href="#E0A2-wwdwy60" transform="translate(3823, 96) scale(0.72, 0.72)"/></g></g></g></g><g data-id="lgw3x8v" data-class="barLine" class="barLine"><path d="M5388 1086 L5388 1806" stroke-width="27"/><path d="M5487 1086 L5487 1806" stroke-width="27"/></g></g><g data-id="pk22qwn" data-class="measure" class="measure"><g data-id="ypndpj8" data-class="staff" class="staff"><path d="M5500 1086 L8498 1086" stroke-width="13"/><path d="M5500 1266 L8498 1266" stroke-width="13"/><path d="M5500 1446 L8498 1446" stroke-width="13"/><path d="M5500 1626 L8498 1626" stroke-width="13"/><path d="M5500 1806 L8498 1806" stroke-width="13"/><g data-class="ledgerLines" class="ledgerLines above"><g data-class="lineDash" class="lineDash" data-related="#d1rsuy6k"><path d="M7108 906 L7430 906" stroke-width="22"/></g><g data-class="lineDash" class="lineDash" data-related="#fjeykzq"><path d="M7994 906 L8316 906" stroke-width="22"/></g></g><g data-id="z86z54g" data-class="layer" class="layer"><g data-id="n1" data-class="note" class="note"><g data-class="notehead" class="notehead"><use href="#E0A3-wwdwy60" transform="translate(5680, 1176) scale(0.72, 0.72)"/></g><g data-id="zrah7r3" data-class="stem" class="stem"><path d="M5689 1201 L5689 1806" stroke-width="18"/></g></g><g data-id="b165ehmw" data-class="beam" class="beam"><polygon points="6713,1716 8060,1536 8060,1446 6713,1626"/><g data-id="cl07slv" data-class="note" class="note"><g data-class="notehead" class="notehead"><use href="#E0A4-wwdwy60" transform="translate(6713, 1086) scale(0.72, 0.72)"/></g><g data-id="ak4zx2u" data-class="stem" class="stem"><path d="M6722 1114 L6722 1698" stroke-width="18"/></g></g><g data-id="d1rsuy6k" data-class="note" class="note"><g data-class="notehead" class="notehead"><use href="#E0A4-wwdwy60" transform="translate(7156, 906) scale(0.72, 0.72)"/></g><g data-id="b18qwzws" data-class="stem" class="stem"><path d="M7165 934 L7165 1638" stroke-width="18"/></g></g><g data-id="e1p5w7zl" data-class="note" class="note"><g data-class="notehead" class="notehead"><use href="#E0A4-wwdwy60" transform="translate(7599, 996) scale(0.72, 0.72)"/></g><g data-id="ctzpjm2" data-class="stem" class="stem"><path d="M7608 1024 L7608 1578" stroke-width="18"/></g></g><g data-id="fjeykzq" data-class="note" class="note"><g data-class="notehead" class="notehead"><use href="#E0A4-wwdwy60" transform="translate(8042, 816) scale(0.72, 0.72)"/></g><g data-id="dv7qjxv" data-class="stem" class="stem"><path d="M8051 844 L8051 1518" stroke-width="18"/></g></g></g></g></g><g data-id="g508v5f" data-class="octave" class="octave"><use href="#E510-wwdwy60" transform="translate(5601, 761) scale(0.72, 0.72)"/><path d="M5811 531 L9114 531" stroke-width="18" stroke-linecap="square" stroke-dasharray="36 72"/><polyline stroke-width="18" fill="none" points="9114,711 9114,531 9024,531 "/></g><g data-id="xzpd6zw" data-class="barLine" class="barLine"><path d="M8485 1086 L8485 1806" stroke-width="27"/></g></g><g data-id="hd6m0lf" data-class="measure" class="measure"><g data-id="q1xjvt15" data-class="staff" class="staff"><path d="M8498 1086 L10355 1086" stroke-width="13"/><path d="M8498 1266 L10355 1266" stroke-width="13"/><path d="M8498 1446 L10355 1446" stroke-width="13"/><path d="M8498 1626 L10355 1626" stroke-width="13"/><path d="M8498 1806 L10355 1806" stroke-width="13"/><g data-class="ledgerLines" class="ledgerLines above"><g data-class="lineDash" class="lineDash" data-related="#n2"><path d="M8630 906 L9016 906" stroke-width="22"/></g><g data-class="lineDash" class="lineDash" data-related="#n2"><path d="M8630 726 L9016 726" stroke-width="22"/></g></g><g data-id="r7jfbcm" data-class="layer" class="layer"><g data-id="n2" data-class="note" class="note"><g data-class="notehead" class="notehead"><use href="#E0A2-wwdwy60" transform="translate(8678, 726) scale(0.72, 0.72)"/></g></g></g></g><g data-id="pi6h9vk" data-class="barLine" class="barLine"><path d="M10243 1086 L10243 1806" stroke-width="27"/><path d="M10342 1086 L10342 1806" stroke-width="27"/></g></g><g data-id="t1dlydib" data-class="measure" class="measure"><g data-id="c17fpac5" data-class="staff" class="staff"><path d="M10355 1086 L13353 1086" stroke-width="13"/><path d="M10355 1266 L13353 1266" stroke-width="13"/><path d="M10355 1446 L13353 1446" stroke-width="13"/><path d="M10355 1626 L13353 1626" stroke-width="13"/><path d="M10355 1806 L13353 1806" stroke-width="13"/><g data-class="ledgerLines" class="ledgerLines below"><g data-class="lineDash" class="lineDash" data-related="#n3"><path d="M10487 1986 L10809 1986" stroke-width="22"/></g><g data-class="lineDash" class="lineDash" data-related="#g1as6khb"><path d="M11520 1986 L11842 1986" stroke-width="22"/></g><g data-class="lineDash" class="lineDash" data-related="#h1eaesf6"><path d="M11963 1986 L12285 1986" stroke-width="22"/></g><g data-class="lineDash" class="lineDash" data-related="#i1ljjh3t"><path d="M12406 1986 L12728 1986" stroke-width="22"/></g><g data-class="lineDash" class="lineDash" data-related="#j11gmeoe"><path d="M12849 1986 L13171 1986" stroke-width="22"/></g><g data-class="lineDash" class="lineDash" data-related="#n3"><path d="M10487 2166 L10809 2166" stroke-width="22"/></g><g data-class="lineDash" class="lineDash" data-related="#g1as6khb"><path d="M11520 2166 L11842 2166" stroke-width="22"/></g><g data-class="lineDash" class="lineDash" data-related="#h1eaesf6"><path d="M11963 2166 L12285 2166" stroke-width="22"/></g><g data-class="lineDash" class="lineDash" data-related="#i1ljjh3t"><path d="M12406 2166 L12728 2166" stroke-width="22"/></g><g data-class="lineDash" class="lineDash" data-related="#n3"><path d="M10487 2346 L10809 2346" stroke-width="22"/></g><g data-class="lineDash" class="lineDash" data-related="#g1as6khb"><path d="M11520 2346 L11842 2346" stroke-width="22"/></g></g><g data-id="dninyxh" data-class="layer" class="layer"><g data-id="n3" data-class="note" class="note"><g data-class="notehead" class="notehead"><use href="#E0A3-wwdwy60" transform="translate(10535, 2436) scale(0.72, 0.72)"/></g><g data-id="fz2edi1" data-class="stem" class="stem"><path d="M10752 2408 L10752 1446" stroke-width="18"/></g></g><g data-id="f1aq7ntm" data-class="beam" class="beam"><polygon points="11776,1446 13123,1266 13123,1356 11776,1536"/><g data-id="g1as6khb" data-class="note" class="note"><g data-class="notehead" class="notehead"><use href="#E0A4-wwdwy60" transform="translate(11568, 2346) scale(0.72, 0.72)"/></g><g data-id="gm9szzr" data-class="stem" class="stem"><path d="M11785 2318 L11785 1464" stroke-width="18"/></g></g><g data-id="h1eaesf6" data-class="note" class="note"><g data-class="notehead" class="notehead"><use href="#E0A4-wwdwy60" transform="translate(12011, 2166) scale(0.72, 0.72)"/></g><g data-id="hnpj67q" data-class="stem" class="stem"><path d="M12228 2138 L12228 1404" stroke-width="18"/></g></g><g data-id="i1ljjh3t" data-class="note" class="note"><g data-class="notehead" class="notehead"><use href="#E0A4-wwdwy60" transform="translate(12454, 2256) scale(0.72, 0.72)"/></g><g data-id="i1bxkhct" data-class="stem" class="stem"><path d="M12671 2228 L12671 1344" stroke-width="18"/></g></g><g data-id="j11gmeoe" data-class="note" class="note"><g data-class="notehead" class="notehead"><use href="#E0A4-wwdwy60" transform="translate(12897, 2076) scale(0.72, 0.72)"/></g><g data-id="jljhk3h" data-class="stem" class="stem"><path d="M13114 2048 L13114 1284" stroke-width="18"/></g></g></g></g></g><g data-id="k1kli9ku" data-class="octave" class="octave"><use href="#E510-wwdwy60" transform="translate(10456, 2859) scale(0.72, 0.72)"/><path d="M10666 2850 L13340 2850" stroke-width="18" stroke-linecap="square" stroke-dasharray="36 72"/></g><g data-id="b1ucvywp" data-class="barLine" class="barLine"><path d="M13340 1086 L13340 1806" stroke-width="27"/></g></g></g><g data-id="xbl1ixx" data-class="system" class="system"><g data-id="l12gc4w4" data-class="measure" class="measure"><g data-id="d1cmh44d" data-class="mNum" class="mNum autogenerated"><text y="3516" text-anchor="middle" font-size="0px"><tspan data-id="e1bv8crk" data-class="text" class="text"><tspan font-size="324px">6</tspan></tspan></text></g><g data-id="u1mdoj2g" data-class="staff" class="staff"><path d="M0 3759 L2748 3759" stroke-width="13"/><path d="M0 3939 L2748 3939" stroke-width="13"/><path d="M0 4119 L2748 4119" stroke-width="13"/><path d="M0 4299 L2748 4299" stroke-width="13"/><path d="M0 4479 L2748 4479" stroke-width="13"/><g data-id="vrrzhcw" data-class="clef" class="clef"><use href="#E050-wwdwy60" transform="translate(90, 4299) scale(0.72, 0.72)"/></g><g data-id="w1e9wj76" data-class="keySig" class="keySig"/><g data-class="ledgerLines" class="ledgerLines below"><g data-class="lineDash" class="lineDash" data-related="#n4"><path d="M777 4659 L1163 4659" stroke-width="22"/></g></g><g data-id="v6t6q2i" data-class="layer" class="layer"><g data-id="n4" data-class="note" class="note"><g data-class="notehead" class="notehead"><use href="#E0A2-wwdwy60" transform="translate(825, 4659) scale(0.72, 0.72)"/></g></g></g></g><g data-id="t19acb4v" data-class="barLine" class="barLine"><path d="M2636 3759 L2636 4479" stroke-width="27"/><path d="M2735 3759 L2735 4479" stroke-width="27"/></g></g><g data-id="xa7k5h6" data-class="measure" class="measure"><g data-id="g1hu9lbw" data-class="staff" class="staff"><path d="M2748 3759 L6185 3759" stroke-width="13"/><path d="M2748 3939 L6185 3939" stroke-width="13"/><path d="M2748 4119 L6185 4119" stroke-width="13"/><path d="M2748 4299 L6185 4299" stroke-width="13"/><path d="M2748 4479 L6185 4479" stroke-width="13"/><g data-id="h1ukmbe3" data-class="layer" class="layer"><g data-id="n5" data-class="note" class="note"><g data-class="notehead" class="notehead"><use href="#E0A3-wwdwy60" transform="translate(2928, 4479) scale(0.72, 0.72)"/></g><g data-id="l1qewent" data-class="stem" class="stem"><path d="M3145 4451 L3145 3849" stroke-width="18"/></g></g><g data-id="j13vfjri" data-class="beam" class="beam"><polygon points="4332,3714 5886,3534 5886,3624 4332,3804"/><g data-id="kj2gywk" data-class="note" class="note"><g data-class="notehead" class="notehead"><use href="#E0A4-wwdwy60" transform="translate(4124, 4389) scale(0.72, 0.72)"/></g><g data-id="m17dty7v" data-class="stem" class="stem"><path d="M4341 4361 L4341 3732" stroke-width="18"/></g></g><g data-id="l93l3ac" data-class="note" class="note"><g data-class="notehead" class="notehead"><use href="#E0A4-wwdwy60" transform="translate(4636, 4209) scale(0.72, 0.72)"/></g><g data-id="n1oknnhq" data-class="stem" class="stem"><path d="M4853 4181 L4853 3672" stroke-width="18"/></g></g><g data-id="m1xf9a5h" data-class="note" class="note"><g data-class="notehead" class="notehead"><use href="#E0A4-wwdwy60" transform="translate(5148, 4299) scale(0.72, 0.72)"/></g><g data-id="o7vn8zg" data-class="stem" class="stem"><path d="M5365 4271 L5365 3612" stroke-width="18"/></g></g><g data-id="n10en7wu" data-class="note" class="note"><g data-class="notehead" class="notehead"><use href="#E0A4-wwdwy60" transform="translate(5660, 4119) scale(0.72, 0.72)"/></g><g data-id="pgot6w0" data-class="stem" class="stem"><path d="M5877 4091 L5877 3552" stroke-width="18"/></g></g></g></g></g><g data-id="o1bwrfat" data-class="octave" class="octave"><use href="#E514-wwdwy60" transform="translate(2734, 4895) scale(0.72, 0.72)"/><path d="M3059 4886 L7723 4886" stroke-width="18" stroke-linecap="square" stroke-dasharray="36 72"/><polyline stroke-width="18" fill="none" points="7723,4706 7723,4886 7633,4886 "/></g><g data-id="f1thomvf" data-class="barLine" class="barLine"><path d="M6172 3759 L6172 4479" stroke-width="27"/></g></g><g data-id="p1fxllod" data-class="measure" class="measure"><g data-id="y1wfcrq1" data-class="staff" class="staff"><path d="M6185 3759 L8288 3759" stroke-width="13"/><path d="M6185 3939 L8288 3939" stroke-width="13"/><path d="M6185 4119 L8288 4119" stroke-width="13"/><path d="M6185 4299 L8288 4299" stroke-width="13"/><path d="M6185 4479 L8288 4479" stroke-width="13"/><g data-id="z1fqq1qf" data-class="layer" class="layer"><g data-id="n6" data-class="note" class="note"><g data-class="notehead" class="notehead"><use href="#E0A2-wwdwy60" transform="translate(6365, 4029) scale(0.72, 0.72)"/></g></g></g></g><g data-id="xm1b565" data-class="barLine" class="barLine"><path d="M8176 3759 L8176 4479" stroke-width="27"/><path d="M8275 3759 L8275 4479" stroke-width="27"/></g></g><g data-id="b1lhhptf" data-class="measure" class="measure"><g data-id="kh83ipp" data-class="staff" class="staff"><path d="M8288 3759 L11725 3759" stroke-width="13"/><path d="M8288 3939 L11725 3939" stroke-width="13"/><path d="M8288 4119 L11725 4119" stroke-width="13"/><path d="M8288 4299 L11725 4299" stroke-width="13"/><path d="M8288 4479 L11725 4479" stroke-width="13"/><g data-class="ledgerLines" class="ledgerLines below"><g data-class="lineDash" class="lineDash" data-related="#n7"><path d="M8420 4659 L8742 4659" stroke-width="22"/></g><g data-class="lineDash" class="lineDash" data-related="#o1tvpfae"><path d="M9616 4659 L9938 4659" stroke-width="22"/></g><g data-class="lineDash" class="lineDash" data-related="#p1ql7tel"><path d="M10128 4659 L10450 4659" stroke-width="22"/></g><g data-class="lineDash" class="lineDash" data-related="#q1vgpwo"><path d="M10640 4659 L10962 4659" stroke-width="22"/></g><g data-class="lineDash" class="lineDash" data-related="#rk2gp4o"><path d="M11152 4659 L11474 4659" stroke-width="22"/></g><g data-class="lineDash" class="lineDash" data-related="#n7"><path d="M8420 4839 L8742 4839" stroke-width="22"/></g><g data-class="lineDash" class="lineDash" data-related="#o1tvpfae"><path d="M9616 4839 L9938 4839" stroke-width="22"/></g><g data-class="lineDash" class="lineDash" data-related="#p1ql7tel"><path d="M10128 4839 L10450 4839" stroke-width="22"/></g><g data-class="lineDash" class="lineDash" data-related="#q1vgpwo"><path d="M10640 4839 L10962 4839" stroke-width="22"/></g><g data-class="lineDash" class="lineDash" data-related="#n7"><path d="M8420 5019 L8742 5019" stroke-width="22"/></g><g data-class="lineDash" class="lineDash" data-related="#o1tvpfae"><path d="M9616 5019 L9938 5019" stroke-width="22"/></g></g><g data-id="lfhzfqr" data-class="layer" class="layer"><g data-id="n7" data-class="note" class="note"><g data-class="notehead" class="notehead"><use href="#E0A3-wwdwy60" transform="translate(8468, 5109) scale(0.72, 0.72)"/></g><g data-id="r8l7ay4" data-class="stem" class="stem"><path d="M8685 5081 L8685 4119" stroke-width="18"/></g></g><g data-id="ndsxb2r" data-class="beam" class="beam"><polygon points="9872,4119 11426,3939 11426,4029 9872,4209"/><g data-id="o1tvpfae" data-class="note" class="note"><g data-class="notehead" class="notehead"><use href="#E0A4-wwdwy60" transform="translate(9664, 5019) scale(0.72, 0.72)"/></g><g data-id="sth07vb" data-class="stem" class="stem"><path d="M9881 4991 L9881 4137" stroke-width="18"/></g></g><g data-id="p1ql7tel" data-class="note" class="note"><g data-class="notehead" class="notehead"><use href="#E0A4-wwdwy60" transform="translate(10176, 4839) scale(0.72, 0.72)"/></g><g data-id="t1vljmyk" data-class="stem" class="stem"><path d="M10393 4811 L10393 4077" stroke-width="18"/></g></g><g data-id="q1vgpwo" data-class="note" class="note"><g data-class="notehead" class="notehead"><use href="#E0A4-wwdwy60" transform="translate(10688, 4929) scale(0.72, 0.72)"/></g><g data-id="u6s8mnd" data-class="stem" class="stem"><path d="M10905 4901 L10905 4017" stroke-width="18"/></g></g><g data-id="rk2gp4o" data-class="note" class="note"><g data-class="notehead" class="notehead"><use href="#E0A4-wwdwy60" transform="translate(11200, 4749) scale(0.72, 0.72)"/></g><g data-id="v9p2ghw" data-class="stem" class="stem"><path d="M11417 4721 L11417 3957" stroke-width="18"/></g></g></g></g></g><g data-id="s16yuo68" data-class="octave" class="octave"><use href="#E510-wwdwy60" transform="translate(8389, 5532) scale(0.72, 0.72)"/><path d="M8626 5510 L12341 5510" stroke-width="45" stroke-linecap="square" stroke-dasharray="90 180"/><polyline stroke-width="45" fill="none" points="12341,5330 12341,5510 12251,5510 "/></g><g data-id="j1uxjxb0" data-class="barLine" class="barLine"><path d="M11712 3759 L11712 4479" stroke-width="27"/></g></g><g data-id="t6bbyzq" data-class="measure" class="measure"><g data-id="cuawkh4" data-class="staff" class="staff"><path d="M11725 3759 L13828 3759" stroke-width="13"/><path d="M11725 3939 L13828 3939" stroke-width="13"/><path d="M11725 4119 L13828 4119" stroke-width="13"/><path d="M11725 4299 L13828 4299" stroke-width="13"/><path d="M11725 4479 L13828 4479" stroke-width="13"/><g data-class="ledgerLines" class="ledgerLines below"><g data-class="lineDash" class="lineDash" data-related="#n8"><path d="M11857 4659 L12243 4659" stroke-width="22"/></g></g><g data-id="dgs3ly8" data-class="layer" class="layer"><g data-id="n8" data-class="note" class="note"><g data-class="notehead" class="notehead"><use href="#E0A2-wwdwy60" transform="translate(11905, 4659) scale(0.72, 0.72)"/></g></g></g></g><g data-id="b1y8cm9j" data-class="barLine" class="barLine"><path d="M13716 3759 L13716 4479" stroke-width="27"/><path d="M13815 3759 L13815 4479" stroke-width="27"/></g></g><g data-id="k1kli9ku" data-class="octave" class="octave id-k1kli9ku spanning"><use href="#E510-wwdwy60" transform="translate(680, 5082) scale(0.72, 0.72)"/><use href="#E51A-wwdwy60" transform="translate(598, 5082) scale(0.72, 0.72)"/><use href="#E51B-wwdwy60" transform="translate(871, 5082) scale(0.72, 0.72)"/><path d="M972 5073 L1261 5073" stroke-width="18" stroke-linecap="square" stroke-dasharray="36 72"/><polyline stroke-width="18" fill="none" points="1261,4893 1261,5073 1171,5073 "/></g></g><g data-id="a5iauty" data-class="system" class="system"><g data-id="fhf5eg9" data-class="measure" class="measure"><g data-id="n1al6my1" data-class="mNum" class="mNum autogenerated"><text y="6190" text-anchor="middle" font-size="0px"><tspan data-id="oro99ne" data-class="text" class="text"><tspan font-size="324px">11</tspan></tspan></text></g><g data-id="o192r9nz" data-class="staff" class="staff"><path d="M0 6433 L4082 6433" stroke-width="13"/><path d="M0 6613 L4082 6613" stroke-width="13"/><path d="M0 6793 L4082 6793" stroke-width="13"/><path d="M0 6973 L4082 6973" stroke-width="13"/><path d="M0 7153 L4082 7153" stroke-width="13"/><g data-id="t11ebfej" data-class="clef" class="clef"><use href="#E050-wwdwy60" transform="translate(90, 6973) scale(0.72, 0.72)"/></g><g data-id="u1pegl4v" data-class="keySig" class="keySig"/><g data-class="ledgerLines" class="ledgerLines below"><g data-class="lineDash" class="lineDash" data-related="#n9"><path d="M777 7333 L1099 7333" stroke-width="22"/></g><g data-class="lineDash" class="lineDash" data-related="#sn2m5z7"><path d="M1973 7333 L2295 7333" stroke-width="22"/></g><g data-class="lineDash" class="lineDash" data-related="#t18mjuau"><path d="M2485 7333 L2807 7333" stroke-width="22"/></g><g data-class="lineDash" class="lineDash" data-related="#uoljaql"><path d="M2997 7333 L3319 7333" stroke-width="22"/></g><g data-class="lineDash" class="lineDash" data-related="#v1idugwj"><path d="M3509 7333 L3831 7333" stroke-width="22"/></g><g data-class="lineDash" class="lineDash" data-related="#n9"><path d="M777 7513 L1099 7513" stroke-width="22"/></g><g data-class="lineDash" class="lineDash" data-related="#sn2m5z7"><path d="M1973 7513 L2295 7513" stroke-width="22"/></g><g data-class="lineDash" class="lineDash" data-related="#t18mjuau"><path d="M2485 7513 L2807 7513" stroke-width="22"/></g><g data-class="lineDash" class="lineDash" data-related="#uoljaql"><path d="M2997 7513 L3319 7513" stroke-width="22"/></g><g data-class="lineDash" class="lineDash" data-related="#n9"><path d="M777 7693 L1099 7693" stroke-width="22"/></g><g data-class="lineDash" class="lineDash" data-related="#sn2m5z7"><path d="M1973 7693 L2295 7693" stroke-width="22"/></g></g><g data-id="pgqaysu" data-class="layer" class="layer"><g data-id="n9" data-class="note" class="note"><g data-class="notehead" class="notehead"><use href="#E0A3-wwdwy60" transform="translate(825, 7783) scale(0.72, 0.72)"/></g><g data-id="x1c0epke" data-class="stem" class="stem"><path d="M1042 7755 L1042 6793" stroke-width="18"/></g></g><g data-id="rvhrhtm" data-class="beam" class="beam"><polygon points="2229,6793 3783,6613 3783,6703 2229,6883"/><g data-id="sn2m5z7" data-class="note" class="note"><g data-class="notehead" class="notehead"><use href="#E0A4-wwdwy60" transform="translate(2021, 7693) scale(0.72, 0.72)"/></g><g data-id="yumwwvl" data-class="stem" class="stem"><path d="M2238 7665 L2238 6811" stroke-width="18"/></g></g><g data-id="t18mjuau" data-class="note" class="note"><g data-class="notehead" class="notehead"><use href="#E0A4-wwdwy60" transform="translate(2533, 7513) scale(0.72, 0.72)"/></g><g data-id="zm721ie" data-class="stem" class="stem"><path d="M2750 7485 L2750 6751" stroke-width="18"/></g></g><g data-id="uoljaql" data-class="note" class="note"><g data-class="notehead" class="notehead"><use href="#E0A4-wwdwy60" transform="translate(3045, 7603) scale(0.72, 0.72)"/></g><g data-id="a170fqi6" data-class="stem" class="stem"><path d="M3262 7575 L3262 6691" stroke-width="18"/></g></g><g data-id="v1idugwj" data-class="note" class="note"><g data-class="notehead" class="notehead"><use href="#E0A4-wwdwy60" transform="translate(3557, 7423) scale(0.72, 0.72)"/></g><g data-id="b5kglvn" data-class="stem" class="stem"><path d="M3774 7395 L3774 6631" stroke-width="18"/></g></g></g></g></g><g data-id="w1c0qbv" data-class="octave" class="octave"><use href="#E510-wwdwy60" transform="translate(746, 6343) scale(0.72, 0.72)"/><path d="M956 6113 L5620 6113" stroke-width="18" stroke-linecap="square"/><polyline stroke-width="18" fill="none" points="5620,6293 5620,6113 5530,6113 "/></g><g data-id="ns81qyd" data-class="barLine" class="barLine"><path d="M4069 6433 L4069 7153" stroke-width="27"/></g></g><g data-id="x8t69t3" data-class="measure" class="measure"><g data-id="g1iwlnth" data-class="staff" class="staff"><path d="M4082 6433 L6185 6433" stroke-width="13"/><path d="M4082 6613 L6185 6613" stroke-width="13"/><path d="M4082 6793 L6185 6793" stroke-width="13"/><path d="M4082 6973 L6185 6973" stroke-width="13"/><path d="M4082 7153 L6185 7153" stroke-width="13"/><g data-class="ledgerLines" class="ledgerLines below"><g data-class="lineDash" class="lineDash" data-related="#i7coa7m"><path d="M4214 7333 L4600 7333" stroke-width="22"/></g></g><g data-id="h97tkzh" data-class="layer" class="layer"><g data-id="i7coa7m" data-class="note" class="note"><g data-class="notehead" class="notehead"><use href="#E0A2-wwdwy60" transform="translate(4262, 7333) scale(0.72, 0.72)"/></g></g></g></g><g data-id="f10qx61t" data-class="barLine" class="barLine"><path d="M6073 6433 L6073 7153" stroke-width="27"/><path d="M6172 6433 L6172 7153" stroke-width="27"/></g></g><g data-id="q1a7qykt" data-class="systemMilestoneEnd" class="systemMilestoneEnd l19lvnop"/></g><g data-id="r1cmljby" data-class="pageMilestoneEnd" class="pageMilestoneEnd yppk5m"/><g data-id="s19hf0v9" data-class="pageMilestoneEnd" class="pageMilestoneEnd xv1nmw3"/></g></svg></svg>